<svg xmlns="http://www.w3.org/2000/svg" width="24" height="24" viewBox="0 0 24 24" fill="none" stroke="currentColor" stroke-width="1.6" stroke-linecap="round" stroke-linejoin="round"><circle cx="12" cy="12" r="3"/><path d="M19.4 15a1.7 1.7 0 0 0 .34 1.87l.06.06a2 2 0 1 1-2.83 2.83l-.06-.06a1.7 1.7 0 0 0-1.87-.34 1.7 1.7 0 0 0-1.04 1.56V21a2 2 0 1 1-4 0v-.09A1.7 1.7 0 0 0 9 19.4a1.7 1.7 0 0 0-1.87.34l-.06.06a2 2 0 1 1-2.83-2.83l.06-.06A1.7 1.7 0 0 0 4.64 15 1.7 1.7 0 0 0 3.08 14H3a2 2 0 1 1 0-4h.09A1.7 1.7 0 0 0 4.64 9 1.7 1.7 0 0 0 4.3 7.13l-.06-.06a2 2 0 1 1 2.83-2.83l.06.06A1.7 1.7 0 0 0 9 4.64 1.7 1.7 0 0 0 10 3.08V3a2 2 0 1 1 4 0v.09A1.7 1.7 0 0 0 15 4.64a1.7 1.7 0 0 0 1.87-.34l.06-.06a2 2 0 1 1 2.83 2.83l-.06.06A1.7 1.7 0 0 0 19.4 9c.28.64.94 1.07 1.65 1h.05a2 2 0 1 1 0 4h-.09a1.7 1.7 0 0 0-1.56 1Z"/></svg>
