<?xml version="1.0" encoding="UTF-8"?>
<svg version="1.1" xmlns="http://www.w3.org/2000/svg" width="512" height="512">
<path d="M0 0 C0.93164537 -0.00779995 1.86329075 -0.01559991 2.8231678 -0.02363622 C5.95266094 -0.0436192 9.08094653 -0.02776668 12.21044922 -0.01205444 C14.45083325 -0.01882774 16.69121172 -0.02772924 18.93157959 -0.03860474 C25.02246445 -0.06143862 31.11292683 -0.05254459 37.20381927 -0.03670931 C43.57078714 -0.02407162 49.93771825 -0.03578449 56.3046875 -0.04364014 C67.68337306 -0.05332636 79.06184362 -0.03776463 90.44048619 -0.01234345 C100.75908493 0.00999571 111.07740243 0.00611566 121.39599609 -0.01693726 C133.37635771 -0.04369018 145.35654843 -0.05365751 157.3369503 -0.03887594 C163.67963796 -0.03107105 170.02213184 -0.03006851 176.36480713 -0.04655838 C182.32718489 -0.06097609 188.2890303 -0.0510302 194.2513504 -0.0220871 C196.44274256 -0.01546192 198.63417934 -0.01739823 200.82555389 -0.02840042 C203.81107022 -0.04201052 206.79486747 -0.02499452 209.78027344 0 C210.6530298 -0.01115361 211.52578617 -0.02230722 212.4249897 -0.03379881 C218.28463941 0.06173866 218.28463941 0.06173866 221.42775726 3.03709602 C222.91345683 5.67634488 223.39482165 7.08169227 223.40771484 10.07046509 C223.42032349 10.91484131 223.43293213 11.75921753 223.44592285 12.62918091 C223.43377747 13.97780212 223.43377747 13.97780212 223.42138672 15.35366821 C223.42521362 16.28916504 223.42904053 17.22466187 223.4329834 18.18850708 C223.43569959 20.1620288 223.42835891 22.1355867 223.41162109 24.10903931 C223.39020718 27.12499466 223.41143256 30.13856795 223.43701172 33.15444946 C223.43436839 35.07502762 223.42924331 36.9956043 223.42138672 38.91616821 C223.42948364 39.81524902 223.43758057 40.71432983 223.44592285 41.64065552 C223.38342157 45.82624422 223.24991133 48.06082546 220.98193359 51.67984009 C217.70393193 54.74359328 215.8394732 54.75570419 211.44482422 54.73257446 C209.83027344 54.72774048 209.83027344 54.72774048 208.18310547 54.72280884 C207.05517578 54.71442993 205.92724609 54.70605103 204.76513672 54.69741821 C203.62947266 54.69290649 202.49380859 54.68839478 201.32373047 54.68374634 C198.51251025 54.67193449 195.701317 54.65399862 192.89013672 54.63491821 C192.89013672 61.56491821 192.89013672 68.49491821 192.89013672 75.63491821 C197.69318359 75.56530884 197.69318359 75.56530884 202.59326172 75.49429321 C205.69431981 75.46309872 208.79536043 75.43881026 211.89648438 75.41519165 C214.05183739 75.39507545 216.20713582 75.36777896 218.36230469 75.3331604 C221.46026067 75.28464336 224.55749518 75.26194948 227.65576172 75.24429321 C228.61943665 75.22364807 229.58311157 75.20300293 230.57598877 75.18173218 C237.27220051 75.17948588 237.27220051 75.17948588 240.46728516 77.53433228 C242.5606316 80.62478402 243.01397865 82.2995053 243.00366211 85.99282837 C243.00358658 86.89361115 243.00351105 87.79439392 243.00343323 88.72247314 C242.99827194 89.69647064 242.99311066 90.67046814 242.98779297 91.67398071 C242.98567055 93.1679689 242.98567055 93.1679689 242.98350525 94.69213867 C242.97789608 97.88142874 242.96534201 101.07064927 242.95263672 104.25991821 C242.9476229 106.41877137 242.94305979 108.57762562 242.93896484 110.73648071 C242.92792367 116.03598371 242.91117659 121.33544599 242.89013672 126.63491821 C243.88350037 126.62381516 244.87686401 126.6127121 245.90032959 126.60127258 C255.25844957 126.49994685 264.61645837 126.42497712 273.97500229 126.37585735 C278.78646442 126.34975525 283.597484 126.31434619 288.40869141 126.25772095 C293.05119428 126.20342275 297.69327131 126.1735023 302.3360672 126.160532 C304.10796057 126.15128813 305.87983043 126.13323681 307.65154266 126.10626793 C310.13230375 126.07000532 312.61130199 126.06497148 315.09228516 126.06729126 C315.82596313 126.04931488 316.55964111 126.0313385 317.31555176 126.01281738 C320.6022056 126.04610532 322.50111584 126.3188148 325.07827377 128.41291428 C327.87946573 133.39422456 327.44097428 138.16532568 327.39807129 143.78825378 C327.40743123 145.65865378 327.40743123 145.65865378 327.41698027 147.56683964 C327.43368467 151.02544697 327.42542257 154.48361304 327.41303539 157.942222 C327.40399172 161.67301897 327.41795114 165.40373963 327.42895508 169.13452148 C327.44675173 176.44183568 327.44289541 183.74898565 327.43130451 191.05630631 C327.42227565 196.99390541 327.42104382 202.93145843 327.42539978 208.86906242 C327.42601271 209.71371526 327.42662564 210.5583681 327.42725715 211.42861648 C327.42853603 213.14443089 327.42983288 214.8602453 327.43114752 216.57605969 C327.44255649 232.66899276 327.42943428 248.76183471 327.40794605 264.85475283 C327.39007153 278.66913417 327.39318146 292.48338109 327.41162109 306.29776001 C327.43301663 322.33415073 327.44146124 338.37046159 327.42917204 354.40686458 C327.42789782 356.1161063 327.42664034 357.82534803 327.42539978 359.53458977 C327.42447413 360.79611353 327.42447413 360.79611353 327.42352977 362.08312263 C327.42007316 368.01545716 327.42591185 373.94774112 327.43531799 379.88006783 C327.4465246 387.10686482 327.44352612 394.33348799 327.42219502 401.56026501 C327.41166692 405.248903 327.40759242 408.93725093 327.42079163 412.62588692 C327.43486903 416.62027818 327.41808516 420.61419222 327.39807129 424.60856628 C327.41145562 426.36608218 327.41145562 426.36608218 327.42511034 428.15910345 C327.40946386 429.76007798 327.40946386 429.76007798 327.39350128 431.39339542 C327.39285187 432.31568379 327.39220246 433.23797215 327.39153337 434.18820864 C326.73494868 437.39220302 325.37254438 438.57776067 322.89013672 440.63491821 C319.93203196 442.11397059 316.93542122 441.75682724 313.69482422 441.73257446 C312.98738068 441.73115952 312.27993713 441.72974457 311.55105591 441.72828674 C309.28904003 441.72268422 307.02712273 441.71013139 304.76513672 441.69741821 C303.23258606 441.69240353 301.70003386 441.68784057 300.16748047 441.68374634 C296.40832784 441.67271398 292.649249 441.65544773 288.89013672 441.63491821 C288.93654297 442.76929321 288.98294922 443.90366821 289.03076172 445.07241821 C289.51787578 461.71179156 289.51787578 461.71179156 283.05419922 468.58804321 C276.84158052 474.44361486 271.29194204 475.94498307 262.79272461 475.84268188 C262.00329971 475.84148346 261.21387482 475.84028503 260.40052795 475.83905029 C258.69488907 475.83591203 256.98925377 475.82862726 255.28364754 475.81761742 C252.58009239 475.80270661 249.87702949 475.8043805 247.17344666 475.81126404 C239.48973979 475.83005331 231.80641897 475.83651197 224.12280273 475.78945923 C219.41469345 475.76182452 214.70766224 475.76822279 209.99957085 475.79647255 C208.21067213 475.80072359 206.4216951 475.79229896 204.63292122 475.77074242 C195.16330264 475.30235401 195.16330264 475.30235401 186.443573 478.14337158 C184.65916991 479.90992313 184.65916991 479.90992313 183.45774841 481.83995056 C180.31128335 485.44275795 176.65007763 486.465668 172.04154301 486.90886211 C168.48125054 487.03329269 164.93331711 487.0515849 161.37084961 487.03897095 C160.00349878 487.04468007 158.63615271 487.05164642 157.26881409 487.05976868 C153.57039309 487.0776555 149.87220994 487.07654023 146.17375875 487.07082629 C143.07991066 487.06772794 139.98610784 487.07383406 136.89226621 487.07986504 C129.59049242 487.09389393 122.28883567 487.09236263 114.98706055 487.08096313 C107.46783025 487.06948316 99.94895669 487.08355907 92.42977339 487.11035961 C85.96074549 487.13254916 79.49182929 487.13914669 73.02276605 487.1332832 C69.16490694 487.12992021 65.30727646 487.13228461 61.44944954 487.14953423 C57.82049954 487.1650535 54.19207616 487.16099343 50.56314659 487.14222908 C48.60619654 487.13681365 46.64922256 487.15101932 44.69232178 487.16592407 C37.94120577 487.1096059 32.39819741 486.823343 26.89013672 482.63491821 C25.87115915 481.58640102 24.87244925 480.51779624 23.89523315 479.43025208 C21.44641526 476.81578296 20.91586198 476.63994866 17.10940552 475.89561462 C15.67602499 475.86988265 14.24182241 475.87644826 12.80859375 475.90957642 C12.02077515 475.90376556 11.23295654 475.89795471 10.42126465 475.89196777 C7.82940083 475.87921015 5.23966602 475.9078391 2.64794922 475.93569946 C0.83722082 475.93206311 -0.97350377 475.92535749 -2.78421021 475.91572571 C-7.54560602 475.8966723 -12.3062719 475.91066949 -17.06762695 475.93423462 C-24.68032504 475.96863797 -32.29283977 475.96274536 -39.90555191 475.93810081 C-42.55568953 475.93574075 -45.20514236 475.95349104 -47.85519409 475.97337341 C-49.49330652 475.97362174 -51.13141921 475.97322303 -52.76953125 475.97207642 C-53.49810333 475.98293777 -54.22667542 475.99379913 -54.97732544 476.00498962 C-61.01231132 475.97127756 -66.31811001 474.63114533 -71.31689453 471.05679321 C-71.84669922 470.50507446 -72.37650391 469.95335571 -72.92236328 469.38491821 C-73.46505859 468.84351196 -74.00775391 468.30210571 -74.56689453 467.74429321 C-78.88223995 461.84483365 -79.53433286 456.78827701 -79.29736328 449.69741821 C-79.27706055 448.52856079 -79.27706055 448.52856079 -79.25634766 447.33609009 C-79.22136552 445.43539417 -79.16757287 443.53505987 -79.10986328 441.63491821 C-80.05829102 441.64539185 -81.00671875 441.65586548 -81.98388672 441.66665649 C-85.50995319 441.70078529 -89.03584357 441.72583989 -92.56201172 441.74478149 C-94.08677951 441.75482565 -95.61152812 441.76846352 -97.13623047 441.78579712 C-99.33061466 441.81011559 -101.5247437 441.8214171 -103.71923828 441.83023071 C-105.03891602 441.84070435 -106.35859375 441.85117798 -107.71826172 441.86196899 C-110.88547446 441.64993992 -112.55201228 441.44253634 -115.10986328 439.63491821 C-117.31129311 436.33277347 -117.36127433 435.35280512 -117.36713219 431.51644325 C-117.37358108 430.45111795 -117.38002997 429.38579265 -117.38667428 428.28818476 C-117.38357708 427.11359465 -117.38047988 425.93900455 -117.37728882 424.7288208 C-117.38181993 423.48430189 -117.38635104 422.23978297 -117.39101946 420.95755136 C-117.40151506 417.49643383 -117.402985 414.03552354 -117.40063071 410.57440472 C-117.40022341 406.84425037 -117.4112534 403.11412729 -117.42074585 399.38398743 C-117.43737558 392.07343741 -117.44285628 384.76291964 -117.44397061 377.4523523 C-117.44492014 371.51138586 -117.4490257 365.57043008 -117.45537186 359.62946701 C-117.4729896 342.7945682 -117.48220989 325.95969491 -117.48071091 309.12478681 C-117.480631 308.21676298 -117.48055108 307.30873916 -117.48046875 306.37319946 C-117.48038699 305.46407001 -117.48030523 304.55494057 -117.48022099 303.61826174 C-117.47940792 288.88133933 -117.49854935 274.14451908 -117.52674548 259.40762623 C-117.55545274 244.28454385 -117.56928697 229.16151133 -117.56755793 214.03840101 C-117.56689328 205.5444332 -117.57241818 197.05057249 -117.59391403 188.55662918 C-117.61209749 181.32507161 -117.61649662 174.09366968 -117.60289519 166.86209919 C-117.5963511 163.17131428 -117.59629972 159.48082823 -117.61360168 155.79007149 C-117.63215421 151.79148083 -117.6198157 147.79358639 -117.6043396 143.79498291 C-117.61462673 142.62485425 -117.62491385 141.45472558 -117.63551271 140.24913847 C-117.56851484 132.45101553 -117.56851484 132.45101553 -115.29884148 128.41249371 C-112.13688426 125.8448036 -109.20791641 125.97183486 -105.31201172 126.06729126 C-104.53114197 126.06656113 -103.75027222 126.06583099 -102.94573975 126.06507874 C-100.36952794 126.06855703 -97.79513342 126.10742686 -95.21923828 126.14663696 C-93.4313455 126.1559643 -91.64343992 126.16308079 -89.85552979 126.16807556 C-85.15340798 126.18715177 -80.45206038 126.23625769 -75.75024414 126.29159546 C-70.9509529 126.34277466 -66.15153635 126.36558675 -61.35205078 126.39077759 C-51.93764842 126.44437602 -42.52382027 126.52969621 -33.10986328 126.63491821 C-33.11985603 125.80592766 -33.11985603 125.80592766 -33.13005066 124.96018982 C-33.19648811 119.2013532 -33.2416987 113.4426257 -33.2746582 107.6835022 C-33.28973243 105.5350197 -33.31019517 103.38656791 -33.33618164 101.2381897 C-33.37262442 98.14769913 -33.38960347 95.05761591 -33.40283203 91.96694946 C-33.41831589 91.00843582 -33.43379974 90.04992218 -33.44975281 89.06236267 C-33.45099435 84.12804501 -33.42779854 80.59314792 -30.10986328 76.63491821 C-27.75786269 75.45891791 -26.37251927 75.51407281 -23.75195312 75.52139282 C-22.40077896 75.52150612 -22.40077896 75.52150612 -21.02230835 75.5216217 C-20.04831085 75.52678299 -19.07431335 75.53194427 -18.07080078 75.53726196 C-17.07480865 75.53867691 -16.07881653 75.54009186 -15.05264282 75.54154968 C-11.86335275 75.54715885 -8.67413222 75.55971292 -5.48486328 75.57241821 C-3.32601013 75.57743203 -1.16715587 75.58199514 0.99169922 75.58609009 C6.2912269 75.59628149 11.59060373 75.61585514 16.89013672 75.63491821 C16.89013672 68.70491821 16.89013672 61.77491821 16.89013672 54.63491821 C15.21564453 54.68132446 13.54115234 54.72773071 11.81591797 54.77554321 C9.61150873 54.81306507 7.40708019 54.84946479 5.20263672 54.88491821 C4.09984375 54.91843384 2.99705078 54.95194946 1.86083984 54.98648071 C-6.34529799 55.08564854 -6.34529799 55.08564854 -10.31689453 52.74429321 C-12.78615744 49.83927803 -13.23761146 48.26426357 -13.28686523 44.53994751 C-13.30611809 43.27304329 -13.30611809 43.27304329 -13.32575989 41.98054504 C-13.33314682 41.06598038 -13.34053375 40.15141571 -13.34814453 39.20913696 C-13.35621628 38.26939529 -13.36428802 37.32965363 -13.37260437 36.36143494 C-13.38644881 34.37001391 -13.39716935 32.37856912 -13.4050293 30.38711548 C-13.42223608 27.34490854 -13.4661181 24.30378996 -13.51025391 21.26187134 C-13.52038132 19.32763454 -13.52889727 17.3933885 -13.53564453 15.45913696 C-13.55315262 14.55064499 -13.57066071 13.64215302 -13.58869934 12.70613098 C-13.58577377 11.85207169 -13.58284821 10.99801239 -13.57983398 10.11807251 C-13.58570023 9.3713176 -13.59156647 8.62456268 -13.59761047 7.85517883 C-11.88953124 0.07987818 -6.73631264 -0.08608839 0 0 Z " fill="#89C8FC" transform="translate(151.10986328125,12.365081787109375)"/>
<path d="M0 0 C0.93164537 -0.00779995 1.86329075 -0.01559991 2.8231678 -0.02363622 C5.95266094 -0.0436192 9.08094653 -0.02776668 12.21044922 -0.01205444 C14.45083325 -0.01882774 16.69121172 -0.02772924 18.93157959 -0.03860474 C25.02246445 -0.06143862 31.11292683 -0.05254459 37.20381927 -0.03670931 C43.57078714 -0.02407162 49.93771825 -0.03578449 56.3046875 -0.04364014 C67.68337306 -0.05332636 79.06184362 -0.03776463 90.44048619 -0.01234345 C100.75908493 0.00999571 111.07740243 0.00611566 121.39599609 -0.01693726 C133.37635771 -0.04369018 145.35654843 -0.05365751 157.3369503 -0.03887594 C163.67963796 -0.03107105 170.02213184 -0.03006851 176.36480713 -0.04655838 C182.32718489 -0.06097609 188.2890303 -0.0510302 194.2513504 -0.0220871 C196.44274256 -0.01546192 198.63417934 -0.01739823 200.82555389 -0.02840042 C203.81107022 -0.04201052 206.79486747 -0.02499452 209.78027344 0 C210.6530298 -0.01115361 211.52578617 -0.02230722 212.4249897 -0.03379881 C218.28463941 0.06173866 218.28463941 0.06173866 221.42775726 3.03709602 C222.91345683 5.67634488 223.39482165 7.08169227 223.40771484 10.07046509 C223.42032349 10.91484131 223.43293213 11.75921753 223.44592285 12.62918091 C223.43377747 13.97780212 223.43377747 13.97780212 223.42138672 15.35366821 C223.42521362 16.28916504 223.42904053 17.22466187 223.4329834 18.18850708 C223.43569959 20.1620288 223.42835891 22.1355867 223.41162109 24.10903931 C223.39020718 27.12499466 223.41143256 30.13856795 223.43701172 33.15444946 C223.43436839 35.07502762 223.42924331 36.9956043 223.42138672 38.91616821 C223.42948364 39.81524902 223.43758057 40.71432983 223.44592285 41.64065552 C223.38342157 45.82624422 223.24991133 48.06082546 220.98193359 51.67984009 C217.70393193 54.74359328 215.8394732 54.75570419 211.44482422 54.73257446 C209.83027344 54.72774048 209.83027344 54.72774048 208.18310547 54.72280884 C207.05517578 54.71442993 205.92724609 54.70605103 204.76513672 54.69741821 C203.62947266 54.69290649 202.49380859 54.68839478 201.32373047 54.68374634 C198.51251025 54.67193449 195.701317 54.65399862 192.89013672 54.63491821 C192.89013672 61.56491821 192.89013672 68.49491821 192.89013672 75.63491821 C197.69318359 75.56530884 197.69318359 75.56530884 202.59326172 75.49429321 C205.69431981 75.46309872 208.79536043 75.43881026 211.89648438 75.41519165 C214.05183739 75.39507545 216.20713582 75.36777896 218.36230469 75.3331604 C221.46026067 75.28464336 224.55749518 75.26194948 227.65576172 75.24429321 C228.61943665 75.22364807 229.58311157 75.20300293 230.57598877 75.18173218 C237.27220051 75.17948588 237.27220051 75.17948588 240.46728516 77.53433228 C242.5606316 80.62478402 243.01397865 82.2995053 243.00366211 85.99282837 C243.00358658 86.89361115 243.00351105 87.79439392 243.00343323 88.72247314 C242.99827194 89.69647064 242.99311066 90.67046814 242.98779297 91.67398071 C242.98567055 93.1679689 242.98567055 93.1679689 242.98350525 94.69213867 C242.97789608 97.88142874 242.96534201 101.07064927 242.95263672 104.25991821 C242.9476229 106.41877137 242.94305979 108.57762562 242.93896484 110.73648071 C242.92792367 116.03598371 242.91117659 121.33544599 242.89013672 126.63491821 C243.88350037 126.62381516 244.87686401 126.6127121 245.90032959 126.60127258 C255.25844957 126.49994685 264.61645837 126.42497712 273.97500229 126.37585735 C278.78646442 126.34975525 283.597484 126.31434619 288.40869141 126.25772095 C293.05119428 126.20342275 297.69327131 126.1735023 302.3360672 126.160532 C304.10796057 126.15128813 305.87983043 126.13323681 307.65154266 126.10626793 C310.13230375 126.07000532 312.61130199 126.06497148 315.09228516 126.06729126 C315.82596313 126.04931488 316.55964111 126.0313385 317.31555176 126.01281738 C320.6022056 126.04610532 322.50111584 126.3188148 325.07827377 128.41291428 C327.87946573 133.39422456 327.44097428 138.16532568 327.39807129 143.78825378 C327.40743123 145.65865378 327.40743123 145.65865378 327.41698027 147.56683964 C327.43368467 151.02544697 327.42542257 154.48361304 327.41303539 157.942222 C327.40399172 161.67301897 327.41795114 165.40373963 327.42895508 169.13452148 C327.44675173 176.44183568 327.44289541 183.74898565 327.43130451 191.05630631 C327.42227565 196.99390541 327.42104382 202.93145843 327.42539978 208.86906242 C327.42601271 209.71371526 327.42662564 210.5583681 327.42725715 211.42861648 C327.42853603 213.14443089 327.42983288 214.8602453 327.43114752 216.57605969 C327.44255649 232.66899276 327.42943428 248.76183471 327.40794605 264.85475283 C327.39007153 278.66913417 327.39318146 292.48338109 327.41162109 306.29776001 C327.43301663 322.33415073 327.44146124 338.37046159 327.42917204 354.40686458 C327.42789782 356.1161063 327.42664034 357.82534803 327.42539978 359.53458977 C327.42447413 360.79611353 327.42447413 360.79611353 327.42352977 362.08312263 C327.42007316 368.01545716 327.42591185 373.94774112 327.43531799 379.88006783 C327.4465246 387.10686482 327.44352612 394.33348799 327.42219502 401.56026501 C327.41166692 405.248903 327.40759242 408.93725093 327.42079163 412.62588692 C327.43486903 416.62027818 327.41808516 420.61419222 327.39807129 424.60856628 C327.41145562 426.36608218 327.41145562 426.36608218 327.42511034 428.15910345 C327.40946386 429.76007798 327.40946386 429.76007798 327.39350128 431.39339542 C327.39285187 432.31568379 327.39220246 433.23797215 327.39153337 434.18820864 C326.73494868 437.39220302 325.37254438 438.57776067 322.89013672 440.63491821 C319.93203196 442.11397059 316.93542122 441.75682724 313.69482422 441.73257446 C312.98738068 441.73115952 312.27993713 441.72974457 311.55105591 441.72828674 C309.28904003 441.72268422 307.02712273 441.71013139 304.76513672 441.69741821 C303.23258606 441.69240353 301.70003386 441.68784057 300.16748047 441.68374634 C296.40832784 441.67271398 292.649249 441.65544773 288.89013672 441.63491821 C288.93654297 442.76929321 288.98294922 443.90366821 289.03076172 445.07241821 C289.51787578 461.71179156 289.51787578 461.71179156 283.05419922 468.58804321 C276.84158052 474.44361486 271.29194204 475.94498307 262.79272461 475.84268188 C262.00329971 475.84148346 261.21387482 475.84028503 260.40052795 475.83905029 C258.69488907 475.83591203 256.98925377 475.82862726 255.28364754 475.81761742 C252.58009239 475.80270661 249.87702949 475.8043805 247.17344666 475.81126404 C239.48973979 475.83005331 231.80641897 475.83651197 224.12280273 475.78945923 C219.41469345 475.76182452 214.70766224 475.76822279 209.99957085 475.79647255 C208.21067213 475.80072359 206.4216951 475.79229896 204.63292122 475.77074242 C195.16330264 475.30235401 195.16330264 475.30235401 186.443573 478.14337158 C184.65916991 479.90992313 184.65916991 479.90992313 183.45774841 481.83995056 C180.31128335 485.44275795 176.65007763 486.465668 172.04154301 486.90886211 C168.48125054 487.03329269 164.93331711 487.0515849 161.37084961 487.03897095 C160.00349878 487.04468007 158.63615271 487.05164642 157.26881409 487.05976868 C153.57039309 487.0776555 149.87220994 487.07654023 146.17375875 487.07082629 C143.07991066 487.06772794 139.98610784 487.07383406 136.89226621 487.07986504 C129.59049242 487.09389393 122.28883567 487.09236263 114.98706055 487.08096313 C107.46783025 487.06948316 99.94895669 487.08355907 92.42977339 487.11035961 C85.96074549 487.13254916 79.49182929 487.13914669 73.02276605 487.1332832 C69.16490694 487.12992021 65.30727646 487.13228461 61.44944954 487.14953423 C57.82049954 487.1650535 54.19207616 487.16099343 50.56314659 487.14222908 C48.60619654 487.13681365 46.64922256 487.15101932 44.69232178 487.16592407 C37.94120577 487.1096059 32.39819741 486.823343 26.89013672 482.63491821 C25.87115915 481.58640102 24.87244925 480.51779624 23.89523315 479.43025208 C21.44641526 476.81578296 20.91586198 476.63994866 17.10940552 475.89561462 C15.67602499 475.86988265 14.24182241 475.87644826 12.80859375 475.90957642 C12.02077515 475.90376556 11.23295654 475.89795471 10.42126465 475.89196777 C7.82940083 475.87921015 5.23966602 475.9078391 2.64794922 475.93569946 C0.83722082 475.93206311 -0.97350377 475.92535749 -2.78421021 475.91572571 C-7.54560602 475.8966723 -12.3062719 475.91066949 -17.06762695 475.93423462 C-24.68032504 475.96863797 -32.29283977 475.96274536 -39.90555191 475.93810081 C-42.55568953 475.93574075 -45.20514236 475.95349104 -47.85519409 475.97337341 C-49.49330652 475.97362174 -51.13141921 475.97322303 -52.76953125 475.97207642 C-53.49810333 475.98293777 -54.22667542 475.99379913 -54.97732544 476.00498962 C-61.01231132 475.97127756 -66.31811001 474.63114533 -71.31689453 471.05679321 C-71.84669922 470.50507446 -72.37650391 469.95335571 -72.92236328 469.38491821 C-73.46505859 468.84351196 -74.00775391 468.30210571 -74.56689453 467.74429321 C-78.88223995 461.84483365 -79.53433286 456.78827701 -79.29736328 449.69741821 C-79.27706055 448.52856079 -79.27706055 448.52856079 -79.25634766 447.33609009 C-79.22136552 445.43539417 -79.16757287 443.53505987 -79.10986328 441.63491821 C-80.05829102 441.64539185 -81.00671875 441.65586548 -81.98388672 441.66665649 C-85.50995319 441.70078529 -89.03584357 441.72583989 -92.56201172 441.74478149 C-94.08677951 441.75482565 -95.61152812 441.76846352 -97.13623047 441.78579712 C-99.33061466 441.81011559 -101.5247437 441.8214171 -103.71923828 441.83023071 C-105.03891602 441.84070435 -106.35859375 441.85117798 -107.71826172 441.86196899 C-110.88547446 441.64993992 -112.55201228 441.44253634 -115.10986328 439.63491821 C-117.31129311 436.33277347 -117.36127433 435.35280512 -117.36713219 431.51644325 C-117.37358108 430.45111795 -117.38002997 429.38579265 -117.38667428 428.28818476 C-117.38357708 427.11359465 -117.38047988 425.93900455 -117.37728882 424.7288208 C-117.38181993 423.48430189 -117.38635104 422.23978297 -117.39101946 420.95755136 C-117.40151506 417.49643383 -117.402985 414.03552354 -117.40063071 410.57440472 C-117.40022341 406.84425037 -117.4112534 403.11412729 -117.42074585 399.38398743 C-117.43737558 392.07343741 -117.44285628 384.76291964 -117.44397061 377.4523523 C-117.44492014 371.51138586 -117.4490257 365.57043008 -117.45537186 359.62946701 C-117.4729896 342.7945682 -117.48220989 325.95969491 -117.48071091 309.12478681 C-117.480631 308.21676298 -117.48055108 307.30873916 -117.48046875 306.37319946 C-117.48038699 305.46407001 -117.48030523 304.55494057 -117.48022099 303.61826174 C-117.47940792 288.88133933 -117.49854935 274.14451908 -117.52674548 259.40762623 C-117.55545274 244.28454385 -117.56928697 229.16151133 -117.56755793 214.03840101 C-117.56689328 205.5444332 -117.57241818 197.05057249 -117.59391403 188.55662918 C-117.61209749 181.32507161 -117.61649662 174.09366968 -117.60289519 166.86209919 C-117.5963511 163.17131428 -117.59629972 159.48082823 -117.61360168 155.79007149 C-117.63215421 151.79148083 -117.6198157 147.79358639 -117.6043396 143.79498291 C-117.61462673 142.62485425 -117.62491385 141.45472558 -117.63551271 140.24913847 C-117.56851484 132.45101553 -117.56851484 132.45101553 -115.29884148 128.41249371 C-112.13688426 125.8448036 -109.20791641 125.97183486 -105.31201172 126.06729126 C-104.53114197 126.06656113 -103.75027222 126.06583099 -102.94573975 126.06507874 C-100.36952794 126.06855703 -97.79513342 126.10742686 -95.21923828 126.14663696 C-93.4313455 126.1559643 -91.64343992 126.16308079 -89.85552979 126.16807556 C-85.15340798 126.18715177 -80.45206038 126.23625769 -75.75024414 126.29159546 C-70.9509529 126.34277466 -66.15153635 126.36558675 -61.35205078 126.39077759 C-51.93764842 126.44437602 -42.52382027 126.52969621 -33.10986328 126.63491821 C-33.11985603 125.80592766 -33.11985603 125.80592766 -33.13005066 124.96018982 C-33.19648811 119.2013532 -33.2416987 113.4426257 -33.2746582 107.6835022 C-33.28973243 105.5350197 -33.31019517 103.38656791 -33.33618164 101.2381897 C-33.37262442 98.14769913 -33.38960347 95.05761591 -33.40283203 91.96694946 C-33.41831589 91.00843582 -33.43379974 90.04992218 -33.44975281 89.06236267 C-33.45099435 84.12804501 -33.42779854 80.59314792 -30.10986328 76.63491821 C-27.75786269 75.45891791 -26.37251927 75.51407281 -23.75195312 75.52139282 C-22.40077896 75.52150612 -22.40077896 75.52150612 -21.02230835 75.5216217 C-20.04831085 75.52678299 -19.07431335 75.53194427 -18.07080078 75.53726196 C-17.07480865 75.53867691 -16.07881653 75.54009186 -15.05264282 75.54154968 C-11.86335275 75.54715885 -8.67413222 75.55971292 -5.48486328 75.57241821 C-3.32601013 75.57743203 -1.16715587 75.58199514 0.99169922 75.58609009 C6.2912269 75.59628149 11.59060373 75.61585514 16.89013672 75.63491821 C16.89013672 68.70491821 16.89013672 61.77491821 16.89013672 54.63491821 C15.21564453 54.68132446 13.54115234 54.72773071 11.81591797 54.77554321 C9.61150873 54.81306507 7.40708019 54.84946479 5.20263672 54.88491821 C4.09984375 54.91843384 2.99705078 54.95194946 1.86083984 54.98648071 C-6.34529799 55.08564854 -6.34529799 55.08564854 -10.31689453 52.74429321 C-12.78615744 49.83927803 -13.23761146 48.26426357 -13.28686523 44.53994751 C-13.30611809 43.27304329 -13.30611809 43.27304329 -13.32575989 41.98054504 C-13.33314682 41.06598038 -13.34053375 40.15141571 -13.34814453 39.20913696 C-13.35621628 38.26939529 -13.36428802 37.32965363 -13.37260437 36.36143494 C-13.38644881 34.37001391 -13.39716935 32.37856912 -13.4050293 30.38711548 C-13.42223608 27.34490854 -13.4661181 24.30378996 -13.51025391 21.26187134 C-13.52038132 19.32763454 -13.52889727 17.3933885 -13.53564453 15.45913696 C-13.55315262 14.55064499 -13.57066071 13.64215302 -13.58869934 12.70613098 C-13.58577377 11.85207169 -13.58284821 10.99801239 -13.57983398 10.11807251 C-13.58570023 9.3713176 -13.59156647 8.62456268 -13.59761047 7.85517883 C-11.88953124 0.07987818 -6.73631264 -0.08608839 0 0 Z M-16.10986328 91.63491821 C-16.10986328 153.67491821 -16.10986328 215.71491821 -16.10986328 279.63491821 C-14.12986328 279.30491821 -12.14986328 278.97491821 -10.10986328 278.63491821 C3.35903058 277.53066083 15.05904326 278.56448056 25.81591797 287.50601196 C35.10889199 297.04399848 38.3011379 307.92246993 38.16748047 320.93179321 C37.13270355 334.74825118 32.2877385 349.04099579 21.89013672 358.63491821 C14.96253619 364.12301733 6.26413119 367.36775807 -2.63330078 366.97476196 C-12.75629374 365.58564463 -21.02430654 362.093399 -28.10986328 354.63491821 C-37.89262599 341.70392301 -41.73995926 325.64246072 -40.10986328 309.63491821 C-38.69563864 304.46755895 -37.13479397 298.94348842 -33.54574108 294.85170364 C-31.64287597 291.91395807 -31.74035294 289.94637416 -31.74909973 286.45932007 C-31.74497574 285.1916983 -31.74085175 283.92407654 -31.73660278 282.61804199 C-31.74721955 281.21578766 -31.75812397 279.81353549 -31.76928711 278.4112854 C-31.77013344 276.93288185 -31.76965812 275.45447704 -31.76795959 273.97607422 C-31.76709844 269.96393193 -31.78474352 265.9520584 -31.80568147 261.9399786 C-31.82442829 257.74661049 -31.82619713 253.55323631 -31.82975769 249.35983276 C-31.83908403 241.41964665 -31.86370576 233.47958436 -31.89380616 225.53945279 C-31.93359995 214.80953211 -31.94980029 204.0795776 -31.96731281 193.34960175 C-31.99552644 176.44461447 -32.055292 159.53988852 -32.10986328 142.63491821 C-54.54986328 142.63491821 -76.98986328 142.63491821 -100.10986328 142.63491821 C-100.10986328 235.69491821 -100.10986328 328.75491821 -100.10986328 424.63491821 C-93.17986328 424.63491821 -86.24986328 424.63491821 -79.10986328 424.63491821 C-79.02736328 422.07741821 -78.94486328 419.51991821 -78.85986328 416.88491821 C-78.24702246 404.96869549 -75.28889173 394.65843526 -67.10986328 385.63491821 C-57.67221463 377.37102755 -46.99154102 373.48153565 -34.55664062 373.48965454 C-33.81280121 373.48629593 -33.06896179 373.48293732 -32.30258179 373.47947693 C-29.8503043 373.47000136 -27.39809542 373.46802515 -24.94580078 373.46694946 C-23.23051933 373.4637332 -21.51523816 373.46036885 -19.79995728 373.4568634 C-16.20387131 373.45087966 -12.60780934 373.4490226 -9.01171875 373.44961548 C-4.42910118 373.44971675 0.15336024 373.43609727 4.73594093 373.41884327 C8.28096202 373.40765843 11.82594621 373.4056983 15.37098312 373.4062252 C17.05887767 373.40505358 18.74677343 373.40067833 20.43465042 373.39289284 C28.66038998 373.35851941 36.62760455 373.36937071 44.69418335 375.23603821 C49.11403445 376.03887412 53.21723536 374.96741167 57.57633972 374.10102844 C61.61041015 373.53360639 65.53037066 373.48733997 69.59838867 373.48965454 C70.45287598 373.48629593 71.30736328 373.48293732 72.18774414 373.47947693 C75.00131704 373.47000941 77.81483015 373.46802589 80.62841797 373.46694946 C82.59368412 373.46373384 84.55895004 373.46036953 86.5242157 373.4568634 C90.64057978 373.45088254 94.7569229 373.44902242 98.87329102 373.44961548 C104.13203317 373.44971701 109.39064004 373.43606931 114.64935017 373.41884327 C118.708131 373.40769093 122.76687947 373.40569727 126.82567406 373.4062252 C128.76362766 373.40504979 130.70158222 373.40065279 132.63952065 373.39289284 C135.3576755 373.38302806 138.07554105 373.3859965 140.79370117 373.39199829 C141.58413315 373.38637878 142.37456512 373.38075928 143.18894958 373.37496948 C147.97321983 373.40163519 152.26247675 374.01968885 156.89328289 375.23647594 C160.03807293 375.86397169 162.77515734 375.25791409 165.89013672 374.63491821 C171.19692254 373.87638397 176.30491232 373.50169818 181.67626953 373.4737854 C182.40918716 373.4688205 183.1421048 373.46385559 183.89723206 373.45874023 C186.29591854 373.44426525 188.69453893 373.43734143 191.09326172 373.43179321 C191.92045464 373.42896584 192.74764755 373.42613846 193.59990692 373.4232254 C197.97741508 373.40829261 202.35489079 373.39902579 206.73242188 373.39468384 C211.22188032 373.38920728 215.71103428 373.36517944 220.20039749 373.33671188 C223.68197463 373.31796524 227.16348014 373.31287356 230.64510345 373.31134796 C232.29868992 373.30834808 233.95227596 373.30041134 235.60581207 373.28716278 C252.06036064 373.16472865 265.14805141 375.52381982 277.89013672 386.63491821 C287.30831506 398.66712157 288.30510545 409.89213023 288.89013672 424.63491821 C295.82013672 424.63491821 302.75013672 424.63491821 309.89013672 424.63491821 C309.89013672 331.57491821 309.89013672 238.51491821 309.89013672 142.63491821 C287.45013672 142.63491821 265.01013672 142.63491821 241.89013672 142.63491821 C241.71527003 169.05088017 241.71527003 169.05088017 241.59716797 195.46694946 C241.56159456 206.24267754 241.51982216 217.0181237 241.4375 227.79360962 C241.3775681 235.6421053 241.33895689 243.49037182 241.32560575 251.33908999 C241.31780514 255.49242512 241.29956162 259.64510482 241.25575638 263.79822922 C241.21479641 267.7136033 241.20251411 271.62805688 241.21149063 275.54362488 C241.20985034 276.9746515 241.19805395 278.40571137 241.17490387 279.83655167 C241.0484027 288.06414021 241.623788 293.81079356 246.46883202 300.61321449 C252.01024889 308.49548146 250.74091135 320.76857323 249.20263672 329.82241821 C246.0622931 343.04260605 240.14404317 354.25232849 228.82763672 361.97085571 C220.71747638 366.56517527 211.98052825 367.84420649 202.89013672 365.88491821 C192.1300942 362.85273402 184.69820393 357.00235527 179.23779297 347.27554321 C172.75283988 334.56879456 169.2560878 320.2769462 172.76513672 306.09976196 C176.9075025 294.44935821 182.83101026 287.1468151 193.89013672 281.63491821 C194.49083984 281.29460571 195.09154297 280.95429321 195.71044922 280.60366821 C204.45811406 276.36713098 216.66376844 278.3168656 225.89013672 279.63491821 C225.89013672 217.59491821 225.89013672 155.55491821 225.89013672 91.63491821 C146.03013672 91.63491821 66.17013672 91.63491821 -16.10986328 91.63491821 Z " fill="#010202" transform="translate(151.10986328125,12.365081787109375)"/>
<path d="M0 0 C22.44 0 44.88 0 68 0 C68.20151517 37.293741 68.20151517 37.293741 68.24414062 52.9296875 C68.27380115 63.72310269 68.30865693 74.51632262 68.37719727 85.30957031 C68.42709263 93.17049798 68.45930532 101.03126714 68.47044247 108.89234877 C68.47695091 113.05335587 68.49220604 117.21390958 68.52865028 121.37477112 C68.56270706 125.2949895 68.57303371 129.21456976 68.56553841 133.13492203 C68.56690866 134.56999815 68.57678404 136.00509665 68.59602737 137.4400444 C68.76338041 150.56848002 68.76338041 150.56848002 64.25079632 156.36928558 C58.7688106 163.51637501 59.11508416 173.47578761 60 182 C62.0312663 195.56423798 67.24748419 207.24748419 77 217 C76.9765625 220.0390625 76.9765625 220.0390625 76.625 223.625 C76.51414062 224.81351563 76.40328125 226.00203125 76.2890625 227.2265625 C76.19367188 228.14179688 76.09828125 229.05703125 76 230 C74.27716797 230.03867187 74.27716797 230.03867187 72.51953125 230.078125 C57.28320196 230.57025663 45.1257367 233.14762191 33.3125 243.3125 C22.85969613 255.46035314 21.61676894 266.45742275 21 282 C14.07 282 7.14 282 0 282 C0 188.94 0 95.88 0 0 Z " fill="#5FB6FD" transform="translate(51,155)"/>
<path d="M0 0 C22.44 0 44.88 0 68 0 C68 93.06 68 186.12 68 282 C61.07 282 54.14 282 47 282 C46.9175 279.4425 46.835 276.885 46.75 274.25 C46.09373494 261.68858292 42.80197675 251.34658066 34 242 C23.84664457 233.80842858 12.92608428 231.08884421 0.1875 230.4375 C-0.99489258 230.37272461 -0.99489258 230.37272461 -2.20117188 230.30664062 C-4.13394215 230.20121679 -6.06695026 230.10016906 -8 230 C-8.30325122 227.7541395 -8.56652522 225.5028531 -8.8125 223.25 C-8.96332031 221.99703125 -9.11414063 220.7440625 -9.26953125 219.453125 C-9 216 -9 216 -6.69921875 213.82421875 C-5.80847656 213.22222656 -4.91773438 212.62023437 -4 212 C6.0165643 198.92549419 9.21036543 183.13267899 8 167 C6.78904757 161.84874639 5.1186166 157.50295069 1.95096207 153.24695396 C-0.22743433 149.6214848 -0.49502119 147.76382432 -0.48101807 143.58389282 C-0.48651672 142.31352173 -0.49201538 141.04315063 -0.49768066 139.73428345 C-0.48352684 138.3392906 -0.46898764 136.94430163 -0.45410156 135.54931641 C-0.45297247 134.07061799 -0.45360816 132.59191733 -0.45587158 131.11322021 C-0.45701725 127.10937335 -0.43353221 123.10600773 -0.40557575 119.10227251 C-0.38053732 114.91426579 -0.37821818 110.72624751 -0.37347412 106.53817749 C-0.3610515 98.61217765 -0.32823962 90.68639902 -0.28807616 82.7604965 C-0.23496736 72.04693401 -0.21340721 61.33331085 -0.19006729 50.61964989 C-0.15247762 33.74626763 -0.07278225 16.87335213 0 0 Z " fill="#5FB5FD" transform="translate(393,155)"/>
<path d="M0 0 C6.49668753 5.31271177 11.40997831 12.26018835 14.5078125 20.05078125 C14.86359375 20.90285156 15.219375 21.75492187 15.5859375 22.6328125 C19.97589714 38.9091459 16.05630059 57.72172559 8.265625 72.265625 C2.19919122 81.8775523 -6.58776293 90.33710441 -17.72265625 93.57421875 C-28.84749456 95.48850687 -39.69716831 95.09151355 -49.4921875 89.05078125 C-63.20827566 79.01076283 -70.78490406 64.6802905 -73.4921875 48.05078125 C-74.58886947 36.08441106 -74.8080071 24.60127646 -68.4921875 14.05078125 C-68.13511719 13.43332031 -67.77804688 12.81585938 -67.41015625 12.1796875 C-66.51598362 10.75114876 -65.50861151 9.39508398 -64.4921875 8.05078125 C-63.6878125 6.84421875 -63.6878125 6.84421875 -62.8671875 5.61328125 C-46.10291117 -12.47449058 -19.90796607 -13.55250752 0 0 Z " fill="#010102" transform="translate(284.4921875,285.94921875)"/>
<path d="M0 0 C8.91950755 -0.11646679 17.83874854 -0.20500269 26.75885391 -0.25906086 C30.90201151 -0.28502199 35.04464433 -0.32016852 39.1875 -0.37719727 C43.19462908 -0.4320049 47.20125728 -0.4615216 51.2087326 -0.47438622 C52.72841006 -0.48353964 54.24806383 -0.50141143 55.76752472 -0.52865028 C66.0581616 -0.70558812 76.13308138 -0.16266515 84.26177979 6.99028015 C91.06934388 14.11540213 92.46673717 21.03282363 92.46875 30.5703125 C92.48017029 32.0691951 92.48017029 32.0691951 92.49182129 33.59835815 C92.50258396 35.7011262 92.50549106 37.80394754 92.50097656 39.90673828 C92.50000081 43.12232018 92.54173839 46.33554123 92.5859375 49.55078125 C92.59114246 51.59895338 92.59383273 53.64713376 92.59375 55.6953125 C92.61014526 56.65374054 92.62654053 57.61216858 92.64343262 58.59963989 C92.6341272 59.49762299 92.62482178 60.39560608 92.61523438 61.32080078 C92.61728882 62.10576935 92.61934326 62.89073792 92.62145996 63.69949341 C91.65220689 67.28745278 89.92141973 68.7658748 87 71 C84.26893578 71.47098854 82.1734129 71.63815399 79.45581055 71.56762695 C78.71380905 71.56835709 77.97180756 71.56908722 77.20732117 71.56983948 C74.76636427 71.56636916 72.32734023 71.5275385 69.88671875 71.48828125 C68.18993675 71.47895104 66.49314125 71.47183591 64.79634094 71.46684265 C60.33916775 71.44778894 55.88281449 71.39870285 51.42596436 71.34332275 C46.87458385 71.29209474 42.32307033 71.26932107 37.77148438 71.24414062 C28.8472968 71.19058199 19.92371669 71.10528938 11 71 C10.99857498 70.40246414 10.99714996 69.80492828 10.99568176 69.18928528 C10.97583137 62.90967244 10.92123372 56.63101172 10.84741211 50.35180664 C10.82436764 48.01561337 10.80986859 45.6793182 10.80444336 43.34301758 C10.75667965 26.15175627 9.3425803 14.62913308 0 0 Z " fill="#6BF2C0" transform="translate(332,401)"/>
<path d="M0 0 C1.55511746 0.0074755 3.11024444 0.01316223 4.66537476 0.01715088 C8.72616331 0.03230449 12.78636468 0.07149496 16.84692383 0.1159668 C21.00333721 0.15714362 25.15984698 0.17520937 29.31640625 0.1953125 C37.44818385 0.23800149 45.5794873 0.30612498 53.7109375 0.390625 C53.15664062 1.32003906 52.60234375 2.24945313 52.03125 3.20703125 C51.29907119 4.45548999 50.56732329 5.70420152 49.8359375 6.953125 C49.47113281 7.56220703 49.10632813 8.17128906 48.73046875 8.79882812 C45.39392334 14.53161979 43.49438655 20.07471244 43.39208984 26.77514648 C43.37222015 27.77565536 43.35235046 28.77616425 43.33187866 29.80699158 C43.32032745 30.86455154 43.30877625 31.92211151 43.296875 33.01171875 C43.27750885 34.11161636 43.2581427 35.21151398 43.2381897 36.34474182 C43.17866842 39.83912533 43.13211823 43.33354226 43.0859375 46.828125 C43.04773249 49.20509206 43.0086793 51.58204565 42.96875 53.95898438 C42.87298951 59.76941119 42.78786242 65.57991992 42.7109375 71.390625 C32.88824888 71.50652119 23.06572314 71.59534142 13.24248981 71.64968586 C8.68102668 71.67576988 4.12003163 71.71114562 -0.44116211 71.76782227 C-4.84376939 71.82218543 -9.24592673 71.85205453 -13.64884377 71.86501122 C-15.32780859 71.87424345 -17.00674903 71.89227232 -18.68552208 71.91927528 C-21.03917849 71.95562494 -23.3909807 71.96056819 -25.74487305 71.95825195 C-26.4375528 71.97622833 -27.13023254 71.99420471 -27.84390259 72.01272583 C-31.5868574 71.97292298 -33.21651777 71.44621401 -36.22013855 69.1446228 C-38.35068409 66.30859892 -38.91828447 65.22138317 -38.93603516 61.7590332 C-38.95179596 60.87073318 -38.96755676 59.98243317 -38.98379517 59.06721497 C-38.97367401 58.11819809 -38.96355286 57.16918121 -38.953125 56.19140625 C-38.95790863 55.20117966 -38.96269226 54.21095306 -38.96762085 53.1907196 C-38.97101873 51.09693818 -38.96182421 49.00310363 -38.94091797 46.90942383 C-38.91429349 43.73070334 -38.94059644 40.5555599 -38.97265625 37.37695312 C-38.96934936 35.3359298 -38.96293736 33.29490867 -38.953125 31.25390625 C-38.96324615 30.31501053 -38.97336731 29.37611481 -38.98379517 28.4087677 C-38.85164047 20.82819713 -36.70487151 14.44648287 -31.76748657 8.5839386 C-22.68018925 0.02908775 -11.81682831 -0.16826243 0 0 Z " fill="#6BF2C0" transform="translate(126.2890625,400.609375)"/>
<path d="M0 0 C67.32 0 134.64 0 204 0 C204 6.93 204 13.86 204 21 C136.68 21 69.36 21 0 21 C0 14.07 0 7.14 0 0 Z " fill="#89C8FD" transform="translate(154,29)"/>
<path d="M0 0 C1.02158203 0.00322266 2.04316406 0.00644531 3.09570312 0.00976562 C4.15080078 0.01814453 5.20589844 0.02652344 6.29296875 0.03515625 C7.36740234 0.03966797 8.44183594 0.04417969 9.54882812 0.04882812 C12.19276558 0.06057896 14.83658827 0.07700838 17.48046875 0.09765625 C17.67382812 0.71253906 17.8671875 1.32742188 18.06640625 1.9609375 C18.45699219 3.17330078 18.45699219 3.17330078 18.85546875 4.41015625 C19.11070312 5.21066406 19.3659375 6.01117188 19.62890625 6.8359375 C20.46878686 9.32490153 20.46878686 9.32490153 22.48046875 12.09765625 C22.26942486 14.8364008 21.94577797 17.40144642 21.48046875 20.09765625 C21.3632547 20.83005524 21.24604065 21.56245422 21.12527466 22.31704712 C20.73891031 24.70105921 20.33257031 27.0810007 19.921875 29.4609375 C19.77266098 30.33356735 19.62344696 31.2061972 19.4697113 32.10527039 C19.15536581 33.94166127 18.84017208 35.77790714 18.52416992 37.61401367 C18.04618724 40.39145438 17.57070749 43.16931416 17.09570312 45.94726562 C16.78790219 47.74351388 16.47996201 49.53973829 16.171875 51.3359375 C16.02338104 52.2026004 15.87488708 53.06926331 15.72189331 53.96218872 C14.79791879 59.32963657 13.82871935 64.68560442 12.76831055 70.02807617 C12.11904185 74.69631262 12.84169674 78.13949823 15.48046875 82.09765625 C9.44823672 82.2214002 3.4167459 82.31206438 -2.61645508 82.37231445 C-4.66801831 82.39743431 -6.71949226 82.43153661 -8.77075195 82.47485352 C-11.72239216 82.53561627 -14.67284775 82.56389117 -17.625 82.5859375 C-18.53976608 82.61174393 -19.45453217 82.63755035 -20.39701843 82.66413879 C-24.54262146 82.66595818 -26.95234784 82.4239341 -30.59643555 80.32763672 C-33.56646131 75.33926033 -33.23398041 70.6342845 -33.18359375 64.9296875 C-33.18837738 63.7396965 -33.19316101 62.54970551 -33.1980896 61.32365417 C-33.20149 58.80616942 -33.19227801 56.2886406 -33.17138672 53.77124023 C-33.14474492 49.94087574 -33.17107253 46.11347364 -33.203125 42.28320312 C-33.19981862 39.83202483 -33.19340769 37.38084837 -33.18359375 34.9296875 C-33.1937149 33.79392776 -33.20383606 32.65816803 -33.21426392 31.48799133 C-33.09236658 23.1021944 -31.34385064 16.31624825 -25.6053772 9.98616028 C-18.44173026 3.10479845 -9.85331905 -0.05504648 0 0 Z " fill="#C3E0FD" transform="translate(217.51953125,400.90234375)"/>
<path d="M0 0 C3.62484173 -0.08837761 7.24940017 -0.14084706 10.875 -0.1875 C12.39480469 -0.22520508 12.39480469 -0.22520508 13.9453125 -0.26367188 C24.6837469 -0.36692605 33.71683895 1.93634832 42 9 C47.08172506 14.5496355 50.22068256 19.87680807 50.30639648 27.53710938 C50.32238388 28.62173462 50.33837128 29.70635986 50.35484314 30.82385254 C50.36020584 31.9854187 50.36556854 33.14698486 50.37109375 34.34375 C50.38463646 36.14652405 50.38463646 36.14652405 50.39845276 37.98571777 C50.4129454 40.52414461 50.42183953 43.06260871 50.42553711 45.60107422 C50.43745701 49.48598826 50.48667626 53.36932614 50.53710938 57.25390625 C50.54657103 59.72134642 50.5538073 62.18879633 50.55859375 64.65625 C50.57812607 65.81781616 50.59765839 66.97938232 50.61778259 68.17614746 C50.59096978 72.96113435 50.54824341 76.07287499 48.08349609 80.2409668 C43.69402108 82.74501806 40.07591869 82.6285024 35.10546875 82.48828125 C33.68443596 82.47766914 33.68443596 82.47766914 32.23469543 82.46684265 C29.21814979 82.43892334 26.2034816 82.37618915 23.1875 82.3125 C21.13869874 82.28741396 19.0898683 82.26460133 17.04101562 82.24414062 C12.02662379 82.18910459 7.01362986 82.10284856 2 82 C2.49873627 81.29009415 2.99747253 80.58018829 3.51132202 79.84877014 C5.22564452 76.56820121 5.23426602 75.05196051 4.81884766 71.41967773 C4.69971008 70.36457001 4.58057251 69.30946228 4.45782471 68.22238159 C3.74595495 63.21191367 2.87163334 58.2510104 1.8984375 53.28515625 C1.48682288 51.11396192 1.07536912 48.94273708 0.6640625 46.77148438 C0.01746371 43.39806496 -0.63220825 40.0252725 -1.28515625 36.65307617 C-1.91941521 33.36523156 -2.54231481 30.07538607 -3.1640625 26.78515625 C-3.36295074 25.77679214 -3.56183899 24.76842804 -3.76675415 23.72950745 C-3.94378876 22.78760056 -4.12082336 21.84569366 -4.30322266 20.87524414 C-4.54185532 19.64047081 -4.54185532 19.64047081 -4.78530884 18.38075256 C-5.26745427 13.03414698 -3.10188855 8.81682793 -1 4 C-0.64412821 2.67250456 -0.30496929 1.34010545 0 0 Z " fill="#C3E1FD" transform="translate(277,401)"/>
<path d="M0 0 C7.3319732 5.02053758 12.6049973 11.41790701 15 20 C16.41336834 33.27908858 13.340483 47.21089057 5.47265625 58.1171875 C0.81400957 63.88503577 -4.05000915 66.68333638 -11 69 C-19.0999382 69.54914835 -24.85876363 68.0132252 -31.1875 62.8125 C-38.70293731 55.7382821 -41.3454046 47.83761823 -44 38 C-44.19464844 37.34902344 -44.38929688 36.69804687 -44.58984375 36.02734375 C-46.33645502 27.39409376 -45.87262514 18.44548621 -41 11 C-30.83334119 -3.1561072 -15.86288887 -7.8620732 0 0 Z " fill="#F2DACB" transform="translate(271,296)"/>
<path d="M0 0 C47.52 0 95.04 0 144 0 C144 7.26 144 14.52 144 22 C96.48 22 48.96 22 0 22 C0 14.74 0 7.48 0 0 Z " fill="#5FB5FD" transform="translate(184,66)"/>
<path d="M0 0 C5.36009228 3.6795353 9.426167 8.37563962 11.3671875 14.625 C12.47500483 25.66452852 10.82343544 35.18922797 5.5546875 45 C0.46938931 51.10235782 -4.36510016 55.20522502 -12.4453125 56 C-17.94221212 55.8240164 -22.24325947 53.75027066 -26.328125 50.1171875 C-34.24807595 41.56045657 -37.26445512 29.85111449 -37.0078125 18.3984375 C-36.03200145 11.18150158 -32.26510229 5.19508272 -26.51171875 0.80859375 C-17.67874737 -4.7556273 -9.15117703 -5.01746778 0 0 Z " fill="#F4DACB" transform="translate(162.6328125,308.375)"/>
<path d="M0 0 C6.14656413 4.01430472 10.17615896 8.83081352 12 16 C13.43969904 27.00459608 10.60329019 39.03585606 4 48 C-0.74934376 53.06524048 -5.30117817 55.97007854 -12.3125 56.4375 C-18.41311167 56.2753575 -22.29334417 53.46286928 -26.69140625 49.4609375 C-34.7217666 40.96767418 -36.50980516 29.96323434 -36.26953125 18.703125 C-35.75804703 11.67577665 -33.24336188 7.92921124 -28.1875 3.1875 C-19.44152887 -3.8933417 -10.15063717 -4.97788664 0 0 Z " fill="#F4DACB" transform="translate(374,308)"/>
<path d="M0 0 C0.66 0 1.32 0 2 0 C2.20157715 1.15411377 2.4031543 2.30822754 2.61083984 3.49731445 C3.36713181 7.82680821 4.12392443 12.15621432 4.88085938 16.4855957 C5.20683986 18.35048112 5.53268909 20.21538948 5.85839844 22.08032227 C8.20221912 35.52496569 8.20221912 35.52496569 10.62890625 48.95483398 C11.23029534 52.26920007 11.64378114 54.65233805 11 58 C8.69269706 60.882732 6.27207721 63.26402884 3 65 C-1.36338118 64.7032631 -4.43116427 63.13493361 -7.55664062 60.13696289 C-12.68133885 52.54960099 -6.10277975 33.66643305 -4.5 25.0625 C-4.17516096 23.2937336 -3.85093831 21.52485388 -3.52734375 19.75585938 C-3.07203775 17.26765896 -2.61589792 14.7796495 -2.15490723 12.29249573 C-1.39663899 8.20089977 -0.66887129 4.10744071 0 0 Z " fill="#F5606B" transform="translate(255,415)"/>
<path d="M0 0 C5.61 0 11.22 0 17 0 C17 8.58 17 17.16 17 26 C11.39 26 5.78 26 0 26 C0 17.42 0 8.84 0 0 Z " fill="#070F15" transform="translate(419,307)"/>
<path d="M0 0 C5.61 0 11.22 0 17 0 C17 8.58 17 17.16 17 26 C11.39 26 5.78 26 0 26 C0 17.42 0 8.84 0 0 Z " fill="#070F15" transform="translate(76,307)"/>
<path d="M0 0 C5.28 0 10.56 0 16 0 C16 8.58 16 17.16 16 26 C10.72 26 5.44 26 0 26 C0 17.42 0 8.84 0 0 Z " fill="#04080C" transform="translate(77,259)"/>
<path d="M0 0 C5.28 0 10.56 0 16 0 C16 8.58 16 17.16 16 26 C10.72 26 5.44 26 0 26 C0 17.42 0 8.84 0 0 Z " fill="#04090C" transform="translate(419,212)"/>
<path d="M0 0 C5.28 0 10.56 0 16 0 C16 8.58 16 17.16 16 26 C10.72 26 5.44 26 0 26 C0 17.42 0 8.84 0 0 Z " fill="#04080C" transform="translate(77,212)"/>
<path d="M0 0 C5.28 0 10.56 0 16 0 C16 8.25 16 16.5 16 25 C10.72 25 5.44 25 0 25 C0 16.75 0 8.5 0 0 Z " fill="#020406" transform="translate(419,355)"/>
<path d="M0 0 C5.28 0 10.56 0 16 0 C16 8.25 16 16.5 16 25 C10.72 25 5.44 25 0 25 C0 16.75 0 8.5 0 0 Z " fill="#020405" transform="translate(77,355)"/>
<path d="M0 0 C5.28 0 10.56 0 16 0 C16 8.25 16 16.5 16 25 C10.72 25 5.44 25 0 25 C0 16.75 0 8.5 0 0 Z " fill="#010304" transform="translate(248,236)"/>
<path d="M0 0 C5.28 0 10.56 0 16 0 C16 8.25 16 16.5 16 25 C10.72 25 5.44 25 0 25 C0 16.75 0 8.5 0 0 Z " fill="#000000" transform="translate(248,189)"/>
<path d="M0 0 C5.28 0 10.56 0 16 0 C16 8.25 16 16.5 16 25 C10.72 25 5.44 25 0 25 C0 16.75 0 8.5 0 0 Z " fill="#010203" transform="translate(248,141)"/>
<path d="M0 0 C4.95 0 9.9 0 15 0 C15 8.25 15 16.5 15 25 C10.05 25 5.1 25 0 25 C0 16.75 0 8.5 0 0 Z " fill="#000000" transform="translate(420,260)"/>
<path d="M0 0 C4.95 0 9.9 0 15 0 C15 8.25 15 16.5 15 25 C10.05 25 5.1 25 0 25 C0 16.75 0 8.5 0 0 Z " fill="#000000" transform="translate(309,189)"/>
<path d="M0 0 C4.95 0 9.9 0 15 0 C15 8.25 15 16.5 15 25 C10.05 25 5.1 25 0 25 C0 16.75 0 8.5 0 0 Z " fill="#000000" transform="translate(188,189)"/>
<path d="M0 0 C4.95 0 9.9 0 15 0 C15 8.25 15 16.5 15 25 C10.05 25 5.1 25 0 25 C0 16.75 0 8.5 0 0 Z " fill="#010102" transform="translate(309,141)"/>
<path d="M0 0 C4.95 0 9.9 0 15 0 C15 8.25 15 16.5 15 25 C10.05 25 5.1 25 0 25 C0 16.75 0 8.5 0 0 Z " fill="#010102" transform="translate(188,141)"/>
<path d="M0 0 C4.95 0 9.9 0 15 0 C15 7.92 15 15.84 15 24 C10.05 24 5.1 24 0 24 C0 16.08 0 8.16 0 0 Z " fill="#000000" transform="translate(309,237)"/>
<path d="M0 0 C4.95 0 9.9 0 15 0 C15 7.92 15 15.84 15 24 C10.05 24 5.1 24 0 24 C0 16.08 0 8.16 0 0 Z " fill="#000000" transform="translate(188,237)"/>
<path d="M0 0 C3.3 0 6.6 0 10 0 C8.71937515 1.7074998 7.38232443 3.37373596 6 5 C5.34 5 4.68 5 4 5 C2.61767557 3.37373596 1.28062485 1.7074998 0 0 Z " fill="#ED5D67" transform="translate(251,401)"/>
</svg>
