<?xml version="1.0" encoding="UTF-8"?>
<svg version="1.1" xmlns="http://www.w3.org/2000/svg" width="512" height="512">
<path d="M0 0 C0.99644531 -0.02835938 1.99289062 -0.05671875 3.01953125 -0.0859375 C11.51765624 1.15053445 17.04614113 7.79988733 22.82299805 13.60644531 C23.77258453 14.55032096 24.72279738 15.49356679 25.67358398 16.43623352 C28.24038934 18.98517193 30.79762934 21.54350358 33.35265326 24.10424519 C35.49192968 26.24662262 37.63579615 28.38437738 39.77963477 30.52218795 C44.83950544 35.56803641 49.89156309 40.62161331 54.9387207 45.68017578 C60.13425718 50.88719315 65.34244529 56.08130105 70.55710381 61.26916242 C75.0452367 65.73509866 79.52552534 70.20879844 83.99964172 74.68877673 C86.66691424 77.3594103 89.3369596 80.02710578 92.01453209 82.68741608 C94.53279766 85.19015115 97.04106557 87.70250346 99.54218292 90.22237206 C100.89208183 91.5776801 102.25178903 92.92319719 103.61183167 94.26832581 C109.21243155 99.93679174 114.76431333 105.90151122 114.75 114.375 C114.77191406 115.138125 114.79382813 115.90125 114.81640625 116.6875 C113.11825946 123.94417698 107.5400225 129.45316928 102.37768555 134.52539062 C101.71371262 135.18980164 101.04973969 135.85421265 100.36564636 136.53875732 C98.19221257 138.71011867 96.00838412 140.87068851 93.82421875 143.03125 C92.30613235 144.54373498 90.78871153 146.05688828 89.27192688 147.57067871 C85.29521518 151.5359848 81.30957453 155.49219504 77.32196045 159.4465332 C73.24758478 163.49011553 69.18178227 167.54229822 65.11523438 171.59375 C57.14765623 179.52923962 49.17061182 187.45513959 41.1875 195.375 C48.75457779 198.5581927 56.3479989 201.65205511 64 204.625 C64.97557861 205.0055957 65.95115723 205.38619141 66.95629883 205.77832031 C70.0328583 206.97852065 73.11008708 208.17698981 76.1875 209.375 C83.04471754 212.0444554 89.89935174 214.7200137 96.74560547 217.41748047 C98.89048799 218.25853518 101.03984281 219.08640209 103.19140625 219.91015625 C104.26261719 220.33167969 105.33382813 220.75320312 106.4375 221.1875 C107.30890625 221.52394531 108.1803125 221.86039063 109.078125 222.20703125 C111.59780025 223.60218477 112.74811179 224.88962551 114.1875 227.375 C114.375 231.125 114.375 231.125 114.1875 234.375 C117.340868 235.07574844 119.91474974 235.375 123.1875 235.375 C123.765 234.88 124.3425 234.385 124.9375 233.875 C128.23094741 231.6793684 131.3834187 231.94941211 135.1875 232.375 C138.36811262 233.22382967 141.36649906 234.41736092 144.41015625 235.6640625 C145.70487099 236.17542252 145.70487099 236.17542252 147.02574158 236.69711304 C149.77241729 237.7853779 152.51112655 238.89226603 155.25 240 C157.06135279 240.72129932 158.8731985 241.44136211 160.68554688 242.16015625 C164.21290275 243.56123221 167.73536235 244.97366235 171.25439453 246.39550781 C174.3808495 247.65678139 177.51473419 248.89241338 180.66357422 250.09667969 C181.34761826 250.36104828 182.03166229 250.62541687 182.73643494 250.89779663 C184.54007818 251.59311142 186.34693513 252.28007427 188.15405273 252.96630859 C192.50173884 254.98531454 195.29392109 257.04068006 197.97290039 261.04101562 C199.54905513 265.36744159 199.6369314 269.1490302 199.62109375 273.71875 C199.6263356 274.60606812 199.63157745 275.49338623 199.63697815 276.40759277 C199.643379 278.27676348 199.64208653 280.14597457 199.63354492 282.01513672 C199.62502602 284.86629204 199.65383679 287.71544807 199.68554688 290.56640625 C199.68715894 292.38802024 199.68658125 294.20963775 199.68359375 296.03125 C199.69482773 296.87828491 199.70606171 297.72531982 199.71763611 298.59802246 C199.63963443 305.25851967 197.62564301 308.86913079 192.9375 313.6875 C190.1875 315.375 190.1875 315.375 182.1875 316.375 C182.1875 348.055 182.1875 379.735 182.1875 412.375 C183.5075 413.035 184.8275 413.695 186.1875 414.375 C190.50777438 419.06558361 191.2950415 422.38761133 191.328125 428.62109375 C191.35712891 430.12446289 191.35712891 430.12446289 191.38671875 431.65820312 C191.42050693 433.75696865 191.43879713 435.85604226 191.44140625 437.95507812 C191.50706749 444.154558 191.50706749 444.154558 194.609375 449.34765625 C195.46015625 450.01667969 196.3109375 450.68570312 197.1875 451.375 C199.00400231 454.29984373 199.44505937 456.53932714 199.47802734 459.95654297 C199.4971669 461.30847244 199.4971669 461.30847244 199.51669312 462.68771362 C199.52003159 464.13780319 199.52003159 464.13780319 199.5234375 465.6171875 C199.5300943 466.61831573 199.5367511 467.61944397 199.54360962 468.65090942 C199.55372817 470.76741704 199.55842689 472.8839565 199.55810547 475.00048828 C199.56247475 478.23133177 199.5987928 481.46080473 199.63671875 484.69140625 C199.6425879 486.74999534 199.64655663 488.8085909 199.6484375 490.8671875 C199.66280853 491.82986542 199.67717957 492.79254333 199.69198608 493.78439331 C199.65323056 499.50073859 199.0565501 502.86715407 195.1875 507.375 C191.02989598 511.03765116 188.74157627 512.49845054 183.2445116 512.50922108 C182.19286094 512.51367892 181.14121027 512.51813676 180.0576914 512.52272969 C178.3109926 512.52245315 178.3109926 512.52245315 176.52900696 512.52217102 C175.29900426 512.52584771 174.06900155 512.5295244 172.80172604 512.5333125 C169.37647032 512.54245195 165.95126256 512.54705179 162.52599919 512.54970181 C158.83601517 512.5536003 155.14604509 512.56317901 151.45606995 512.57191467 C142.53873873 512.59169293 133.62140635 512.60174743 124.70405868 512.61064246 C120.50648806 512.61502351 116.30891872 512.62039083 112.11134911 512.62563133 C98.1602991 512.64264567 84.2092499 512.65714 70.25819111 512.66438007 C66.63640148 512.66629003 63.01461187 512.66821035 59.39282227 512.67016602 C58.49262378 512.67064976 57.5924253 512.6711335 56.66494807 512.6716319 C42.08128122 512.67993274 27.49769638 512.70526964 12.91406534 512.73774669 C-2.05304768 512.77080641 -17.02011902 512.78882789 -31.98726875 512.79202431 C-40.39301468 512.79419052 -48.79864105 512.80295521 -57.20435143 512.82848549 C-64.36303867 512.85017773 -71.52157732 512.85825026 -78.6802937 512.84851871 C-82.33284659 512.84396954 -85.98509281 512.84589554 -89.63760376 512.86528015 C-93.5982265 512.88611837 -97.55842534 512.87594062 -101.51908875 512.86274719 C-102.672401 512.87371644 -103.82571326 512.88468568 -105.01397437 512.89598733 C-111.50338358 512.84368577 -115.56493782 512.30509871 -120.8125 508.375 C-124.43447364 503.7998754 -125.91562006 500.13292908 -125.97363281 494.37597656 C-125.98324036 493.60127014 -125.9928479 492.82656372 -126.00274658 492.02838135 C-126.0091214 490.78456696 -126.0091214 490.78456696 -126.015625 489.515625 C-126.02132507 488.65241638 -126.02702515 487.78920776 -126.03289795 486.89984131 C-126.04233294 485.07419047 -126.04887596 483.24852271 -126.05273438 481.42285156 C-126.062417 478.64878089 -126.09344483 475.87545872 -126.125 473.1015625 C-126.13153308 471.32292104 -126.13678235 469.54427431 -126.140625 467.765625 C-126.1591452 466.53395599 -126.1591452 466.53395599 -126.17803955 465.27740479 C-126.15298716 458.70510273 -125.05257861 453.0902468 -120.75 447.875 C-118.8125 446.375 -118.8125 446.375 -116.8125 446.375 C-116.83344727 445.64909668 -116.85439453 444.92319336 -116.87597656 444.17529297 C-116.9594365 440.86700445 -117.01125539 437.55893789 -117.0625 434.25 C-117.11277344 432.53683594 -117.11277344 432.53683594 -117.1640625 430.7890625 C-117.23936556 424.31299934 -117.25519571 420.24918054 -112.8125 415.375 C-112.28092883 414.9134637 -111.74935766 414.45192739 -111.20167828 413.97640514 C-109.46548005 411.97496528 -109.43090427 410.99085364 -109.41377258 408.3697052 C-109.40123444 407.55782242 -109.38869629 406.74593964 -109.3757782 405.90945435 C-109.37721329 405.02256927 -109.37864838 404.1356842 -109.38012695 403.22192383 C-109.3699353 402.28514297 -109.35974365 401.34836212 -109.34924316 400.38319397 C-109.31901724 397.28274632 -109.30983251 394.18260712 -109.30078125 391.08203125 C-109.28394169 388.93396469 -109.26579244 386.78590804 -109.24638367 384.63786316 C-109.19879909 378.98095797 -109.1690444 373.3240929 -109.14294434 367.66705322 C-109.11318148 361.8957934 -109.06663651 356.12467194 -109.02148438 350.35351562 C-108.93535501 339.027416 -108.86805258 327.70128797 -108.8125 316.375 C-110.47188599 316.17136841 -110.47188599 316.17136841 -112.16479492 315.96362305 C-115.95293774 315.35233784 -117.34341355 314.71266766 -120.125 312.1875 C-121.10919922 311.33091797 -121.10919922 311.33091797 -122.11328125 310.45703125 C-125.56378927 306.2291674 -126.06886507 301.41070933 -126.2265625 296.1015625 C-126.28457031 294.37099609 -126.28457031 294.37099609 -126.34375 292.60546875 C-126.39015625 290.82076172 -126.39015625 290.82076172 -126.4375 289 C-126.47617188 287.78699219 -126.51484375 286.57398438 -126.5546875 285.32421875 C-126.64863786 282.34129479 -126.73430807 279.35837175 -126.8125 276.375 C-127.34516479 276.16667038 -127.87782959 275.95834076 -128.42663574 275.74369812 C-131.76849852 273.82657258 -134.2885677 271.18534826 -136.98632812 268.47583008 C-137.89927895 267.57054565 -137.89927895 267.57054565 -138.83067322 266.64697266 C-140.84023155 264.65130794 -142.84227963 262.64830516 -144.84375 260.64453125 C-146.24070617 259.25146297 -147.63788554 257.85861847 -149.03527832 256.46598816 C-151.96395364 253.5447752 -154.88872212 250.61971575 -157.81103516 247.69213867 C-161.54834921 243.94903915 -165.29688175 240.21740646 -169.04868317 236.48883533 C-171.93819061 233.6140946 -174.82070411 230.73241925 -177.70127869 227.84873009 C-179.07997488 226.47054593 -180.46102449 225.09471178 -181.84449768 223.72132301 C-183.78317062 221.79504952 -185.71198047 219.85939053 -187.63867188 217.92114258 C-188.20710312 217.36035507 -188.77553436 216.79956757 -189.3611908 216.2217865 C-193.50942111 212.01863649 -197.45751159 207.52763513 -198.140625 201.4609375 C-198.11484375 200.56632813 -198.0890625 199.67171875 -198.0625 198.75 C-198.2291998 194.67478315 -198.2291998 194.67478315 -200.64453125 191.55859375 C-202.66043299 190.31939671 -204.62651358 189.27628369 -206.8125 188.375 C-207.16441406 189.03886719 -207.51632813 189.70273438 -207.87890625 190.38671875 C-212.48380114 198.62262736 -216.68914834 202.76270248 -225.8125 205.375 C-228.29764294 205.55861299 -230.79130199 205.64083296 -233.28320312 205.6496582 C-234.36733742 205.6573246 -234.36733742 205.6573246 -235.47337341 205.66514587 C-237.84691803 205.67897183 -240.22017007 205.67809072 -242.59375 205.67578125 C-244.25232042 205.67967145 -245.91088985 205.68400679 -247.56945801 205.68876648 C-251.03933956 205.6962132 -254.50911932 205.69594825 -257.97900391 205.69067383 C-262.41757367 205.68487497 -266.85572672 205.70182758 -271.2942276 205.7250185 C-274.71724874 205.73977342 -278.14016985 205.74062526 -281.56321716 205.73750877 C-283.19942552 205.7380209 -284.83563964 205.74323812 -286.47181702 205.75332069 C-288.76208362 205.76570507 -291.05154248 205.7588826 -293.34179688 205.74731445 C-295.29321594 205.74825859 -295.29321594 205.74825859 -297.28405762 205.7492218 C-301.75645995 205.27488489 -305.15025289 203.92669386 -308.45703125 200.83984375 C-311.83960738 196.41647497 -312.93655027 194.39311285 -312.95967102 188.86665344 C-312.96682632 187.69603867 -312.97398163 186.52542389 -312.98135376 185.31933594 C-312.98404266 184.02842041 -312.98673157 182.73750488 -312.98950195 181.4074707 C-312.99576599 180.03923876 -313.00241274 178.67100852 -313.00941467 177.30278015 C-313.03046909 172.80212593 -313.04082007 168.30147132 -313.05078125 163.80078125 C-313.05482865 162.25129872 -313.05894556 160.70181637 -313.06313133 159.15233421 C-313.08218804 151.87104505 -313.09641662 144.58976604 -313.1047433 137.30845672 C-313.11451033 128.90636248 -313.14081366 120.50453207 -313.18124419 112.10253078 C-313.21142509 105.60731577 -313.22621414 99.11217628 -313.22952431 92.61689252 C-313.23187309 88.73827904 -313.24081022 84.85994725 -313.26598549 80.98140907 C-313.28930525 77.32959204 -313.29348409 73.67824135 -313.28322411 70.02636909 C-313.28249443 68.05364102 -313.30155951 66.08093643 -313.32128906 64.10830688 C-313.28153592 57.32585653 -313.01909922 52.81806763 -308.8125 47.375 C-303.14148723 42.97707173 -298.83038396 42.22249951 -291.84375 42.19799805 C-290.62601646 42.18814125 -290.62601646 42.18814125 -289.38368225 42.17808533 C-286.69328719 42.1583563 -284.00294811 42.14668684 -281.3125 42.13671875 C-280.39121307 42.13264322 -279.46992615 42.1285677 -278.52072144 42.12436867 C-273.63865381 42.10350353 -268.75661429 42.08920717 -263.87451172 42.07983398 C-258.85226622 42.06880542 -253.83046817 42.03444808 -248.80838013 41.99466228 C-244.93051379 41.96839759 -241.05275212 41.96013314 -237.17480469 41.95655251 C-235.32500203 41.95170717 -233.47520339 41.94015235 -231.62548828 41.92151451 C-209.49345167 41.71248224 -209.49345167 41.71248224 -201.0234375 48.6640625 C-200.41757813 49.43492188 -199.81171875 50.20578125 -199.1875 51 C-198.55585938 51.77601562 -197.92421875 52.55203125 -197.2734375 53.3515625 C-195.8125 55.375 -195.8125 55.375 -194.8125 57.375 C-164.15470857 55.13011254 -133.98974156 49.26205231 -104.9921875 38.95922852 C-91.74086956 34.25581555 -79.89617863 31.31194472 -66.296875 37.01953125 C-62.07749153 39.32161626 -58.41436891 42.20891276 -54.8125 45.375 C-51.42493728 43.91015297 -49.24018128 42.03622135 -46.65820312 39.41601562 C-45.44674622 38.19464905 -45.44674622 38.19464905 -44.21081543 36.9486084 C-42.91536804 35.62826599 -42.91536804 35.62826599 -41.59375 34.28125 C-40.69885864 33.3787854 -39.80396729 32.4763208 -38.88195801 31.54650879 C-36.02063913 28.66073953 -33.16561254 25.76887643 -30.3125 22.875 C-26.55807738 19.06693601 -22.79662666 15.2659921 -19.03125 11.46875 C-17.73580261 10.14840759 -17.73580261 10.14840759 -16.41418457 8.8013916 C-15.60654663 7.98714722 -14.79890869 7.17290283 -13.96679688 6.33398438 C-13.25938354 5.61609741 -12.55197021 4.89821045 -11.82312012 4.15856934 C-8.02264795 0.78726833 -5.03844617 0.06467838 0 0 Z M-56.8125 316.375 C-56.98700162 333.31536965 -56.98700162 333.31536965 -57.10546875 350.25585938 C-57.14134372 357.16491318 -57.18379338 364.07349015 -57.26513672 370.98217773 C-57.33030481 376.55188535 -57.36620127 382.1210817 -57.38176346 387.69114113 C-57.39285425 389.81668969 -57.41451227 391.94221009 -57.44688034 394.06754112 C-57.49040908 397.04393456 -57.49643551 400.01821279 -57.49365234 402.99487305 C-57.515224 403.87456757 -57.53679565 404.75426208 -57.559021 405.66061401 C-57.60324788 410.13041658 -57.60324788 410.13041658 -55.50127029 413.88810158 C-53.96905011 415.09058693 -52.39147719 416.234605 -50.8125 417.375 C-48.8125 422.375 -48.8125 422.375 -47.8125 443.375 C-31.3125 443.375 -14.8125 443.375 2.1875 443.375 C2.5175 436.775 2.8475 430.175 3.1875 423.375 C7.1875 415.375 7.1875 415.375 9.40911865 413.94706726 C11.33694513 412.56279521 11.33694513 412.56279521 11.54084015 410.59583473 C11.68235332 408.12848048 11.68167254 405.69310755 11.64160156 403.22192383 C11.64218567 402.28514297 11.64276978 401.34836212 11.64337158 400.38319397 C11.6405817 397.28243129 11.60944666 394.18262628 11.578125 391.08203125 C11.57066584 388.93398056 11.56497137 386.78592308 11.56097412 384.63786316 C11.54569232 378.98073581 11.50638827 373.32401844 11.4621582 367.66705322 C11.41407161 360.88148725 11.39568365 354.09578429 11.37234497 347.31009674 C11.33353913 336.99811258 11.25690232 326.68702819 11.1875 316.375 C-11.2525 316.375 -33.6925 316.375 -56.8125 316.375 Z M63.1875 316.375 C63.04208221 333.315388 63.04208221 333.315388 62.94335938 350.25585938 C62.91346394 357.16482732 62.87808911 364.07346412 62.81030273 370.98217773 C62.75599615 376.55186912 62.72608199 382.12120543 62.71311378 387.69114113 C62.70387157 389.81666466 62.68582363 391.94216865 62.65884972 394.06754112 C62.62257806 397.04374638 62.61755395 400.0184825 62.61987305 402.99487305 C62.60189667 403.87456757 62.58392029 404.75426208 62.56539917 405.66061401 C62.60238564 410.04428334 62.66682524 411.76235441 65.59797668 415.21125793 C66.87979073 416.28231026 66.87979073 416.28231026 68.1875 417.375 C70.1875 421.375 70.1875 421.375 71.1875 443.375 C88.0175 443.375 104.8475 443.375 122.1875 443.375 C122.5175 436.115 122.8475 428.855 123.1875 421.375 C124.1775 419.725 125.1675 418.075 126.1875 416.375 C126.1875 415.715 126.1875 415.055 126.1875 414.375 C127.5075 413.715 128.8275 413.055 130.1875 412.375 C130.1875 380.695 130.1875 349.015 130.1875 316.375 C108.0775 316.375 85.9675 316.375 63.1875 316.375 Z " fill="#373737" transform="translate(312.8125,-0.375)"/>
<path d="M0 0 C1.02608871 0.40986649 2.05217743 0.81973297 3.10935974 1.24201965 C6.38806419 2.55406443 9.66086576 3.88015847 12.93359375 5.20703125 C15.10833688 6.08104188 17.2834636 6.95409869 19.45898438 7.82617188 C23.61100175 9.49155148 27.76239619 11.1584627 31.91308594 12.82714844 C32.85156372 13.20407837 33.7900415 13.5810083 34.75695801 13.96936035 C36.38043949 14.62155793 38.00362436 15.27449501 39.62634277 15.92858887 C41.45140657 16.66205476 43.2801953 17.38623484 45.109375 18.109375 C46.04177002 18.48054443 46.97416504 18.85171387 47.93481445 19.23413086 C52.64947806 20.75402993 56.65748625 20.59073375 61.37109375 19.01953125 C61.70109375 18.02953125 62.03109375 17.03953125 62.37109375 16.01953125 C66.08997614 16.52665158 69.10563614 17.1356134 72.37109375 19.01953125 C72.28859375 19.90640625 72.20609375 20.79328125 72.12109375 21.70703125 C72.44591625 26.01092938 73.25921537 27.01140115 76.37109375 30.01953125 C79.88750149 31.84466408 83.55565305 33.19015885 87.26953125 34.55859375 C88.33724762 34.96612885 89.40496399 35.37366394 90.5050354 35.79354858 C93.9135094 37.09148289 97.32931082 38.36865004 100.74609375 39.64453125 C104.15404563 40.93165884 107.56035165 42.22301389 110.96572876 43.51693726 C113.08300749 44.31984501 115.2020623 45.11808901 117.3230896 45.91104126 C118.29074249 46.2750705 119.25839539 46.63909973 120.25537109 47.01416016 C121.10046234 47.32995026 121.94555359 47.64574036 122.81625366 47.97109985 C125.73486208 49.1688111 128.54935141 50.60866008 131.37109375 52.01953125 C131.37109375 61.58953125 131.37109375 71.15953125 131.37109375 81.01953125 C35.67109375 81.01953125 -60.02890625 81.01953125 -158.62890625 81.01953125 C-158.62890625 71.11953125 -158.62890625 61.21953125 -158.62890625 51.01953125 C-155.04789063 49.64023437 -151.466875 48.2609375 -147.77734375 46.83984375 C-142.85261113 44.94206342 -137.92818206 43.04349651 -133.00390625 41.14453125 C-132.36053566 40.89643078 -131.71716507 40.64833031 -131.0542984 40.39271164 C-114.12205788 33.86258642 -97.20025493 27.30715655 -80.30548096 20.68054199 C-77.51318928 19.58567117 -74.7203303 18.49226139 -71.92724609 17.39941406 C-71.01689606 17.04321991 -70.10654602 16.68702576 -69.16860962 16.32003784 C-67.35741084 15.6114309 -65.54619284 14.9028731 -63.73495483 14.19436646 C-59.14468412 12.39811015 -54.55598091 10.59799243 -49.96972656 8.79150391 C-45.38804365 6.98717313 -40.80261914 5.19268227 -36.2144165 3.40499878 C-34.51193779 2.7396371 -32.81084387 2.07071944 -31.11126709 1.39797974 C-28.78735933 0.47858194 -26.45888991 -0.42816409 -24.12890625 -1.33203125 C-23.45304474 -1.60291061 -22.77718323 -1.87378998 -22.08084106 -2.15287781 C-13.51107184 -5.43804452 -8.12274714 -3.32084185 0 0 Z " fill="#D4D6D9" transform="translate(363.62890625,217.98046875)"/>
<path d="M0 0 C3.23458297 1.1118879 5.91913511 2.55780571 8.75 4.4375 C12.94754176 7.13251261 17.21383301 8.66850993 22 10 C22.6496875 10.18691406 23.299375 10.37382813 23.96875 10.56640625 C34.75786545 12.86946743 46.03471856 9.49414299 55.125 3.62890625 C56.77547778 2.45427186 58.39176612 1.23183872 60 0 C63.04581486 1.36113013 65.13839026 2.89330096 67.48339844 5.25634766 C68.47397247 6.24714828 68.47397247 6.24714828 69.48455811 7.25796509 C70.18574768 7.96947723 70.88693726 8.68098938 71.609375 9.4140625 C72.33618469 10.14370209 73.06299438 10.87334167 73.81182861 11.62509155 C76.12929198 13.9537388 78.4396995 16.28924826 80.75 18.625 C82.32115444 20.20618653 83.89276371 21.78692125 85.46484375 23.3671875 C89.31518653 27.2395669 93.15976117 31.11760171 97 35 C95.71167688 37.64287956 94.38811164 39.88415821 92.5625 42.1875 C86.3928211 50.66853354 85.08763876 61.7815541 86 72 C87.7936508 80.98986423 91.280769 87.88309176 97 95 C95.37273034 98.91954709 92.70302182 101.77143222 89.85913086 104.84399414 C89.33177495 105.4190803 88.80441904 105.99416645 88.26108265 106.58667946 C32.33005495 167.29475253 32.33005495 167.29475253 -10.37109375 178.42480469 C-18.91344106 180.71087348 -27.03026667 184.11519329 -35.20797729 187.44503784 C-39.37423601 189.13258131 -43.56465257 190.75731353 -47.75390625 192.38671875 C-49.32316873 193.00025991 -50.89234358 193.61402527 -52.46142578 194.22802734 C-56.14514464 195.66758629 -59.83156973 197.10004254 -63.51933289 198.52920532 C-65.52869836 199.30832256 -67.53731846 200.08932671 -69.5456543 200.87109375 C-71.9272575 201.79780471 -74.31013339 202.7212551 -76.69458008 203.640625 C-77.7286499 204.04410156 -78.76271973 204.44757813 -79.828125 204.86328125 C-80.7140332 205.20657471 -81.59994141 205.54986816 -82.51269531 205.90356445 C-85.5007804 207.15890941 -85.5007804 207.15890941 -90 210 C-99.57 200.43 -109.14 190.86 -119 181 C-117.71399769 178.42799537 -116.41773509 175.86989077 -115.08984375 173.3203125 C-114.37217762 171.92198697 -113.65473606 170.52354617 -112.9375 169.125 C-112.57333984 168.43019531 -112.20917969 167.73539063 -111.83398438 167.01953125 C-107.34895375 158.21527521 -106.54965168 148.44278883 -109.1875 138.875 C-111.40134447 132.28592736 -114.76728362 126.48776601 -119 121 C-117.37446104 116.94238906 -114.49303824 114.17648813 -111.46801758 111.12988281 C-110.62125458 110.26581566 -110.62125458 110.26581566 -109.75738525 109.3842926 C-107.89216617 107.48482378 -106.01917621 105.59328936 -104.14453125 103.703125 C-103.50418127 103.05587212 -102.86383129 102.40861923 -102.20407677 101.74175262 C-98.81714725 98.31901968 -95.42413689 94.90245017 -92.02612305 91.49072266 C-88.51803273 87.96605692 -85.03139344 84.42094072 -81.54922962 80.87068558 C-78.8662737 78.14297465 -76.16785748 75.43096499 -73.46500206 72.72298431 C-72.17256135 71.42264568 -70.8860048 70.1164309 -69.60553932 68.8042984 C-67.81277938 66.97014738 -65.99921101 65.15934869 -64.17895508 63.35253906 C-63.65557053 62.80712967 -63.13218597 62.26172028 -62.59294128 61.69978333 C-59.7767791 58.9536546 -58.23635287 58.0269136 -54.27958679 57.57635498 C-50.56210245 58.056566 -48.92980754 58.94513326 -46.0625 61.3125 C-45.29035156 61.92738281 -44.51820313 62.54226562 -43.72265625 63.17578125 C-42 65 -42 65 -42 68 C-43.50390625 69.4375 -43.50390625 69.4375 -45.5625 71 C-50.65205516 75.28783763 -53.84992025 80.17833363 -57 86 C-57.43699219 86.79664063 -57.87398437 87.59328125 -58.32421875 88.4140625 C-61.15329287 94.66780528 -61.37660171 100.8045636 -61.4375 107.5625 C-61.4528479 108.87420166 -61.4528479 108.87420166 -61.46850586 110.21240234 C-61.2855724 123.85693569 -55.75319297 134.8155012 -46.5078125 144.640625 C-36.03995647 154.48888831 -23.50611493 158.64881952 -9.3137207 158.47290039 C4.01511173 157.91734418 16.45890242 152.32907319 26 143 C35.78815798 130.97454877 40.05798015 117.51712402 39.21289062 102.05126953 C38.58064905 95.95941898 36.47611477 89.9568424 33.75 84.49609375 C32.73573855 81.12050487 33.5665308 79.48268862 34.875 76.25 C38.09960492 67.30855315 37.86504536 59.7690814 34 51 C30.19406594 44.57003163 24.97555122 40.0879331 19.15625 35.515625 C15.49466339 32.63598848 12.00422594 29.56758159 8.5 26.5 C2.43201293 21.20586084 -3.72512705 16.0485984 -10 11 C-6.79239749 7.19364503 -3.59253891 3.45436433 0 0 Z " fill="#6BCDA1" transform="translate(282,48)"/>
<path d="M0 0 C3.11404599 2.00749995 5.85533893 4.32005803 8.60302734 6.79736328 C9.82137574 7.86813291 11.04013529 8.93843487 12.25927734 10.00830078 C12.86771484 10.54680664 13.47615234 11.0853125 14.10302734 11.64013672 C16.90466477 14.105155 19.75129065 16.51566322 22.60302734 18.92236328 C23.14161377 19.37828857 23.6802002 19.83421387 24.23510742 20.30395508 C27.55727757 23.11005016 30.91274349 25.87071507 34.29052734 28.60986328 C39.52637934 32.86784292 44.62215576 37.27716253 49.70214844 41.71875 C52.3450356 44.0260772 54.98085297 46.28586232 57.74755859 48.44580078 C61.56545913 51.59642861 62.77088911 54.88490644 63.29052734 59.73486328 C62.73458474 64.92366091 61.24920085 68.00121529 57.41552734 71.54736328 C53.27177722 74.34439461 48.82363891 75.17178826 43.91552734 74.23486328 C39.36099869 71.5593888 35.44066924 68.25746521 31.47802734 64.79736328 C30.87966064 64.28020752 30.28129395 63.76305176 29.66479492 63.23022461 C26.42988497 60.43172747 23.20838097 57.61789548 19.98583984 54.80517578 C5.99368871 41.20350557 5.99368871 41.20350557 -11.89697266 35.85986328 C-13.05841797 35.83150391 -14.21986328 35.80314453 -15.41650391 35.77392578 C-24.36096982 36.89793747 -29.71383741 42.31333862 -35.73193359 48.50756836 C-36.9676284 49.7544342 -36.9676284 49.7544342 -38.22828674 51.02648926 C-40.0065538 52.8232563 -41.78021315 54.62459302 -43.54970551 56.43000221 C-46.34759797 59.28371848 -49.1581171 62.12462682 -51.97296143 64.96159363 C-58.95526192 72.00374864 -65.91606896 79.06704885 -72.87335205 86.13391113 C-78.29461417 91.64003321 -83.72148561 97.14037155 -89.16568017 102.62383193 C-92.41649819 105.89961927 -95.64797633 109.19380969 -98.87689209 112.49116516 C-100.56868729 114.19791804 -102.26121313 115.9039471 -103.95458984 117.60913086 C-105.10638481 118.79731667 -105.10638481 118.79731667 -106.28144836 120.00950623 C-106.99058884 120.71755402 -107.69972931 121.42560181 -108.43035889 122.15510559 C-109.0431004 122.77765134 -109.6558419 123.40019709 -110.28715134 124.04160786 C-112.08447266 125.23486328 -112.08447266 125.23486328 -114.11729813 125.052104 C-117.25007705 123.75062594 -119.90777045 121.76626116 -122.64697266 119.79736328 C-123.79404772 118.98608002 -124.94118119 118.17487934 -126.08837891 117.36376953 C-127.07708984 116.66123047 -128.06580078 115.95869141 -129.08447266 115.23486328 C-130.07447266 114.57486328 -131.06447266 113.91486328 -132.08447266 113.23486328 C-131.50775132 103.13250833 -130.40455836 93.16400214 -129.10021973 83.1350708 C-126.9817378 66.83757119 -125.06354743 50.52565276 -123.34106445 34.18164062 C-123.26319199 33.45620056 -123.18531952 32.7307605 -123.10508728 31.9833374 C-122.89575497 30.03314776 -122.6906413 28.08250659 -122.48583984 26.13183594 C-122.08447266 23.23486328 -122.08447266 23.23486328 -121.08447266 21.23486328 C-118.92089844 20.81176758 -118.92089844 20.81176758 -116.02978516 20.55908203 C-114.95349854 20.45611816 -113.87721191 20.3531543 -112.76831055 20.24707031 C-111.59389404 20.13991699 -110.41947754 20.03276367 -109.20947266 19.92236328 C-94.99315894 18.47997747 -81.06734657 16.15861682 -67.08447266 13.23486328 C-66.22934082 13.05761719 -65.37420898 12.88037109 -64.49316406 12.69775391 C-55.74387473 10.83095275 -47.26451305 8.33889356 -38.79541016 5.47314453 C-38.06071503 5.22491943 -37.3260199 4.97669434 -36.56906128 4.72094727 C-32.87242205 3.46726636 -29.18379053 2.19462328 -25.50390625 0.89257812 C-24.12976281 0.41670593 -22.75557834 -0.05904778 -21.38134766 -0.53466797 C-20.16801758 -0.96368408 -18.9546875 -1.3927002 -17.70458984 -1.8347168 C-11.15774933 -3.51734488 -5.94330172 -3.30280045 0 0 Z " fill="#F4D2B8" transform="translate(240.08447265625,53.76513671875)"/>
<path d="M0 0 C13.096875 -0.0825 26.19375 -0.165 39.6875 -0.25 C43.81854248 -0.28641602 47.94958496 -0.32283203 52.20581055 -0.36035156 C57.26135254 -0.37841797 57.26135254 -0.37841797 59.63020325 -0.3817749 C61.28002744 -0.38790592 62.92983401 -0.40195107 64.57954407 -0.42230225 C67.08288572 -0.45163269 69.58513501 -0.45562256 72.08862305 -0.45410156 C72.8201015 -0.468494 73.55157995 -0.48288643 74.30522442 -0.497715 C77.92800248 -0.46829978 79.87989008 -0.0770808 82.95913696 1.89903259 C85 4 85 4 85.56518555 6.06958008 C85.5269165 6.85743896 85.48864746 7.64529785 85.44921875 8.45703125 C85.4032959 9.43236816 85.35737305 10.40770508 85.31005859 11.41259766 C84.60926716 19.52080975 83.74651954 27.60301087 82.8125 35.6875 C82.58657395 37.68063475 82.3609105 39.67379929 82.13549805 41.66699219 C80.43076781 56.6461799 78.60487064 71.61014427 76.70043945 86.56518555 C76.60264694 87.33328049 76.50485443 88.10137543 76.40409851 88.89274597 C76.21243484 90.39481033 76.01999924 91.89677642 75.82673645 93.39863586 C75.34705444 97.15145751 74.893574 100.9050791 74.48193359 104.66601562 C74.39735397 105.42763 74.31277435 106.18924438 74.22563171 106.97393799 C74.0682129 108.40529601 73.9156223 109.83719792 73.76911926 111.26971436 C72.58094948 122.02381315 72.58094948 122.02381315 69.5 125.875 C66.22441862 128.33168603 63.75770797 128.12121237 59.71435547 128.11352539 C58.73268748 128.11370619 58.73268748 128.11370619 57.73118782 128.11389065 C55.60981997 128.11314343 53.48853966 128.10552389 51.3671875 128.09765625 C50.07176025 128.09664917 48.77633301 128.09564209 47.44165039 128.09460449 C42.5860913 128.08935846 37.73054479 128.07539729 32.875 128.0625 C22.02625 128.041875 11.1775 128.02125 0 128 C0 85.76 0 43.52 0 0 Z " fill="#6F6FB9" transform="translate(17,60)"/>
<path d="M0 0 C95.7 0 191.4 0 290 0 C290 11.22 290 22.44 290 34 C194.3 34 98.6 34 0 34 C0 22.78 0 11.56 0 0 Z " fill="#D5D7DA" transform="translate(205,461)"/>
<path d="M0 0 C4.42041657 3.25974853 8.72242544 6.60254332 12.9375 10.125 C21.39357399 16.84352454 28.15540419 19.00412924 39 18 C42.07579444 17.48736759 44.98167576 16.80488646 48 16 C52.40296464 24.07210185 52.01105283 32.39781859 49.5625 41.125 C46.15341675 50.28391029 39.66072158 56.74924815 31.04296875 61.16015625 C23.36380602 64.31698223 12.91529234 64.3998853 4.94140625 62.12890625 C2.42864554 60.93328688 0.25623212 59.6262987 -2 58 C-2.72703125 57.48050781 -3.4540625 56.96101563 -4.203125 56.42578125 C-10.9779665 51.04354606 -14.64070937 44.24716942 -17 36 C-18.24137414 24.62554855 -15.74477623 15.69450046 -8.66015625 6.76171875 C-6.05487687 3.99705758 -3.19482161 2.04468583 0 0 Z " fill="#58AB84" transform="translate(254,126)"/>
<path d="M0 0 C5.94 0 11.88 0 18 0 C18 31.02 18 62.04 18 94 C12.06 94 6.12 94 0 94 C0 62.98 0 31.96 0 0 Z " fill="#AEB0B4" transform="translate(341,316)"/>
<path d="M0 0 C5.61 0 11.22 0 17 0 C17 31.02 17 62.04 17 94 C11.39 94 5.78 94 0 94 C0 62.98 0 31.96 0 0 Z " fill="#B4B6BA" transform="translate(461,316)"/>
<path d="M0 0 C5.61 0 11.22 0 17 0 C17 31.02 17 62.04 17 94 C11.39 94 5.78 94 0 94 C0 62.98 0 31.96 0 0 Z " fill="#B4B6BA" transform="translate(222,316)"/>
<path d="M0 0 C0.84671265 -0.00145523 1.69342529 -0.00291046 2.5657959 -0.00440979 C4.35102794 -0.00275421 6.13627476 0.00876892 7.92138672 0.02954102 C10.64742926 0.05850005 13.37152591 0.05014247 16.09765625 0.03710938 C17.83594691 0.04334731 19.57423146 0.05173868 21.3125 0.0625 C22.12408569 0.05956436 22.93567139 0.05662872 23.77185059 0.05360413 C28.37221007 0.12995147 31.41629795 0.52257745 35.15625 3.49609375 C36.72560594 6.63480563 36.50826103 9.03465197 36.15625 12.49609375 C34.16049556 15.25529948 32.56527092 17.16279752 29.15356445 17.96981812 C26.71416184 18.17492202 24.32298139 18.21530114 21.875 18.1953125 C20.5383429 18.20604546 20.5383429 18.20604546 19.17468262 18.21699524 C17.29533893 18.22476104 15.41590481 18.21978379 13.53662109 18.20288086 C10.66460769 18.18364971 7.79743158 18.22305451 4.92578125 18.26757812 C3.09635129 18.26786849 1.26691691 18.26472833 -0.5625 18.2578125 C-1.84549988 18.28073616 -1.84549988 18.28073616 -3.15441895 18.30412292 C-8.91492167 18.19178778 -8.91492167 18.19178778 -11.52514648 16.23672485 C-14.08159874 13.36632527 -14.83533096 11.74024601 -14.96875 7.87109375 C-12.42568752 0.2419063 -7.07542781 -0.09793815 0 0 Z " fill="#383838" transform="translate(338.84375,255.50390625)"/>
<path d="M0 0 C4.82387067 -0.0229102 9.64755389 -0.04283686 14.47143555 -0.05493164 C16.11369464 -0.05997174 17.75594923 -0.06680378 19.39819336 -0.07543945 C21.75375479 -0.08751926 24.10925709 -0.09323139 26.46484375 -0.09765625 C27.20339096 -0.10281754 27.94193817 -0.10797882 28.7028656 -0.11329651 C30.46898088 -0.1134925 32.23497146 -0.06194719 34 0 C38.24918293 4.24918293 35 11.99074787 35 18 C23.45 18 11.9 18 0 18 C0 12.06 0 6.12 0 0 Z " fill="#9B9DA1" transform="translate(452,426)"/>
<path d="M0 0 C4.82387067 -0.0229102 9.64755389 -0.04283686 14.47143555 -0.05493164 C16.11369464 -0.05997174 17.75594923 -0.06680378 19.39819336 -0.07543945 C21.75375479 -0.08751926 24.10925709 -0.09323139 26.46484375 -0.09765625 C27.20339096 -0.10281754 27.94193817 -0.10797882 28.7028656 -0.11329651 C30.46898088 -0.1134925 32.23497146 -0.06194719 34 0 C38.24918293 4.24918293 35 11.99074787 35 18 C23.45 18 11.9 18 0 18 C0 12.06 0 6.12 0 0 Z " fill="#9B9DA1" transform="translate(213,426)"/>
<path d="M0 0 C11.22 0 22.44 0 34 0 C34 5.61 34 11.22 34 17 C22.78 17 11.56 17 0 17 C0 11.39 0 5.78 0 0 Z " fill="#A1A4A8" transform="translate(333,427)"/>
<path d="M0 0 C4.64080887 2.09691569 7.73327953 5.32828506 11.3125 8.875 C11.97056641 9.50019531 12.62863281 10.12539062 13.30664062 10.76953125 C13.92345703 11.37925781 14.54027344 11.98898438 15.17578125 12.6171875 C15.74208252 13.17003418 16.30838379 13.72288086 16.8918457 14.29248047 C18 16 18 16 17.88110352 17.98193359 C16.83035672 20.38854845 15.5778371 21.8102305 13.7265625 23.671875 C12.7365625 24.66767578 12.7365625 24.66767578 11.7265625 25.68359375 C11.03304688 26.36550781 10.33953125 27.04742187 9.625 27.75 C8.93921875 28.44738281 8.2534375 29.14476563 7.546875 29.86328125 C6.88429688 30.52199219 6.22171875 31.18070313 5.5390625 31.859375 C4.62954834 32.76381348 4.62954834 32.76381348 3.70166016 33.68652344 C2 35 2 35 -1 35 C-5.43444991 27.43767918 -8.7717071 20.88439983 -7 12 C-5.31221891 7.50543277 -3.41552098 3.41552098 0 0 Z " fill="#57A882" transform="translate(391,96)"/>
<path d="M0 0 C2.41579678 1.08756514 3.82507489 2.38345716 5.67407227 4.28027344 C6.66987305 5.29057617 6.66987305 5.29057617 7.68579102 6.32128906 C8.36770508 7.02833984 9.04961914 7.73539063 9.75219727 8.46386719 C10.44958008 9.17478516 11.14696289 9.88570312 11.86547852 10.61816406 C13.58466307 12.37267433 15.29645598 14.13380071 17.00219727 15.90136719 C15.00084789 20.1838303 13.25334209 21.3652608 8.89672852 23.13183594 C1.10576587 25.2031175 -7.28186989 25.36796265 -14.43530273 21.40136719 C-15.64442976 20.59973601 -16.84212744 19.77830237 -17.99780273 18.90136719 C-17.10430092 13.59239782 -13.36372074 10.75352123 -9.68530273 7.08886719 C-9.00790039 6.38310547 -8.33049805 5.67734375 -7.63256836 4.95019531 C-6.97321289 4.28826172 -6.31385742 3.62632813 -5.63452148 2.94433594 C-5.03341553 2.33614014 -4.43230957 1.72794434 -3.81298828 1.10131836 C-1.99780273 -0.09863281 -1.99780273 -0.09863281 0 0 Z " fill="#58AA83" transform="translate(313.997802734375,18.0986328125)"/>
<path d="M0 0 C4.90856149 6.46878283 5.75056167 12.28559401 5.5078125 20.3125 C4.78586005 25.55498548 2.89144102 29.6112056 0 34 C-5.20991195 34 -6.18121796 32.36311771 -9.73242188 28.86328125 C-10.41884766 28.16589844 -11.10527344 27.46851563 -11.8125 26.75 C-12.51826172 26.06808594 -13.22402344 25.38617188 -13.95117188 24.68359375 C-14.61310547 24.01972656 -15.27503906 23.35585937 -15.95703125 22.671875 C-16.56522705 22.0644043 -17.17342285 21.45693359 -17.80004883 20.83105469 C-19 19 -19 19 -18.89477539 17 C-17.82843406 14.61651618 -16.56771383 13.17958953 -14.7265625 11.328125 C-14.0665625 10.66425781 -13.4065625 10.00039062 -12.7265625 9.31640625 C-12.03304687 8.63449219 -11.33953125 7.95257813 -10.625 7.25 C-9.93921875 6.55261719 -9.2534375 5.85523438 -8.546875 5.13671875 C-7.88429687 4.47800781 -7.22171875 3.81929687 -6.5390625 3.140625 C-5.62954834 2.23618652 -5.62954834 2.23618652 -4.70166016 1.31347656 C-3 0 -3 0 0 0 Z " fill="#58AA83" transform="translate(152,181)"/>
</svg>
