<?xml version="1.0" encoding="UTF-8"?>
<svg version="1.1" xmlns="http://www.w3.org/2000/svg" width="512" height="512">
<path d="M0 0 C6.71476204 1.2858055 10.90228247 4.55719757 16 9 C16.99 9.84691406 16.99 9.84691406 18 10.7109375 C55.75557741 45.57395051 59.81783874 112.21849551 61.78187561 160.03048706 C63.95531388 219.81684539 63.95531388 219.81684539 60 239 C43.59671441 239.07019397 27.19347781 239.12303892 10.79007816 239.15543652 C3.17307058 239.17088154 -4.44384348 239.19192561 -12.06079102 239.22631836 C-18.70253409 239.25629339 -25.3442094 239.27559218 -31.98601824 239.28226548 C-35.50027996 239.28616408 -39.0143479 239.29527644 -42.52854729 239.31719017 C-46.45909025 239.34149954 -50.38944654 239.3419648 -54.32006836 239.34057617 C-55.47525467 239.351362 -56.63044098 239.36214783 -57.82063293 239.3732605 C-67.9302471 239.33469144 -76.33569769 237.46940158 -83.81640625 230.24609375 C-91.94369553 221.57585404 -92.38319342 214.10177268 -92.099823 202.53460693 C-91.79275268 194.7377809 -91.05098819 186.96350628 -90.34594727 179.19458008 C-90.0583378 176.01650792 -89.78336156 172.83750945 -89.50976562 169.65820312 C-89.33145948 167.63795624 -89.15245023 165.61777126 -88.97265625 163.59765625 C-88.89032242 162.64681656 -88.80798859 161.69597687 -88.72315979 160.71632385 C-88.64315231 159.84708786 -88.56314484 158.97785187 -88.48071289 158.08227539 C-88.41187393 157.31557022 -88.34303497 156.54886505 -88.27210999 155.75892639 C-88 154 -88 154 -87 153 C-85.31391034 152.92794489 -83.62499341 152.91613932 -81.9375 152.9375 C-81.01839844 152.94652344 -80.09929687 152.95554687 -79.15234375 152.96484375 C-78.44207031 152.97644531 -77.73179687 152.98804688 -77 153 C-76.76925781 153.73605469 -76.53851563 154.47210938 -76.30078125 155.23046875 C-73.69764942 163.13035551 -73.69764942 163.13035551 -68 169 C-61.92702016 171.71828974 -56.97982734 172.44340677 -50.37109375 172.43237305 C-48.97945763 172.44766052 -48.97945763 172.44766052 -47.55970764 172.46325684 C-44.51890922 172.49324759 -41.47842654 172.50263149 -38.4375 172.51171875 C-36.31899988 172.52857574 -34.20050971 172.54672735 -32.08203125 172.56611633 C-26.52548326 172.61351146 -20.96897558 172.64338871 -15.41229248 172.66955566 C-9.73441611 172.6994141 -4.05667848 172.74592629 1.62109375 172.79101562 C12.7473231 172.87692946 23.87358109 172.94432776 35 173 C34.53046844 169.78404831 34.0559545 166.56885052 33.58056641 163.35375977 C33.4482814 162.44727943 33.3159964 161.5407991 33.17970276 160.60684967 C32.28657928 154.5883355 31.22147954 148.74569667 29.375 142.9375 C29.12411621 142.12933838 28.87323242 141.32117676 28.61474609 140.48852539 C24.22825483 126.97420409 18.17828696 113.92905846 9 103 C8.27941406 102.14148438 7.55882812 101.28296875 6.81640625 100.3984375 C-0.25217933 92.28855249 -7.68665106 85.41867575 -17 80 C-15.636505 70.35728531 -13.80804095 60.84812385 -11.77734375 51.328125 C-11.46850785 49.86940814 -11.1598825 48.41064668 -10.85145569 46.95184326 C-10.210862 43.92604862 -9.56768723 40.90081786 -8.92260742 37.87597656 C-8.09480906 33.99324968 -7.27378437 30.10912531 -6.45462704 26.22456741 C-5.82166831 23.22669159 -5.18515778 20.22957868 -4.54754829 17.2326889 C-4.24301192 15.79913731 -3.9396053 14.36534524 -3.63734245 12.93131256 C-3.21750788 10.94204519 -2.7923647 8.9539004 -2.36694336 6.96582031 C-2.12648788 5.83476868 -1.88603241 4.70371704 -1.63829041 3.53839111 C-1 1 -1 1 0 0 Z " fill="#000000" transform="translate(374,109)"/>
<path d="M0 0 C2.6826344 2.6826344 2.67955102 4.68191092 3.33764648 8.41235352 C3.45704023 9.07719851 3.57643398 9.74204351 3.69944572 10.42703533 C4.09801011 12.65965266 4.48471649 14.89414989 4.87109375 17.12890625 C5.15169906 18.72020087 5.4328131 20.31140586 5.71440125 21.90252686 C6.47542035 26.21955043 7.22460403 30.53854746 7.97025299 34.85824966 C8.43726599 37.56114564 8.90689158 40.26357641 9.37713623 42.96591187 C13.77740395 68.28262012 17.94417482 93.63087171 21.78136063 119.03913498 C22.11809196 121.2667995 22.45683067 123.49415147 22.79586792 125.72146606 C25.22064436 141.69361769 27.39956395 157.6801772 29.2421875 173.73046875 C29.32550449 174.45167719 29.40882149 175.17288563 29.49466324 175.91594887 C30.93189981 188.44456491 32.13001536 200.97718796 32.203125 213.59765625 C32.21009399 214.43159912 32.21706299 215.26554199 32.22424316 216.12475586 C32.24138154 218.7707236 32.24795272 221.41647923 32.25 224.0625 C32.25100708 224.96974823 32.25201416 225.87699646 32.25305176 226.81173706 C32.24308191 240.10110058 31.79975022 252.96453698 29 266 C28.75636719 267.29292969 28.51273438 268.58585937 28.26171875 269.91796875 C23.89300753 290.22937021 14.17775268 309.49399129 5 328 C1.01113514 326.74836205 -2.65718567 325.2841479 -6.375 323.375 C-7.24898437 322.92898438 -8.12296875 322.48296875 -9.0234375 322.0234375 C-9.67570312 321.68570312 -10.32796875 321.34796875 -11 321 C-10.45345313 315.42747572 -9.67218973 310.00008568 -8.59082031 304.5078125 C1.58870398 252.57530408 -5.60554433 200.54740283 -19 150 C-35.71377659 85.97836492 -35.71377659 85.97836492 -27 55 C-26.54173828 53.30037109 -26.54173828 53.30037109 -26.07421875 51.56640625 C-20.48485437 33.00971652 -11.00088519 15.85233939 0 0 Z " fill="#000000" transform="translate(118,40)"/>
<path d="M0 0 C24.42 0 48.84 0 74 0 C74 24.42 74 48.84 74 74 C49.58 74 25.16 74 0 74 C0 49.58 0 25.16 0 0 Z " fill="#000000" transform="translate(179,351)"/>
<path d="M0 0 C2.88366259 2.20876284 3.69987839 2.99401417 4.9375 6.25 C5.49922842 11.14506197 5.56010083 15.72462796 3.6875 20.3125 C1.81154447 22.38945077 0.51494607 23.21153716 -2.0625 24.25 C-6.82535399 24.4412427 -11.25570377 23.26893125 -15.6875 21.625 C-19.79857607 20.15624428 -22.78010713 20.02645918 -27.0625 21.25 C-29.32438743 24.11144644 -29.32438743 24.11144644 -29.3125 27.5625 C-27.6629572 32.42865127 -25.3337662 33.51831176 -20.99609375 35.98828125 C-12.97760657 39.43697813 -5.68303534 39.50336994 2.9375 39.375 C4.09378906 39.36597656 5.25007813 39.35695313 6.44140625 39.34765625 C9.27365647 39.32424922 12.10546619 39.29145995 14.9375 39.25 C12.73450177 47.40395451 9.66049927 51.32503176 2.56640625 55.77734375 C-7.33777564 61.32545158 -17.5426318 63.24814191 -28.58618164 65.29394531 C-36.73411675 66.85060234 -44.30419006 69.11913154 -52.02734375 72.11328125 C-55.0625 73.25 -55.0625 73.25 -57.0625 73.25 C-53.30478764 63.00169357 -46.37583259 57.48769699 -37.0625 52.25 C-38.155625 51.569375 -39.24875 50.88875 -40.375 50.1875 C-44.11412325 47.4474947 -46.17910213 44.84840141 -47.0625 40.25 C-47.99725384 30.54024445 -47.35263848 22.93290856 -41.4140625 15.06640625 C-36.65773833 9.40658818 -31.6610683 5.33829718 -25 2.0625 C-23.97777344 1.55332031 -22.95554688 1.04414063 -21.90234375 0.51953125 C-15.19289528 -2.47987832 -6.69325255 -3.58567101 0 0 Z " fill="#000000" transform="translate(133.0625,398.75)"/>
</svg>
