<?xml version="1.0" encoding="UTF-8"?>
<svg version="1.1" xmlns="http://www.w3.org/2000/svg" width="512" height="512">
<path d="M0 0 C0.83682312 0.00054382 1.67364624 0.00108765 2.53582764 0.00164795 C16.23414933 0.0424819 29.30153802 0.97359548 42.625 4.375 C43.4814209 4.58930664 44.3378418 4.80361328 45.22021484 5.02441406 C91.31787445 16.90106591 130.00898902 46.89934499 154.625 87.375 C178.94437749 128.60572901 185.08794204 177.86898181 173.3125 224.125 C169.36878569 238.67471242 163.69806148 252.08353864 156.625 265.375 C155.944375 266.71691406 155.944375 266.71691406 155.25 268.0859375 C153.20459103 271.81342621 152.08868791 273.21510762 148 274.625 C146.88625 274.8725 145.7725 275.12 144.625 275.375 C142.50829643 276.83541766 142.50829643 276.83541766 141.625 279.375 C141.5537619 281.72585745 141.62555537 284.00696522 141.8125 286.3515625 C141.750625 287.01929688 141.68875 287.68703125 141.625 288.375 C138.625 290.375 138.625 290.375 135.125 291.3125 C131.09487719 292.39220952 131.09487719 292.39220952 128.625 295.375 C128.6559375 297.045625 128.6559375 297.045625 128.6875 298.75 C128.60961579 303.26728438 127.7849815 304.2150185 124.625 307.375 C119.32051128 312.20755367 113.78261667 316.67238232 108.0625 321 C106.98838867 321.81984375 106.98838867 321.81984375 105.89257812 322.65625 C102.55175646 325.19758477 99.19808035 327.66932099 95.72265625 330.0234375 C92.75046094 332.27975727 91.91184924 333.06437828 90.625 336.375 C90.32289452 338.44065201 90.32289452 338.44065201 90.35375977 340.61767578 C90.34357315 341.44598907 90.33338654 342.27430237 90.32289124 343.12771606 C90.32075119 344.01627289 90.31861115 344.90482971 90.31640625 345.8203125 C90.29122939 347.72135701 90.26583163 349.6223986 90.24023438 351.5234375 C90.21161063 354.50519945 90.18758289 357.48691035 90.16870117 360.46875 C90.1468565 363.35704779 90.10738778 366.24473163 90.06640625 369.1328125 C90.06629044 370.00922394 90.06617462 370.88563538 90.0660553 371.78860474 C89.91164844 381.59591752 87.3837755 391.02850489 80.625 398.375 C72.57139175 404.375 72.57139175 404.375 68.625 404.375 C68.67140625 405.13425781 68.7178125 405.89351563 68.765625 406.67578125 C68.80171875 407.66964844 68.8378125 408.66351563 68.875 409.6875 C68.92140625 410.67363281 68.9678125 411.65976562 69.015625 412.67578125 C68.625 415.375 68.625 415.375 66.65625 416.9375 C65.9859375 417.411875 65.315625 417.88625 64.625 418.375 C63.9328631 420.63800895 63.9328631 420.63800895 63.875 423.0625 C63.81828125 423.87074219 63.7615625 424.67898438 63.703125 425.51171875 C63.67734375 426.12660156 63.6515625 426.74148438 63.625 427.375 C64.264375 427.519375 64.90375 427.66375 65.5625 427.8125 C67.625 428.375 67.625 428.375 68.625 429.375 C68.9375 432.25 68.9375 432.25 68.625 435.375 C67.985625 435.808125 67.34625 436.24125 66.6875 436.6875 C64.08603314 438.81597289 64.215745 439.79745094 63.875 443.0625 C63.77420133 444.49888098 63.68532073 445.9363506 63.625 447.375 C64.945 448.035 66.265 448.695 67.625 449.375 C68.46894749 454.86065868 66.48591889 457.96200742 63.390625 462.2578125 C59.53160583 466.88522044 55.81469615 469.29604095 49.89453125 470.50390625 C49.09249268 470.67092041 48.2904541 470.83793457 47.46411133 471.01000977 C46.85720459 471.13045654 46.25029785 471.25090332 45.625 471.375 C45.64594727 471.97973145 45.66689453 472.58446289 45.68847656 473.20751953 C45.77208945 475.97150771 45.82380054 478.73522913 45.875 481.5 C45.90851563 482.45132812 45.94203125 483.40265625 45.9765625 484.3828125 C46.05781531 490.23301462 45.75802299 493.87246833 41.625 498.375 C37.2802559 501.75944345 34.47397526 502.87725697 28.98046875 502.89257812 C27.67891846 502.90518677 26.37736816 502.91779541 25.03637695 502.93078613 C23.62841242 502.92362587 22.22045287 502.91542178 20.8125 502.90625 C19.35571026 502.90894764 17.89892228 502.91283233 16.44213867 502.91784668 C13.39582091 502.92372904 10.34997378 502.9152203 7.30371094 502.89648438 C3.40972937 502.8736947 -0.4831493 502.8868247 -4.37709045 502.91077423 C-7.3832624 502.92526692 -10.38917524 502.92061053 -13.39535522 502.91026306 C-14.83059827 502.90760532 -16.26586527 502.91083191 -17.70108032 502.92018127 C-19.71087154 502.93040215 -21.72074585 502.91204712 -23.73046875 502.89257812 C-25.44206177 502.88780457 -25.44206177 502.88780457 -27.18823242 502.88293457 C-32.24147977 502.07750432 -35.33543286 499.50750857 -38.734375 495.8046875 C-41.04503512 490.97430754 -40.81086804 486.77579296 -40.625 481.5 C-40.60695312 480.52546875 -40.58890625 479.5509375 -40.5703125 478.546875 C-40.52341734 476.15522193 -40.45780907 473.76563403 -40.375 471.375 C-41.38167725 471.10453857 -41.38167725 471.10453857 -42.40869141 470.82861328 C-51.37021863 468.30508621 -51.37021863 468.30508621 -54.75 465.25 C-55.35585937 464.73179687 -55.96171875 464.21359375 -56.5859375 463.6796875 C-62.0564441 456.63252834 -62.9446968 449.70016253 -62.765625 440.99609375 C-62.75996521 439.94341812 -62.75430542 438.89074249 -62.74847412 437.8061676 C-62.72624884 434.47446426 -62.67607768 431.1438732 -62.625 427.8125 C-62.60491714 425.54103126 -62.58666951 423.2695455 -62.5703125 420.99804688 C-62.52642971 415.45665768 -62.45965777 409.91590834 -62.375 404.375 C-63.79317017 403.91685913 -63.79317017 403.91685913 -65.23999023 403.44946289 C-72.47996681 400.96810342 -76.84780614 396.49830862 -80.3671875 389.81640625 C-82.99601728 383.44811707 -83.66584825 377.94273152 -83.68359375 371.1171875 C-83.70873524 369.33984021 -83.73413351 367.56249653 -83.75976562 365.78515625 C-83.78856301 363.00928548 -83.81261123 360.23347704 -83.83129883 357.45751953 C-83.85296121 354.76043372 -83.89237528 352.06403499 -83.93359375 349.3671875 C-83.93376747 348.12640945 -83.93376747 348.12640945 -83.9339447 346.86056519 C-84.01507288 342.1295273 -84.54623835 339.33836195 -87.375 335.375 C-87.375 334.715 -87.375 334.055 -87.375 333.375 C-88.04660156 333.14554687 -88.71820313 332.91609375 -89.41015625 332.6796875 C-93.19151668 331.01568963 -96.42301261 328.8462216 -99.8125 326.5 C-100.51334717 326.0153125 -101.21419434 325.530625 -101.9362793 325.03125 C-118.35580916 313.47889163 -132.48339254 299.52740112 -144.375 283.375 C-144.79104492 282.81925293 -145.20708984 282.26350586 -145.63574219 281.69091797 C-164.81956999 255.77525527 -177.38250737 221.3805626 -177.578125 188.94921875 C-177.58518463 188.16826843 -177.59224426 187.38731812 -177.59951782 186.58270264 C-177.82646647 154.11574386 -177.82646647 154.11574386 -174.375 140.375 C-174.17632324 139.55402832 -173.97764648 138.73305664 -173.77294922 137.88720703 C-165.8788073 105.99723896 -150.45708486 78.5669909 -128.375 54.375 C-127.62863281 53.55644531 -126.88226563 52.73789062 -126.11328125 51.89453125 C-101.03657439 25.7053642 -66.5869993 9.24311499 -31.375 2.375 C-30.42512207 2.18808594 -29.47524414 2.00117187 -28.49658203 1.80859375 C-18.99813098 0.13617351 -9.61445372 -0.02353978 0 0 Z " fill="#EFBF20" transform="translate(253.375,4.625)"/>
<path d="M0 0 C1.27594528 -0.00761353 2.55189056 -0.01522705 3.86650085 -0.02307129 C6.56065156 -0.03385592 9.25392258 -0.03810763 11.94799805 -0.03222656 C15.37428333 -0.02634331 18.79914525 -0.05688384 22.22515583 -0.09734344 C25.52507489 -0.12965244 28.82494746 -0.12510395 32.125 -0.125 C33.34198074 -0.14139526 34.55896149 -0.15779053 35.81282043 -0.17468262 C43.43274379 -0.11344408 49.47708793 0.93922247 55.76171875 5.46875 C61.58406327 11.78847347 63.29561213 16.40149346 63.234375 24.9921875 C62.62919032 33.36612224 59.3528803 41.38437088 56.76269531 49.30566406 C54.73506092 55.71298876 53.01246515 62.20899136 51.24780273 68.69262695 C49.31844577 75.70260456 47.12228539 82.59218463 44.76171875 89.46875 C45.81560791 89.45303955 46.86949707 89.4373291 47.95532227 89.42114258 C51.8894884 89.36657744 55.82362149 89.33230388 59.75805664 89.30395508 C61.45635617 89.28892874 63.1546173 89.26850177 64.8527832 89.24243164 C67.30299393 89.20577551 69.75268875 89.18896211 72.203125 89.17578125 C72.95445206 89.16029739 73.70577911 89.14481354 74.47987366 89.12886047 C81.06723016 89.12678798 85.46439234 90.89215345 90.94921875 94.65625 C95.65059282 99.35762407 97.96217509 103.75938371 98.19921875 110.46875 C98.18336287 119.8554318 92.69350799 126.88009984 87.44921875 134.15625 C85.99176305 136.21362175 84.53606711 138.27224112 83.08203125 140.33203125 C82.35274414 141.36279785 81.62345703 142.39356445 80.87207031 143.45556641 C77.78096108 147.86908679 74.79556992 152.34907285 71.82421875 156.84375 C64.64963856 167.6700994 57.343196 178.40433028 50.02978516 189.13720703 C46.50002274 194.31991457 42.98129062 199.51010971 39.46166992 204.69970703 C38.2657715 206.46277518 37.06948214 208.22557737 35.87304688 209.98828125 C32.32110986 215.22144602 28.77004209 220.45518062 25.2250061 225.69302368 C24.07513418 227.39149436 22.9244407 229.08940517 21.7734375 230.78710938 C20.36181088 232.86944669 18.9515357 234.95270117 17.54296875 237.03710938 C1.09032553 261.28744822 1.09032553 261.28744822 -7.23828125 263.46875 C-15.58999133 264.1533164 -22.76570048 261.93448488 -29.23828125 256.46875 C-34.25918926 250.12306415 -34.95327686 244.35526922 -34.23828125 236.46875 C-33.45709172 232.76800732 -32.32277842 229.23706422 -31.11328125 225.65625 C-30.46197752 223.62982524 -29.81360897 221.60245507 -29.16796875 219.57421875 C-28.67828613 218.04740479 -28.67828613 218.04740479 -28.17871094 216.48974609 C-26.73448479 211.85037582 -25.48312738 207.16481009 -24.23828125 202.46875 C-22.14675119 194.65396245 -19.91062564 186.89434438 -17.55078125 179.15625 C-17.26525391 178.21974609 -16.97972656 177.28324219 -16.68554688 176.31835938 C-14.95035494 170.67390599 -13.1333914 165.06151063 -11.23828125 159.46875 C-12.31722656 159.48969727 -13.39617187 159.51064453 -14.5078125 159.53222656 C-18.54071593 159.60505424 -22.57356215 159.65070384 -26.60693359 159.68847656 C-28.34694214 159.70849522 -30.08688424 159.73571886 -31.82666016 159.77050781 C-34.33903471 159.81945952 -36.850514 159.84181587 -39.36328125 159.859375 C-40.1313208 159.88002014 -40.89936035 159.90066528 -41.69067383 159.92193604 C-48.18853868 159.92458837 -53.28372054 157.96700789 -58.26171875 153.7578125 C-63.09508616 147.80690349 -64.85131042 142.52847516 -64.66796875 134.828125 C-64.06101851 130.0828777 -62.60282628 125.72289607 -61.08056641 121.21166992 C-57.82505239 111.4997879 -55.17482929 101.62824762 -52.47247314 91.7517395 C-50.15257766 83.27642544 -47.78388194 74.83395423 -45.16308594 66.4453125 C-43.68881939 61.70026029 -42.30985063 56.92822725 -40.92578125 52.15625 C-40.62945801 51.14369141 -40.33313477 50.13113281 -40.02783203 49.08789062 C-38.45035655 43.68938203 -36.90414886 38.28443959 -35.40625 32.86328125 C-35.10565674 31.79182861 -34.80506348 30.72037598 -34.49536133 29.61645508 C-33.92362246 27.57620342 -33.3616366 25.53318347 -32.8112793 23.48706055 C-30.53831355 15.43972074 -27.50982404 8.14331322 -20.23828125 3.46875 C-13.6553169 -0.18901898 -7.41499769 0.00122112 0 0 Z " fill="#E4A322" transform="translate(239.23828125,75.53125)"/>
<path d="M0 0 C0.83682312 0.00054382 1.67364624 0.00108765 2.53582764 0.00164795 C16.23414933 0.0424819 29.30153802 0.97359548 42.625 4.375 C43.4814209 4.58930664 44.3378418 4.80361328 45.22021484 5.02441406 C91.31787445 16.90106591 130.00898902 46.89934499 154.625 87.375 C178.94437749 128.60572901 185.08794204 177.86898181 173.3125 224.125 C169.37037854 238.66883585 163.71294901 252.09612458 156.625 265.375 C156.14804687 266.28121094 155.67109375 267.18742187 155.1796875 268.12109375 C153.44541868 271.18060573 152.25551799 273.08976567 149 274.5625 C146.625 274.375 146.625 274.375 144.8125 273.3125 C143.07137469 270.4717166 143.30116802 268.69042265 143.625 265.375 C144.7436276 262.67551734 146.21366851 260.20663768 147.6875 257.6875 C152.39109396 249.24167128 155.81939295 240.6125508 158.91113281 231.46728516 C159.51369161 229.70123561 160.15491255 227.94844733 160.8046875 226.19921875 C174.23300451 187.73593864 168.86843002 142.3846816 151.546875 106.11767578 C134.01273298 70.28227303 105.38181406 41.44938436 68.625 25.375 C67.84850098 25.03484863 67.07200195 24.69469727 66.27197266 24.34423828 C26.06186488 7.11133495 -20.15296745 6.48692925 -60.8671875 22.484375 C-82.80650443 31.4444296 -101.39545531 43.87851491 -118.375 60.375 C-118.92679932 60.90416016 -119.47859863 61.43332031 -120.04711914 61.97851562 C-140.62404001 82.03697628 -154.31297627 108.74674741 -161.375 136.375 C-161.81972656 138.10556641 -161.81972656 138.10556641 -162.2734375 139.87109375 C-172.53816007 182.2003705 -164.99324246 227.05313154 -143.10009766 264.55908203 C-137.90283491 273.04240771 -131.88793453 280.85918882 -125.375 288.375 C-124.65699219 289.21546875 -123.93898437 290.0559375 -123.19921875 290.921875 C-111.66412647 304.11654539 -98.18370606 314.51750094 -83.1875 323.5 C-77.58163541 327.14653327 -74.45066954 333.14799137 -72.375 339.375 C-72.28119213 340.77019181 -72.23973692 342.16930053 -72.2331543 343.56762695 C-72.22260262 344.82957634 -72.22260262 344.82957634 -72.21183777 346.11701965 C-72.20767349 347.02328598 -72.20350922 347.92955231 -72.19921875 348.86328125 C-72.17601902 350.78581822 -72.15190162 352.7083443 -72.12695312 354.63085938 C-72.09185719 357.65917235 -72.06250184 360.68708466 -72.04907227 363.71557617 C-72.03356723 366.64030371 -71.99334108 369.5638635 -71.94921875 372.48828125 C-71.95112717 373.38847488 -71.95303558 374.28866852 -71.95500183 375.21614075 C-71.84381057 380.95242168 -70.9116756 383.86062813 -67.375 388.375 C-67.375 389.035 -67.375 389.695 -67.375 390.375 C-60.10349584 394.29042532 -53.73622746 394.67652269 -45.62158203 394.68139648 C-44.44362061 394.68972 -43.26565918 394.69804352 -42.05200195 394.70661926 C-38.83288228 394.72654257 -35.61391263 394.73735165 -32.39473963 394.74244571 C-30.38016174 394.74609856 -28.36560838 394.75234333 -26.35103989 394.7594471 C-19.31327989 394.78391091 -12.2755933 394.79698723 -5.23779297 394.80053711 C1.30730214 394.80417201 7.85192824 394.83407138 14.39688003 394.87594169 C20.02936739 394.9107028 25.66169969 394.92608653 31.29429352 394.92678314 C34.65260855 394.92757387 38.01044501 394.93621716 41.36864853 394.96478081 C45.11711105 394.99167353 48.86428282 394.98687454 52.61279297 394.97436523 C53.71539459 394.98919952 54.81799622 395.00403381 55.95401001 395.01931763 C62.72621019 394.9550506 67.46442551 393.9368865 72.625 389.375 C77.6916075 383.55778894 78.31469069 378.4223283 78.15625 370.8828125 C78.15951294 369.89683075 78.16277588 368.910849 78.1661377 367.89498901 C78.17921183 363.71064392 78.13469383 359.52738713 78.09521484 355.34326172 C78.07460761 352.27278463 78.08360836 349.20331825 78.09375 346.1328125 C78.06432312 344.73858566 78.06432312 344.73858566 78.03430176 343.31619263 C78.06423119 335.67825273 80.19207299 329.13993597 85.41320801 323.41384888 C89.72811384 319.37733647 94.72756853 316.22173879 99.6171875 312.93261719 C104.54874613 309.56004896 108.84535628 305.74719322 113.1875 301.63671875 C119.83582024 295.46784468 119.83582024 295.46784468 123.8125 295 C126.625 295.375 126.625 295.375 128.625 297.375 C128.55072516 301.55914919 128.12052269 303.76298915 125.46484375 307.04296875 C124.50707031 307.87441406 123.54929687 308.70585937 122.5625 309.5625 C122.03954346 310.02027832 121.51658691 310.47805664 120.9777832 310.94970703 C113.59718665 317.29369693 105.73727917 323.26776697 97.65869141 328.69628906 C94.29232755 330.97765531 92.10151672 332.56813693 90.625 336.375 C90.32289452 338.44065201 90.32289452 338.44065201 90.35375977 340.61767578 C90.34357315 341.44598907 90.33338654 342.27430237 90.32289124 343.12771606 C90.32075119 344.01627289 90.31861115 344.90482971 90.31640625 345.8203125 C90.29122939 347.72135701 90.26583163 349.6223986 90.24023438 351.5234375 C90.21161063 354.50519945 90.18758289 357.48691035 90.16870117 360.46875 C90.1468565 363.35704779 90.10738778 366.24473163 90.06640625 369.1328125 C90.06629044 370.00922394 90.06617462 370.88563538 90.0660553 371.78860474 C89.91164844 381.59591752 87.3837755 391.02850489 80.625 398.375 C72.57139175 404.375 72.57139175 404.375 68.625 404.375 C68.67140625 405.13425781 68.7178125 405.89351563 68.765625 406.67578125 C68.80171875 407.66964844 68.8378125 408.66351563 68.875 409.6875 C68.92140625 410.67363281 68.9678125 411.65976562 69.015625 412.67578125 C68.625 415.375 68.625 415.375 66.65625 416.9375 C65.9859375 417.411875 65.315625 417.88625 64.625 418.375 C63.9328631 420.63800895 63.9328631 420.63800895 63.875 423.0625 C63.81828125 423.87074219 63.7615625 424.67898438 63.703125 425.51171875 C63.67734375 426.12660156 63.6515625 426.74148438 63.625 427.375 C64.264375 427.519375 64.90375 427.66375 65.5625 427.8125 C67.625 428.375 67.625 428.375 68.625 429.375 C68.9375 432.25 68.9375 432.25 68.625 435.375 C67.985625 435.808125 67.34625 436.24125 66.6875 436.6875 C64.08603314 438.81597289 64.215745 439.79745094 63.875 443.0625 C63.77420133 444.49888098 63.68532073 445.9363506 63.625 447.375 C64.945 448.035 66.265 448.695 67.625 449.375 C68.46894749 454.86065868 66.48591889 457.96200742 63.390625 462.2578125 C59.53160583 466.88522044 55.81469615 469.29604095 49.89453125 470.50390625 C49.09249268 470.67092041 48.2904541 470.83793457 47.46411133 471.01000977 C46.85720459 471.13045654 46.25029785 471.25090332 45.625 471.375 C45.64594727 471.97973145 45.66689453 472.58446289 45.68847656 473.20751953 C45.77208945 475.97150771 45.82380054 478.73522913 45.875 481.5 C45.90851563 482.45132812 45.94203125 483.40265625 45.9765625 484.3828125 C46.05781531 490.23301462 45.75802299 493.87246833 41.625 498.375 C37.2802559 501.75944345 34.47397526 502.87725697 28.98046875 502.89257812 C27.67891846 502.90518677 26.37736816 502.91779541 25.03637695 502.93078613 C23.62841242 502.92362587 22.22045287 502.91542178 20.8125 502.90625 C19.35571026 502.90894764 17.89892228 502.91283233 16.44213867 502.91784668 C13.39582091 502.92372904 10.34997378 502.9152203 7.30371094 502.89648438 C3.40972937 502.8736947 -0.4831493 502.8868247 -4.37709045 502.91077423 C-7.3832624 502.92526692 -10.38917524 502.92061053 -13.39535522 502.91026306 C-14.83059827 502.90760532 -16.26586527 502.91083191 -17.70108032 502.92018127 C-19.71087154 502.93040215 -21.72074585 502.91204712 -23.73046875 502.89257812 C-25.44206177 502.88780457 -25.44206177 502.88780457 -27.18823242 502.88293457 C-32.24147977 502.07750432 -35.33543286 499.50750857 -38.734375 495.8046875 C-41.04503512 490.97430754 -40.81086804 486.77579296 -40.625 481.5 C-40.60695312 480.52546875 -40.58890625 479.5509375 -40.5703125 478.546875 C-40.52341734 476.15522193 -40.45780907 473.76563403 -40.375 471.375 C-41.38167725 471.10453857 -41.38167725 471.10453857 -42.40869141 470.82861328 C-51.37021863 468.30508621 -51.37021863 468.30508621 -54.75 465.25 C-55.35585937 464.73179687 -55.96171875 464.21359375 -56.5859375 463.6796875 C-62.0564441 456.63252834 -62.9446968 449.70016253 -62.765625 440.99609375 C-62.75996521 439.94341812 -62.75430542 438.89074249 -62.74847412 437.8061676 C-62.72624884 434.47446426 -62.67607768 431.1438732 -62.625 427.8125 C-62.60491714 425.54103126 -62.58666951 423.2695455 -62.5703125 420.99804688 C-62.52642971 415.45665768 -62.45965777 409.91590834 -62.375 404.375 C-63.79317017 403.91685913 -63.79317017 403.91685913 -65.23999023 403.44946289 C-72.47996681 400.96810342 -76.84780614 396.49830862 -80.3671875 389.81640625 C-82.99601728 383.44811707 -83.66584825 377.94273152 -83.68359375 371.1171875 C-83.70873524 369.33984021 -83.73413351 367.56249653 -83.75976562 365.78515625 C-83.78856301 363.00928548 -83.81261123 360.23347704 -83.83129883 357.45751953 C-83.85296121 354.76043372 -83.89237528 352.06403499 -83.93359375 349.3671875 C-83.93376747 348.12640945 -83.93376747 348.12640945 -83.9339447 346.86056519 C-84.01507288 342.1295273 -84.54623835 339.33836195 -87.375 335.375 C-87.375 334.715 -87.375 334.055 -87.375 333.375 C-88.04660156 333.14554687 -88.71820313 332.91609375 -89.41015625 332.6796875 C-93.19151668 331.01568963 -96.42301261 328.8462216 -99.8125 326.5 C-100.51334717 326.0153125 -101.21419434 325.530625 -101.9362793 325.03125 C-118.35580916 313.47889163 -132.48339254 299.52740112 -144.375 283.375 C-144.79104492 282.81925293 -145.20708984 282.26350586 -145.63574219 281.69091797 C-164.81956999 255.77525527 -177.38250737 221.3805626 -177.578125 188.94921875 C-177.58518463 188.16826843 -177.59224426 187.38731812 -177.59951782 186.58270264 C-177.82646647 154.11574386 -177.82646647 154.11574386 -174.375 140.375 C-174.17632324 139.55402832 -173.97764648 138.73305664 -173.77294922 137.88720703 C-165.8788073 105.99723896 -150.45708486 78.5669909 -128.375 54.375 C-127.62863281 53.55644531 -126.88226563 52.73789062 -126.11328125 51.89453125 C-101.03657439 25.7053642 -66.5869993 9.24311499 -31.375 2.375 C-30.42512207 2.18808594 -29.47524414 2.00117187 -28.49658203 1.80859375 C-18.99813098 0.13617351 -9.61445372 -0.02353978 0 0 Z " fill="#030201" transform="translate(253.375,4.625)"/>
<path d="M0 0 C1.58669495 -0.00472824 1.58669495 -0.00472824 3.20544434 -0.009552 C4.93196228 -0.00651566 4.93196228 -0.00651566 6.69335938 -0.00341797 C8.45226501 -0.00485306 8.45226501 -0.00485306 10.2467041 -0.00631714 C12.73169 -0.00699917 15.21667766 -0.00514331 17.70166016 -0.00097656 C21.52054825 0.00437134 25.33931872 -0.00092083 29.15820312 -0.00732422 C31.56575547 -0.00666344 33.97330774 -0.00538229 36.38085938 -0.00341797 C37.53187134 -0.0054422 38.6828833 -0.00746643 39.86877441 -0.009552 C40.92657104 -0.00639984 41.98436768 -0.00324768 43.07421875 0 C44.47867249 0.00119339 44.47867249 0.00119339 45.91149902 0.00241089 C48.03710938 0.12939453 48.03710938 0.12939453 49.03710938 1.12939453 C48.52439287 7.5090528 47.05693478 13.51996856 45.41210938 19.69189453 C45.147771 20.69422119 44.88343262 21.69654785 44.61108398 22.72924805 C41.97055507 32.60866779 38.97334478 42.37088371 35.95898438 52.14111328 C35.65476562 53.12724609 35.35054688 54.11337891 35.03710938 55.12939453 C34.7096875 56.19029297 34.38226563 57.25119141 34.04492188 58.34423828 C33.05171747 61.58177666 32.07418555 64.82370635 31.09960938 68.06689453 C30.79289307 69.0555249 30.48617676 70.04415527 30.17016602 71.06274414 C28.50990192 76.63153667 27.70091087 81.31796324 28.03710938 87.12939453 C30.54645237 88.38406603 32.32088292 88.28813011 35.12939453 88.3347168 C36.19034332 88.35466202 37.25129211 88.37460724 38.34439087 88.39515686 C39.4933786 88.41186935 40.64236633 88.42858185 41.82617188 88.44580078 C43.5865126 88.47697243 43.5865126 88.47697243 45.38241577 88.5087738 C49.14225242 88.57431436 52.9021606 88.63317529 56.66210938 88.69189453 C59.20638769 88.73507546 61.7506587 88.7786896 64.29492188 88.82275391 C70.54224144 88.93000035 76.78963263 89.03175833 83.03710938 89.12939453 C84.24560547 93.76464844 84.24560547 93.76464844 82.36914062 97.04736328 C81.54281357 98.14749079 80.70177181 99.23665562 79.84960938 100.31689453 C78.90670042 101.57260582 77.96672264 102.8305221 77.02929688 104.09033203 C76.53397461 104.75129883 76.03865234 105.41226563 75.52832031 106.09326172 C73.05917386 109.46468958 70.77150795 112.95184772 68.47460938 116.44189453 C63.6933271 123.66529668 58.85090887 130.84479733 53.97460938 138.00439453 C53.25829346 139.05626953 52.54197754 140.10814453 51.80395508 141.19189453 C50.69034782 142.82703362 49.57673891 144.4621716 48.46296692 146.09719849 C44.58533623 151.79046854 40.71713139 157.49012097 36.85012817 163.19061279 C35.66119633 164.94324047 34.47209705 166.69575443 33.28295898 168.44824219 C29.60767026 173.8649214 25.93328147 179.28220884 22.26048279 184.70057678 C6.85623285 207.42573211 6.85623285 207.42573211 0.47460938 216.75439453 C0.03955078 217.39344727 -0.39550781 218.0325 -0.84375 218.69091797 C-2.43848552 221.01471297 -3.96490773 223.13141164 -5.96289062 225.12939453 C-8.08789062 224.75439453 -8.08789062 224.75439453 -9.96289062 224.12939453 C-9.37324668 217.58970716 -7.77186599 211.74550848 -5.77539062 205.50439453 C-3.35895781 197.76821217 -1.05857333 190.021183 1.03710938 182.19189453 C3.12946145 174.39159475 5.32347054 166.62809605 7.59960938 158.87939453 C8.47008343 155.90521495 9.34007517 152.93089466 10.20996094 149.95654297 C10.75004444 148.11056688 11.2910202 146.26485153 11.83300781 144.41943359 C12.55514188 141.95005108 13.26647821 139.47782315 13.97460938 137.00439453 C14.2918396 135.9307666 14.2918396 135.9307666 14.61547852 134.83544922 C15.75005153 130.82993835 16.25094522 127.28947379 16.03710938 123.12939453 C13.52856309 121.87512139 11.76823557 121.97759667 8.96069336 121.93994141 C7.90297226 121.92322388 6.84525116 121.90650635 5.75547791 121.88928223 C4.60962723 121.87570679 3.46377655 121.86213135 2.28320312 121.84814453 C1.11201431 121.82973511 -0.0591745 121.81132568 -1.26585388 121.7923584 C-6.29489744 121.71343957 -11.32407884 121.64579103 -16.35327148 121.57714844 C-20.01618382 121.52556812 -23.67897542 121.46826595 -27.34179688 121.41064453 C-28.48967178 121.39706909 -29.63754669 121.38349365 -30.82020569 121.36950684 C-32.4020591 121.34443054 -32.4020591 121.34443054 -34.01586914 121.31884766 C-34.94915543 121.30631958 -35.88244171 121.2937915 -36.8440094 121.28088379 C-38.96289062 121.12939453 -38.96289062 121.12939453 -39.96289062 120.12939453 C-39.65011131 113.76954837 -38.18283577 108.44347195 -36.08007812 102.45751953 C-34.83675314 98.75362831 -33.77973036 95.02870045 -32.77539062 91.25439453 C-32.45183594 90.04009766 -32.12828125 88.82580078 -31.79492188 87.57470703 C-31.52035156 86.43775391 -31.24578125 85.30080078 -30.96289062 84.12939453 C-30.69863281 83.05431641 -30.434375 81.97923828 -30.16210938 80.87158203 C-30.09636719 79.96666016 -30.030625 79.06173828 -29.96289062 78.12939453 C-31.39650406 76.52387342 -31.39650406 76.52387342 -32.96289062 75.12939453 C-33.06215557 71.90620325 -32.2882777 69.05833633 -30.96289062 66.12939453 C-27.83789062 64.06689453 -27.83789062 64.06689453 -24.96289062 63.12939453 C-24.96289062 60.81939453 -24.96289062 58.50939453 -24.96289062 56.12939453 C-25.62289062 56.12939453 -26.28289062 56.12939453 -26.96289062 56.12939453 C-26.50466594 52.65997907 -26.0715738 49.45544404 -24.96289062 46.12939453 C-21.99289063 45.63439453 -21.99289063 45.63439453 -18.96289062 45.12939453 C-18.74375 44.19482422 -18.52460938 43.26025391 -18.29882812 42.29736328 C-15.68914323 31.40470437 -12.45151 20.76979847 -8.96289062 10.12939453 C-8.6936377 9.2939209 -8.42438477 8.45844727 -8.14697266 7.59765625 C-7.88126465 6.78184082 -7.61555664 5.96602539 -7.34179688 5.12548828 C-7.10146729 4.38355225 -6.8611377 3.64161621 -6.61352539 2.87719727 C-5.30294551 -0.64341863 -3.51329109 0.00298531 0 0 Z " fill="#EDEDED" transform="translate(233.962890625,94.87060546875)"/>
<path d="M0 0 C1.10156937 -0.00960754 2.20313873 -0.01921509 3.33808899 -0.02911377 C5.12402718 -0.03548859 5.12402718 -0.03548859 6.94604492 -0.04199219 C8.78280037 -0.0505423 8.78280037 -0.0505423 10.65666199 -0.05926514 C13.24994034 -0.06871832 15.84323072 -0.07525038 18.43652344 -0.07910156 C22.40019747 -0.08880278 26.3633521 -0.11982241 30.3269043 -0.15136719 C32.84578142 -0.15789768 35.36466226 -0.16314797 37.88354492 -0.16699219 C39.66037407 -0.18551239 39.66037407 -0.18551239 41.47309875 -0.20440674 C48.66878047 -0.18496979 53.33329145 0.39841936 58.98901367 5.16113281 C62.20707618 11.10217129 61.09224249 18.20257694 59.29370117 24.52832031 C58.70704836 26.36907625 58.10489228 28.20494809 57.48901367 30.03613281 C56.83891597 32.06554965 56.19051276 34.09550999 55.54370117 36.12597656 C55.21724609 37.13772949 54.89079102 38.14948242 54.55444336 39.19189453 C53.1472556 43.63483781 51.87497434 48.11239871 50.61401367 52.59863281 C50.13137982 54.30188229 49.64829974 56.00500538 49.16479492 57.70800781 C48.91810059 58.57748047 48.67140625 59.44695312 48.41723633 60.34277344 C46.89532116 65.68289159 45.35016048 71.01621572 43.80151367 76.34863281 C43.49922852 77.395271 43.19694336 78.44190918 42.88549805 79.52026367 C42.60383789 80.48843018 42.32217773 81.45659668 42.03198242 82.45410156 C41.782146 83.31543701 41.53230957 84.17677246 41.27490234 85.06420898 C40.61401367 87.16113281 40.61401367 87.16113281 39.61401367 89.16113281 C40.19173019 89.15447098 40.76944672 89.14780914 41.3646698 89.14094543 C47.38303049 89.07452283 53.40128687 89.02930347 59.41992188 88.99633789 C61.66540762 88.98126099 63.91086396 88.96079629 66.15625 88.93481445 C69.38573466 88.89838364 72.61482961 88.88139526 75.84448242 88.86816406 C76.84674362 88.85268021 77.84900482 88.83719635 78.88163757 88.82124329 C85.51896312 88.81964433 88.95647726 89.71907233 93.92651367 94.28613281 C96.37361102 98.45526163 96.59696395 101.45604237 95.61401367 106.16113281 C94.28808594 108.64135742 94.28808594 108.64135742 92.55541992 111.25097656 C91.91902588 112.21648437 91.28263184 113.18199219 90.62695312 114.17675781 C89.6305481 115.65402344 89.6305481 115.65402344 88.61401367 117.16113281 C87.99937256 118.07894531 87.38473145 118.99675781 86.75146484 119.94238281 C84.8011139 122.8362386 82.83460247 125.71852351 80.86401367 128.59863281 C79.74331965 130.24166749 78.62263185 131.88470643 77.50222778 133.52793884 C76.72417393 134.66891757 75.94591272 135.80975493 75.16744995 136.95045471 C71.24243165 142.70221715 67.33209134 148.4638974 63.42364502 154.22692871 C62.23191779 155.98409548 61.03994726 157.74109694 59.84790039 159.49804688 C57.43644445 163.05230007 55.02520886 166.60670272 52.61401367 170.16113281 C28.35525391 205.92184848 28.35525391 205.92184848 18.4753418 220.42285156 C16.73906947 222.97715775 15.011179 225.53690161 13.28588867 228.09863281 C12.31203162 229.53620143 11.33808119 230.97370679 10.36401367 232.41113281 C9.7375293 233.34940918 9.7375293 233.34940918 9.09838867 234.30664062 C6.25452053 238.48591066 3.22699274 242.85464328 -1.38598633 245.16113281 C-6.09375632 245.55344698 -8.45678329 245.6345004 -12.69848633 243.47363281 C-16.64690157 240.07615923 -18.24869069 237.95607135 -18.65161133 232.68847656 C-18.56537421 227.18554887 -16.88726523 222.18987179 -15.26098633 216.97363281 C-14.61191715 214.82408387 -13.96349086 212.6743407 -13.31567383 210.52441406 C-12.98921875 209.45271973 -12.66276367 208.38102539 -12.32641602 207.27685547 C-10.96090965 202.75281803 -9.67139971 198.2084413 -8.38598633 193.66113281 C5.17590256 146.03735503 5.17590256 146.03735503 7.61401367 141.16113281 C6.73530861 141.18111832 6.73530861 141.18111832 5.83885193 141.20150757 C-0.27696703 141.33459943 -6.39237249 141.42488813 -12.50927734 141.49072266 C-14.78972085 141.52083286 -17.07004915 141.56173082 -19.35009766 141.61376953 C-22.63448554 141.68683552 -25.9173382 141.72064783 -29.20239258 141.74707031 C-30.21620499 141.77803802 -31.2300174 141.80900574 -32.27455139 141.84091187 C-38.35548021 141.84378109 -41.72026211 141.00785313 -46.1502533 136.7460022 C-49.22947671 132.79679408 -48.87135397 127.90386806 -48.38598633 123.16113281 C-47.49595986 119.49379483 -46.30022001 115.94889609 -45.10131836 112.37255859 C-44.23307577 109.68841476 -43.43171572 106.9875961 -42.63208008 104.28222656 C-42.17007202 102.72592529 -42.17007202 102.72592529 -41.69873047 101.13818359 C-41.07850639 99.04514936 -40.46174881 96.95108447 -39.84863281 94.85595703 C-39.55931885 93.89061035 -39.27000488 92.92526367 -38.97192383 91.93066406 C-38.71459473 91.06030518 -38.45726562 90.18994629 -38.19213867 89.29321289 C-37.38598633 87.16113281 -37.38598633 87.16113281 -35.38598633 85.16113281 C-32.38598633 84.84863281 -32.38598633 84.84863281 -29.38598633 85.16113281 C-27.38598633 88.16113281 -27.38598633 88.16113281 -27.66357422 90.99926758 C-28.33835824 93.95267343 -29.08433536 96.84648627 -29.94458008 99.75097656 C-30.2481543 100.78287109 -30.55172852 101.81476563 -30.86450195 102.87792969 C-31.1809668 103.94076172 -31.49743164 105.00359375 -31.82348633 106.09863281 C-32.74352582 109.21538516 -33.66330432 112.33220793 -34.58081055 115.44970703 C-35.06167788 117.06902559 -35.55019619 118.68614855 -36.05444336 120.29833984 C-37.10437912 123.71641266 -37.46090501 126.60080122 -37.38598633 130.16113281 C-36.39999702 130.17326309 -36.39999702 130.17326309 -35.39408875 130.18563843 C-28.564772 130.27156405 -21.73574954 130.3710623 -14.90673828 130.47851562 C-12.35665827 130.5168456 -9.80652344 130.5516913 -7.25634766 130.58300781 C-3.5949339 130.62857081 0.06610117 130.68658019 3.72729492 130.74707031 C4.87112137 130.75862152 6.01494781 130.77017273 7.19343567 130.78207397 C8.25430893 130.80194366 9.31518219 130.82181335 10.40820312 130.84228516 C11.81051933 130.86227066 11.81051933 130.86227066 13.24116516 130.88265991 C15.61401367 131.16113281 15.61401367 131.16113281 18.61401367 133.16113281 C18.17489578 140.77809904 16.54148204 147.63705673 14.30151367 154.91113281 C13.65934767 157.05168615 13.01741881 159.19231065 12.37573242 161.33300781 C11.91432861 162.85571289 11.91432861 162.85571289 11.44360352 164.40917969 C10.46648232 167.65053053 9.53291866 170.90283214 8.61401367 174.16113281 C6.51030685 181.56037751 4.34698684 188.9420731 2.18920898 196.32568359 C0.25249414 202.95762333 -1.66345703 209.59455282 -3.54223633 216.24316406 C-4.58324933 219.84333402 -5.70938392 223.41432647 -6.87036133 226.97753906 C-7.45003879 229.43238527 -7.47433906 231.64749756 -7.38598633 234.16113281 C-5.52955907 234.13493574 -5.52955907 234.13493574 -3.38598633 233.16113281 C-1.69820758 231.08934569 -0.26733033 229.08336517 1.17651367 226.84863281 C2.15668196 225.37838038 3.13717655 223.90834544 4.11791992 222.43847656 C4.66722168 221.60687012 5.21652344 220.77526367 5.7824707 219.91845703 C8.9501015 215.14969907 12.18205832 210.42446189 15.40310669 205.69171143 C17.46373846 202.66165469 19.51922318 199.62811143 21.57495117 196.59472656 C22.41705826 195.35236593 23.25918067 194.11001568 24.10131836 192.86767578 C24.51764526 192.25349792 24.93397217 191.63932007 25.36291504 191.00653076 C28.98679725 185.66122494 32.6129788 180.31747847 36.23901367 174.97363281 C36.63338623 174.39238647 37.02775879 173.81114014 37.43408203 173.21228027 C43.67297903 164.01727673 49.91852157 154.82681205 56.16967773 145.64013672 C60.05014555 139.93619567 63.92489854 134.22845854 67.79370117 128.51660156 C68.6680366 127.22622781 69.54238547 125.93586317 70.41674805 124.64550781 C71.69216706 122.76326139 72.96725602 120.8807963 74.24121094 118.99755859 C75.41409178 117.26373475 76.58816313 115.53072253 77.76245117 113.79785156 C78.43453613 112.80487061 79.10662109 111.81188965 79.79907227 110.78881836 C81.61401367 108.16113281 81.61401367 108.16113281 83.35473633 106.05883789 C84.98262555 103.98522773 84.98262555 103.98522773 84.61401367 100.16113281 C83.95668747 100.15304596 83.29936127 100.14495911 82.62211609 100.1366272 C75.79279934 100.05070158 68.96377689 99.95120333 62.13476562 99.84375 C59.58468561 99.80542003 57.03455079 99.77057433 54.484375 99.73925781 C50.82296124 99.69369482 47.16192617 99.63568543 43.50073242 99.57519531 C41.78499275 99.5578685 41.78499275 99.5578685 40.03459167 99.54019165 C38.97371841 99.52032196 37.91284515 99.50045227 36.81982422 99.47998047 C35.41750801 99.45999496 35.41750801 99.45999496 33.98686218 99.43960571 C31.61401367 99.16113281 31.61401367 99.16113281 28.61401367 97.16113281 C27.86287477 90.35442049 29.67155073 84.56117557 31.67651367 78.09863281 C32.14915649 76.52577515 32.14915649 76.52577515 32.63134766 74.92114258 C33.61318605 71.66387844 34.61075245 68.41185716 35.61401367 65.16113281 C35.91823242 64.175 36.22245117 63.18886719 36.53588867 62.17285156 C36.82979492 61.22023437 37.12370117 60.26761719 37.42651367 59.28613281 C40.44954805 49.47322066 43.37027686 39.65344223 45.98901367 29.72363281 C46.23981689 28.78253662 46.49062012 27.84144043 46.74902344 26.87182617 C46.98032959 25.97858643 47.21163574 25.08534668 47.44995117 24.16503906 C47.65152832 23.38974854 47.85310547 22.61445801 48.06079102 21.81567383 C48.79303892 18.30211182 49.16884637 14.72247119 49.61401367 11.16113281 C32.12401367 11.16113281 14.63401367 11.16113281 -3.38598633 11.16113281 C-5.40396951 17.21508236 -7.39891473 23.26584888 -9.32348633 29.34863281 C-9.71370972 30.57549805 -9.71370972 30.57549805 -10.11181641 31.82714844 C-12.06071525 38.00097081 -13.80989591 44.20439913 -15.42895508 50.47363281 C-16.39382251 53.1831381 -17.09598574 54.46098086 -19.38598633 56.16113281 C-21.94848633 56.53613281 -21.94848633 56.53613281 -24.38598633 56.16113281 C-27.00186324 52.23731744 -26.27364472 50.70441661 -25.38598633 46.16113281 C-24.41205699 41.93030001 -23.24868809 37.75593365 -22.06762695 33.57910156 C-21.57553154 31.83350237 -21.09076203 30.08583222 -20.6105957 28.33691406 C-19.76415236 25.27227377 -18.89025388 22.2165027 -18.01098633 19.16113281 C-17.74334473 18.18208984 -17.47570312 17.20304687 -17.19995117 16.19433594 C-15.42318873 10.15645167 -13.29642495 5.28804257 -8.38598633 1.16113281 C-5.32487452 0.14076221 -3.20646187 0.02256911 0 0 Z " fill="#060503" transform="translate(232.385986328125,84.8388671875)"/>
<path d="M0 0 C36.63 0 73.26 0 111 0 C111.495 4.95 111.495 4.95 112 10 C113.32 10.66 114.64 11.32 116 12 C116 15.3 116 18.6 116 22 C117.98 22.495 117.98 22.495 120 23 C121 24 121 24 121.3125 26.875 C121.209375 27.90625 121.10625 28.9375 121 30 C120.0409375 30.6496875 120.0409375 30.6496875 119.0625 31.3125 C116.46103314 33.44097289 116.590745 34.42245094 116.25 37.6875 C116.14920133 39.12388098 116.06032073 40.5613506 116 42 C115.278125 42.165 114.55625 42.33 113.8125 42.5 C110.25834814 44.39554766 109.23720103 46.52891947 107.40625 50.02734375 C105.51838916 52.67559298 103.96042433 53.59960136 101 55 C98.05667982 55.43617939 95.145433 55.42029534 92.17407227 55.40405273 C91.29540497 55.41091599 90.41673767 55.41777924 89.51144409 55.42485046 C86.61293279 55.44312055 83.71496266 55.43928063 80.81640625 55.43359375 C78.79768193 55.43815548 76.77895916 55.44346103 74.76023865 55.44947815 C70.53109424 55.4584097 66.30213866 55.45598562 62.07299805 55.44604492 C56.65792189 55.43455593 51.2434979 55.45476564 45.82850742 55.48396206 C41.66000744 55.50232323 37.49166375 55.50203173 33.32313347 55.49632454 C31.32687401 55.49617131 29.33060397 55.50221687 27.33438301 55.51461601 C24.54094867 55.52952229 21.74871934 55.51885158 18.95532227 55.50170898 C17.72308678 55.51621094 17.72308678 55.51621094 16.46595764 55.53100586 C11.18494706 55.46326947 8.21040754 54.46740489 4 51 C2.5390625 49.140625 2.5390625 49.140625 1.625 47.25 C1.30789062 46.63640625 0.99078125 46.0228125 0.6640625 45.390625 C-0.30458385 41.90349813 -0.03898426 38.61682228 0 35 C0.54679413 34.99191315 1.09358826 34.98382629 1.6569519 34.97549438 C7.33453114 34.88961231 13.0117546 34.79011675 18.68896484 34.68261719 C20.8093469 34.64427158 22.92979526 34.60942867 25.05029297 34.578125 C28.09366598 34.53259534 31.13658032 34.47458161 34.1796875 34.4140625 C35.60787308 34.39673569 35.60787308 34.39673569 37.06491089 34.37905884 C37.94567291 34.35918915 38.82643494 34.33931946 39.73388672 34.31884766 C40.51110077 34.30552399 41.28831482 34.29220032 42.08908081 34.2784729 C44.2388947 34.15960424 44.2388947 34.15960424 46 32 C46.2500773 29.45809998 46.2500773 29.45809998 46 27 C44.44341518 25.44341518 42.92132264 25.83690601 40.75561523 25.79467773 C39.85475693 25.77473251 38.95389862 25.75478729 38.02574158 25.73423767 C37.04658279 25.71752518 36.06742401 25.70081268 35.05859375 25.68359375 C34.06118668 25.66281265 33.0637796 25.64203156 32.03614807 25.62062073 C28.83667157 25.55501363 25.63711018 25.49618866 22.4375 25.4375 C20.27407961 25.39432538 18.11066794 25.35071145 15.94726562 25.30664062 C10.63159631 25.19849073 5.31586653 25.09950049 0 25 C0 16.75 0 8.5 0 0 Z " fill="#EDEDED" transform="translate(201,410)"/>
<path d="M0 0 C0.62116699 0.19432617 1.24233398 0.38865234 1.88232422 0.58886719 C12.7961723 4.06487974 22.92604942 8.57157821 33 14 C34.04800781 14.55429687 35.09601563 15.10859375 36.17578125 15.6796875 C51.47212616 24.14839236 66.02756003 36.42190435 77 50 C78.11955078 51.34578125 78.11955078 51.34578125 79.26171875 52.71875 C99.58340068 77.9852682 112.36515073 109.52099458 114 142 C114.04382813 142.82757813 114.08765625 143.65515625 114.1328125 144.5078125 C115.45887534 174.123216 108.54484178 203.16539435 94 229 C93.65356445 229.63196289 93.30712891 230.26392578 92.95019531 230.91503906 C87.62386532 240.57845386 81.33991832 248.78867585 74 257 C72.77065035 258.45817909 71.54145622 259.91648932 70.3125 261.375 C66.84891203 265.29821102 63.03195547 268.67308592 59 272 C58.26136719 272.61488281 57.52273438 273.22976563 56.76171875 273.86328125 C53.08525381 276.8658279 49.37783504 279.76697263 45.4609375 282.44921875 C35.91228971 288.91368348 35.91228971 288.91368348 29 298 C28.60425781 298.68835938 28.20851563 299.37671875 27.80078125 300.0859375 C24.69054705 306.48101554 24.48079683 312.8498984 24.41479492 319.84326172 C24.3041858 325.60853036 24.3041858 325.60853036 22.63696289 327.75415039 C21 329 21 329 18.4375 328.8125 C16 328 16 328 14 326 C12.54356587 308.9631077 15.47663044 296.37643901 26.5859375 283.10546875 C30.78426716 278.56922475 35.74038548 275.43149877 40.8984375 272.078125 C72.5638775 250.86148258 92.79554651 217.04027519 100.4453125 180.06640625 C100.62835938 179.05449219 100.81140625 178.04257813 101 177 C101.30550781 175.34291016 101.30550781 175.34291016 101.6171875 173.65234375 C107.56605954 136.20704646 97.91657171 97.41118854 76 66.5625 C71.70807164 60.68655735 67.03580123 55.24738951 62 50 C61.18144531 49.11828125 60.36289062 48.2365625 59.51953125 47.328125 C40.78903391 27.73995348 14.68034192 13.10465726 -12 8 C-13.258125 7.72414063 -14.51625 7.44828125 -15.8125 7.1640625 C-53.47035912 -0.56589257 -95.98154755 7.66772118 -128.32421875 28.37109375 C-129.10240967 28.89501709 -129.88060059 29.41894043 -130.68237305 29.95874023 C-133.59518821 31.26740521 -135.01012506 31.01164476 -138 30 C-140 28 -140 28 -140.36254883 25.56030273 C-140 23 -140 23 -138.42456055 21.39477539 C-137.69019775 20.94610107 -136.95583496 20.49742676 -136.19921875 20.03515625 C-135.37470215 19.53129395 -134.55018555 19.02743164 -133.70068359 18.50830078 C-129.15272254 15.96831675 -124.52635552 13.65287467 -119.8125 11.4375 C-118.79438232 10.95716309 -117.77626465 10.47682617 -116.72729492 9.98193359 C-80.70852961 -6.80334363 -38.41870086 -12.04697076 0 0 Z " fill="#F6E3AC" transform="translate(298,31)"/>
<path d="M0 0 C0.30292969 0.94101563 0.60585938 1.88203125 0.91796875 2.8515625 C5.04769621 15.13193504 5.04769621 15.13193504 15.1875 22.75 C16.04730469 23.13671875 16.90710938 23.5234375 17.79296875 23.921875 C20 25 20 25 22 27 C22.4375 29.375 22.4375 29.375 22 32 C19.3082749 34.77584151 16.39198557 36.32325441 12.9375 37.9375 C8.11675195 40.31621808 5.81382556 42.69883808 3.98046875 47.8828125 C3.29987008 49.99853122 2.64739362 52.12356359 2.02734375 54.2578125 C1.00881821 56.97646242 0.37582007 58.35653223 -2 60 C-5.6875 59.6875 -5.6875 59.6875 -9 59 C-9.391875 57.88625 -9.78375 56.7725 -10.1875 55.625 C-13.48507853 45.74930813 -13.48507853 45.74930813 -20.4375 38.5625 C-22.72990997 37.55705703 -25.04199682 36.59477901 -27.375 35.6875 C-30 34 -30 34 -31 30.5 C-31 27 -31 27 -29 24 C-26.84206395 22.92315175 -24.64242992 22.10801264 -22.38671875 21.2578125 C-16.47335247 18.14143944 -14.30068857 14.02841311 -12.375 7.8125 C-9.93300971 -0.01334136 -8.22653895 -1.55217716 0 0 Z " fill="#010000" transform="translate(480,171)"/>
<path d="M0 0 C0.36351562 0.94359375 0.36351562 0.94359375 0.734375 1.90625 C1.79547782 4.61614336 2.88884959 7.3102497 4 10 C4.31195313 10.76054687 4.62390625 11.52109375 4.9453125 12.3046875 C7.10528462 17.11470946 9.20857939 19.46336556 14 22 C14.6290625 22.2165625 15.258125 22.433125 15.90625 22.65625 C17.8125 23.3125 17.8125 23.3125 21 25 C22.125 28.5 22.125 28.5 22 32 C19.85069285 34.8214032 17.26121321 35.91276234 14.0625 37.3125 C8.34193624 40.13541971 6.06467044 42.86353842 3.98828125 48.98046875 C3.30459767 51.10776672 2.64930204 53.24446849 2.02734375 55.390625 C1 58 1 58 -2 60 C-4.73289585 60.34161198 -6.29541109 60.52933583 -8.5390625 58.84375 C-10.45091939 56.43092527 -11.03498459 54.14242147 -11.875 51.1875 C-13.89818019 44.92168075 -15.50477909 40.97123833 -21.47265625 37.60546875 C-23.2292478 36.72843671 -25.00238404 35.88348544 -26.79296875 35.078125 C-29 34 -29 34 -31 32 C-31.4375 29.625 -31.4375 29.625 -31 27 C-27.81693239 23.71746153 -24.11128935 21.98797467 -19.96484375 20.22265625 C-14.8463703 17.03760219 -13.1652761 12.2709805 -11.375 6.75 C-10.63627485 4.48206674 -9.85663168 2.22607688 -9 0 C-5.93109813 -1.53445094 -3.29905734 -0.54984289 0 0 Z " fill="#010100" transform="translate(41,171)"/>
<path d="M0 0 C21.78 0 43.56 0 66 0 C66 6.27 66 12.54 66 19 C62.49936437 22.50063563 61.92010887 22.3774543 57.19921875 22.38818359 C55.41221558 22.40236832 55.41221558 22.40236832 53.58911133 22.4168396 C51.65781372 22.40773056 51.65781372 22.40773056 49.6875 22.3984375 C48.35375815 22.40045855 47.02001737 22.40337026 45.6862793 22.40713501 C42.89198274 22.41155696 40.09797402 22.4051319 37.30371094 22.39111328 C33.72225535 22.37402094 30.14147418 22.38386289 26.56004333 22.40183067 C23.80622274 22.41267231 21.05256199 22.40922054 18.29873657 22.4014473 C16.33611615 22.39847329 14.37348952 22.40758292 12.41088867 22.4168396 C11.21955322 22.40738312 10.02821777 22.39792664 8.80078125 22.38818359 C7.75059814 22.38579681 6.70041504 22.38341003 5.6184082 22.38095093 C3 22 3 22 0 19 C0 12.73 0 6.46 0 0 Z " fill="#797775" transform="translate(223,475)"/>
<path d="M0 0 C36.63 0 73.26 0 111 0 C111 2.97 111 5.94 111 9 C74.37 9 37.74 9 0 9 C0 6.03 0 3.06 0 0 Z " fill="#ABABAB" transform="translate(201,410)"/>
<path d="M0 0 C21.78 0 43.56 0 66 0 C66 2.97 66 5.94 66 9 C44.22 9 22.44 9 0 9 C0 6.03 0 3.06 0 0 Z " fill="#47443F" transform="translate(223,475)"/>
<path d="M0 0 C2.875 0.75 2.875 0.75 3.875 1.75 C4.02635944 3.5372057 4.09675778 5.33161876 4.125 7.125 C4.16367187 8.59066406 4.16367187 8.59066406 4.203125 10.0859375 C3.875 12.75 3.875 12.75 2.51953125 14.61328125 C0.875 15.75 0.875 15.75 -1.6875 15.5625 C-4.125 14.75 -4.125 14.75 -6.125 12.75 C-6.42578125 10.47265625 -6.42578125 10.47265625 -6.4375 7.8125 C-6.45425781 6.93722656 -6.47101563 6.06195313 -6.48828125 5.16015625 C-6.125 2.75 -6.125 2.75 -4.80078125 0.91796875 C-3.125 -0.25 -3.125 -0.25 0 0 Z " fill="#F6E2AB" transform="translate(318.125,370.25)"/>
<path d="M0 0 C2.97549085 2.89507218 5.49642139 5.66189518 8 9 C5.69 11.64 3.38 14.28 1 17 C-2 14 -5 11 -8 8 C-5.33333333 5.33333333 -2.66666667 2.66666667 0 0 Z " fill="#E6B81E" transform="translate(475,192)"/>
<path d="M0 0 C2.97549085 2.89507218 5.49642139 5.66189518 8 9 C5.69 11.64 3.38 14.28 1 17 C-1.97549085 14.10492782 -4.49642139 11.33810482 -7 8 C-4.69 5.36 -2.38 2.72 0 0 Z " fill="#E9BA1F" transform="translate(36,192)"/>
<path d="M0 0 C3 0.25 3 0.25 5 2.25 C5.4375 5.1875 5.4375 5.1875 5 8.25 C2.5 10.125 2.5 10.125 0 11.25 C-2.5 10.125 -2.5 10.125 -5 8.25 C-5.4375 5.1875 -5.4375 5.1875 -5 2.25 C-3 0.25 -3 0.25 0 0 Z " fill="#070707" transform="translate(317,431.75)"/>
<path d="M0 0 C3.4375 0.1875 3.4375 0.1875 4.4375 1.1875 C4.6875 4.625 4.6875 4.625 4.4375 8.1875 C1.22941085 10.3262261 0.16051503 10.66480962 -3.5625 10.1875 C-5.71165785 6.96376323 -5.94536803 5.92046326 -5.5625 2.1875 C-3.5625 0.1875 -3.5625 0.1875 0 0 Z " fill="#040300" transform="translate(390.5625,284.8125)"/>
<path d="M0 0 C0.763125 0.20625 1.52625 0.4125 2.3125 0.625 C2.9375 4 2.9375 4 3.3125 7.625 C1.3125 9.625 1.3125 9.625 -1.125 9.9375 C-3.6875 9.625 -3.6875 9.625 -5.5625 8.4375 C-6.6875 6.625 -6.6875 6.625 -6.5625 4.0625 C-5.27735218 0.48244537 -3.77697149 -0.52701928 0 0 Z " fill="#0C0904" transform="translate(206.6875,150.375)"/>
</svg>
