<?xml version="1.0" encoding="UTF-8"?>
<svg version="1.1" xmlns="http://www.w3.org/2000/svg" width="512" height="512">
<path d="M0 0 C1.01641458 -0.00551503 1.01641458 -0.00551503 2.05336279 -0.01114148 C4.32313479 -0.02215117 6.59286096 -0.02601757 8.86265564 -0.02983093 C10.49069869 -0.03609778 12.11874032 -0.04274478 13.7467804 -0.04974365 C19.09390775 -0.07076523 24.44103533 -0.08114625 29.78819275 -0.09111023 C31.63166761 -0.0951589 33.47514231 -0.09927586 35.31861687 -0.10346031 C43.98280215 -0.12251009 52.64697893 -0.13673994 61.31118113 -0.14507228 C71.29739069 -0.15483552 81.28337806 -0.18113204 91.26950938 -0.22157317 C98.99708841 -0.25178855 106.72460395 -0.26654641 114.45224088 -0.26985329 C119.0631102 -0.27219815 123.6737421 -0.28108449 128.28454781 -0.30631447 C132.62747513 -0.3296944 136.97001038 -0.33378883 141.31298447 -0.32355309 C142.89997478 -0.32305997 144.48698505 -0.32931371 146.07391548 -0.34310913 C159.7411688 -0.45519497 170.01735283 1.671167 180.2530365 11.14717102 C187.51381269 18.31070468 192.23387814 27.39216561 192.49354553 37.70941162 C192.49928946 39.45225156 192.49414873 41.19514983 192.48008728 42.9379425 C192.48037933 43.89481461 192.48067139 44.85168671 192.48097229 45.83755493 C192.47958571 48.98121907 192.46405612 52.12464234 192.448349 55.26826477 C192.44461648 57.45544302 192.44177064 59.64262295 192.43977356 61.82980347 C192.43215591 67.57221636 192.41252344 73.31452728 192.3903656 79.05690002 C192.36625963 85.95442854 192.3571173 92.85199124 192.34545898 99.74954987 C192.32609801 110.2154944 192.28776225 120.68121539 192.2530365 131.14717102 C208.4230365 131.14717102 224.5930365 131.14717102 241.2530365 131.14717102 C241.2530365 115.30717102 241.2530365 99.46717102 241.2530365 83.14717102 C237.2930365 83.14717102 233.3330365 83.14717102 229.2530365 83.14717102 C221.31085782 81.37063105 215.51713118 77.93757476 210.86631775 71.11201477 C207.40518731 64.42049593 207.17225661 57.11044482 208.760849 49.81513977 C211.06095582 42.90160029 214.80971834 38.68795384 221.1905365 35.33467102 C227.46056854 32.26424329 233.59848663 31.99773519 240.48643494 32.00190735 C241.2905481 31.99854874 242.09466125 31.99519012 242.92314148 31.99172974 C245.56958074 31.98226645 248.21595639 31.98027882 250.8624115 31.97920227 C252.7131808 31.975986 254.56394985 31.97262166 256.41471863 31.96911621 C260.29149464 31.96313615 264.16824839 31.96127511 268.04502869 31.96186829 C272.99203708 31.96196973 277.93890139 31.94833038 282.8858757 31.93109608 C286.70879256 31.91992971 290.53167513 31.91795052 294.35460663 31.91847801 C296.17729945 31.91730439 297.99999335 31.91291759 299.82266998 31.90514565 C325.64276486 31.8053711 325.64276486 31.8053711 334.2530365 40.14717102 C338.98035484 45.28346856 341.19513775 50.60935635 341.2842865 57.59638977 C340.79122538 65.64561246 338.40464378 71.41749366 332.5030365 76.95967102 C326.49891312 81.7938733 321.69917464 83.30288243 313.9874115 83.21357727 C312.91201111 83.20398987 311.83661072 83.19440247 310.72862244 83.18452454 C309.91167908 83.17219788 309.09473572 83.15987122 308.2530365 83.14717102 C308.16774902 90.15871195 308.15264517 97.16791198 308.18589783 104.17988586 C308.18897645 106.56403402 308.17609954 108.94825908 308.14683533 111.33222961 C308.10749448 114.76418199 308.12589578 118.19176637 308.15538025 121.62373352 C308.11851357 123.2178154 308.11851357 123.2178154 308.0809021 124.84410095 C308.12002077 130.55821857 308.12002077 130.55821857 311.23988342 135.08216858 C313.61324728 136.6931092 313.61324728 136.6931092 316.07263184 137.92851257 C319.36777461 139.77021363 320.55362145 141.82222853 322.2530365 145.14717102 C322.2530365 146.13717102 322.2530365 147.12717102 322.2530365 148.14717102 C323.07829834 148.14050919 323.90356018 148.13384735 324.75382996 148.12698364 C332.57904881 148.06655841 340.40418789 148.02103831 348.22958755 147.9917345 C352.25150356 147.97616203 356.27322475 147.95508034 360.29502869 147.92085266 C364.18541596 147.88795535 368.07561735 147.87025493 371.96613312 147.86253929 C373.44110281 147.85704969 374.91606379 147.84633203 376.39095306 147.82998085 C394.0853011 147.64184098 409.03306292 151.46894658 422.08921814 163.84101868 C435.88006457 177.50117878 440.22712745 193.95635573 440.43994141 212.92402649 C440.45416623 217.62384663 440.42034646 222.32257234 440.3780365 227.02217102 C440.36798046 228.98180183 440.35885928 230.94143767 440.35069275 232.90107727 C440.32890139 237.6499019 440.29451815 242.39847925 440.2530365 247.14717102 C440.85253113 247.12622375 441.45202576 247.10527649 442.06968689 247.08369446 C444.81812892 246.99991828 447.56630142 246.94831958 450.3155365 246.89717102 C451.25848572 246.8636554 452.20143494 246.83013977 453.17295837 246.79560852 C459.46715902 246.70788447 463.13353799 247.41329056 468.2530365 251.14717102 C473.51765786 257.4288215 472.8507831 264.31255984 472.7530365 272.20967102 C472.76850525 273.4632843 472.783974 274.71689758 472.7999115 276.00849915 C472.75170485 287.34308849 472.75170485 287.34308849 468.2530365 292.14717102 C464.19958872 295.80516048 461.26963632 297.26703256 455.83255005 297.28761292 C454.92836838 297.29332306 454.02418671 297.2990332 453.09260559 297.30491638 C452.10293793 297.30603424 451.11327026 297.3071521 450.09361267 297.30830383 C449.04942673 297.31326874 448.00524078 297.31823364 446.92941284 297.323349 C443.46827032 297.33797748 440.00717363 297.34477381 436.54600525 297.35029602 C434.14328001 297.35604693 431.74055479 297.36180467 429.33782959 297.36756897 C424.29646083 297.37808092 419.25510804 297.38392232 414.21372986 297.3874054 C407.75397513 297.39289035 401.29443117 297.41691781 394.83474255 297.44537735 C389.87020247 297.46400133 384.90571319 297.46920921 379.94114113 297.47074127 C377.55970927 297.47376888 375.17827833 297.48180102 372.79688072 297.49492645 C369.4646387 297.51198141 366.13291188 297.51010777 362.80064392 297.50361633 C361.81704895 297.51283112 360.83345398 297.5220459 359.8200531 297.53153992 C353.80565574 297.49483864 349.20501694 296.90282022 344.60850525 292.61201477 C339.42803712 285.83755645 340.00337675 280.79262837 339.9405365 272.39717102 C339.91153259 271.12099915 339.88252869 269.84482727 339.85264587 268.52998352 C339.77343312 256.85524233 339.77343312 256.85524233 344.2530365 252.14717102 C348.4441933 248.45496146 350.71688816 247.01765293 356.260849 247.04951477 C357.59333679 247.05326111 357.59333679 247.05326111 358.95274353 247.05708313 C360.64826355 247.07073914 360.64826355 247.07073914 362.3780365 247.08467102 C367.7611615 247.11560852 367.7611615 247.11560852 373.2530365 247.14717102 C373.2530365 236.58717102 373.2530365 226.02717102 373.2530365 215.14717102 C356.4230365 215.14717102 339.5930365 215.14717102 322.2530365 215.14717102 C321.5930365 217.12717102 320.9330365 219.10717102 320.2530365 221.14717102 C318.2999115 223.41279602 318.2999115 223.41279602 316.0030365 225.39717102 C315.25538025 226.06232727 314.507724 226.72748352 313.7374115 227.41279602 C307.60955559 231.69073316 301.38443925 231.42414002 294.19883728 231.3742218 C293.09580765 231.37451385 291.99277802 231.37480591 290.85632324 231.37510681 C287.22025106 231.37371648 283.58438527 231.35816898 279.948349 231.34248352 C277.42343762 231.33875234 274.89852479 231.33590586 272.37361145 231.33390808 C266.41327072 231.32705907 260.45299591 231.3113054 254.49268901 231.2912091 C247.70429767 231.26881978 240.91590271 231.25784906 234.12748361 231.24781823 C220.1692938 231.22693826 206.2111692 231.19178126 192.2530365 231.14717102 C192.25672367 231.72971051 192.26041084 232.31225 192.26420975 232.91244221 C192.35278934 247.12811984 192.41885674 261.34375577 192.46028519 275.55965137 C192.48085546 282.43454756 192.50886905 289.30925882 192.55479431 296.18403625 C192.59912657 302.82354995 192.62220153 309.4629226 192.63254547 316.10259056 C192.6399133 318.63062747 192.65430079 321.15865438 192.67595673 323.68660927 C192.70516353 327.23855053 192.70898515 330.7897083 192.70713806 334.3417511 C192.72151917 335.37753799 192.73590027 336.41332489 192.75071716 337.48049927 C192.68230847 349.70686174 187.99692227 359.60552333 180.0030365 368.70967102 C178.2530365 370.14717102 178.2530365 370.14717102 176.2530365 370.14717102 C176.2530365 410.40717102 176.2530365 450.66717102 176.2530365 492.14717102 C166.3530365 497.42717102 156.4530365 502.70717102 146.2530365 508.14717102 C142.7880365 510.12717102 142.7880365 510.12717102 139.2530365 512.14717102 C134.47492107 512.08953026 131.42655867 510.29586698 127.4717865 507.74092102 C115.91858651 499.58723449 115.91858651 499.58723449 102.9249115 497.49873352 C99.93921926 499.04611283 97.40201683 500.67446685 94.84043884 502.85127258 C92.04690666 505.13181224 88.92955131 506.84618575 85.8155365 508.64717102 C84.72370056 509.33810852 83.63186462 510.02904602 82.50694275 510.74092102 C78.2897469 512.56347865 76.67774992 512.44882318 72.2530365 511.14717102 C68.21728687 509.17652503 64.36555932 506.9355336 60.5030365 504.64717102 C58.44696599 503.44715961 56.3897273 502.24914682 54.3311615 501.05342102 C52.97619568 500.25388 52.97619568 500.25388 51.59385681 499.43818665 C49.21420208 498.03352978 49.21420208 498.03352978 46.2530365 497.14717102 C43.29199921 498.43992418 43.29199921 498.43992418 40.04600525 500.36592102 C38.80725251 501.05764891 37.56831428 501.74904471 36.32920837 502.44013977 C34.38402387 503.54066918 32.44203247 504.64631225 30.50376892 505.75898743 C28.62970237 506.8298144 26.7451239 507.87991105 24.85850525 508.92842102 C23.17470764 509.88845032 23.17470764 509.88845032 21.45689392 510.86787415 C17.70594521 512.36562399 16.08735511 512.29727682 12.2530365 511.14717102 C9.32798767 509.82783508 9.32798767 509.82783508 6.29600525 508.16279602 C5.18289978 507.55693665 4.06979431 506.95107727 2.92295837 506.32685852 C1.77375916 505.69006165 0.62455994 505.05326477 -0.5594635 504.39717102 C-1.69706116 503.7758429 -2.83465881 503.15451477 -4.00672913 502.51435852 C-8.83372665 499.87385439 -13.64454641 497.20456909 -18.45404053 494.53236389 C-19.25945628 494.08487667 -20.06487204 493.63738945 -20.89469433 493.17634201 C-21.81156757 492.66690237 -21.81156757 492.66690237 -22.7469635 492.14717102 C-22.74224989 491.2255955 -22.74224989 491.2255955 -22.73744106 490.2854023 C-22.66391314 475.3020197 -22.64039213 460.31945201 -22.67180538 445.33596992 C-22.68580451 438.08981914 -22.68318324 430.84440119 -22.64076233 423.5983429 C-22.60380938 417.27895804 -22.59872651 410.96046701 -22.63113409 404.64104354 C-22.64718843 401.29743329 -22.64306029 397.95687984 -22.61019707 394.61317825 C-22.57612328 390.87064734 -22.59838472 387.1322826 -22.63343811 383.3898468 C-22.61043137 382.2943602 -22.58742462 381.1988736 -22.5637207 380.07019043 C-22.69164861 373.71962981 -23.78704026 370.47809205 -28.12905884 365.74919128 C-29.31474882 364.62494908 -29.31474882 364.62494908 -30.52439213 363.47799492 C-36.26934146 357.45323218 -38.86571706 348.96608736 -38.88118458 340.78185177 C-38.88564242 339.68688505 -38.89010027 338.59191833 -38.8946932 337.46377081 C-38.89450883 336.26116772 -38.89432447 335.05856464 -38.89413452 333.81951904 C-38.89781121 332.54162713 -38.9014879 331.26373521 -38.905276 329.9471193 C-38.91528738 326.39729769 -38.91901141 322.847493 -38.92166531 319.29765928 C-38.92557096 315.46993694 -38.93514917 311.64222796 -38.94387817 307.81451416 C-38.96363598 298.56873912 -38.97370827 289.322963 -38.98260596 280.07717213 C-38.98699029 275.72172591 -38.99235675 271.36628091 -38.99759483 267.01083565 C-39.014607 252.52956997 -39.02910052 238.04830504 -39.03634357 223.56703091 C-39.03825343 219.8094832 -39.04017377 216.0519355 -39.04212952 212.29438782 C-39.04261326 211.3604822 -39.043097 210.42657658 -39.0435954 209.46437079 C-39.05189326 194.3403465 -39.07722612 179.21640137 -39.10971019 164.09241163 C-39.14279866 148.56020984 -39.16079398 133.02804826 -39.16398782 117.49581105 C-39.16615134 108.77697756 -39.17487678 100.05825948 -39.20044899 91.33946037 C-39.22218048 83.91304148 -39.23019442 76.48676602 -39.22048221 69.06031894 C-39.21594447 65.27359297 -39.21779268 61.4871628 -39.23724365 57.7004776 C-39.25818485 53.58801432 -39.2478677 49.47620397 -39.23471069 45.3637085 C-39.24567994 44.17672047 -39.25664919 42.98973244 -39.26795083 41.76677507 C-39.16836085 28.84671394 -35.00592154 19.66293182 -26.0907135 10.43232727 C-18.62512749 3.5125742 -10.07757319 0.03548814 0 0 Z " fill="#000000" transform="translate(38.74696350097656,-0.1471710205078125)"/>
<path d="M0 0 C65.67 0 131.34 0 199 0 C199 21.78 199 43.56 199 66 C207.95382813 65.94199219 216.90765625 65.88398438 226.1328125 65.82421875 C232.52299953 65.79542561 238.91313786 65.76979391 245.30334854 65.74873066 C253.58291193 65.72101832 261.8622236 65.68583051 270.14160156 65.62280273 C276.69651939 65.57292646 283.25124732 65.5406993 289.80634964 65.52955753 C293.27651536 65.52304573 296.74613789 65.50777032 300.2161293 65.47134972 C304.09226826 65.4309972 307.96787849 65.4300533 311.84423828 65.43237305 C312.99150894 65.41439667 314.1387796 65.39642029 315.32081604 65.37789917 C324.008218 65.43422968 324.008218 65.43422968 327.71220398 68.18367004 C330.27400286 71.33730388 330.75323246 72.62413209 330.76049805 76.62890625 C330.78402596 78.28587524 330.78402596 78.28587524 330.80802917 79.97631836 C330.78510551 81.75147827 330.78510551 81.75147827 330.76171875 83.5625 C330.76677177 85.39856812 330.76677177 85.39856812 330.77192688 87.27172852 C330.77162814 89.8573019 330.75638962 92.44291061 330.72729492 95.02832031 C330.68763902 98.98612553 330.70658407 102.94057762 330.73242188 106.8984375 C330.72486251 109.41147134 330.71390881 111.92449773 330.69921875 114.4375 C330.70620285 115.62093994 330.71318695 116.80437988 330.72038269 118.02368164 C330.7013942 119.12832764 330.6824057 120.23297363 330.6628418 121.37109375 C330.65584763 122.33974365 330.64885345 123.30839355 330.64164734 124.30639648 C329.69086547 128.29773132 328.36635537 129.64779185 325 132 C321.4399926 132.70561416 317.9533308 132.63199393 314.3347168 132.56762695 C313.2610939 132.56835709 312.18747101 132.56908722 311.08131409 132.56983948 C307.53676632 132.56635931 303.99353664 132.52747522 300.44921875 132.48828125 C297.99014504 132.47895472 295.53106203 132.47183785 293.07197571 132.46684265 C286.60267443 132.44776061 280.13393528 132.39864811 273.66485596 132.34332275 C265.90144212 132.28315972 258.13784023 132.26021991 250.37425995 132.23105621 C238.58244912 132.18258527 226.79187146 132.08677583 215 132 C215 115.83 215 99.66 215 83 C209.72 83 204.44 83 199 83 C199 126.56 199 170.12 199 215 C133.33 215 67.66 215 0 215 C0 144.05 0 73.1 0 0 Z " fill="#F7D36D" transform="translate(16,82)"/>
<path d="M0 0 C65.67 0 131.34 0 199 0 C199 21.78 199 43.56 199 66 C207.95382813 65.94199219 216.90765625 65.88398438 226.1328125 65.82421875 C232.52299953 65.79542561 238.91313786 65.76979391 245.30334854 65.74873066 C253.58291193 65.72101832 261.8622236 65.68583051 270.14160156 65.62280273 C276.69651939 65.57292646 283.25124732 65.5406993 289.80634964 65.52955753 C293.27651536 65.52304573 296.74613789 65.50777032 300.2161293 65.47134972 C304.09226826 65.4309972 307.96787849 65.4300533 311.84423828 65.43237305 C312.99150894 65.41439667 314.1387796 65.39642029 315.32081604 65.37789917 C324.008218 65.43422968 324.008218 65.43422968 327.71220398 68.18367004 C330.27400286 71.33730388 330.75323246 72.62413209 330.76049805 76.62890625 C330.78402596 78.28587524 330.78402596 78.28587524 330.80802917 79.97631836 C330.78510551 81.75147827 330.78510551 81.75147827 330.76171875 83.5625 C330.76677177 85.39856812 330.76677177 85.39856812 330.77192688 87.27172852 C330.77162814 89.8573019 330.75638962 92.44291061 330.72729492 95.02832031 C330.68763902 98.98612553 330.70658407 102.94057762 330.73242188 106.8984375 C330.72486251 109.41147134 330.71390881 111.92449773 330.69921875 114.4375 C330.70620285 115.62093994 330.71318695 116.80437988 330.72038269 118.02368164 C330.7013942 119.12832764 330.6824057 120.23297363 330.6628418 121.37109375 C330.65584763 122.33974365 330.64885345 123.30839355 330.64164734 124.30639648 C329.69086547 128.29773132 328.36635537 129.64779185 325 132 C321.4399926 132.70561416 317.9533308 132.63199393 314.3347168 132.56762695 C313.2610939 132.56835709 312.18747101 132.56908722 311.08131409 132.56983948 C307.53676632 132.56635931 303.99353664 132.52747522 300.44921875 132.48828125 C297.99014504 132.47895472 295.53106203 132.47183785 293.07197571 132.46684265 C286.60267443 132.44776061 280.13393528 132.39864811 273.66485596 132.34332275 C265.90144212 132.28315972 258.13784023 132.26021991 250.37425995 132.23105621 C238.58244912 132.18258527 226.79187146 132.08677583 215 132 C215 115.83 215 99.66 215 83 C209.72 83 204.44 83 199 83 C199 126.56 199 170.12 199 215 C133.33 215 67.66 215 0 215 C0 144.05 0 73.1 0 0 Z M17 17 C17 76.73 17 136.46 17 198 C71.45 198 125.9 198 182 198 C182 138.27 182 78.54 182 17 C127.55 17 73.1 17 17 17 Z " fill="#65CDEA" transform="translate(16,82)"/>
<path d="M0 0 C54.45 0 108.9 0 165 0 C165.165 16.891875 165.33 33.78375 165.5 51.1875 C165.57283203 56.5193042 165.64566406 61.8511084 165.72070312 67.34448242 C165.75683594 73.85998535 165.75683594 73.85998535 165.7635498 76.91108704 C165.77582758 79.04017001 165.8039515 81.16919763 165.84460449 83.29792786 C165.9031537 86.52536451 165.91125003 89.749407 165.90820312 92.97729492 C165.95138042 94.3977211 165.95138042 94.3977211 165.99542999 95.84684277 C165.96233492 98.46481347 165.85507323 100.52354096 165 103 C162.59715716 105.30876938 160.00429543 106.61539271 157 108 C155.8544235 108.68411824 154.71582339 109.38011059 153.5859375 110.08984375 C152.52632812 110.69957031 151.46671875 111.30929687 150.375 111.9375 C148.77785156 112.87916016 148.77785156 112.87916016 147.1484375 113.83984375 C143.15054656 115.313012 141.89302442 114.55949784 138 113 C136.08892891 112.02142648 134.20220419 110.99415031 132.33984375 109.92578125 C131.29892578 109.34119141 130.25800781 108.75660156 129.18554688 108.15429688 C127.01218629 106.92189818 124.84292199 105.68224867 122.67773438 104.43554688 C121.11829102 103.56446289 121.11829102 103.56446289 119.52734375 102.67578125 C118.11569946 101.8700769 118.11569946 101.8700769 116.67553711 101.0480957 C113.48918902 99.79989857 112.21078028 99.90475002 109 101 C107.18397345 101.90187344 105.40365536 102.87770606 103.65625 103.90625 C102.65722656 104.48503906 101.65820312 105.06382812 100.62890625 105.66015625 C99.59636719 106.26730469 98.56382812 106.87445313 97.5 107.5 C95.45172481 108.7044165 93.3997623 109.90258932 91.34375 111.09375 C90.43818359 111.62677734 89.53261719 112.15980469 88.59960938 112.70898438 C85.89301989 114.05312837 84.02055159 114.83936012 81 115 C78.10913086 113.84423828 78.10913086 113.84423828 74.96484375 112.0703125 C73.82595703 111.43996094 72.68707031 110.80960937 71.51367188 110.16015625 C70.3211871 109.48252256 69.12913371 108.8041292 67.9375 108.125 C65.59604145 106.80850454 63.24970007 105.50132038 60.90234375 104.1953125 C59.86585693 103.60766113 58.82937012 103.02000977 57.76147461 102.41455078 C54.51834754 100.66469607 54.51834754 100.66469607 51 100 C48.10221192 101.14240119 48.10221192 101.14240119 45.0625 102.9296875 C43.92039063 103.56003906 42.77828125 104.19039063 41.6015625 104.83984375 C40.40064543 105.51752747 39.2001283 106.19592039 38 106.875 C35.64924305 108.19119554 33.29401242 109.49876471 30.9375 110.8046875 C29.89464844 111.39233887 28.85179687 111.97999023 27.77734375 112.58544922 C23.42854936 114.80036788 23.42854936 114.80036788 21 115 C18.72583008 114.11962891 18.72583008 114.11962891 16.26953125 112.7265625 C15.38458984 112.2315625 14.49964844 111.7365625 13.58789062 111.2265625 C12.67201172 110.69804687 11.75613281 110.16953125 10.8125 109.625 C9.88501953 109.10421875 8.95753906 108.5834375 8.00195312 108.046875 C1.21272321 104.21272321 1.21272321 104.21272321 0 103 C-0.09527037 101.65927183 -0.1218877 100.31357497 -0.12025452 98.96946716 C-0.12232076 97.67013701 -0.12232076 97.67013701 -0.12442875 96.34455776 C-0.12083064 95.38321454 -0.11723253 94.42187132 -0.11352539 93.43139648 C-0.11364593 92.41032083 -0.11376646 91.38924517 -0.11389065 90.33722782 C-0.1131412 87.01516136 -0.10551153 83.69315024 -0.09765625 80.37109375 C-0.09618693 78.32686388 -0.09516616 76.28263364 -0.09460449 74.23840332 C-0.08935046 66.6380965 -0.0753894 59.03779771 -0.0625 51.4375 C-0.041875 34.463125 -0.02125 17.48875 0 0 Z " fill="#E3E6EA" transform="translate(33,378)"/>
<path d="M0 0 C0.66 0 1.32 0 2 0 C3.29003906 1.67041016 3.29003906 1.67041016 4.765625 4.0390625 C5.59513672 5.35777344 5.59513672 5.35777344 6.44140625 6.703125 C7.03824219 7.66734375 7.63507813 8.6315625 8.25 9.625 C9.52585479 11.6589714 10.80190168 13.69282232 12.078125 15.7265625 C12.73103516 16.77231445 13.38394531 17.81806641 14.05664062 18.89550781 C17.01057009 23.61437303 20.00571066 28.30668472 23 33 C24.16689879 34.8331856 25.3335646 36.66651952 26.5 38.5 C27.0775 39.4075 27.655 40.315 28.25 41.25 C30 44 31.75 46.75 33.5 49.5 C34.07814453 50.40830566 34.65628906 51.31661133 35.25195312 52.25244141 C36.41286852 54.07715396 37.57303082 55.90234588 38.73242188 57.72802734 C41.7309355 62.44756636 44.7439639 67.15686617 47.78125 71.8515625 C61.40822936 92.96088926 70.81614942 111.45040374 66.60888672 137.41357422 C62.7821129 154.73173683 52.49523249 168.64606765 38.28515625 178.921875 C22.76020508 188.74265267 3.92808117 191.87776912 -14.12109375 188.3125 C-33.2997884 183.18107668 -47.73656633 172.17395343 -57.71484375 155.05859375 C-65.89792268 139.71281981 -67.83157887 121.48453479 -63.5 104.5625 C-58.64614128 90.37042173 -49.94790081 78.08176568 -41.74853516 65.66650391 C-38.80764259 61.18166327 -35.93524846 56.65368045 -33.0625 52.125 C-32.48306641 51.21250488 -31.90363281 50.30000977 -31.30664062 49.35986328 C-30.12911283 47.5052244 -28.95186754 45.65040612 -27.77490234 43.79541016 C-25.99426888 40.99097368 -24.21059294 38.18849771 -22.42578125 35.38671875 C-21.83756592 34.46310547 -21.24935059 33.53949219 -20.64331055 32.58789062 C-19.47492736 30.75409523 -18.30583224 28.92075323 -17.13598633 27.08789062 C-14.2370546 22.54035331 -11.36087379 17.98073192 -8.5234375 13.39453125 C-7.97187988 12.50725342 -7.42032227 11.61997559 -6.85205078 10.70581055 C-5.80532708 9.0195996 -4.76437215 7.32979024 -3.72998047 5.63598633 C-3.26736816 4.89243896 -2.80475586 4.1488916 -2.328125 3.3828125 C-1.72339355 2.39885498 -1.72339355 2.39885498 -1.10644531 1.39501953 C-0.74131836 0.93466309 -0.37619141 0.47430664 0 0 Z " fill="#68D4F1" transform="translate(444,322)"/>
<path d="M0 0 C54.45 0 108.9 0 165 0 C165 59.73 165 119.46 165 181 C110.55 181 56.1 181 0 181 C0 121.27 0 61.54 0 0 Z M16 16 C16 65.17 16 114.34 16 165 C59.89 165 103.78 165 149 165 C149 115.83 149 66.66 149 16 C105.11 16 61.22 16 16 16 Z " fill="#000000" transform="translate(33,99)"/>
<path d="M0 0 C1.51864238 -0.00734889 3.03727919 -0.01593749 4.5559082 -0.02566528 C8.66359705 -0.0478075 12.77108486 -0.05081552 16.87882519 -0.04891777 C20.31780772 -0.0487977 23.75674823 -0.05737719 27.195719 -0.06569529 C35.31605497 -0.08490434 43.43628816 -0.08782281 51.55664062 -0.08105469 C59.90916558 -0.07442053 68.26124818 -0.09725864 76.61368346 -0.13436842 C83.80550596 -0.16515184 90.99718682 -0.17641597 98.1890738 -0.1725316 C102.47522205 -0.17047246 106.76102617 -0.17581284 111.04711151 -0.20042419 C115.08242549 -0.22283145 119.11702531 -0.22069897 123.15234375 -0.20049667 C124.62441828 -0.19711078 126.09654221 -0.20207009 127.56855011 -0.21648026 C137.39657166 -0.30597142 147.27182249 0.4199325 154.99294662 7.20462799 C166.55544253 19.68313197 161.96191406 32.01149007 161.96191406 50.41992188 C96.95191406 50.41992188 31.94191406 50.41992188 -35.03808594 50.41992188 C-35.03808594 15.16782103 -35.03808594 15.16782103 -29.17871094 8.21289062 C-28.55480469 7.68308594 -27.93089844 7.15328125 -27.28808594 6.60742188 C-26.67449219 6.06472656 -26.06089844 5.52203125 -25.42871094 4.96289062 C-17.32420551 -0.26795847 -9.36561261 -0.02146532 0 0 Z " fill="#939BA6" transform="translate(52.0380859375,15.580078125)"/>
<path d="M0 0 C65.01 0 130.02 0 197 0 C197 35.83783784 197 35.83783784 188.6875 44.375 C179.71724158 49.79887718 172.04129215 50.57923568 161.70898438 50.51757812 C160.17547442 50.52300657 158.6419697 50.53013328 157.10847473 50.53881836 C152.96584207 50.55696893 148.82361032 50.55001867 144.68097115 50.53730202 C140.33299859 50.52713126 135.98505895 50.53657897 131.63708496 50.54284668 C124.33725868 50.55011127 117.03759459 50.54056669 109.73779297 50.52148438 C101.3142279 50.49971787 92.89105018 50.50677009 84.46749449 50.52879 C77.21794188 50.54697798 69.96850546 50.54948575 62.7189374 50.53903532 C58.39664142 50.53281902 54.07452714 50.53191317 49.75224304 50.54518127 C45.68743058 50.55678882 41.62311452 50.54862537 37.55835533 50.52560425 C36.07213348 50.52034319 34.58586939 50.52178605 33.09966469 50.53065491 C22.06363902 50.59040904 14.24709572 49.03712538 5.60546875 41.953125 C-4.921076 29.14710949 0 18.07708312 0 0 Z " fill="#939CA7" transform="translate(17,313)"/>
<path d="M0 0 C15.5769284 -0.09258111 31.15378543 -0.16397071 46.7309227 -0.20724869 C53.96361403 -0.22787723 61.19613132 -0.25600311 68.42871094 -0.30175781 C74.73237227 -0.341617 81.03590755 -0.3674307 87.3396914 -0.37635398 C90.67788643 -0.38157052 94.01543539 -0.3959296 97.35356903 -0.42292023 C101.07935689 -0.45185375 104.80439176 -0.45596005 108.53027344 -0.45410156 C110.19183472 -0.47567322 110.19183472 -0.47567322 111.88696289 -0.49768066 C112.90216003 -0.49218201 113.91735718 -0.48668335 114.96331787 -0.48101807 C115.84455196 -0.48470524 116.72578606 -0.48839241 117.63372421 -0.49219131 C120.79587894 0.16554482 122.00048945 1.51917822 124 4 C124.5146637 6.573349 124.5146637 6.573349 124.53344727 9.51538086 C124.5492836 10.62010239 124.56511993 11.72482391 124.58143616 12.86302185 C124.57647629 14.05162308 124.57151642 15.2402243 124.56640625 16.46484375 C124.57260483 17.69030411 124.57880341 18.91576447 124.58518982 20.17835999 C124.5922936 22.76985886 124.58910438 25.36140331 124.57641602 27.95288086 C124.56256352 31.91931164 124.59660275 35.88337838 124.63476562 39.84960938 C124.63571691 42.36718808 124.63385749 44.88476974 124.62890625 47.40234375 C124.64216446 48.58892075 124.65542267 49.77549774 124.66908264 50.99803162 C124.65028297 52.65984215 124.65028297 52.65984215 124.63110352 54.35522461 C124.63014175 55.32689072 124.62917999 56.29855682 124.62818909 57.29966736 C123.69675591 61.30352459 122.37298096 62.6457271 119 65 C115.43995246 65.70548306 111.95335114 65.63199429 108.3347168 65.56762695 C106.72428246 65.56872215 106.72428246 65.56872215 105.08131409 65.56983948 C101.53676632 65.56635931 97.99353664 65.52747522 94.44921875 65.48828125 C91.99014504 65.47895472 89.53106203 65.47183785 87.07197571 65.46684265 C80.60267443 65.44776061 74.13393528 65.39864811 67.66485596 65.34332275 C59.90144212 65.28315972 52.13784023 65.26021991 44.37425995 65.23105621 C32.58244912 65.18258527 20.79187146 65.08677583 9 65 C9 48.5 9 32 9 15 C6.03 15 3.06 15 0 15 C0 10.05 0 5.1 0 0 Z " fill="#E5E8EC" transform="translate(222,149)"/>
<path d="M0 0 C0.66 0 1.32 0 2 0 C3.29003906 1.67041016 3.29003906 1.67041016 4.765625 4.0390625 C5.59513672 5.35777344 5.59513672 5.35777344 6.44140625 6.703125 C7.03824219 7.66734375 7.63507813 8.6315625 8.25 9.625 C9.52585479 11.6589714 10.80190168 13.69282232 12.078125 15.7265625 C12.73103516 16.77231445 13.38394531 17.81806641 14.05664062 18.89550781 C17.01057009 23.61437303 20.00571066 28.30668472 23 33 C24.16689879 34.8331856 25.3335646 36.66651952 26.5 38.5 C27.0775 39.4075 27.655 40.315 28.25 41.25 C30 44 31.75 46.75 33.5 49.5 C34.07814453 50.40830566 34.65628906 51.31661133 35.25195312 52.25244141 C36.41286852 54.07715396 37.57303082 55.90234588 38.73242188 57.72802734 C41.7309355 62.44756636 44.7439639 67.15686617 47.78125 71.8515625 C61.40822936 92.96088926 70.81614942 111.45040374 66.60888672 137.41357422 C62.7821129 154.73173683 52.49523249 168.64606765 38.28515625 178.921875 C22.76020508 188.74265267 3.92808117 191.87776912 -14.12109375 188.3125 C-33.2997884 183.18107668 -47.73656633 172.17395343 -57.71484375 155.05859375 C-65.89792268 139.71281981 -67.83157887 121.48453479 -63.5 104.5625 C-58.64614128 90.37042173 -49.94790081 78.08176568 -41.74853516 65.66650391 C-38.80764259 61.18166327 -35.93524846 56.65368045 -33.0625 52.125 C-32.48306641 51.21250488 -31.90363281 50.30000977 -31.30664062 49.35986328 C-30.12911283 47.5052244 -28.95186754 45.65040612 -27.77490234 43.79541016 C-25.99426888 40.99097368 -24.21059294 38.18849771 -22.42578125 35.38671875 C-21.83756592 34.46310547 -21.24935059 33.53949219 -20.64331055 32.58789062 C-19.47492736 30.75409523 -18.30583224 28.92075323 -17.13598633 27.08789062 C-14.2370546 22.54035331 -11.36087379 17.98073192 -8.5234375 13.39453125 C-7.97187988 12.50725342 -7.42032227 11.61997559 -6.85205078 10.70581055 C-5.80532708 9.0195996 -4.76437215 7.32979024 -3.72998047 5.63598633 C-3.26736816 4.89243896 -2.80475586 4.1488916 -2.328125 3.3828125 C-1.72339355 2.39885498 -1.72339355 2.39885498 -1.10644531 1.39501953 C-0.74131836 0.93466309 -0.37619141 0.47430664 0 0 Z M0 32 C-1.38833455 33.73995983 -1.38833455 33.73995983 -2.765625 36.0390625 C-3.31863281 36.91820312 -3.87164062 37.79734375 -4.44140625 38.703125 C-5.03824219 39.66734375 -5.63507813 40.6315625 -6.25 41.625 C-7.52585479 43.6589714 -8.80190168 45.69282232 -10.078125 47.7265625 C-10.73103516 48.77231445 -11.38394531 49.81806641 -12.05664062 50.89550781 C-15.01057422 55.61437963 -18.00630609 60.30629895 -21 65 C-21.57000732 65.89775146 -22.14001465 66.79550293 -22.72729492 67.72045898 C-25.73484194 72.45722932 -28.76105351 77.18062143 -31.81640625 81.88671875 C-32.44353516 82.85802734 -33.07066406 83.82933594 -33.71679688 84.83007812 C-34.90351546 86.6672943 -36.09577952 88.50094667 -37.29492188 90.33007812 C-46.49862839 104.62148005 -50.62877058 118.5557162 -47.31640625 135.49609375 C-42.93833938 149.46594196 -34.33846261 160.70145345 -21.4375 167.78125 C-20.633125 168.1834375 -19.82875 168.585625 -19 169 C-18.34 169.3403125 -17.68 169.680625 -17 170.03125 C-7.5688402 174.01002054 7.49341581 173.66143053 17 170 C29.99777469 164.71146297 40.11969667 157.16919642 46 144 C46.39058594 143.25105469 46.78117187 142.50210938 47.18359375 141.73046875 C51.70036846 131.80606757 51.56315492 119.14114986 49.2578125 108.609375 C48.08043448 105.53272294 46.66977257 102.8415428 45 100 C44.65066406 99.39285156 44.30132812 98.78570312 43.94140625 98.16015625 C40.77017992 92.6825835 37.40073923 87.33716247 34 82 C33.3915625 81.04335449 32.783125 80.08670898 32.15625 79.10107422 C28.81495308 73.85419389 25.46082393 68.61569785 22.09765625 63.3828125 C17.48758623 56.2091527 12.91228621 49.01357432 8.34057617 41.81542969 C7.52617065 40.53394043 7.52617065 40.53394043 6.6953125 39.2265625 C6.22109863 38.47971191 5.74688477 37.73286133 5.25830078 36.96337891 C4.1904114 35.2971068 3.09780907 33.64671361 2 32 C1.34 32 0.68 32 0 32 Z " fill="#000101" transform="translate(444,322)"/>
<path d="M0 0 C16.07026294 -0.16043524 16.07026294 -0.16043524 22.97265625 -0.1953125 C27.66441162 -0.21913278 32.35585182 -0.24717104 37.04736328 -0.30175781 C40.83401546 -0.34553565 44.62032921 -0.3692036 48.40721512 -0.37950897 C49.84478704 -0.38684359 51.28234251 -0.40116499 52.71976852 -0.42292023 C66.20099269 -0.61865819 76.91558286 2.45237514 86.94140625 11.8125 C96.38370614 21.92779318 99.33973392 33.34394021 99.1953125 46.84375 C99.1924826 47.85344849 99.18965271 48.86314697 99.18673706 49.90344238 C99.1756153 53.10241967 99.15052563 56.3011085 99.125 59.5 C99.11495985 61.67968343 99.10583582 63.85937129 99.09765625 66.0390625 C99.07741078 71.35957333 99.03824664 76.67946689 99 82 C88.11 82 77.22 82 66 82 C65.97421875 79.4940625 65.9484375 76.988125 65.921875 74.40625 C65.88337088 71.95692105 65.83823792 69.50779669 65.79248047 67.05859375 C65.76439963 65.36728826 65.74312146 63.67585468 65.72900391 61.984375 C65.70739392 59.54100575 65.66065666 57.09915575 65.609375 54.65625 C65.60814636 53.91008423 65.60691772 53.16391846 65.60565186 52.3951416 C65.45634144 46.94218476 64.39940097 42.3750427 61 38 C55.15957647 33.04065671 47.90587247 33.39862625 40.625 33.390625 C38.8773938 33.36582062 38.8773938 33.36582062 37.09448242 33.34051514 C33.39626723 33.29217448 29.69846288 33.27069407 26 33.25 C23.4830524 33.22182884 20.96612383 33.19189982 18.44921875 33.16015625 C12.29929267 33.08313015 6.15064864 33.04247686 0 33 C0 22.11 0 11.22 0 0 Z " fill="#E3E6EA" transform="translate(363,165)"/>
<path d="M0 0 C5.61 0 11.22 0 17 0 C16.96777344 1.22976562 16.93554688 2.45953125 16.90234375 3.7265625 C16.50167591 12.55934546 16.50167591 12.55934546 19.89453125 20.25 C22.23164058 21.65709811 22.23164058 21.65709811 24.703125 22.80078125 C28.58329708 24.82665341 30.41127318 28.01021093 32 32 C32.63297394 35.06016727 32.85286469 37.8611133 33 41 C27.72 41 22.44 41 17 41 C16.34 39.02 15.68 37.04 15 35 C11.40735548 33.80245183 8.77282526 33.66905042 5 34 C2.3530128 35.39685006 2.3530128 35.39685006 1 38 C1.05887354 41.3557915 1.18395459 43.8318254 3.140625 46.6328125 C5.83148543 48.61138634 8.40780295 48.79129409 11.6875 49.3125 C20.54865282 51.10115701 25.32524475 54.18368233 30.5 61.5625 C33.81599204 67.60396495 34.08200755 73.26842633 33 80 C30.73325343 87.52477056 26.67185987 92.00866661 20 96 C19.01 96.495 19.01 96.495 18 97 C17.67 102.94 17.34 108.88 17 115 C11.39 115 5.78 115 0 115 C0.00902344 113.74703125 0.01804687 112.4940625 0.02734375 111.203125 C-0.00079955 109.55205159 -0.0308472 107.90100986 -0.0625 106.25 C-0.05154297 105.425 -0.04058594 104.6 -0.02929688 103.75 C-0.09795423 101.31756794 -0.23894952 99.31447387 -1 97 C-2.66504161 95.52278568 -4.23857284 94.71469663 -6.26489258 93.80664062 C-10.8499721 91.67506573 -13.4589442 86.25426571 -15.375 81.8125 C-16 79 -16 79 -16 74 C-10.72 74 -5.44 74 0 74 C0.99 75.98 1.98 77.96 3 80 C5.98997825 81.49498913 8.70042775 81.11577446 12 81 C13.485 80.505 13.485 80.505 15 80 C15.19573608 78.56359829 15.38127816 77.12580496 15.5625 75.6875 C15.66691406 74.88699219 15.77132812 74.08648437 15.87890625 73.26171875 C16.14755178 70.83182884 16.14755178 70.83182884 15 68 C14.02160156 67.85304688 13.04320313 67.70609375 12.03515625 67.5546875 C2.45609292 65.97264437 -4.34288654 63.65711346 -11.375 56.625 C-15.83890595 49.414075 -17.41486194 42.18590803 -15.49609375 33.796875 C-13.91292528 29.05641627 -11.56005475 25.56005475 -8 22 C-6.80761719 21.4740625 -5.61523438 20.948125 -4.38671875 20.40625 C-2.07114075 19.12312237 -1.17691125 18.53740224 -0.33935547 15.99316406 C-0.08560527 13.55613693 -0.02996428 11.19974864 -0.0625 8.75 C-0.04638672 7.90953125 -0.03027344 7.0690625 -0.01367188 6.203125 C0.02156812 4.13571196 0.01489055 2.06765974 0 0 Z " fill="#040301" transform="translate(107,132)"/>
<path d="M0 0 C43.89 0 87.78 0 133 0 C133 5.61 133 11.22 133 17 C89.11 17 45.22 17 0 17 C0 11.39 0 5.78 0 0 Z " fill="#080909" transform="translate(49,428)"/>
<path d="M0 0 C43.23 0 86.46 0 131 0 C131 5.28 131 10.56 131 16 C87.77 16 44.54 16 0 16 C0 10.72 0 5.44 0 0 Z " fill="#000000" transform="translate(50,396)"/>
<path d="M0 0 C10.89 0 21.78 0 33 0 C33 16.5 33 33 33 50 C22.11 50 11.22 50 0 50 C0 33.5 0 17 0 0 Z " fill="#A6AEB9" transform="translate(297,82)"/>
<path d="M0 0 C0.84140533 -0.0071553 1.68281067 -0.01431061 2.54971313 -0.02168274 C5.31812599 -0.03852801 8.08491006 -0.01919394 10.85327148 0.00219727 C12.78328078 0.00136826 14.71329 -0.00109232 16.64329529 -0.00511169 C20.68249841 -0.00796673 24.72114611 0.00670422 28.76025391 0.03417969 C33.93445289 0.06828477 39.10766043 0.06223383 44.28190708 0.04351711 C48.26511381 0.03294359 52.24809024 0.04188778 56.23127556 0.05690193 C58.13903049 0.06208007 60.04680951 0.06160641 61.95456123 0.05535698 C64.62127455 0.0498996 67.28657297 0.07029511 69.953125 0.09765625 C70.7392366 0.09113037 71.52534821 0.08460449 72.33528137 0.07788086 C76.06415594 0.14285718 78.2200559 0.50944474 81.39903259 2.52577209 C83.68914468 4.92112521 84.09279107 5.86503478 84.03686523 9.13110352 C84.05620117 10.26032227 84.05620117 10.26032227 84.07592773 11.41235352 C83.06271592 14.79767301 81.37471044 15.75608554 78.41186523 17.63110352 C75.43153713 18.02355263 72.82250058 18.18892594 69.84545898 18.16455078 C68.99444611 18.17316635 68.14343323 18.18178192 67.26663208 18.19065857 C64.4605649 18.21331541 61.65549656 18.20658077 58.84936523 18.19750977 C56.89550479 18.20274521 54.94164689 18.20902139 52.98779297 18.21629333 C48.89563085 18.22669681 44.80381648 18.22213637 40.71166992 18.20751953 C35.46896978 18.19032535 30.22736493 18.21383515 24.98478699 18.24900913 C20.950976 18.27097367 16.91742753 18.26954405 12.88357544 18.26124382 C10.95068154 18.26042391 9.01776844 18.26729492 7.08493042 18.28201485 C4.38202638 18.29944497 1.68109625 18.28493234 -1.02172852 18.26220703 C-1.8187619 18.27389923 -2.61579529 18.28559143 -3.4369812 18.29763794 C-7.45646814 18.22891357 -9.36719457 17.80244731 -12.58056641 15.31040955 C-14.58813477 12.63110352 -14.58813477 12.63110352 -15.27563477 9.13110352 C-14.52217202 5.29529316 -13.46922126 4.03249219 -10.42781258 1.66325569 C-7.07852901 -0.21586157 -3.76148159 -0.05609068 0 0 Z " fill="#DEE1E5" transform="translate(278.588134765625,48.368896484375)"/>
<path d="M0 0 C32.34 0 64.68 0 98 0 C98 5.28 98 10.56 98 16 C65.66 16 33.32 16 0 16 C0 10.72 0 5.44 0 0 Z " fill="#AAB2BD" transform="translate(396,264)"/>
<path d="M0 0 C1.77178053 0.956581 3.54239076 1.91532988 5.3125 2.875 C6.29863281 3.40867187 7.28476562 3.94234375 8.30078125 4.4921875 C11 6 11 6 14 8 C12.71869383 11.44637632 11.23109754 14.41032024 9.20703125 17.4765625 C8.66199951 18.30679932 8.11696777 19.13703613 7.55541992 19.99243164 C6.98025635 20.8611792 6.40509277 21.72992676 5.8125 22.625 C5.22895752 23.5214624 4.64541504 24.4179248 4.04418945 25.34155273 C1.61874301 29.06389946 -0.80420835 32.7748649 -3.4140625 36.37109375 C-7.22963025 41.78040688 -8.97154895 45.77331471 -8.4921875 52.484375 C-7.52425982 57.4315609 -5.65482171 60.69356181 -1.625 63.875 C1.46231397 65.32110134 1.46231397 65.32110134 7 66 C7 71.61 7 77.22 7 83 C-3.87086905 81.85569799 -10.79203306 79.73178056 -18.3125 71.6875 C-24.66022034 63.77048213 -26.68672687 54.93734181 -26 45 C-23.77365355 31.25047577 -9.63173186 9.63173186 0 0 Z " fill="#010404" transform="translate(438,395)"/>
<path d="M0 0 C16.17 0 32.34 0 49 0 C49 5.28 49 10.56 49 16 C32.83 16 16.66 16 0 16 C0 10.72 0 5.44 0 0 Z " fill="#000000" transform="translate(91,33)"/>
<path d="M0 0 C10.89 0 21.78 0 33 0 C33 5.28 33 10.56 33 16 C22.11 16 11.22 16 0 16 C0 10.72 0 5.44 0 0 Z " fill="#000000" transform="translate(99,330)"/>
<path d="M0 0 C5.28 0 10.56 0 16 0 C16 5.28 16 10.56 16 16 C10.72 16 5.44 16 0 16 C0 10.72 0 5.44 0 0 Z " fill="#000000" transform="translate(157,33)"/>
<path d="M0 0 C5.28 0 10.56 0 16 0 C16 5.28 16 10.56 16 16 C10.72 16 5.44 16 0 16 C0 10.72 0 5.44 0 0 Z " fill="#000000" transform="translate(58,33)"/>
</svg>
