<?xml version="1.0" encoding="UTF-8"?>
<svg version="1.1" xmlns="http://www.w3.org/2000/svg" width="512" height="512">
<path d="M0 0 C0.69873305 -0.00508782 1.39746609 -0.01017564 2.11737287 -0.01541764 C4.4585669 -0.03111259 6.79973011 -0.03965938 9.14096069 -0.04811096 C10.81988723 -0.05765188 12.49881181 -0.06754315 14.17773438 -0.07775879 C19.69198277 -0.10911864 25.20624612 -0.12940888 30.72055054 -0.14796448 C31.65951534 -0.1512618 32.59848014 -0.15455912 33.56589842 -0.15795636 C42.42556429 -0.18873774 51.28523363 -0.21543802 60.14493752 -0.23237514 C71.46551784 -0.25427265 82.78562336 -0.29622947 94.10601389 -0.36581272 C102.07221193 -0.41311062 110.03828212 -0.43731647 118.00461614 -0.44457203 C122.75922358 -0.44951977 127.51329559 -0.4645168 132.26774979 -0.50431633 C136.74458346 -0.54129834 141.22057847 -0.54955477 145.69753647 -0.5363102 C147.334957 -0.53636395 148.97241579 -0.54658254 150.60969543 -0.56806183 C162.19603323 -0.71185892 169.64722277 1.25625328 178.49398804 9.09812927 C188.65379284 20.08297622 211.05648804 46.86963643 211.05648804 62.16062927 C212.00071058 62.1569421 212.94493313 62.15325493 213.91776848 62.14945602 C236.91226808 62.06058531 259.90674536 61.99489186 282.90138054 61.95338058 C294.02150458 61.93277152 305.14151503 61.90468249 316.26156616 61.85887146 C325.95588036 61.81895311 335.65011228 61.79318443 345.34450638 61.78427529 C350.47575514 61.77906904 355.60676855 61.7668668 360.73794174 61.73770905 C365.57242979 61.71046103 370.40658663 61.70220323 375.24114418 61.70819855 C377.01077515 61.7071025 378.78041775 61.69920472 380.54998207 61.68380737 C392.86193791 61.5819771 402.91897768 62.35054869 412.29867554 71.16062927 C417.30835127 76.86052699 420.20548063 83.10972509 420.15414429 90.70750427 C420.15092163 91.55184021 420.14769897 92.39617615 420.14437866 93.26609802 C420.13599976 94.13879333 420.12762085 95.01148865 420.11898804 95.91062927 C420.11447632 96.79879333 420.1099646 97.6869574 420.10531616 98.60203552 C420.09356204 100.78830256 420.07713052 102.97443106 420.05648804 105.16062927 C421.25660522 105.13968201 422.45672241 105.11873474 423.69320679 105.09715271 C428.17338997 105.0243974 432.65352158 104.97870095 437.13412476 104.94090271 C439.06813355 104.92086787 441.00208239 104.89363199 442.93588257 104.85887146 C445.72623546 104.80999356 448.51578305 104.78757908 451.30648804 104.77000427 C452.58979004 104.73903656 452.58979004 104.73903656 453.89901733 104.70744324 C461.878477 104.70450414 468.30890522 107.56838653 474.05648804 113.16062927 C480.50981672 122.0088193 481.17932165 130.31332006 479.62870979 141.15030479 C479.02308135 144.14425842 478.33560105 147.10498534 477.60751343 150.07151794 C477.21347761 151.75325214 477.21347761 151.75325214 476.81148148 153.46896076 C475.93939771 157.17556348 475.04683466 160.87690907 474.15414429 164.57859802 C473.52395456 167.23167647 472.89822644 169.88580196 472.27235413 172.53990173 C470.93505747 178.20083862 469.58744365 183.85923347 468.23239136 189.51594543 C466.28535053 197.64404924 464.35377379 205.77576336 462.42655444 213.9085871 C460.10059003 223.72364652 457.77172343 233.53800849 455.43389893 243.35025024 C451.06751608 261.67755274 446.7290183 280.01105489 442.42924309 298.35410118 C441.54873134 302.11039856 440.66754169 305.86653625 439.78611755 309.62261963 C436.49074177 323.66531697 436.49074177 323.66531697 433.1998291 337.70906067 C431.94524859 343.06559704 430.6864706 348.42113068 429.42453957 353.77593994 C428.96814273 355.71572997 428.51320433 357.65586386 428.05988121 359.59637451 C427.4438008 362.23289596 426.82255547 364.86814963 426.20004272 367.50315857 C426.0256923 368.25490451 425.85134188 369.00665045 425.67170811 369.78117657 C422.6207616 382.61054566 418.43177738 391.49606426 406.74398804 398.72312927 C401.41583729 401.75185264 397.33008608 402.28598271 391.19913864 402.29485035 C390.5063752 402.29720258 389.81361176 402.29955481 389.09985548 402.30197832 C386.76724841 402.30866095 384.43469714 402.30821032 382.1020813 402.30780029 C380.41728641 402.31109936 378.73249231 402.31482502 377.04769921 402.31894177 C372.40893664 402.32896474 367.770187 402.33267904 363.13141513 402.33533108 C358.13196179 402.33923318 353.1325187 402.34881149 348.1330719 402.35754395 C336.05599276 402.37730961 323.97891277 402.38737407 311.90182149 402.39627174 C306.21656259 402.40065391 300.53130462 402.40602085 294.84604645 402.4112606 C275.95120817 402.42827193 257.05637048 402.44276708 238.16152573 402.45000935 C233.25786081 402.45191928 228.3541959 402.45383961 223.45053101 402.45579529 C221.62232958 402.4565209 221.62232958 402.4565209 219.75719479 402.45726117 C200.00435305 402.46556514 180.25157181 402.49090868 160.4987565 402.52337597 C140.22616755 402.55642642 119.95360936 402.57445623 99.68099332 402.57765359 C88.29569069 402.5798204 76.9104763 402.58859426 65.52519989 402.61411476 C55.83110442 402.63579412 46.13711862 402.64388574 36.44300166 402.63414798 C31.49619611 402.62959546 26.54961699 402.63154487 21.60284233 402.65090942 C17.07385209 402.66848561 12.54525439 402.66758856 8.0162603 402.65201213 C6.37828937 402.64962763 4.74029165 402.65400312 3.10236177 402.66584078 C-6.70973131 402.73235962 -13.75758951 402.48223132 -21.56851196 395.97312927 C-27.78633715 388.60991524 -32.18321394 381.83316052 -32.20636749 371.92731285 C-32.21404978 370.68964491 -32.22173207 369.45197697 -32.22964716 368.17680395 C-32.22808688 366.81141663 -32.22632935 365.44602954 -32.22439575 364.0806427 C-32.22956622 362.62383416 -32.23559342 361.16702846 -32.24240255 359.71022666 C-32.25851214 355.7107786 -32.26211999 351.7114024 -32.26359749 347.71192575 C-32.26730393 343.39681343 -32.28240133 339.08173817 -32.29586792 334.76664734 C-32.32301422 325.33261865 -32.33508089 315.89860698 -32.34388924 306.46454573 C-32.34941767 300.57175938 -32.35789305 294.67897958 -32.36689758 288.78619766 C-32.39128053 272.46479645 -32.41187946 256.14340047 -32.41864777 239.82198143 C-32.4190869 238.77767652 -32.41952603 237.73337161 -32.41997847 236.65742109 C-32.42041503 235.61064361 -32.42085158 234.56386614 -32.42130136 233.48536813 C-32.42218829 231.36426377 -32.42308142 229.24315941 -32.42398071 227.12205505 C-32.42442357 226.06991816 -32.42486643 225.01778126 -32.42532271 223.93376143 C-32.43321674 206.88994033 -32.46811985 189.84629035 -32.51469976 172.80253534 C-32.56215713 155.29612852 -32.58705285 137.78980751 -32.5893836 120.28333533 C-32.59121546 110.45724708 -32.6026782 100.63138181 -32.63902283 90.80535507 C-32.66986599 82.43730829 -32.68004179 74.06955337 -32.66354662 65.70146053 C-32.65574774 61.43450074 -32.65752138 57.16812832 -32.68566132 52.9012413 C-32.71122747 48.98871653 -32.70867043 45.07721778 -32.68447989 41.16469355 C-32.68058078 39.75550675 -32.68665443 38.34624616 -32.70416862 36.9371628 C-32.835993 25.60661889 -30.28374733 16.6843992 -22.56851196 8.16062927 C-15.87361397 2.07435837 -8.8879116 0.0487891 0 0 Z " fill="#FFBD00" transform="translate(31.943511962890625,54.83937072753906)"/>
<path d="M0 0 C0.69873305 -0.00508782 1.39746609 -0.01017564 2.11737287 -0.01541764 C4.4585669 -0.03111259 6.79973011 -0.03965938 9.14096069 -0.04811096 C10.81988723 -0.05765188 12.49881181 -0.06754315 14.17773438 -0.07775879 C19.69198277 -0.10911864 25.20624612 -0.12940888 30.72055054 -0.14796448 C31.65951534 -0.1512618 32.59848014 -0.15455912 33.56589842 -0.15795636 C42.42556429 -0.18873774 51.28523363 -0.21543802 60.14493752 -0.23237514 C71.46551784 -0.25427265 82.78562336 -0.29622947 94.10601389 -0.36581272 C102.07221193 -0.41311062 110.03828212 -0.43731647 118.00461614 -0.44457203 C122.75922358 -0.44951977 127.51329559 -0.4645168 132.26774979 -0.50431633 C136.74458346 -0.54129834 141.22057847 -0.54955477 145.69753647 -0.5363102 C147.334957 -0.53636395 148.97241579 -0.54658254 150.60969543 -0.56806183 C162.19603323 -0.71185892 169.64722277 1.25625328 178.49398804 9.09812927 C188.65379284 20.08297622 211.05648804 46.86963643 211.05648804 62.16062927 C212.00071058 62.1569421 212.94493313 62.15325493 213.91776848 62.14945602 C236.91226808 62.06058531 259.90674536 61.99489186 282.90138054 61.95338058 C294.02150458 61.93277152 305.14151503 61.90468249 316.26156616 61.85887146 C325.95588036 61.81895311 335.65011228 61.79318443 345.34450638 61.78427529 C350.47575514 61.77906904 355.60676855 61.7668668 360.73794174 61.73770905 C365.57242979 61.71046103 370.40658663 61.70220323 375.24114418 61.70819855 C377.01077515 61.7071025 378.78041775 61.69920472 380.54998207 61.68380737 C392.86193791 61.5819771 402.91897768 62.35054869 412.29867554 71.16062927 C417.30835127 76.86052699 420.20548063 83.10972509 420.15414429 90.70750427 C420.15092163 91.55184021 420.14769897 92.39617615 420.14437866 93.26609802 C420.13599976 94.13879333 420.12762085 95.01148865 420.11898804 95.91062927 C420.11447632 96.79879333 420.1099646 97.6869574 420.10531616 98.60203552 C420.09356204 100.78830256 420.07713052 102.97443106 420.05648804 105.16062927 C418.85323323 105.16209449 418.85323323 105.16209449 417.62567025 105.1635893 C370.11126334 105.22182689 322.59690227 105.29559751 275.08255197 105.38961555 C269.38091174 105.40088409 263.67927126 105.41202248 257.97763062 105.42308044 C256.27494752 105.42638597 256.27494752 105.42638597 254.53786679 105.42975827 C236.14398399 105.46515692 217.75010124 105.49000655 199.35619698 105.51097629 C180.49058848 105.5327179 161.6250243 105.56575268 142.75945348 105.60933083 C131.11289444 105.63587583 119.46639064 105.65355021 107.81980284 105.65997531 C99.8396577 105.66522049 91.85958215 105.6814081 83.87947426 105.70629493 C79.27133953 105.72033981 74.66332945 105.72946962 70.05517197 105.72563744 C65.83892306 105.72223738 61.62294079 105.73253301 57.40674653 105.75386479 C55.87908597 105.7591508 54.35139785 105.75934869 52.82373742 105.7540249 C50.7509475 105.74753554 48.67904396 105.75937923 46.60632801 105.77586842 C45.45387681 105.77776702 44.30142561 105.77966562 43.11405164 105.78162175 C39.69825898 106.2050344 37.80960451 107.13047562 35.05648804 109.16062927 C33.94417377 110.94753996 33.94417377 110.94753996 33.45101929 113.04344177 C33.22108276 113.84298279 32.99114624 114.6425238 32.75424194 115.46629333 C32.40885376 116.79998962 32.40885376 116.79998962 32.05648804 118.16062927 C31.79658081 119.12452576 31.53667358 120.08842224 31.26889038 121.08152771 C30.39652341 124.39249829 29.56525395 127.71162331 28.74398804 131.03562927 C28.43984985 132.25798279 28.13571167 133.4803363 27.82235718 134.73973083 C25.48367986 144.22595645 23.33791662 153.74750894 21.25643921 163.29295349 C19.43315115 171.60705017 17.40909375 179.85584437 15.3062439 188.10301208 C13.41166431 195.59249309 11.70501424 203.11347024 10.05648804 210.66062927 C7.97521946 220.18893697 5.71608384 229.651902 3.30648804 239.10203552 C1.41183285 246.59184433 -0.29491394 254.11314144 -1.94351196 261.66062927 C-4.02478054 271.18893697 -6.28391616 280.651902 -8.69351196 290.10203552 C-10.58816863 297.59185018 -12.29475402 305.1131727 -13.94351196 312.66062927 C-15.83683062 321.32056868 -17.83387433 329.94124657 -20.00601196 338.53562927 C-20.2517395 339.51088562 -20.49746704 340.48614197 -20.75064087 341.49095154 C-21.72703374 345.3599164 -22.70565422 349.22828278 -23.69204712 353.0947113 C-24.41108803 355.92673581 -25.11616333 358.7619256 -25.81851196 361.59812927 C-26.03386597 362.43199158 -26.24921997 363.26585388 -26.47109985 364.12498474 C-28.39676853 371.98554036 -28.29543513 379.21808065 -26.94351196 387.16062927 C-30.07329633 384.5998966 -30.86940156 382.00262732 -31.94351196 378.16062927 C-32.19881296 375.15938795 -32.19881296 375.15938795 -32.20636749 371.92731285 C-32.21404978 370.68964491 -32.22173207 369.45197697 -32.22964716 368.17680395 C-32.22808688 366.81141663 -32.22632935 365.44602954 -32.22439575 364.0806427 C-32.22956622 362.62383416 -32.23559342 361.16702846 -32.24240255 359.71022666 C-32.25851214 355.7107786 -32.26211999 351.7114024 -32.26359749 347.71192575 C-32.26730393 343.39681343 -32.28240133 339.08173817 -32.29586792 334.76664734 C-32.32301422 325.33261865 -32.33508089 315.89860698 -32.34388924 306.46454573 C-32.34941767 300.57175938 -32.35789305 294.67897958 -32.36689758 288.78619766 C-32.39128053 272.46479645 -32.41187946 256.14340047 -32.41864777 239.82198143 C-32.4190869 238.77767652 -32.41952603 237.73337161 -32.41997847 236.65742109 C-32.42041503 235.61064361 -32.42085158 234.56386614 -32.42130136 233.48536813 C-32.42218829 231.36426377 -32.42308142 229.24315941 -32.42398071 227.12205505 C-32.42442357 226.06991816 -32.42486643 225.01778126 -32.42532271 223.93376143 C-32.43321674 206.88994033 -32.46811985 189.84629035 -32.51469976 172.80253534 C-32.56215713 155.29612852 -32.58705285 137.78980751 -32.5893836 120.28333533 C-32.59121546 110.45724708 -32.6026782 100.63138181 -32.63902283 90.80535507 C-32.66986599 82.43730829 -32.68004179 74.06955337 -32.66354662 65.70146053 C-32.65574774 61.43450074 -32.65752138 57.16812832 -32.68566132 52.9012413 C-32.71122747 48.98871653 -32.70867043 45.07721778 -32.68447989 41.16469355 C-32.68058078 39.75550675 -32.68665443 38.34624616 -32.70416862 36.9371628 C-32.835993 25.60661889 -30.28374733 16.6843992 -22.56851196 8.16062927 C-15.87361397 2.07435837 -8.8879116 0.0487891 0 0 Z " fill="#FF9A00" transform="translate(31.943511962890625,54.83937072753906)"/>
<path d="M0 0 C7.63364564 4.24091424 11.93939763 10.21678666 14.625 18.5 C15.04353714 21.42972688 15.0658903 24.3178903 15.06079102 27.27416992 C15.07086685 28.12398437 15.08094269 28.97379883 15.09132385 29.84936523 C15.11968784 32.6432024 15.12567511 35.43649678 15.12890625 38.23046875 C15.13855746 40.18712072 15.14865068 42.14377056 15.15916443 44.10041809 C15.17709844 48.19826265 15.18268848 52.29591781 15.1809082 56.39379883 C15.18060399 61.61791636 15.22150666 66.84080461 15.27322483 72.06463146 C15.30676057 76.10642454 15.31266046 80.14792624 15.31107903 84.18984413 C15.31459506 86.11419207 15.32772809 88.03854952 15.35107613 89.96275902 C15.47244655 101.00094234 15.47077518 110.26744899 8.625 119.5 C6.12776531 121.95859349 3.67882621 123.79009731 0.625 125.5 C-0.4475 126.11875 -1.52 126.7375 -2.625 127.375 C-10.34012348 129.68953704 -18.06422899 129.5687342 -25.28125 125.81640625 C-32.63504023 121.19284784 -37.77159088 115.92459272 -40.375 107.5 C-41.28448338 100.99166745 -41.03106997 94.36287685 -40.96875 87.80859375 C-40.96703609 85.89388606 -40.96710743 83.97917603 -40.96887207 82.06446838 C-40.96722492 78.06594161 -40.94863712 74.0679796 -40.91699219 70.06958008 C-40.87728995 64.96326102 -40.87295407 59.85767918 -40.88045502 54.75123501 C-40.88353495 50.80220373 -40.87136829 46.85333589 -40.85432434 42.90434456 C-40.84733071 41.02222787 -40.84416536 39.14009267 -40.84501648 37.25796318 C-40.84320408 34.6214278 -40.82170127 31.98575071 -40.79492188 29.34936523 C-40.79785248 28.58391891 -40.80078308 27.8184726 -40.80380249 27.02983093 C-40.66136201 17.86889834 -37.84698175 11.08488569 -31.5703125 4.44921875 C-22.62997545 -3.48890969 -10.74412725 -4.94954177 0 0 Z " fill="#FFFEFD" transform="translate(270.375,215.5)"/>
<path d="M0 0 C3.91036603 2.72856652 6.32287888 5.70740693 8.63671875 9.83984375 C9.56484375 11.44859375 9.56484375 11.44859375 10.51171875 13.08984375 C12.82625579 20.80496723 12.70545295 28.52907274 8.953125 35.74609375 C4.34375363 43.07731943 -0.96018209 48.20711311 -9.36328125 50.83984375 C-18.53204889 52.4651598 -25.73727402 49.95402071 -33.36328125 44.83984375 C-39.08746272 40.01222083 -42.7124557 33.34088028 -43.78125 25.94921875 C-44.18916463 17.34993738 -42.06535733 10.97124804 -36.30859375 4.546875 C-25.569434 -5.65346877 -13.13569362 -7.29760757 0 0 Z " fill="#FFFEFC" transform="translate(273.36328125,356.16015625)"/>
</svg>
