<?xml version="1.0" encoding="UTF-8"?>
<svg version="1.1" xmlns="http://www.w3.org/2000/svg" width="512" height="512">
<path d="M0 0 C0.82985413 -0.00979385 1.65970825 -0.01958771 2.51470947 -0.02967834 C53.45665432 -0.50697321 102.15456782 12.22810412 142.03125 45.23828125 C142.8972583 45.95201904 142.8972583 45.95201904 143.78076172 46.68017578 C155.33764459 56.25944361 165.77444356 66.37392371 175.03125 78.23828125 C175.7840625 79.19734375 176.536875 80.15640625 177.3125 81.14453125 C210.53227562 124.3757461 225.68500314 180.4826626 218.71875 234.6015625 C213.51790335 271.04618579 200.14059685 304.77239284 178.03125 334.23828125 C176.98130859 335.64013672 176.98130859 335.64013672 175.91015625 337.0703125 C159.46213141 358.23731328 139.21344666 376.03627968 115.86376953 389.20458984 C114.65744125 389.88505799 113.45513861 390.57272081 112.25732422 391.26806641 C83.96182682 407.67113961 50.49391228 416.20547205 17.90625 416.61328125 C16.76542969 416.65066406 15.62460937 416.68804687 14.44921875 416.7265625 C7.23563133 416.80196585 3.35274315 416.23502308 -1.96875 411.23828125 C-5.53649315 406.28947624 -5.80088877 401.1380516 -4.96875 395.23828125 C-3.16069276 389.85496959 0.16695286 386.98617611 5.03125 384.23828125 C8.39257813 383.58813477 8.39257813 383.58813477 12.0625 383.3671875 C13.43336385 383.2700575 14.8042129 383.17271856 16.17504883 383.07519531 C16.88609772 383.03108521 17.59714661 382.9869751 18.32974243 382.94152832 C51.8659317 380.79748827 84.66810335 371.37632738 112.03125 351.23828125 C113.0728125 350.4803125 114.114375 349.72234375 115.1875 348.94140625 C151.75804708 321.84968259 176.84247905 281.5369696 184 236.41796875 C190.66460873 190.37259041 180.57519755 143.16982305 152.84375 105.36328125 C124.90475406 69.15131697 88.20903209 45.29212827 43.03125 36.23828125 C41.98453125 36.02429688 40.9378125 35.8103125 39.859375 35.58984375 C-4.37938825 27.6818783 -51.15680607 38.9397368 -87.96875 64.23828125 C-96.92322863 70.54058991 -105.07577129 77.65885923 -112.96875 85.23828125 C-113.5241748 85.7688916 -114.07959961 86.29950195 -114.65185547 86.84619141 C-136.71835787 108.34048658 -153.12369482 139.3735331 -159.04101562 169.51293945 C-159.21620728 170.40141068 -159.39139893 171.2898819 -159.57189941 172.20527649 C-159.70286011 172.87616806 -159.8338208 173.54705963 -159.96875 174.23828125 C-158.34864014 173.1555896 -158.34864014 173.1555896 -156.69580078 172.05102539 C-152.69722883 169.37928793 -148.69764672 166.70906612 -144.69775391 164.03930664 C-142.96505479 162.88249524 -141.23263175 161.72527019 -139.50048828 160.56762695 C-137.01406764 158.90598064 -134.5266655 157.24581304 -132.0390625 155.5859375 C-131.26192902 155.06612808 -130.48479553 154.54631866 -129.68411255 154.01075745 C-128.96351654 153.53033493 -128.24292053 153.04991241 -127.50048828 152.55493164 C-126.86539337 152.13079483 -126.23029846 151.70665802 -125.57595825 151.26966858 C-121.02517341 148.34931161 -116.23464417 148.70200914 -110.96875 149.23828125 C-106.51728749 151.42354467 -103.77989855 154.17773335 -100.96875 158.23828125 C-99.25366854 163.38352564 -99.2431602 168.22220586 -101.28125 173.23828125 C-107.55510465 183.91527087 -123.71101285 191.09669284 -133.82836914 197.73754883 C-136.76557799 199.66549435 -139.70039347 201.59703725 -142.63476562 203.52929688 C-174.36477551 224.40803867 -174.36477551 224.40803867 -180.65625 224.61328125 C-181.67074219 224.66226563 -182.68523437 224.71125 -183.73046875 224.76171875 C-190.77348695 223.62328155 -195.01385339 218.46052472 -199.09375 212.92578125 C-200.04280268 211.67856896 -200.99338733 210.43252127 -201.9453125 209.1875 C-202.43676758 208.54087402 -202.92822266 207.89424805 -203.43457031 207.22802734 C-206.04465782 203.84288839 -208.76003415 200.54461405 -211.46875 197.23828125 C-217.39320243 189.9748361 -223.22955351 182.64896158 -228.96875 175.23828125 C-229.40268066 174.68060059 -229.83661133 174.12291992 -230.28369141 173.54833984 C-231.53984383 171.92937243 -232.78703104 170.30393063 -234.03125 168.67578125 C-235.10052734 167.28166016 -235.10052734 167.28166016 -236.19140625 165.859375 C-239.4896016 160.99544295 -240.56711834 157.12223655 -239.96875 151.23828125 C-238.05156902 145.42137988 -235.4738758 142.16653966 -229.96875 139.23828125 C-224.76551431 137.50386935 -219.77239772 137.60910674 -214.76953125 140.02734375 C-207.72325852 144.76561826 -202.68715913 153.0365608 -197.56152344 159.71606445 C-196.38560735 161.24043893 -195.17997648 162.74180987 -193.96875 164.23828125 C-193.63875 164.23828125 -193.30875 164.23828125 -192.96875 164.23828125 C-192.68902344 163.08714844 -192.40929687 161.93601563 -192.12109375 160.75 C-184.6904608 130.93256867 -172.31735126 103.28346607 -152.96875 79.23828125 C-151.76025391 77.72427734 -151.76025391 77.72427734 -150.52734375 76.1796875 C-138.38942251 61.25929626 -124.68888876 48.31365747 -108.96875 37.23828125 C-108.38448242 36.82529785 -107.80021484 36.41231445 -107.19824219 35.98681641 C-76.39278889 14.53077328 -37.77134305 0.37124077 0 0 Z " fill="#222222" transform="translate(265.96875,47.76171875)"/>
<path d="M0 0 C3.68807589 2.6217409 5.39998447 6.08667215 6.796875 10.27734375 C6.85081962 13.19682277 6.84657351 16.09082356 6.79589844 19.00878906 C6.77312913 20.86060958 6.75091856 22.71243703 6.72918701 24.56427002 C6.71001347 26.03946987 6.71001347 26.03946987 6.69045258 27.54447174 C6.61979948 33.86764783 6.61363542 40.19128252 6.59659958 46.51478958 C6.57800755 52.06058861 6.53640255 57.60432029 6.44384766 63.14941406 C6.3554431 68.52236485 6.3317678 73.89228605 6.35022736 79.26589203 C6.34595792 81.30233309 6.31899676 83.33887122 6.2677536 85.37467194 C6.00519472 96.34754336 6.36134027 104.32559003 14.00878906 112.70605469 C15.67385614 114.40010227 17.37169748 116.03953436 19.11287689 117.65509796 C21.91785564 120.35721795 24.36836391 123.35129114 26.859375 126.33984375 C27.84881523 127.49863138 28.83952873 128.65633414 29.83203125 129.8125 C30.32074707 130.38371582 30.80946289 130.95493164 31.31298828 131.54345703 C33.30568047 133.87187097 35.30023362 136.19868664 37.29492188 138.52539062 C38.7944851 140.27455605 40.29372709 142.02399646 41.79296875 143.7734375 C44.31022298 146.71037072 46.82969552 149.64539233 49.34985352 152.57983398 C50.84512213 154.32322577 52.33669814 156.06972777 53.828125 157.81640625 C55.83151176 160.16031577 57.85427949 162.48546669 59.890625 164.80078125 C60.88025978 165.93875734 61.86984502 167.07677652 62.859375 168.21484375 C63.53915405 168.97583374 63.53915405 168.97583374 64.23266602 169.75219727 C68.16411928 174.30421003 70.46943598 178.70460863 71.234375 184.71484375 C70.48933873 190.78156769 68.5428903 194.8876581 63.734375 198.71484375 C58.77748134 201.35148931 54.45972483 202.2652493 48.9140625 200.76953125 C39.03778983 196.65108556 32.52169563 186.02690182 26.01171875 177.9609375 C23.84054673 175.33025818 21.59446143 172.79791951 19.296875 170.27734375 C15.37796248 165.97742584 11.70516631 161.51814828 8.046875 156.99609375 C5.86185931 154.35586646 3.60516109 151.81004655 1.296875 149.27734375 C-2.61591617 144.98414233 -6.28466657 140.53364868 -9.93359375 136.015625 C-12.22043005 133.25646451 -14.59518476 130.60712467 -17.015625 127.96484375 C-22.01183585 122.47162763 -26.31335513 117.72765186 -26.34356689 109.9707489 C-26.34927704 109.09180969 -26.35498718 108.21287048 -26.36087036 107.30729675 C-26.36198822 106.3456813 -26.36310608 105.38406586 -26.36425781 104.39331055 C-26.36922272 103.37838531 -26.37418762 102.36346008 -26.37930298 101.31777954 C-26.39392996 97.95403367 -26.40072756 94.59033497 -26.40625 91.2265625 C-26.41200105 88.89109801 -26.41775879 86.55563353 -26.42352295 84.22016907 C-26.43403449 79.3200356 -26.43987615 74.41991855 -26.44335938 69.51977539 C-26.44884408 63.24162046 -26.47287115 56.96368242 -26.50133133 50.68559551 C-26.51995728 45.86002469 -26.5251633 41.0345061 -26.52669525 36.20890236 C-26.52972245 33.89445625 -26.53775319 31.58001107 -26.55088043 29.2656002 C-26.56793945 26.0267526 -26.56606079 22.78843488 -26.55957031 19.54956055 C-26.5687851 18.59401779 -26.57799988 17.63847504 -26.5874939 16.65397644 C-26.55474305 11.43539893 -26.13618867 7.78402696 -23.203125 3.27734375 C-16.17208437 -3.38364211 -8.55607859 -4.65941489 0 0 Z " fill="#7EBCE7" transform="translate(287.203125,156.72265625)"/>
<path d="M0 0 C5.72074736 2.7321058 7.98435229 8.13534604 10.9296875 13.45703125 C16.58991685 23.06065515 22.54317668 32.06918005 29.9296875 40.45703125 C30.6825 41.31941406 31.4353125 42.18179688 32.2109375 43.0703125 C34.41974013 45.56277985 36.6648688 48.01546626 38.9296875 50.45703125 C39.50589844 51.09898437 40.08210938 51.7409375 40.67578125 52.40234375 C55.93510643 68.64723781 76.90223289 81.21730337 97.55078125 89.3046875 C98.31358398 89.60431396 99.07638672 89.90394043 99.86230469 90.21264648 C101.32120762 90.77513602 102.78651765 91.32139385 104.25878906 91.84790039 C110.17811002 94.10651358 113.20302337 97.2503693 116.2421875 102.89453125 C117.83983014 108.84938108 117.10030543 113.34723996 114.20703125 118.66015625 C111.58529035 122.34823214 108.1203591 124.06014072 103.9296875 125.45703125 C98.66729963 125.806586 94.52243334 124.9511883 89.6796875 123.01953125 C88.99712891 122.75366211 88.31457031 122.48779297 87.61132812 122.21386719 C68.07343371 114.43570634 50.44994913 104.46382879 33.9296875 91.45703125 C33.07632813 90.80863281 32.22296875 90.16023438 31.34375 89.4921875 C12.50816554 74.7574435 -2.3676145 56.56349731 -15.0703125 36.45703125 C-15.46444336 35.84263184 -15.85857422 35.22823242 -16.26464844 34.59521484 C-24.97691619 20.88844555 -24.97691619 20.88844555 -24.0703125 12.45703125 C-22.42426437 6.55062327 -19.87434205 3.93228667 -15.0703125 0.45703125 C-10.69226 -1.731995 -4.64815354 -1.21904404 0 0 Z " fill="#222222" transform="translate(114.0703125,328.54296875)"/>
</svg>
