<?xml version="1.0" encoding="UTF-8"?>
<svg version="1.1" xmlns="http://www.w3.org/2000/svg" width="512" height="512">
<path d="M0 0 C1.64090655 1.38855139 3.27940758 2.77979941 4.91503906 4.17456055 C8.23344757 7.00202218 11.59816039 9.76109244 14.99609375 12.4921875 C20.89199083 17.28957683 26.41938619 22.45074303 31.97216797 27.63525391 C37.56184013 32.84165473 43.23790983 37.88269353 49.18359375 42.6796875 C52.9659226 45.73954904 56.45914847 48.89409167 59.8359375 52.390625 C61.5688008 54.12756563 63.37923208 55.71314078 65.24609375 57.3046875 C95.48809736 83.64261743 106.55014827 115.4424136 109.29931641 154.87451172 C119.14929936 314.06294583 119.14929936 314.06294583 75.34375 365.0703125 C52.99414678 389.22268399 19.42769418 395.66700922 -11.87890625 398.7421875 C-13.06307129 398.86166748 -14.24723633 398.98114746 -15.46728516 399.10424805 C-44.90697363 401.75286106 -74.62017351 401.21471771 -104.14599609 401.18505859 C-109.85690101 401.17936183 -115.56775935 401.18275354 -121.27866268 401.18849182 C-185.21054258 401.24327675 -185.21054258 401.24327675 -209.94140625 398.8046875 C-211.2550415 398.67682861 -212.56867676 398.54896973 -213.92211914 398.41723633 C-241.57015082 395.5869944 -270.32074873 389.18549758 -291.50390625 370.0546875 C-292.24898437 369.40242188 -292.9940625 368.75015625 -293.76171875 368.078125 C-325.81267546 338.26068444 -329.74671883 286.91333047 -331.50390625 246.0546875 C-331.67455962 239.92191478 -331.66912703 233.78703834 -331.671875 227.65234375 C-331.6751038 225.91906204 -331.67846895 224.18578059 -331.68196106 222.45249939 C-331.68789959 218.83966442 -331.68980659 215.22685317 -331.68920898 211.61401367 C-331.68912799 207.96552546 -331.69603711 204.31716351 -331.7097168 200.66870117 C-332.05807384 106.26264636 -332.05807384 106.26264636 -301.50390625 72.0546875 C-300.74980469 71.18070313 -299.99570312 70.30671875 -299.21875 69.40625 C-295.33797919 64.97298523 -291.36823518 60.89513335 -286.8671875 57.09765625 C-283.66825454 54.33229767 -280.59231111 51.44231963 -277.50390625 48.5546875 C-273.19959362 44.53895111 -268.87328873 40.56738811 -264.41796875 36.71875 C-262.13163811 34.73104214 -259.87972395 32.70751398 -257.62890625 30.6796875 C-256.78457031 29.91914062 -255.94023437 29.15859375 -255.0703125 28.375 C-253.38692877 26.85303663 -251.7071079 25.32712124 -250.03125 23.796875 C-244.96745993 19.19051129 -239.78505337 14.79121136 -234.46484375 10.484375 C-231.2260733 7.82670321 -228.05020126 5.10454879 -224.87890625 2.3671875 C-206.10148547 -13.77616764 -186.97426422 -29.47712376 -165.50390625 -41.9453125 C-164.48780273 -42.53868408 -164.48780273 -42.53868408 -163.45117188 -43.14404297 C-101.01692601 -79.13572119 -48.0387434 -40.50672608 0 0 Z M-207.26000977 31.51171875 C-210.8036559 34.60476888 -214.39527631 37.61242423 -218.06640625 40.5546875 C-223.71814624 45.12669209 -228.98316892 50.07612526 -234.28125 55.046875 C-237.32184956 57.8969432 -240.42739049 60.65957561 -243.58203125 63.3828125 C-246.69920453 66.09449982 -249.75375575 68.87549718 -252.81640625 71.6484375 C-254.96465031 73.57186532 -257.13241737 75.46473228 -259.3125 77.3515625 C-269.60259603 86.35026717 -280.18330557 95.77090105 -286.50390625 108.0546875 C-287.18453125 109.30185547 -287.18453125 109.30185547 -287.87890625 110.57421875 C-298.98407564 132.61930204 -298.66042649 160.26622539 -298.671875 184.37890625 C-298.67510492 186.01674933 -298.67847013 187.65459215 -298.68196106 189.29243469 C-298.68790273 192.71034408 -298.68980642 196.1282284 -298.68920898 199.54614258 C-298.68912823 202.98695185 -298.69599705 206.42762654 -298.7097168 209.8684082 C-300.67733554 281.00372455 -300.67733554 281.00372455 -271.50390625 343.0546875 C-270.65119141 343.98861328 -270.65119141 343.98861328 -269.78125 344.94140625 C-240.17289228 373.89903083 -178.73507134 368.21013208 -141.08984375 368.22265625 C-138.73418154 368.22588877 -136.37851951 368.22925412 -134.02285767 368.23274231 C-129.12037696 368.23866819 -124.21791371 368.2405892 -119.31542969 368.23999023 C-114.38277493 368.23990932 -109.45021372 368.2468088 -104.51757812 368.26049805 C-80.6344588 368.32568767 -56.77242527 368.36650725 -32.9140625 367.15625 C-32.11609127 367.11650244 -31.31812004 367.07675488 -30.49596786 367.03580284 C-1.85098316 365.56018171 31.50233704 363.25316926 52.13671875 340.87890625 C90.53549414 294.91480922 79.97771902 204.23407343 75.49609375 148.0546875 C72.62065107 116.88434289 59.26125035 95.08809335 35.5234375 74.796875 C33.14589954 72.75374989 30.82140683 70.65702535 28.49609375 68.5546875 C24.87041085 65.28272976 21.21426633 62.05082982 17.53125 58.84375 C15.31253442 56.89332441 13.12272604 54.91325053 10.93359375 52.9296875 C1.56064261 44.47961155 -7.9728171 36.21770078 -17.78515625 28.28125 C-20.22987907 26.27910631 -22.6343226 24.23659982 -25.0300293 22.17626953 C-64.745073 -12.47335 -64.745073 -12.47335 -113.765625 -26.28515625 C-149.92261592 -21.79776936 -181.0773963 8.62189599 -207.26000977 31.51171875 Z " fill="#000000" transform="translate(366.50390625,84.9453125)"/>
<path d="M0 0 C1.12854401 -0.0071553 2.25708801 -0.01431061 3.41983032 -0.02168274 C4.66399216 -0.02437164 5.90815399 -0.02706055 7.1900177 -0.02983093 C8.49579773 -0.03640213 9.80157776 -0.04297333 11.14692688 -0.04974365 C15.48525257 -0.07079651 19.82357865 -0.08114905 24.16194153 -0.09111023 C25.65570405 -0.09515771 27.14946639 -0.09927463 28.64322853 -0.10346031 C35.66288895 -0.12251685 42.68253883 -0.13674535 49.70222014 -0.14507228 C57.80151613 -0.1548386 65.90053837 -0.18114011 73.99973792 -0.22157317 C80.26140929 -0.25175817 86.52300233 -0.26654352 92.78474504 -0.26985329 C96.52363461 -0.27220165 100.2622319 -0.28113315 104.00104332 -0.30631447 C108.17618832 -0.33397913 112.35072431 -0.3297568 116.5259552 -0.32279968 C117.75999588 -0.33560974 118.99403656 -0.3484198 120.26547241 -0.36161804 C126.95343226 -0.32097546 131.30240491 0.03048388 136.68147278 4.14717102 C140.44691616 8.97466254 141.27912929 12.69156631 141.00178528 18.78388977 C140.37062927 23.44058958 138.67565592 26.20531331 135.30647278 29.39717102 C130.95548205 32.29783151 127.41360667 33.39652385 122.19200134 33.40786743 C121.10140411 33.41495224 120.01080688 33.42203705 118.88716125 33.42933655 C117.70053894 33.42685913 116.51391663 33.42438171 115.29133606 33.42182922 C114.0338858 33.42694016 112.77643555 33.43205109 111.48088074 33.43731689 C108.03863816 33.45068613 104.59650552 33.45128781 101.15424204 33.4487536 C98.2766319 33.44768231 95.39904387 33.45257137 92.52143848 33.45735902 C85.72987704 33.46844737 78.93837092 33.46889563 72.14680481 33.46284485 C65.15024667 33.45680706 58.15388973 33.46911253 51.15736592 33.49041492 C45.14190586 33.50805397 39.1265097 33.51402859 33.11102474 33.51077718 C29.52203644 33.50896758 25.93319162 33.51156786 22.34422684 33.52549171 C18.33948543 33.54044767 14.33515112 33.53107987 10.33039856 33.51948547 C9.14782471 33.52712921 7.96525085 33.53477295 6.74684143 33.54264832 C-0.95725619 33.49335336 -6.08928055 32.87409043 -12.13102722 27.77217102 C-16.0699181 23.04550197 -16.84684341 19.27563877 -16.31852722 13.14717102 C-14.49551089 7.2730073 -12.15214653 4.6438318 -7.31852722 1.14717102 C-4.74117322 -0.14150598 -2.88709478 0.01253091 0 0 Z " fill="#999999" transform="translate(193.3185272216797,327.8528289794922)"/>
</svg>
