<?xml version="1.0" encoding="UTF-8"?>
<svg version="1.1" xmlns="http://www.w3.org/2000/svg" width="512" height="512">
<path d="M0 0 C7.03308634 5.33010631 7.03308634 5.33010631 7.921875 10.0703125 C7.80043069 15.96036164 3.09089809 19.94416488 -0.640625 24.0703125 C-1.12192871 24.6051123 -1.60323242 25.13991211 -2.09912109 25.69091797 C-5.24745184 29.18266625 -8.43764206 32.62710584 -11.640625 36.0703125 C-3.720625 36.4003125 4.199375 36.7303125 12.359375 37.0703125 C12.689375 35.0903125 13.019375 33.1103125 13.359375 31.0703125 C16.46024161 29.00306809 17.12911423 28.81839783 20.64146423 28.80288696 C21.9515873 28.79009201 21.9515873 28.79009201 23.28817749 28.77703857 C24.72128769 28.77839813 24.72128769 28.77839813 26.18334961 28.77978516 C27.19173386 28.77306793 28.2001181 28.76635071 29.23905945 28.75942993 C32.57999568 28.74039651 35.92073164 28.73652315 39.26171875 28.734375 C41.57955509 28.72795125 43.89739061 28.72122321 46.21522522 28.71420288 C51.07668946 28.70221705 55.93808257 28.69852345 60.79956055 28.69970703 C67.03540709 28.6999104 73.27079878 28.6725956 79.50653744 28.63816261 C84.29429732 28.61594967 89.08194673 28.61186776 93.86975288 28.61292648 C96.16910941 28.61056255 98.46846863 28.60169476 100.76777458 28.58626175 C103.98084463 28.56671375 107.19292055 28.57239598 110.40600586 28.58447266 C111.35938843 28.57323364 112.312771 28.56199463 113.29504395 28.55041504 C114.17127914 28.55880402 115.04751434 28.56719299 115.95030212 28.57583618 C116.70965026 28.57474665 117.46899839 28.57365711 118.25135708 28.57253456 C121.35798737 29.30612037 122.48860123 30.50350305 124.359375 33.0703125 C124.85156631 36.24869156 124.85156631 36.24869156 124.84039307 40.08111572 C124.84381077 40.78690443 124.84722847 41.49269313 124.85074973 42.21986938 C124.85733839 44.58481832 124.83533786 46.9486322 124.81347656 49.31347656 C124.81234829 51.00862603 124.81298155 52.70377745 124.81524658 54.39892578 C124.81639545 59.0020188 124.79285821 63.60469589 124.76495075 68.20769215 C124.73996591 73.01765148 124.7375974 77.82762007 124.73284912 82.63763428 C124.72041076 91.74657994 124.6875775 100.85533384 124.64745116 109.96419501 C124.60276022 120.33407549 124.58075315 130.70396507 124.56066942 141.07391787 C124.51884564 162.40615649 124.44847685 183.73822242 124.359375 205.0703125 C125.31243845 205.06478174 125.31243845 205.06478174 126.28475571 205.05913925 C141.74143761 204.97082025 157.19803181 204.90461865 172.65490341 204.86306381 C180.12972828 204.84243429 187.60438477 204.81430649 195.07910156 204.76855469 C201.5937137 204.72869856 208.10820391 204.70288251 214.62293458 204.69395852 C218.07283004 204.6887416 221.52237664 204.67647256 224.97216034 204.64739227 C228.82232729 204.61519986 232.67215226 204.61435231 236.52246094 204.61621094 C237.66757141 204.60182983 238.81268188 204.58744873 239.99249268 204.57263184 C241.04134644 204.57813049 242.0902002 204.58362915 243.1708374 204.58929443 C244.08156887 204.58560726 244.99230034 204.58192009 245.93062973 204.57812119 C249.17680632 205.235967 250.36145056 206.47093537 252.359375 209.0703125 C252.86273956 211.01987171 252.86273956 211.01987171 252.86730957 213.09492493 C252.88422852 214.282295 252.88422852 214.282295 252.90148926 215.49365234 C252.88934387 216.78323853 252.88934387 216.78323853 252.87695312 218.09887695 C252.88746704 219.46812569 252.88746704 219.46812569 252.89819336 220.86503601 C252.91581835 223.88819697 252.90412378 226.9104229 252.890625 229.93359375 C252.89332117 232.04428791 252.89720463 234.15498086 252.90222168 236.26567078 C252.90812496 240.69847389 252.89953638 245.13095501 252.88085938 249.5637207 C252.85822297 255.20776368 252.87108999 260.85103933 252.89514923 266.49505329 C252.90971638 270.86123761 252.90494897 275.22724516 252.89463806 279.59343529 C252.89199279 281.67156251 252.89516195 283.74970643 252.90455627 285.8278141 C252.98129312 307.60047106 249.11072952 326.77884323 233.55932617 342.99365234 C218.90517963 357.66535477 201.94208557 365.42178041 181.03923959 365.47620481 C179.60710645 365.47041211 178.17497445 365.46433122 176.74284363 365.45799255 C175.19224851 365.46217307 173.64165646 365.4676545 172.09107 365.47431237 C167.86008782 365.48869176 163.62930168 365.4845459 159.39830911 365.47714555 C154.82352995 365.47239745 150.24879219 365.48493825 145.67402649 365.49516296 C136.72301889 365.51232459 127.77208158 365.5131964 118.82106181 365.50795006 C111.54219776 365.50390197 104.26335442 365.5053595 96.98449135 365.51069832 C95.94691224 365.51144674 94.90933314 365.51219516 93.84031225 365.51296626 C91.73218462 365.51449781 89.624057 365.51603616 87.51592938 365.51758123 C67.76345389 365.5312969 48.01101805 365.52587529 28.25854347 365.51439602 C10.208392 365.50446609 -7.84165692 365.51740183 -25.89179257 365.54133021 C-44.4481892 365.56574341 -63.0045381 365.57532353 -81.56095046 365.56867748 C-91.96992741 365.56519002 -102.37882553 365.56738605 -112.7877903 365.58492851 C-121.6492739 365.59967833 -130.51062316 365.60024972 -139.37210421 365.5828576 C-143.88844928 365.57436784 -148.40455466 365.57214827 -152.92088699 365.58750916 C-157.06444623 365.60142704 -161.20756206 365.59650288 -165.35109612 365.57726992 C-166.84089898 365.5735312 -168.33073798 365.57636966 -169.82050846 365.58688157 C-189.42558868 365.71525408 -207.25393072 359.99482318 -221.56396484 346.27026367 C-235.22045572 332.6301139 -243.87543342 316.0614137 -244.04651731 296.42089796 C-244.04050727 295.4002426 -244.03449722 294.37958724 -244.02830505 293.32800293 C-244.03369059 292.20984585 -244.03907613 291.09168878 -244.04462487 289.93964815 C-244.05882793 286.2272286 -244.05181972 282.51516946 -244.04467773 278.80273438 C-244.05038498 276.12767424 -244.05725074 273.45263919 -244.06547546 270.77758789 C-244.08259836 264.28874847 -244.08351786 257.80000615 -244.07826256 251.31115001 C-244.07421089 246.03876798 -244.07567618 240.7664145 -244.08101082 235.49403381 C-244.08175924 234.74191633 -244.08250766 233.98979884 -244.08327876 233.21488991 C-244.0848103 231.68678724 -244.08634865 230.15868457 -244.08789373 228.63058192 C-244.10159275 214.33122915 -244.09619723 200.03193125 -244.08470852 185.73257977 C-244.07475752 172.64774112 -244.08775354 159.56304351 -244.11164271 146.4782266 C-244.13600893 133.03066511 -244.14564902 119.58316939 -244.13898998 106.13558626 C-244.13549498 98.59026257 -244.13774945 91.0450476 -244.15524101 83.4997406 C-244.16993113 77.08375613 -244.1706394 70.66795714 -244.1531701 64.25197643 C-244.14463512 60.97843128 -244.14472435 57.70528765 -244.15782166 54.43174744 C-244.17092751 50.88643198 -244.15957609 47.34202825 -244.14183044 43.79675293 C-244.15143545 42.7582518 -244.16104046 41.71975066 -244.17093652 40.6497798 C-244.09961215 33.75994014 -244.09961215 33.75994014 -241.88444614 30.43165588 C-239.41267404 28.93201291 -238.10827773 28.56808765 -235.23828125 28.56237793 C-234.36349121 28.55109863 -233.48870117 28.53981934 -232.58740234 28.52819824 C-231.15968506 28.54034363 -231.15968506 28.54034363 -229.703125 28.55273438 C-228.69459473 28.5457251 -227.68606445 28.53871582 -226.64697266 28.53149414 C-223.31124386 28.51388032 -219.97636252 28.5255494 -216.640625 28.5390625 C-214.32421709 28.53636857 -212.00781028 28.53248699 -209.69140625 28.52746582 C-204.83582802 28.52156616 -199.98054404 28.53014912 -195.125 28.54882812 C-188.89697854 28.57161754 -182.66964655 28.55849702 -176.44165039 28.53453827 C-171.65815015 28.52009318 -166.87481373 28.52468045 -162.09130859 28.53504944 C-159.79475829 28.53772027 -157.49819317 28.5344345 -155.20166016 28.52513123 C-151.9934136 28.51498723 -148.78628794 28.53043767 -145.578125 28.55273438 C-144.62631348 28.54463745 -143.67450195 28.53654053 -142.69384766 28.52819824 C-136.31693512 28.61042036 -136.31693512 28.61042036 -133.01953125 30.85266113 C-131.640625 33.0703125 -131.640625 33.0703125 -131.640625 37.0703125 C-123.720625 36.7403125 -115.800625 36.4103125 -107.640625 36.0703125 C-111.105625 32.6053125 -111.105625 32.6053125 -114.640625 29.0703125 C-116.25503184 27.20086899 -117.84224851 25.30730171 -119.390625 23.3828125 C-120.12796875 22.47144531 -120.8653125 21.56007812 -121.625 20.62109375 C-122.29015625 19.77933594 -122.9553125 18.93757813 -123.640625 18.0703125 C-124.49914062 17.02230469 -124.49914062 17.02230469 -125.375 15.953125 C-127.42221388 12.90757843 -127.14012611 10.62925789 -126.640625 7.0703125 C-125.00675651 4.87304108 -123.77349667 3.70489319 -121.640625 2.0703125 C-120.88523437 1.46316406 -120.12984375 0.85601562 -119.3515625 0.23046875 C-84.47320406 -26.57133766 -35.08027849 -25.63558813 0 0 Z M-84.640625 37.0703125 C-68.140625 37.0703125 -51.640625 37.0703125 -34.640625 37.0703125 C-48.70134672 26.52477121 -70.57990328 26.52477121 -84.640625 37.0703125 Z " fill="#252525" transform="translate(251.640625,146.9296875)"/>
<path d="M0 0 C7.03308634 5.33010631 7.03308634 5.33010631 7.921875 10.0703125 C7.80043069 15.96036164 3.09089809 19.94416488 -0.640625 24.0703125 C-1.12192871 24.6051123 -1.60323242 25.13991211 -2.09912109 25.69091797 C-5.24745184 29.18266625 -8.43764206 32.62710584 -11.640625 36.0703125 C-3.720625 36.4003125 4.199375 36.7303125 12.359375 37.0703125 C13.349375 39.0503125 14.339375 41.0303125 15.359375 43.0703125 C17.82361396 44.30243198 19.51172163 44.22811158 22.26806641 44.27563477 C23.30326416 44.29581665 24.33846191 44.31599854 25.4050293 44.33679199 C26.495979 44.35326782 27.58692871 44.36974365 28.7109375 44.38671875 C29.7114917 44.40536987 30.7120459 44.424021 31.74291992 44.4432373 C35.48997952 44.51167222 39.23718828 44.5717332 42.984375 44.6328125 C55.545 44.849375 55.545 44.849375 68.359375 45.0703125 C68.359375 63.5503125 68.359375 82.0303125 68.359375 101.0703125 C60.74101562 101.09158203 60.74101562 101.09158203 52.96875 101.11328125 C49.75123242 101.1333383 46.53385765 101.1548553 43.31640625 101.18164062 C38.20941582 101.22401704 33.10278729 101.260982 27.99560547 101.26586914 C23.87798497 101.27014759 19.76117431 101.29857128 15.64380646 101.34374428 C14.07298754 101.35673404 12.50207177 101.36102169 10.93120575 101.35646629 C8.73026597 101.3515702 6.53170231 101.37760148 4.33105469 101.41088867 C3.07862976 101.41755051 1.82620483 101.42421234 0.53582764 101.43107605 C-2.8056766 101.80618462 -2.8056766 101.80618462 -5.07415771 104.42427063 C-6.8890114 106.98758118 -6.8890114 106.98758118 -6.67578125 110.06640625 C-5.42444727 113.69763581 -3.80415432 115.4400782 -1.078125 118.1328125 C14.14854038 134.18606828 20.9317144 154.18137516 20.84912109 176.03320312 C20.31645682 194.18953873 13.13309776 211.33430261 1.359375 225.0703125 C0.91335937 225.65941406 0.46734375 226.24851562 0.0078125 226.85546875 C-11.65815769 241.83020826 -31.27754364 250.17876975 -49.640625 253.0703125 C-70.5285909 255.30600282 -90.99883627 250.22426607 -107.765625 237.3828125 C-109.06479394 236.28748292 -110.3574964 235.1843896 -111.640625 234.0703125 C-112.65125 233.3071875 -113.661875 232.5440625 -114.703125 231.7578125 C-126.54131839 220.92712493 -133.31380043 207.2480018 -137.640625 192.0703125 C-137.888125 191.24273437 -138.135625 190.41515625 -138.390625 189.5625 C-143.05430106 170.97256904 -139.17916345 149.8831056 -129.6328125 133.5625 C-125.51688009 126.80908541 -121.04859522 120.9309498 -115.390625 115.3515625 C-113.16647203 112.45222024 -112.56513415 110.73161854 -112.640625 107.0703125 C-115.21824959 103.76757102 -116.73988412 102.24700221 -120.89936829 101.43107605 C-122.74802742 101.4210833 -122.74802742 101.4210833 -124.6340332 101.41088867 C-125.31751328 101.40040497 -126.00099335 101.38992126 -126.70518494 101.37911987 C-128.95105864 101.3504535 -131.19538301 101.35665049 -133.44140625 101.36328125 C-135.00369694 101.35016092 -136.56597068 101.33485565 -138.1282196 101.31745911 C-142.23000042 101.27763457 -146.33133724 101.26742039 -150.43328857 101.26342773 C-155.36024937 101.25244843 -160.28697413 101.2045944 -165.21375275 101.16294098 C-172.68957589 101.10385544 -180.16416674 101.09153599 -187.640625 101.0703125 C-187.640625 82.5903125 -187.640625 64.1103125 -187.640625 45.0703125 C-162.890625 44.6953125 -162.890625 44.6953125 -155.09082031 44.59228516 C-153.05011689 44.55707884 -151.00942562 44.52115755 -148.96875 44.484375 C-147.90962402 44.47301514 -146.85049805 44.46165527 -145.75927734 44.44995117 C-144.74462402 44.42989014 -143.7299707 44.4098291 -142.68457031 44.38916016 C-141.80520813 44.37583649 -140.92584595 44.36251282 -140.01983643 44.3487854 C-137.36007463 44.03747571 -135.82421997 43.62989169 -133.640625 42.0703125 C-132.980625 40.4203125 -132.320625 38.7703125 -131.640625 37.0703125 C-123.720625 36.7403125 -115.800625 36.4103125 -107.640625 36.0703125 C-111.105625 32.6053125 -111.105625 32.6053125 -114.640625 29.0703125 C-116.25503184 27.20086899 -117.84224851 25.30730171 -119.390625 23.3828125 C-120.12796875 22.47144531 -120.8653125 21.56007812 -121.625 20.62109375 C-122.29015625 19.77933594 -122.9553125 18.93757813 -123.640625 18.0703125 C-124.49914062 17.02230469 -124.49914062 17.02230469 -125.375 15.953125 C-127.42221388 12.90757843 -127.14012611 10.62925789 -126.640625 7.0703125 C-125.00675651 4.87304108 -123.77349667 3.70489319 -121.640625 2.0703125 C-120.88523437 1.46316406 -120.12984375 0.85601562 -119.3515625 0.23046875 C-84.47320406 -26.57133766 -35.08027849 -25.63558813 0 0 Z M-84.640625 37.0703125 C-68.140625 37.0703125 -51.640625 37.0703125 -34.640625 37.0703125 C-48.70134672 26.52477121 -70.57990328 26.52477121 -84.640625 37.0703125 Z " fill="#F7BA3C" transform="translate(251.640625,146.9296875)"/>
<path d="M0 0 C16.5 0 33 0 50 0 C47.36 4.62 44.72 9.24 42 14 C30.4392184 39.23384745 30.07750147 65.67061015 39.3984375 91.65625 C47.97220518 114.02970091 65.97894474 132.9836505 87.84863281 142.83251953 C112.82511847 153.48555003 139.42073077 154.07958624 164.8125 144.3125 C188.08874279 134.30121278 205.82936903 116.1627255 216 93 C218.05726641 87.76710339 219.60001384 82.44112269 221 77 C221.24492187 76.10667969 221.48984375 75.21335937 221.7421875 74.29296875 C227.87201846 47.63240257 219.06995374 22.87241905 206 0 C222.5 0 239 0 256 0 C256 55.44 256 110.88 256 168 C171.52 168 87.04 168 0 168 C0 112.56 0 57.12 0 0 Z " fill="#ECE4DC" transform="translate(64,264)"/>
<path d="M0 0 C7.03308634 5.33010631 7.03308634 5.33010631 7.921875 10.0703125 C7.80043069 15.96036164 3.09089809 19.94416488 -0.640625 24.0703125 C-1.12192871 24.6051123 -1.60323242 25.13991211 -2.09912109 25.69091797 C-5.24745184 29.18266625 -8.43764206 32.62710584 -11.640625 36.0703125 C-3.720625 36.4003125 4.199375 36.7303125 12.359375 37.0703125 C13.349375 39.0503125 14.339375 41.0303125 15.359375 43.0703125 C17.82361396 44.30243198 19.51172163 44.22811158 22.26806641 44.27563477 C23.30326416 44.29581665 24.33846191 44.31599854 25.4050293 44.33679199 C26.495979 44.35326782 27.58692871 44.36974365 28.7109375 44.38671875 C29.7114917 44.40536987 30.7120459 44.424021 31.74291992 44.4432373 C35.48997952 44.51167222 39.23718828 44.5717332 42.984375 44.6328125 C55.545 44.849375 55.545 44.849375 68.359375 45.0703125 C68.359375 63.5503125 68.359375 82.0303125 68.359375 101.0703125 C63.29207031 101.13089844 58.22476563 101.19148438 53.00390625 101.25390625 C49.79100728 101.29440786 46.57811652 101.33518482 43.36523438 101.37695312 C38.26719997 101.44320269 33.16916685 101.50844031 28.07104492 101.56762695 C23.96019856 101.61541565 19.84943307 101.66776325 15.7386837 101.72325325 C14.17145493 101.74361121 12.60420404 101.76233489 11.03693581 101.77938652 C8.83940275 101.8035763 6.64202061 101.83361008 4.44458008 101.86499023 C3.19437576 101.88053452 1.94417145 101.8960788 0.65608215 101.91209412 C-2.57958571 101.98250226 -2.57958571 101.98250226 -5.45185852 102.64808655 C-7.640625 103.0703125 -7.640625 103.0703125 -9.74609375 102.03125 C-10.43316406 101.50789063 -11.12023437 100.98453125 -11.828125 100.4453125 C-17.3404308 96.48420833 -23.18503367 93.22217628 -29.640625 91.0703125 C-29.475625 90.0184375 -29.310625 88.9665625 -29.140625 87.8828125 C-27.99266184 78.21936141 -27.47917973 69.60779745 -32.640625 61.0703125 C-33.02992188 60.37164062 -33.41921875 59.67296875 -33.8203125 58.953125 C-38.38173921 51.80059199 -45.79931985 48.68408088 -53.640625 46.0703125 C-65.05346425 45.10606985 -72.90438037 47.309251 -81.8515625 54.3671875 C-87.08588744 59.35008199 -90.34310374 66.00586953 -90.87109375 73.21875 C-90.85691406 74.28351563 -90.84273438 75.34828125 -90.828125 76.4453125 C-90.82167969 77.50492187 -90.81523437 78.56453125 -90.80859375 79.65625 C-90.61908603 83.50810457 -90.16085235 87.24976281 -89.640625 91.0703125 C-90.80980469 91.60140625 -91.97898437 92.1325 -93.18359375 92.6796875 C-94.7319388 93.39286461 -96.28010659 94.10642666 -97.828125 94.8203125 C-98.59705078 95.16835937 -99.36597656 95.51640625 -100.15820312 95.875 C-103.63101128 97.48471365 -106.40562914 98.86584895 -109.31640625 101.3984375 C-111.640625 103.0703125 -111.640625 103.0703125 -114.34170532 102.68763733 C-115.43034882 102.48392014 -116.51899231 102.28020294 -117.640625 102.0703125 C-120.0079975 101.95946252 -122.37778146 101.89493327 -124.74755859 101.86499023 C-125.77299774 101.85014084 -125.77299774 101.85014084 -126.81915283 101.83499146 C-129.05908855 101.80362487 -131.29904542 101.77871831 -133.5390625 101.75390625 C-135.09990971 101.73331521 -136.6607516 101.7123182 -138.22158813 101.69093323 C-142.31499921 101.63593445 -146.40845875 101.586428 -150.50195312 101.53808594 C-155.42134358 101.4788392 -160.34064614 101.41273422 -165.25996399 101.34778595 C-172.7201303 101.25005597 -180.18035493 101.16100901 -187.640625 101.0703125 C-187.640625 82.5903125 -187.640625 64.1103125 -187.640625 45.0703125 C-162.890625 44.6953125 -162.890625 44.6953125 -155.09082031 44.59228516 C-153.05011689 44.55707884 -151.00942562 44.52115755 -148.96875 44.484375 C-147.90962402 44.47301514 -146.85049805 44.46165527 -145.75927734 44.44995117 C-144.74462402 44.42989014 -143.7299707 44.4098291 -142.68457031 44.38916016 C-141.80520813 44.37583649 -140.92584595 44.36251282 -140.01983643 44.3487854 C-137.36007463 44.03747571 -135.82421997 43.62989169 -133.640625 42.0703125 C-132.980625 40.4203125 -132.320625 38.7703125 -131.640625 37.0703125 C-123.720625 36.7403125 -115.800625 36.4103125 -107.640625 36.0703125 C-111.105625 32.6053125 -111.105625 32.6053125 -114.640625 29.0703125 C-116.25503184 27.20086899 -117.84224851 25.30730171 -119.390625 23.3828125 C-120.12796875 22.47144531 -120.8653125 21.56007812 -121.625 20.62109375 C-122.29015625 19.77933594 -122.9553125 18.93757813 -123.640625 18.0703125 C-124.49914062 17.02230469 -124.49914062 17.02230469 -125.375 15.953125 C-127.42221388 12.90757843 -127.14012611 10.62925789 -126.640625 7.0703125 C-125.00675651 4.87304108 -123.77349667 3.70489319 -121.640625 2.0703125 C-120.88523437 1.46316406 -120.12984375 0.85601562 -119.3515625 0.23046875 C-84.47320406 -26.57133766 -35.08027849 -25.63558813 0 0 Z M-84.640625 37.0703125 C-68.140625 37.0703125 -51.640625 37.0703125 -34.640625 37.0703125 C-48.70134672 26.52477121 -70.57990328 26.52477121 -84.640625 37.0703125 Z " fill="#ECE4DC" transform="translate(251.640625,146.9296875)"/>
<path d="M0 0 C1.39245941 0.00373123 1.39245941 0.00373123 2.81304932 0.00753784 C16.53900375 0.06440559 29.9116072 0.40886978 43.375 3.3125 C44.43187012 3.53292969 45.48874023 3.75335938 46.57763672 3.98046875 C76.62669515 10.41135005 106.44702606 22.02456674 131.375 40.3125 C132.8909375 41.40498047 132.8909375 41.40498047 134.4375 42.51953125 C137.45746479 44.73543041 140.42040944 47.01043219 143.375 49.3125 C144.28378906 49.9828125 145.19257813 50.653125 146.12890625 51.34375 C152.924373 56.70355476 152.924373 56.70355476 153.5625 61.625 C152.86422896 68.37495342 146.935084 72.80590672 142.375 77.3125 C141.13052555 78.69470285 139.89926867 80.08903648 138.6875 81.5 C138.14351563 82.12390625 137.59953125 82.7478125 137.0390625 83.390625 C135.84242882 84.77265262 134.65024635 86.15853896 133.4609375 87.546875 C132.83445312 88.27390625 132.20796875 89.0009375 131.5625 89.75 C130.99917969 90.40871094 130.43585938 91.06742187 129.85546875 91.74609375 C127.62785925 94.1030104 126.44073924 94.30491163 123.16015625 94.68359375 C118.49487288 94.22621303 116.19769736 92.36043664 112.8125 89.375 C111.57933119 88.35215946 110.34225213 87.33401726 109.1015625 86.3203125 C108.47926758 85.81016602 107.85697266 85.30001953 107.21582031 84.77441406 C82.288167 64.97775783 49.8441317 53.36573439 18.375 50.3125 C17.36880615 50.21195313 17.36880615 50.21195313 16.34228516 50.109375 C-32.86139486 45.49618345 -78.9163994 62.31944092 -116.78515625 93.06640625 C-119.86060861 95.14935594 -122.01598502 94.86302771 -125.625 94.3125 C-130.46493372 91.38278402 -134.09924549 86.79868177 -137.7265625 82.53125 C-140.61350646 79.1572085 -143.61941713 75.89205601 -146.609375 72.609375 C-150.35424954 68.34195982 -152.66249087 65.62782401 -152.38671875 59.7890625 C-148.15746424 46.03856323 -121.74757194 33.88243605 -109.67578125 27.421875 C-108.32678109 26.71633511 -106.97649408 26.01325081 -105.625 25.3125 C-104.93067871 24.94705078 -104.23635742 24.58160156 -103.52099609 24.20507812 C-71.40838326 7.49348615 -36.00831267 -0.15435704 0 0 Z " fill="#242526" transform="translate(191.625,-0.3125)"/>
<path d="M0 0 C0.73920181 -0.00705963 1.47840363 -0.01411926 2.24000549 -0.02139282 C32.63598331 -0.24590279 32.63598331 -0.24590279 45.9765625 3.203125 C46.79012207 3.40180176 47.60368164 3.60047852 48.44189453 3.80517578 C70.00734281 9.14553443 89.65464665 18.1097414 107.5390625 31.328125 C108.20631348 31.81893555 108.87356445 32.30974609 109.56103516 32.81542969 C113.64251621 35.91573557 117.19100153 38.86757862 119.9765625 43.203125 C120.03340498 48.39284364 118.69912674 51.27274647 115.3515625 55.140625 C114.55492187 56.06488281 113.75828125 56.98914063 112.9375 57.94140625 C94.76365253 78.12959642 94.76365253 78.12959642 90.296875 78.546875 C85.62760996 78.48037901 83.39020721 76.77056637 79.8515625 73.703125 C78.72134522 72.77358972 77.58576086 71.85054765 76.4453125 70.93359375 C75.87039063 70.47130371 75.29546875 70.00901367 74.703125 69.53271484 C52.08470717 52.11474206 21.4947951 47.05409413 -6.203125 50.484375 C-26.80449203 53.37294793 -46.02973532 61.8611752 -61.8984375 75.265625 C-65.16409756 77.81560634 -67.68209238 79.47898301 -71.921875 79.08203125 C-76.99534615 76.9602264 -80.4801573 72.25258808 -84.0234375 68.203125 C-84.65378906 67.5121875 -85.28414062 66.82125 -85.93359375 66.109375 C-87.67420484 64.17448158 -89.35031613 62.19655114 -91.0234375 60.203125 C-91.74015625 59.38714844 -92.456875 58.57117188 -93.1953125 57.73046875 C-96.27006605 54.11599782 -98.70386607 51.00900077 -100.4609375 46.578125 C-99.58134282 39.79268033 -94.60900814 36.37726058 -89.4375 32.37890625 C-63.94665916 13.37764965 -32.12922135 0.20520852 0 0 Z " fill="#242526" transform="translate(182.0234375,63.796875)"/>
<path d="M0 0 C58.08 0 116.16 0 176 0 C177.98 7.92 177.98 7.92 180 16 C183.77041972 27.59054952 190.65106552 37.33705105 199.56640625 45.609375 C200.03949219 46.06828125 200.51257813 46.5271875 201 47 C201 47.33 201 47.66 201 48 C181.12816644 48.0702175 161.2563582 48.12305045 141.38442612 48.15543652 C132.1566324 48.17087655 122.92891597 48.19191106 113.70117188 48.22631836 C105.65415971 48.25630867 97.60720354 48.2755958 89.56013703 48.28226548 C85.30299839 48.28616149 81.04601989 48.29525732 76.7889328 48.31719017 C72.77360099 48.33770787 68.75849373 48.34380327 64.74311447 48.33932304 C63.27749024 48.34014147 61.81185769 48.3460155 60.34627914 48.35761642 C43.68623303 48.48290795 28.35365044 44.9182038 15.90234375 33.125 C7.7235837 23.98897235 0 12.60760893 0 0 Z " fill="#ECE4DC" transform="translate(145,448)"/>
<path d="M0 0 C7.92 0 15.84 0 24 0 C24.00364563 3.18418579 24.00729126 6.36837158 24.01104736 9.64904785 C24.04638168 38.90069244 24.10148019 68.15223344 24.17792095 97.40379819 C24.18793748 101.24364503 24.19778177 105.08349229 24.20751953 108.92333984 C24.2094609 109.68773087 24.21140228 110.4521219 24.21340248 111.2396763 C24.24435843 123.58962827 24.26138519 135.93956169 24.27319422 148.28954512 C24.28563908 160.97745425 24.3132153 173.66526661 24.35461307 186.3531146 C24.37965345 194.17173801 24.39312423 201.99020076 24.39142957 209.80886483 C24.39139608 215.82105099 24.41249348 221.83298088 24.44116783 227.84510612 C24.44963924 230.29913379 24.45143569 232.7531957 24.44580269 235.20723152 C24.39989833 258.29268663 27.32804829 277.89495989 43 296 C43.58523437 296.69351562 44.17046875 297.38703125 44.7734375 298.1015625 C46.16882796 299.74589586 47.58231502 301.37484892 49 303 C36.71251793 303 24.59774833 296.64570027 15.88671875 288.1171875 C4.94338619 275.83709175 -0.33830792 261.64979792 -0.24050903 245.31921387 C-0.24221788 244.26698906 -0.24392673 243.21476426 -0.24568737 242.13065386 C-0.24897209 238.61763145 -0.2379952 235.10480158 -0.22705078 231.59179688 C-0.22648645 229.06848149 -0.22680366 226.54516578 -0.22793579 224.02185059 C-0.2283907 218.59587673 -0.22273121 213.16996448 -0.21146011 207.7440033 C-0.19517488 199.89908155 -0.18999402 192.05418304 -0.18748413 184.20924622 C-0.18311177 171.47997906 -0.16981512 158.75073759 -0.15087891 146.02148438 C-0.13250823 133.65950651 -0.11835754 121.29753564 -0.10986328 108.93554688 C-0.10933783 108.1729778 -0.10881239 107.41040872 -0.10827102 106.62473148 C-0.10566086 102.79897436 -0.10313346 98.97321719 -0.10064721 95.14745998 C-0.07992899 63.43162055 -0.0441638 31.71581569 0 0 Z " fill="#DFCFC0" transform="translate(24,192)"/>
<path d="M0 0 C7.92 0 15.84 0 24 0 C24.00364563 3.18418579 24.00729126 6.36837158 24.01104736 9.64904785 C24.04638168 38.90069244 24.10148019 68.15223344 24.17792095 97.40379819 C24.18793748 101.24364503 24.19778177 105.08349229 24.20751953 108.92333984 C24.2094609 109.68773087 24.21140228 110.4521219 24.21340248 111.2396763 C24.24435843 123.58962827 24.26138519 135.93956169 24.27319422 148.28954512 C24.28563908 160.97745425 24.3132153 173.66526661 24.35461307 186.3531146 C24.37965345 194.17173801 24.39312423 201.99020076 24.39142957 209.80886483 C24.39139608 215.82105099 24.41249348 221.83298088 24.44116783 227.84510612 C24.44963924 230.29913379 24.45143569 232.7531957 24.44580269 235.20723152 C24.4138144 251.29424751 24.91260091 266.66163232 32.5625 281.25 C33.05762085 282.22477295 33.05762085 282.22477295 33.56274414 283.21923828 C36.7715977 289.19182038 41.00498109 293.97237463 45.77734375 298.7421875 C48 301 48 301 49 303 C37.68311357 303.18253043 27.83273672 297.82879254 19.5 290.5 C17.97902409 289.02127342 16.4765775 287.52306234 15 286 C14.42765625 285.43667969 13.8553125 284.87335938 13.265625 284.29296875 C3.2733392 273.70835673 -0.48924507 259.13264203 -0.36076355 244.95845032 C-0.36332682 243.90366224 -0.3658901 242.84887416 -0.36853105 241.76212281 C-0.37343831 238.25832893 -0.35702645 234.75497431 -0.34057617 231.2512207 C-0.33972924 228.72746287 -0.34020633 226.2037043 -0.34190369 223.6799469 C-0.34258493 218.26217967 -0.33412395 212.84455171 -0.31719017 207.42681313 C-0.29272345 199.59387601 -0.28498709 191.7609912 -0.2812262 183.92802002 C-0.27467369 171.21703885 -0.25474527 158.50611571 -0.22631836 145.79516602 C-0.1987466 133.4536976 -0.17752831 121.11224499 -0.16479492 108.77075195 C-0.16400675 108.00897104 -0.16321858 107.24719013 -0.16240653 106.46232495 C-0.15849118 102.64037979 -0.15470011 98.81843452 -0.15097082 94.99648917 C-0.11991234 63.33094888 -0.06627901 31.66548669 0 0 Z " fill="#DFCFC0" transform="translate(336,192)"/>
<path d="M0 0 C7.03308634 5.33010631 7.03308634 5.33010631 7.921875 10.0703125 C7.78819436 15.97656617 3.10298722 19.93112716 -0.640625 24.0703125 C-1.11709473 24.6055957 -1.59356445 25.14087891 -2.08447266 25.69238281 C-17.05065343 42.48889031 -17.05065343 42.48889031 -22.703125 43.7578125 C-25.91084043 43.00707059 -27.24228064 41.7860091 -29.6015625 39.578125 C-41.37926193 30.86894496 -55.58867555 29.9862885 -69.640625 31.0703125 C-73.64636109 31.90597626 -77.02080675 33.18435677 -80.640625 35.0703125 C-81.45917969 35.49054688 -82.27773437 35.91078125 -83.12109375 36.34375 C-86.30889643 38.05985911 -89.31819455 39.84000504 -92.265625 41.9453125 C-95.7919478 43.61567593 -97.88256029 43.00982868 -101.640625 42.0703125 C-104.07897129 40.39471979 -106.01192663 38.36143141 -108.015625 36.1953125 C-108.57362793 35.61467041 -109.13163086 35.03402832 -109.70654297 34.43579102 C-114.65079611 29.22522145 -119.25354929 23.75831758 -123.640625 18.0703125 C-124.20523438 17.379375 -124.76984375 16.6884375 -125.3515625 15.9765625 C-127.41909434 12.91912147 -127.14330729 10.65192384 -126.640625 7.0703125 C-125.00675651 4.87304108 -123.77349667 3.70489319 -121.640625 2.0703125 C-120.88523438 1.46316406 -120.12984375 0.85601562 -119.3515625 0.23046875 C-84.47320406 -26.57133766 -35.08027849 -25.63558813 0 0 Z " fill="#252526" transform="translate(251.640625,146.9296875)"/>
<path d="M0 0 C0.92184082 0.1453418 1.84368164 0.29068359 2.79345703 0.44042969 C34.14928874 5.56831338 64.01972162 17.67180022 90 36 C91.00417969 36.69480469 92.00835937 37.38960937 93.04296875 38.10546875 C97.56574083 41.39412008 97.56574083 41.39412008 99 43 C99 47.78138637 98.16772988 48.384287 95 51.75 C93.88625 52.94882813 93.88625 52.94882813 92.75 54.171875 C92.1725 54.77515625 91.595 55.3784375 91 56 C86.86502219 54.55615949 83.72039326 52.50893836 80.1875 49.9375 C72.78197048 44.68451676 65.02467241 40.23407321 57 36 C55.87722656 35.40445313 54.75445312 34.80890625 53.59765625 34.1953125 C7.79451122 11.42490592 -47.08233308 8.72614703 -95.4375 24.75 C-114.71277449 31.52433996 -137.33642702 41.33642702 -152 56 C-154.96417253 55.85677318 -155.99299291 55.00676414 -158.140625 52.93359375 C-158.83671875 52.10988281 -159.5328125 51.28617188 -160.25 50.4375 C-160.95640625 49.61121094 -161.6628125 48.78492188 -162.390625 47.93359375 C-163.18726563 46.97646484 -163.18726563 46.97646484 -164 46 C-162.46027757 41.64420627 -159.10892261 39.46871096 -155.5 36.875 C-154.8385498 36.39635498 -154.17709961 35.91770996 -153.49560547 35.42456055 C-135.79961174 22.90964065 -115.61509323 13.54002504 -95 7 C-93.93144775 6.65775391 -93.93144775 6.65775391 -92.84130859 6.30859375 C-80.73115067 2.4995124 -68.59660642 0.4452465 -56 -1 C-54.34677734 -1.19916016 -54.34677734 -1.19916016 -52.66015625 -1.40234375 C-35.27687941 -3.10567155 -17.24818435 -2.78430535 0 0 Z " fill="#0E86C9" transform="translate(224,18)"/>
<path d="M0 0 C2.875 1.8125 2.875 1.8125 5 5 C5.41111401 8.7052301 5.29247535 12.28881273 5 16 C6.24136719 15.96519531 7.48273438 15.93039062 8.76171875 15.89453125 C10.40363226 15.86638416 12.04556046 15.83908499 13.6875 15.8125 C14.50412109 15.78736328 15.32074219 15.76222656 16.16210938 15.73632812 C20.94015822 15.67829514 24.13423093 15.85096129 28 19 C29.40457737 21.80915474 29.24895157 23.88810534 29 27 C27.22015595 30.1359157 26.47691793 30.84102736 23 32 C21.53294881 32.0943221 20.06210663 32.13529379 18.59204102 32.1418457 C17.70424454 32.14888016 16.81644806 32.15591461 15.90174866 32.16316223 C14.46731667 32.16940865 14.46731667 32.16940865 13.00390625 32.17578125 C10.98110931 32.19897332 8.95832281 32.2230904 6.93554688 32.24804688 C3.7446386 32.28320908 0.55411588 32.31253519 -2.63696289 32.32592773 C-5.71548067 32.34137856 -8.79287254 32.38156256 -11.87109375 32.42578125 C-12.82535751 32.42387283 -13.77962128 32.42196442 -14.76280212 32.41999817 C-20.02921723 32.47063299 -20.02921723 32.47063299 -24.60180664 34.84838867 C-26.52521763 37.80823171 -26.57706405 39.53761573 -26 43 C-24.56564269 45.32403797 -24.56564269 45.32403797 -22 47 C-19.00008902 47.3825805 -16.35660216 47.5342838 -13.359375 47.50390625 C-12.09785614 47.5180381 -12.09785614 47.5180381 -10.81085205 47.53245544 C-8.12365389 47.56110258 -5.43733842 47.5641853 -2.75 47.5625 C-0.07707203 47.56612055 2.59521035 47.57582606 5.26800537 47.60325623 C6.92860888 47.61989393 8.58942348 47.62304029 10.25006104 47.61024475 C18.66349691 47.68572163 25.07255479 50.24853099 31.234375 56.05859375 C36.24158147 61.56430529 37.7088224 66.85606306 37.37109375 74.265625 C36.26906874 82.38580926 32.47677372 87.06889931 26.4140625 92.37109375 C21.4755837 95.70336828 16.99091596 96.24471257 11.125 96.125 C9.97257812 96.10695313 8.82015625 96.08890625 7.6328125 96.0703125 C6.76398438 96.04710937 5.89515625 96.02390625 5 96 C5.05220703 96.99580078 5.05220703 96.99580078 5.10546875 98.01171875 C5.38009859 106.96988245 5.38009859 106.96988245 2 111 C-0.80915474 112.40457737 -2.88810534 112.24895157 -6 112 C-9.1359157 110.22015595 -9.84102736 109.47691793 -11 106 C-11.06802967 104.27204648 -11.08495645 102.54164635 -11.0625 100.8125 C-11.05347656 99.91144531 -11.04445312 99.01039063 -11.03515625 98.08203125 C-11.02355469 97.39496094 -11.01195312 96.70789063 -11 96 C-12.31355469 96.05800781 -13.62710938 96.11601562 -14.98046875 96.17578125 C-16.71611023 96.22269048 -18.45179023 96.26818939 -20.1875 96.3125 C-21.05181641 96.35439453 -21.91613281 96.39628906 -22.80664062 96.43945312 C-27.35470923 96.52658088 -29.34325258 96.49819341 -33.07421875 93.66796875 C-35 91 -35 91 -35.625 88 C-34.75594357 83.82852915 -33.39346562 82.57672325 -30 80 C-26.60273601 79.27732977 -23.27146637 79.32591762 -19.80859375 79.36328125 C-18.33520287 79.34771431 -18.33520287 79.34771431 -16.83204651 79.33183289 C-13.70017383 79.30216996 -10.56948769 79.30552453 -7.4375 79.3125 C-4.30227495 79.30360609 -1.16736696 79.28765152 1.96775818 79.2610321 C3.91648546 79.24612274 5.86533639 79.24231039 7.81410217 79.25080872 C8.69859543 79.24707748 9.58308868 79.24334625 10.49438477 79.23950195 C11.26984146 79.24125931 12.04529816 79.24301666 12.84425354 79.24482727 C15.30781089 78.96504204 16.90181443 78.30779524 19 77 C20.38550197 74.22899606 20.1877467 72.0665294 20 69 C18.27773504 65.75150023 18.27773504 65.75150023 15 65 C12.07311378 64.8931498 9.16571998 64.83882935 6.23828125 64.82421875 C4.46157683 64.80101002 2.6848841 64.77689226 0.90820312 64.75195312 C-1.88508815 64.71693597 -4.67795214 64.68754605 -7.47143555 64.67407227 C-10.17288802 64.65850124 -12.87309861 64.61822602 -15.57421875 64.57421875 C-16.39846848 64.57612717 -17.2227182 64.57803558 -18.07194519 64.58000183 C-25.01681851 64.43512989 -30.21283699 62.43323755 -35.4609375 57.8515625 C-41.40599793 50.93587995 -43.53700605 45.92618267 -43.30078125 36.73828125 C-42.44571185 28.95381831 -38.03190339 24.65394 -32.31640625 19.6640625 C-27.46088912 16.1759507 -23.62179433 15.76407861 -17.6875 15.875 C-16.43324219 15.89304687 -15.17898437 15.91109375 -13.88671875 15.9296875 C-12.45779297 15.96449219 -12.45779297 15.96449219 -11 16 C-11.05800781 15.26394531 -11.11601562 14.52789062 -11.17578125 13.76953125 C-11.5435454 5.8153181 -11.5435454 5.8153181 -8.875 1.8125 C-5.45015775 -0.34663968 -3.96628159 -0.82630866 0 0 Z " fill="#262625" transform="translate(195,264)"/>
<path d="M0 0 C23.76 0 47.52 0 72 0 C72 34.46891192 72 34.46891192 61 50 C60.37738281 50.91458984 60.37738281 50.91458984 59.7421875 51.84765625 C54.65893799 58.5289333 45.15375348 65.71377739 37 68 C29.02257396 67.44548697 20.51118655 60.38871574 15 55 C0.54458717 37.80900108 0 22.98040671 0 0 Z " fill="#DCC0AB" transform="translate(376,424)"/>
<path d="M0 0 C7.33590199 4.77843157 11.62856456 11.65837182 14 20 C15.19235889 29.66438255 13.66379519 38.96678018 7.58984375 46.82421875 C6.25 48.1875 6.25 48.1875 4 50 C3.67 50.33 3.34 50.66 3 51 C-2.36423841 51.35761589 -2.36423841 51.35761589 -5 49.875 C-7.06913905 48.70154012 -7.06913905 48.70154012 -9.5625 49.875 C-16.58987007 52.17486657 -23.12465766 51.40636982 -30 49 C-30.99 49.66 -31.98 50.32 -33 51 C-36.82284523 51.58173732 -38.41230006 51.43002435 -41.5625 49.125 C-48.59939934 40.10333418 -50.93596389 31.32384482 -50 20 C-49.11587517 16.67063851 -47.79009675 13.93330495 -46 11 C-45.57589844 10.30132812 -45.15179688 9.60265625 -44.71484375 8.8828125 C-34.17648681 -6.6752075 -15.80622083 -8.79670733 0 0 Z " fill="#272727" transform="translate(210,197)"/>
<path d="M0 0 C0.58958496 0.36464355 1.17916992 0.72928711 1.78662109 1.10498047 C5.20015527 3.32149523 6.22952725 4.45905451 8.125 8.25 C3.67 13.2 3.67 13.2 -0.875 18.25 C-4.69371158 17.29532211 -6.4513545 16.3509012 -9.625 14.1875 C-38.24985892 -4.26551341 -74.27549159 -11.91454329 -107.875 -4.75 C-124.70954031 -0.77658679 -140.3913269 5.54597044 -154.45703125 15.68359375 C-156.875 17.25 -156.875 17.25 -160.875 18.25 C-163.845 14.95 -166.815 11.65 -169.875 8.25 C-167.66745775 3.83491549 -165.30169984 2.09686301 -161.3125 -0.5 C-160.64774658 -0.93538086 -159.98299316 -1.37076172 -159.2980957 -1.81933594 C-110.40936395 -33.01787866 -48.40679018 -30.29344345 0 0 Z " fill="#0E86C8" transform="translate(272.875,103.75)"/>
<path d="M0 0 C15.48897614 0.67197293 29.46218404 7.63952927 40 19 C50.95866939 33.64043578 55.04030666 48.93882718 52.5703125 67.171875 C49.32928085 82.29668935 40.46546191 94.95582579 27.640625 103.43359375 C19.25244269 108.40942379 9.96855085 112.64313231 0 112 C0.47050781 111.64292969 0.94101563 111.28585937 1.42578125 110.91796875 C3.65745888 108.1989769 3.74241819 105.77044326 4.1875 102.3125 C4.34605469 101.13300781 4.50460938 99.95351563 4.66796875 98.73828125 C4.77753906 97.83464844 4.88710937 96.93101562 5 96 C5.83402344 95.97421875 6.66804688 95.9484375 7.52734375 95.921875 C17.09869408 95.43947017 24.23086956 94.32739779 30.9375 87.125 C36.10907678 80.60067281 36.90704535 74.16340811 36 66 C34.20608092 59.48285094 29.65270673 54.56303491 24 51 C18.53312201 49.0901263 13.72113669 48.73199939 7.9609375 48.76171875 C6.22915872 48.74631161 4.49738771 48.73000892 2.765625 48.71289062 C0.06199852 48.69639909 -2.64105354 48.68754179 -5.34472656 48.69458008 C-7.97265481 48.69719943 -10.59886421 48.66910728 -13.2265625 48.63671875 C-14.43452988 48.65202888 -14.43452988 48.65202888 -15.66690063 48.66764832 C-19.91829296 48.5936666 -21.5423157 48.35776312 -25.00927734 45.64770508 C-27 43 -27 43 -27.625 40 C-26.75594357 35.82852915 -25.39346562 34.57672325 -22 32 C-18.60273601 31.27732977 -15.27146637 31.32591762 -11.80859375 31.36328125 C-10.33520287 31.34771431 -10.33520287 31.34771431 -8.83204651 31.33183289 C-5.70017383 31.30216996 -2.56948769 31.30552453 0.5625 31.3125 C3.69772505 31.30360609 6.83263304 31.28765152 9.96775818 31.2610321 C11.91648546 31.24612274 13.86533639 31.24231039 15.81410217 31.25080872 C16.69859543 31.24707748 17.58308868 31.24334625 18.49438477 31.23950195 C19.26984146 31.24125931 20.04529816 31.24301666 20.84425354 31.24482727 C23.30781089 30.96504204 24.90181443 30.30779524 27 29 C28.38550197 26.22899606 28.1877467 24.0665294 28 21 C26.27773504 17.75150023 26.27773504 17.75150023 23 17 C21.59335074 16.85507877 20.1818867 16.75371069 18.76953125 16.68359375 C17.96708984 16.64169922 17.16464844 16.59980469 16.33789062 16.55664062 C15.50451172 16.51732422 14.67113281 16.47800781 13.8125 16.4375 C12.96751953 16.39431641 12.12253906 16.35113281 11.25195312 16.30664062 C9.16815567 16.20068482 7.08409897 16.0998498 5 16 C4.97421875 15.26394531 4.9484375 14.52789062 4.921875 13.76953125 C4.50939957 6.08058844 4.50939957 6.08058844 0 0 Z " fill="#E69737" transform="translate(195,264)"/>
<path d="M0 0 C-0.9590625 0.6496875 -0.9590625 0.6496875 -1.9375 1.3125 C-5.1101168 5.44651583 -4.82469028 9.91601822 -5 15 C-5.9178125 15.02578125 -6.835625 15.0515625 -7.78125 15.078125 C-17.76008779 15.53933179 -24.01117139 16.49817655 -30.875 23.9375 C-35.48280802 29.3275638 -36.47302962 34.19810908 -36.3046875 41.15625 C-35.47504821 48.89955002 -31.94589998 53.67173819 -26.09765625 58.58984375 C-20.80980393 62.14461971 -16.11467975 62.29273282 -9.9375 62.30859375 C-8.15364244 62.33374515 -6.36978835 62.35914329 -4.5859375 62.38476562 C-1.78809442 62.4135308 1.00968874 62.43756487 3.80761719 62.45629883 C6.5178844 62.47797144 9.22746943 62.5173999 11.9375 62.55859375 C12.77095947 62.55870956 13.60441895 62.55882538 14.46313477 62.5589447 C19.11433911 62.63804743 22.22413062 62.97828849 26 66 C27.40457737 68.80915474 27.24895157 70.88810534 27 74 C25.22015595 77.1359157 24.47691793 77.84102736 21 79 C19.53294881 79.0943221 18.06210663 79.13529379 16.59204102 79.1418457 C15.70424454 79.14888016 14.81644806 79.15591461 13.90174866 79.16316223 C12.46731667 79.16940865 12.46731667 79.16940865 11.00390625 79.17578125 C8.98110931 79.19897332 6.95832281 79.2230904 4.93554688 79.24804688 C1.7446386 79.28320908 -1.44588412 79.31253519 -4.63696289 79.32592773 C-7.71548067 79.34137856 -10.79287254 79.38156256 -13.87109375 79.42578125 C-14.82535751 79.42387283 -15.77962128 79.42196442 -16.76280212 79.41999817 C-22.02921723 79.47063299 -22.02921723 79.47063299 -26.60180664 81.84838867 C-28.52521763 84.80823171 -28.57706405 86.53761573 -28 90 C-26.63238358 92.33138604 -26.63238358 92.33138604 -24 94 C-20.7573993 94.6335081 -17.54715572 94.69642731 -14.25 94.75 C-13.36183594 94.77964844 -12.47367188 94.80929687 -11.55859375 94.83984375 C-9.37230551 94.91036918 -7.18707232 94.96314637 -5 95 C-4.89042969 95.90363281 -4.78085938 96.80726563 -4.66796875 97.73828125 C-4.50941406 98.91777344 -4.35085937 100.09726562 -4.1875 101.3125 C-4.03667969 102.48425781 -3.88585937 103.65601563 -3.73046875 104.86328125 C-3.00135005 107.99420274 -2.50828536 109.09645193 0 111 C-14.61387163 110.63712734 -28.49941572 103.9421551 -38.6875 93.5625 C-49.94179588 80.30429172 -54.16266808 65.17748322 -53 48 C-51.18001325 33.90337539 -44.5405169 21.53346115 -34 12 C-25.35107121 5.50080496 -11.34344281 -3.60809737 0 0 Z " fill="#E79737" transform="translate(189,265)"/>
<path d="M0 0 C23.76 0 47.52 0 72 0 C72 13.2 72 26.4 72 40 C48.24 40 24.48 40 0 40 C0 26.8 0 13.6 0 0 Z " fill="#DDC1AC" transform="translate(376,368)"/>
<path d="M0 0 C21.12 0 42.24 0 64 0 C64.99 4.95 65.98 9.9 67 15 C68.14784662 18.00578017 69.18090202 20.5429416 70.6875 23.3125 C71.03345215 23.97564209 71.3794043 24.63878418 71.73583984 25.32202148 C74.84723076 31.0984108 78.64145556 36.10285215 83 41 C84.04484192 42.21301167 85.08751466 43.42789398 86.12841797 44.64428711 C86.93591995 45.58757118 86.93591995 45.58757118 87.75973511 46.5499115 C88.16902252 47.0284407 88.57830994 47.50696991 89 48 C83.23830927 48.07484211 77.47690916 48.12892549 71.71484375 48.16479492 C69.7597154 48.1797675 67.80461997 48.20015281 65.84960938 48.22631836 C47.09945514 48.47076055 30.23170168 46.69699229 15.90234375 33.125 C7.7235837 23.98897235 0 12.60760893 0 0 Z " fill="#EBE3DB" transform="translate(65,448)"/>
<path d="M0 0 C7.92 0 15.84 0 24 0 C24.11364203 10.15435211 24.20508161 20.3082715 24.25906086 30.46311951 C24.28498788 35.18008333 24.32007072 39.89658392 24.37719727 44.61328125 C24.43212802 49.17803398 24.46154701 53.74234544 24.47438622 58.30740356 C24.48351795 60.03588799 24.50134479 61.76435241 24.52865028 63.49264526 C24.80739006 81.892534 20.78875429 98.2067076 7.96484375 112.125 C-1.14007203 120.81358763 -12.39007034 126.36950352 -25 127 C-23.7315625 125.5459375 -23.7315625 125.5459375 -22.4375 124.0625 C-21.28973538 122.70996986 -20.14402495 121.35569477 -19 120 C-18.15308594 119.02160156 -18.15308594 119.02160156 -17.2890625 118.0234375 C-3.50313357 101.3680392 -0.40077409 82.58934098 -0.390625 61.71875 C-0.37560105 59.92556294 -0.35886528 58.1323895 -0.34051514 56.3392334 C-0.29730165 51.6770963 -0.27694615 47.01514563 -0.26177979 42.35284424 C-0.24204051 37.57235901 -0.20009099 32.79207038 -0.16015625 28.01171875 C-0.08535389 18.6745072 -0.03682156 9.33743862 0 0 Z " fill="#DECEC0" transform="translate(464,368)"/>
<path d="M0 0 C0 5.28 0 10.56 0 16 C-2.09214844 16.14695312 -4.18429688 16.29390625 -6.33984375 16.4453125 C-45.11708278 19.34016185 -91.30188731 29.30188731 -120 58 C-122.96417253 57.85677318 -123.99299291 57.00676414 -126.140625 54.93359375 C-126.83671875 54.10988281 -127.5328125 53.28617188 -128.25 52.4375 C-128.95640625 51.61121094 -129.6628125 50.78492188 -130.390625 49.93359375 C-131.18726563 48.97646484 -131.18726563 48.97646484 -132 48 C-130.46027757 43.64420627 -127.10892261 41.46871096 -123.5 38.875 C-122.8385498 38.39635498 -122.17709961 37.91770996 -121.49560547 37.42456055 C-103.79961174 24.90964065 -83.61509323 15.54002504 -63 9 C-61.93144775 8.65775391 -61.93144775 8.65775391 -60.84130859 8.30859375 C-41.18065916 2.12461055 -20.57503733 -0.27433383 0 0 Z " fill="#1FAFE1" transform="translate(192,16)"/>
<path d="M0 0 C0 5.28 0 10.56 0 16 C-1.71703125 16.14695312 -3.4340625 16.29390625 -5.203125 16.4453125 C-30.24719292 18.77974511 -52.94419981 24.55921876 -73.58203125 39.43359375 C-76 41 -76 41 -80 42 C-82.97 38.7 -85.94 35.4 -89 32 C-86.79245775 27.58491549 -84.42669984 25.84686301 -80.4375 23.25 C-79.77274658 22.81461914 -79.10799316 22.37923828 -78.4230957 21.93066406 C-55.10180447 7.04808735 -27.62142675 -0.69053567 0 0 Z " fill="#1FAFE1" transform="translate(192,80)"/>
<path d="M0 0 C0.93359375 1.92578125 0.93359375 1.92578125 1 4 C-0.36328125 5.81640625 -0.36328125 5.81640625 -2.3125 7.5625 C-4.64358565 9.68553744 -6.22576361 11.33864542 -8 14 C-11.52582996 12.62530818 -14.95050404 11.10921873 -18.375 9.5 C-33.24611155 2.73135485 -50.15342339 1.77137961 -65.7265625 6.70703125 C-70.00004771 8.39500691 -73.89038161 10.50933674 -77.79296875 12.92578125 C-80 14 -80 14 -83 13 C-84.7890625 11.29296875 -84.7890625 11.29296875 -86.625 9.1875 C-87.23601562 8.50042969 -87.84703125 7.81335938 -88.4765625 7.10546875 C-89.99653007 5.00479562 -90.57890154 3.53228128 -91 1 C-67.28687346 -17.57528245 -23.94551808 -19.81278907 0 0 Z " fill="#0E86C9" transform="translate(237,157)"/>
<path d="M0 0 C5.67476113 1.96434039 9.31400331 5.62800662 12 11 C12.86810219 17.67198541 12.02576477 21.58334797 8.11328125 26.97265625 C6.18132602 30.49084841 6.59435389 34.10579732 7 38 C0.82920827 40.66845048 -6.46716942 41.26346073 -12.83984375 38.984375 C-13.55269531 38.65953125 -14.26554688 38.3346875 -15 38 C-14.95359375 37.41992188 -14.9071875 36.83984375 -14.859375 36.2421875 C-14.59442111 30.50782834 -15.3480349 27.64795559 -19 23 C-20.35682449 18.92952653 -20.52472254 15.25608283 -20 11 C-15.50688549 2.18018263 -9.45094843 -0.86207976 0 0 Z " fill="#0E86C8" transform="translate(196,208)"/>
<path d="M0 0 C0 5.28 0 10.56 0 16 C-2.206875 16.226875 -4.41375 16.45375 -6.6875 16.6875 C-15.82088221 17.79873652 -24.214474 20.60882534 -32.125 25.375 C-33.07375 25.91125 -34.0225 26.4475 -35 27 C-38.3702985 25.87656717 -39.32859216 24.82104006 -41.625 22.1875 C-42.23601562 21.50042969 -42.84703125 20.81335938 -43.4765625 20.10546875 C-44.99653007 18.00479562 -45.57890154 16.53228128 -46 14 C-32.6885325 3.57268379 -16.62146014 0 0 0 Z " fill="#1FAFE1" transform="translate(192,144)"/>
</svg>
