<?xml version="1.0" encoding="UTF-8"?>
<svg version="1.1" xmlns="http://www.w3.org/2000/svg" width="512" height="512">
<path d="M0 0 C168.96 0 337.92 0 512 0 C512 168.96 512 337.92 512 512 C343.04 512 174.08 512 0 512 C0 343.04 0 174.08 0 0 Z " fill="#FEFEFE" transform="translate(0,0)"/>
<path d="M0 0 C4.19513465 -0.05014413 8.3901018 -0.08606394 12.58544922 -0.10986328 C14.00702968 -0.1198044 15.42859036 -0.13336208 16.85009766 -0.15087891 C42.33584576 -0.45663594 64.0962211 6.50650302 83 24 C97.67274831 38.49128323 107.74136337 58.69516631 108.16796875 79.484375 C108.17986537 81.57289293 108.18621711 83.66144858 108.1875 85.75 C108.19974609 86.78382813 108.21199219 87.81765625 108.22460938 88.8828125 C108.25913584 107.15882268 101.93926695 122.9178905 89.7578125 136.5 C85.32871777 140.79487974 80.48140723 144.05786262 75.10546875 147.04296875 C74.42223541 147.42428452 73.73900208 147.80560028 73.0350647 148.19847107 C64.13252428 153.10509849 55.02308926 157.60660065 45.89648438 162.07836914 C42.83906551 163.58015075 39.79075301 165.09948281 36.7421875 166.61914062 C34.78438546 167.58181042 32.82607075 168.54343846 30.8671875 169.50390625 C29.96402802 169.9568959 29.06086853 170.40988556 28.13034058 170.87660217 C20.01209735 174.81128265 20.01209735 174.81128265 15 174 C13 172 13 172 12.75949097 169.5196228 C12.76393219 168.47593536 12.76837341 167.43224792 12.77294922 166.35693359 C12.77310028 165.17586029 12.77325134 163.99478699 12.77340698 162.77792358 C12.78372955 161.49769318 12.79405212 160.21746277 12.8046875 158.8984375 C12.8075174 157.59170074 12.81034729 156.28496399 12.81326294 154.93862915 C12.82090224 151.46317919 12.8405531 147.98789617 12.8626709 144.51251221 C12.88312304 140.96669778 12.89226329 137.4208564 12.90234375 133.875 C12.92379884 126.91659805 12.95793827 119.95830704 13 113 C15.31 113 17.62 113 20 113 C18.71740872 109.44078975 17.22668671 106.71328259 14.8828125 103.75 C14.27566406 102.9765625 13.66851562 102.203125 13.04296875 101.40625 C12.41003906 100.6121875 11.77710938 99.818125 11.125 99 C10.49980469 98.2059375 9.87460938 97.411875 9.23046875 96.59375 C8.02465743 95.06417962 6.81299116 93.53920156 5.59472656 92.01953125 C4.28509742 90.36104193 3.03587343 88.65502628 1.8046875 86.9375 C1.20914063 86.298125 0.61359375 85.65875 0 85 C-1.32 85 -2.64 85 -4 85 C-4.23203125 85.53109375 -4.4640625 86.0621875 -4.703125 86.609375 C-6.40220868 89.74142082 -8.55473645 92.45827677 -10.75 95.25 C-11.64865256 96.40738513 -12.54709045 97.56493697 -13.4453125 98.72265625 C-14.29663986 99.81528741 -15.14818551 100.90774856 -16 102 C-17.21348839 103.5584998 -18.42291483 105.12018799 -19.625 106.6875 C-20.09164062 107.28949219 -20.55828125 107.89148438 -21.0390625 108.51171875 C-22.18080939 109.98477608 -22.18080939 109.98477608 -22 112 C-19.69 112.33 -17.38 112.66 -15 113 C-15 128.84 -15 144.68 -15 161 C-12.03 161 -9.06 161 -6 161 C-5.67 162.32 -5.34 163.64 -5 165 C-6.6436613 167.42737364 -8.28403772 169.54146619 -10.1875 171.75 C-11.29270968 173.07747815 -12.39549446 174.40697818 -13.49609375 175.73828125 C-14.07085449 176.43002441 -14.64561523 177.12176758 -15.23779297 177.83447266 C-18.18334832 181.45418393 -20.96657348 185.19254146 -23.75 188.9375 C-24.27489014 189.64165039 -24.79978027 190.34580078 -25.34057617 191.07128906 C-26.56253879 192.71259073 -27.78161331 194.35604207 -29 196 C-32.86815798 195.83853424 -33.96572056 195.03587152 -36.69140625 192.18359375 C-37.66252371 190.94581906 -38.61874394 189.69626121 -39.5625 188.4375 C-40.07192139 187.7765332 -40.58134277 187.11556641 -41.10620117 186.43457031 C-42.18672789 185.02778763 -43.26120021 183.61633733 -44.33007812 182.20068359 C-46.02589572 179.96587368 -47.75183217 177.75720268 -49.484375 175.55078125 C-50.59484514 174.11803563 -51.70425216 172.68446529 -52.8125 171.25 C-53.34625244 170.57122803 -53.88000488 169.89245605 -54.42993164 169.19311523 C-55.70082682 167.52055024 -56.86172097 165.765494 -58 164 C-57.67 163.01 -57.34 162.02 -57 161 C-54.36 161 -51.72 161 -49 161 C-49.00888245 160.22262985 -49.01776489 159.4452597 -49.0269165 158.64433289 C-49.10746698 151.27500614 -49.16816793 143.90589648 -49.20724869 136.53624249 C-49.22801684 132.74849672 -49.25613353 128.96111837 -49.30175781 125.17358398 C-49.34560532 121.51011927 -49.36921783 117.84700523 -49.37950897 114.18329811 C-49.38683135 112.79399924 -49.40112787 111.40471693 -49.42292023 110.01556969 C-49.64539272 95.22982742 -45.54551314 82.78483783 -35.375 71.8125 C-25.69033818 62.7342781 -14.15922477 58.15386899 -0.9375 57.625 C13.76955667 58.17323712 26.02424784 64.40399382 36 75 C38.25160571 77.87731508 40.18401949 80.83259213 42 84 C42.5775 84.99 43.155 85.98 43.75 87 C46.96944479 94.7266675 47.2675324 102.27917483 47.125 110.5625 C47.11597656 111.57119141 47.10695313 112.57988281 47.09765625 113.61914062 C47.07433356 116.07968457 47.04160763 118.53970896 47 121 C49.21281888 119.77840273 51.42001098 118.54809244 53.625 117.3125 C54.24246094 116.97283203 54.85992187 116.63316406 55.49609375 116.28320312 C63.59703821 111.7210923 70.14592195 106.20194131 73 97 C73.29075535 93.74652223 73.27897426 90.51443322 73.25 87.25 C73.25773438 86.3940625 73.26546875 85.538125 73.2734375 84.65625 C73.2301105 70.35834088 68.30563307 58.5610852 58.34765625 48.1875 C49.51642074 39.95872814 38.26660241 35.05050087 26.12890625 34.7890625 C25.22462891 34.76070312 24.32035156 34.73234375 23.38867188 34.703125 C21.5086606 34.6511551 19.62842138 34.60684996 17.74804688 34.5703125 C11.22750606 34.34754669 6.58139261 33.68694813 1.86254883 28.77514648 C-0.35512645 25.47087136 -0.46826288 23.76434102 -0.390625 19.82421875 C-0.37773437 18.66728516 -0.36484375 17.51035156 -0.3515625 16.31835938 C-0.31804687 15.12017578 -0.28453125 13.92199219 -0.25 12.6875 C-0.23195312 11.46998047 -0.21390625 10.25246094 -0.1953125 8.99804688 C-0.14825131 5.99789578 -0.0825131 2.99935111 0 0 Z " fill="#F58C27" transform="translate(207,79)"/>
<path d="M0 0 C0.99 0.33 1.98 0.66 3 1 C4.04281609 7.94362911 4.25212154 14.79652242 4.3125 21.8125 C4.34150391 22.92431641 4.37050781 24.03613281 4.40039062 25.18164062 C4.46794407 34.06231985 2.78845719 41.12019992 -1.625 48.84375 C-5.32436207 52.20238135 -9.55503228 54.26628391 -14 56.5 C-15.01835937 57.02062012 -16.03671875 57.54124023 -17.0859375 58.07763672 C-28.19550703 63.70135192 -39.49603306 68.91123094 -50.81933594 74.08691406 C-58.22610365 77.47346553 -65.62047909 80.88701468 -73.01611328 84.29779053 C-75.56849624 85.47396232 -78.1220368 86.64758861 -80.67578125 87.82080078 C-82.27620995 88.55725159 -83.87647523 89.29405765 -85.4765625 90.03125 C-86.61680878 90.55656815 -86.61680878 90.55656815 -87.78009033 91.09249878 C-92.59987675 93.32350589 -97.36426857 95.63863928 -102.06787109 98.10742188 C-104 99 -104 99 -106.19384766 99.50195312 C-106.78987793 99.66630859 -107.3859082 99.83066406 -108 100 C-108.33 100.66 -108.66 101.32 -109 102 C-108.45957565 102.16870605 -107.91915131 102.33741211 -107.36235046 102.51123047 C-101.58730872 104.36778871 -96.09911787 106.61179664 -90.58203125 109.125 C-89.72115402 109.51316895 -88.86027679 109.90133789 -87.97331238 110.30126953 C-86.1682136 111.11611806 -84.36404944 111.93303996 -82.56079102 112.75195312 C-79.81138174 114.00050782 -77.0592961 115.24299577 -74.30664062 116.484375 C-72.544113 117.28090085 -70.78173788 118.07776425 -69.01953125 118.875 C-68.20378128 119.24383301 -67.38803131 119.61266602 -66.54756165 119.99267578 C-52.81814257 126.23083566 -52.81814257 126.23083566 -50 131 C-49.113389 136.87379789 -50.73633937 141.20523931 -54 146 C-58.78065024 151.31780195 -64.80929401 153.28252027 -71.8125 153.75 C-82.32188049 153.53241448 -91.46004716 148.82747556 -100.96875 144.72167969 C-108.21028331 141.60964213 -115.52591341 138.67242067 -122.82302856 135.69384766 C-126.21067536 134.30891061 -129.59514677 132.91632012 -132.97950745 131.52337646 C-139.97194222 128.64547438 -146.97055429 125.7866174 -154 123 C-154.12348196 116.93114683 -154.21428371 110.86302258 -154.2746582 104.79321289 C-154.2998222 102.72797919 -154.33395684 100.66283471 -154.37719727 98.59790039 C-154.43776616 95.63144953 -154.46619036 92.66617448 -154.48828125 89.69921875 C-154.52699089 88.31158577 -154.52699089 88.31158577 -154.56648254 86.8959198 C-154.56753453 84.49846631 -154.51718809 82.34087373 -154 80 C-151.80639648 78.05029297 -151.80639648 78.05029297 -149 77 C-148.14889648 76.58806396 -147.29779297 76.17612793 -146.42089844 75.75170898 C-145.4930957 75.33735596 -144.56529297 74.92300293 -143.609375 74.49609375 C-142.52946289 74.01261475 -141.44955078 73.52913574 -140.33691406 73.03100586 C-139.15323242 72.50514893 -137.96955078 71.97929199 -136.75 71.4375 C-135.47354081 70.86682357 -134.1971765 70.29593489 -132.92089844 69.72485352 C-125.43670767 66.3828317 -117.92994899 63.09578135 -110.40625 59.84375 C-92.45263588 52.07142258 -74.6493233 44.07480893 -57.0625 35.5 C-55.81188782 34.89259476 -55.81188782 34.89259476 -54.53601074 34.2729187 C-45.66603161 29.95495227 -36.89987498 25.48471233 -28.265625 20.7109375 C-27.54178116 20.31152954 -26.81793732 19.91212158 -26.07215881 19.50061035 C-11.43822955 11.52884667 -11.43822955 11.52884667 0 0 Z " fill="#F48C27" transform="translate(312,231)"/>
<path d="M0 0 C0.07000769 7.85922354 0.12306573 15.71837182 0.15543652 23.57783031 C0.17098553 27.22867664 0.19202235 30.87930713 0.22631836 34.5300293 C0.25930192 38.06381107 0.27693355 41.59738739 0.28463173 45.13131142 C0.29274114 47.11236482 0.31609547 49.09333742 0.33988953 51.07426453 C0.34379221 72.43643594 -7.66815695 91.17813952 -22.1875 106.75 C-37.91414481 121.65469473 -59.09137077 129.21398738 -80.59741211 129.11352539 C-81.84252563 129.11374443 -81.84252563 129.11374443 -83.11279297 129.1139679 C-85.83433723 129.11327574 -88.55581156 129.1055162 -91.27734375 129.09765625 C-93.17305972 129.09578959 -95.06877617 129.09436686 -96.9644928 129.09336853 C-101.93748319 129.08956287 -106.91044407 129.07974935 -111.88342285 129.06866455 C-116.96459555 129.05840838 -122.04577305 129.05386192 -127.12695312 129.04882812 C-137.08464834 129.03812524 -147.04232171 129.02107238 -157 129 C-157.17605097 125.50064848 -157.28142307 122.00245076 -157.375 118.5 C-157.42527344 117.51773438 -157.47554687 116.53546875 -157.52734375 115.5234375 C-157.65094983 109.3431333 -156.97715235 105.38904681 -152.78865051 100.70690918 C-152.19839584 100.14362915 -151.60814117 99.58034912 -151 99 C-150.4752861 98.47829224 -149.9505722 97.95658447 -149.40995789 97.41906738 C-143.41717205 92.64405987 -135.92872624 93.34643093 -128.66181374 93.4389801 C-126.22491566 93.4693052 -123.7897582 93.46796096 -121.35270691 93.4588623 C-115.29940782 93.44266025 -109.2466564 93.479752 -103.19348145 93.51544189 C-98.07393674 93.54358969 -92.95513954 93.55091669 -87.83554649 93.53187561 C-85.45727953 93.53126608 -83.08063069 93.56023899 -80.70259094 93.59069824 C-68.43458906 93.62986464 -57.61031718 91.1853205 -47.99609375 83 C-36.64445876 71.62615046 -34.58671603 59.11583381 -34.5859375 43.71289062 C-34.60071975 40.93703123 -34.62532417 38.16166736 -34.66015625 35.38598633 C-34.68687738 32.66687327 -34.67722568 29.94963893 -34.6640625 27.23046875 C-34.69652573 25.9958918 -34.69652573 25.9958918 -34.72964478 24.7363739 C-34.683458 19.31348087 -33.49106772 16.32816183 -29.68133545 12.42814636 C-27.30044927 10.40579327 -24.92127207 9.13161703 -22.05078125 7.91015625 C-20.95572266 7.43642578 -19.86066406 6.96269531 -18.73242188 6.47460938 C-17.03956055 5.77561523 -17.03956055 5.77561523 -15.3125 5.0625 C-14.17232422 4.56943359 -13.03214844 4.07636719 -11.85742188 3.56835938 C-3.47845874 0 -3.47845874 0 0 0 Z " fill="#F58C28" transform="translate(315,306)"/>
<path d="M0 0 C1.69926636 0.7113208 1.69926636 0.7113208 3.43286133 1.43701172 C4.73209438 2.00824825 6.03046258 2.58145443 7.328125 3.15625 C8.83290197 3.81141687 10.33770467 4.46652464 11.8425293 5.12158203 C15.97770793 6.93383141 20.09838142 8.7769748 24.21459961 10.63183594 C26.78399164 11.78952545 29.35565829 12.94203772 31.92773438 14.09375 C33.58086232 14.83564088 35.23386181 15.57781805 36.88671875 16.3203125 C37.64617294 16.66099762 38.40562714 17.00168274 39.18809509 17.35269165 C52.48886366 23.3513462 52.48886366 23.3513462 55.328125 28.15625 C56.214736 34.03004789 54.59178563 38.36148931 51.328125 43.15625 C46.54747476 48.47405195 40.51883099 50.43877027 33.515625 50.90625 C23.00624451 50.68866448 13.86807784 45.98372556 4.359375 41.87792969 C-2.88215831 38.76589213 -10.19778841 35.82867067 -17.49490356 32.85009766 C-20.88255036 31.46516061 -24.26702177 30.07257012 -27.65138245 28.67962646 C-34.64372353 25.80176294 -41.64007314 22.9367589 -48.671875 20.15625 C-46.19525579 17.33680273 -43.52596086 15.89659184 -40.18359375 14.23046875 C-38.5452356 13.4094165 -38.5452356 13.4094165 -36.8737793 12.57177734 C-32.1824359 10.2650508 -27.48576512 7.96968876 -22.78125 5.68994141 C-20.25158005 4.44218806 -17.76986995 3.14766083 -15.296875 1.79296875 C-9.582925 -1.13543063 -6.07220085 -2.58226613 0 0 Z " fill="#B16D0D" transform="translate(206.671875,333.84375)"/>
<path d="M0 0 C4.25366685 3.18281366 6.81795113 6.33223559 8.1875 11.5 C8.98209001 17.46866453 8.71779982 22.43990359 5.1875 27.5 C0.75489959 31.8478239 -3.13392975 34.80454046 -9.4375 35 C-15.97763198 34.87331463 -20.16925824 33.10397544 -24.8125 28.5 C-28.26125236 24.0418567 -29.54222509 19.34450175 -29.26171875 13.734375 C-27.91369945 7.02944421 -23.22950536 2.30342929 -17.8125 -1.5 C-11.4435794 -3.49352393 -5.785028 -3.52256655 0 0 Z " fill="#F58C28" transform="translate(186.8125,79.5)"/>
<path d="M0 0 C3.99621629 2.84982697 6.5427722 6.16943049 8.375 10.75 C9.16835185 17.49349072 8.96262422 21.9395629 5.37109375 27.8203125 C1.74229326 32.09044462 -3.09320564 34.20549004 -8.51953125 35.3125 C-13.80215442 35.64592 -18.11240953 33.79250637 -22.375 30.875 C-26.59182247 26.54720852 -28.45352051 22.50208254 -28.6875 16.5 C-28.54572316 11.47943178 -27.52470328 7.20384522 -24.015625 3.40234375 C-17.17829662 -2.64199551 -8.18778652 -4.75962917 0 0 Z " fill="#F58C28" transform="translate(354.375,118.125)"/>
<path d="M0 0 C5.53165867 1.93111738 9.33453063 5.67945838 12.1484375 10.76171875 C14.01335554 15.66354461 14.01335554 20.33645539 12.1484375 25.23828125 C9.32360334 30.34027765 5.53235892 34.0286997 0 36 C-5.60446125 36.8321999 -10.27738018 36.81432937 -15.4375 34.375 C-19.7920828 30.33904521 -23.64414004 26.71611133 -24.23828125 20.51171875 C-24.39773933 14.44391917 -24.25047063 10.69788859 -20 6 C-13.54672362 -0.04171538 -8.76540685 -0.94582809 0 0 Z " fill="#F58C27" transform="translate(350,160)"/>
<path d="M0 0 C0 18.48 0 36.96 0 56 C-0.33 56 -0.66 56 -1 56 C-1.00808685 55.34045319 -1.01617371 54.68090637 -1.02450562 54.00137329 C-1.11035572 47.15598793 -1.20985003 40.31089871 -1.31738281 33.46582031 C-1.3557398 30.90890463 -1.39058062 28.35193375 -1.421875 25.79492188 C-1.46737976 22.12610091 -1.5253981 18.45766227 -1.5859375 14.7890625 C-1.59748871 13.64007477 -1.60903992 12.49108704 -1.62094116 11.30728149 C-1.6507457 9.71585831 -1.6507457 9.71585831 -1.68115234 8.09228516 C-1.69447601 7.15518707 -1.70779968 6.21808899 -1.7215271 5.25259399 C-1.79034466 2.79964849 -1.79034466 2.79964849 -4 1 C-2 0 -2 0 0 0 Z " fill="#F59039" transform="translate(314,306)"/>
</svg>
