<?xml version="1.0" encoding="UTF-8"?>
<svg version="1.1" xmlns="http://www.w3.org/2000/svg" width="500" height="500">
<path d="M0 0 C32.11850305 -0.58996874 59.9400001 1.73212345 84.58886719 24.60498047 C88.03222142 28.00901613 90.54454987 31.85420376 93 36 C94.01707031 37.67642578 94.01707031 37.67642578 95.0546875 39.38671875 C107.05775633 59.51709402 112.13603682 82.50374304 106.375 105.6875 C100.75962737 124.74454857 89.49944347 138.1945181 72.171875 147.69921875 C67.30330201 150.29778495 62.38330096 152.78880583 57.44970703 155.26123047 C54.33884187 156.82921219 51.24102367 158.41935463 48.14697266 160.02008057 C45.45358717 161.41115997 42.7544788 162.79087478 40.05413818 164.168396 C38.73813309 164.8417844 37.42400072 165.51884674 36.11187744 166.19976807 C22.34198021 173.33069422 22.34198021 173.33069422 16 173 C13.25573678 170.92532012 12.13227424 169.73777169 11.51898193 166.31707764 C11.5323056 164.78485565 11.5323056 164.78485565 11.54589844 163.22167969 C11.54620056 162.0607782 11.54650269 160.89987671 11.54681396 159.70379639 C11.56745911 158.45576233 11.58810425 157.20772827 11.609375 155.921875 C11.61503479 154.64016418 11.62069458 153.35845337 11.62652588 152.03790283 C11.64176532 148.63786372 11.68103084 145.23851306 11.7253418 141.83874512 C11.76633201 138.36654981 11.78454479 134.89424276 11.8046875 131.421875 C11.847528 124.61430134 11.91575788 117.80718376 12 111 C15.465 110.01 15.465 110.01 19 109 C18.25234375 108.05898437 17.5046875 107.11796875 16.734375 106.1484375 C15.73946379 104.89071956 14.74467883 103.63290173 13.75 102.375 C13.01330078 101.44880859 13.01330078 101.44880859 12.26171875 100.50390625 C9.98278279 97.61725404 7.77269699 94.72944445 5.75 91.65625 C4.29864687 89.45330329 2.94809568 87.75328611 1 86 C-2.41344911 87.42809466 -4.14994239 89.10105391 -6.3828125 92.02734375 C-7.29740234 93.21553711 -7.29740234 93.21553711 -8.23046875 94.42773438 C-8.85566406 95.25595703 -9.48085937 96.08417969 -10.125 96.9375 C-10.75792969 97.76185547 -11.39085937 98.58621094 -12.04296875 99.43554688 C-14.44821586 102.5787095 -16.80394883 105.70592325 -19 109 C-16.69 109.66 -14.38 110.32 -12 111 C-12 126.18 -12 141.36 -12 157 C-9.36 157 -6.72 157 -4 157 C-3.01 157.99 -3.01 157.99 -2 159 C-2.07137258 164.05853194 -5.27208306 167.02852143 -8.5 170.5625 C-13.33807727 176.01257089 -17.78895198 181.56805861 -22.0625 187.4765625 C-23.90834163 189.88062236 -25.72119904 192.00137948 -28 194 C-30.5 194.125 -30.5 194.125 -33 193 C-34.36547825 191.02180715 -35.69282199 189.01719197 -37 187 C-38.7030903 184.71266267 -40.47554149 182.48223271 -42.25 180.25 C-42.96808838 179.33963989 -42.96808838 179.33963989 -43.70068359 178.41088867 C-47.26606587 173.89794984 -50.88281997 169.42800432 -54.5390625 164.98828125 C-56 163 -56 163 -57 160 C-56.34 159.01 -55.68 158.02 -55 157 C-51.375 156.8125 -51.375 156.8125 -48 157 C-48.00666183 156.29779831 -48.01332367 155.59559662 -48.02018738 154.87211609 C-48.08064795 148.20917298 -48.1261502 141.54630798 -48.15543652 134.88315105 C-48.17099981 131.45868277 -48.19206368 128.03444379 -48.22631836 124.61010742 C-48.2655722 120.6606738 -48.27978634 116.7113285 -48.29296875 112.76171875 C-48.30845261 111.54981369 -48.32393646 110.33790863 -48.33988953 109.08927917 C-48.34311911 92.55074853 -42.67209465 78.8210209 -31 67 C-20.91601238 59.13155732 -8.44658922 55.26551639 4.265625 56.25390625 C17.92133525 58.0164456 30.14353637 64.27454645 39 75 C46.10246929 84.91003362 48.40577451 94.56714915 48.6875 106.625 C48.72166016 107.62917969 48.75582031 108.63335937 48.79101562 109.66796875 C48.87247891 112.11186718 48.94194922 114.55545281 49 117 C61.7415611 109.84691642 61.7415611 109.84691642 70.1171875 98.2265625 C73.58700772 85.54483018 71.40089959 71.53440275 65.45703125 60.0078125 C58.63461459 48.48620267 49.06625235 41.78667967 36.2890625 37.859375 C30.47599776 36.49594458 24.54320023 36.60935367 18.6015625 36.52148438 C13.34294115 36.36570152 9.53837347 35.95455925 5 33 C-0.57653312 26.82059844 -0.3093992 22.05710285 -0.625 14 C-0.6765625 12.88109375 -0.728125 11.7621875 -0.78125 10.609375 C-0.82507813 9.54203125 -0.86890625 8.4746875 -0.9140625 7.375 C-0.9548291 6.39273438 -0.9955957 5.41046875 -1.03759766 4.3984375 C-1 2 -1 2 0 0 Z " fill="#F58C29" transform="translate(201,76)"/>
<path d="M0 0 C1.32 0 2.64 0 4 0 C8.13478189 12.40434566 8.62577114 33.08669214 3.1171875 45.015625 C-5.72146591 60.71505134 -32.23716172 67.67768728 -47.91015625 74.82080078 C-55.8018578 78.42601168 -63.6286585 82.15581278 -71.44506836 85.92089844 C-81.55617532 90.77619293 -91.76929277 95.40320149 -102 100 C-93.45386844 104.48791266 -84.87566012 108.56205207 -75.875 112.0625 C-52.8573003 121.04952539 -52.8573003 121.04952539 -48 127 C-46.24630041 132.09818679 -46.71762768 137.25385373 -48.85546875 142.14453125 C-52.2341451 147.62190758 -56.8972665 150.33424148 -63 152 C-65.97265625 152.3359375 -65.97265625 152.3359375 -69.0625 152.375 C-70.06410156 152.40335938 -71.06570312 152.43171875 -72.09765625 152.4609375 C-85.90990574 150.82946058 -99.10654835 143.99695021 -111.8125 138.6875 C-113.83377403 137.84910208 -115.85525723 137.01120826 -117.87695312 136.17382812 C-128.97158263 131.56905367 -140.01909372 126.86986268 -151 122 C-151.19798642 115.96788692 -151.34303077 109.93766899 -151.43945312 103.90307617 C-151.4796489 101.85130877 -151.53421767 99.79977002 -151.60351562 97.7487793 C-151.70074752 94.79679027 -151.74596217 91.8478309 -151.78125 88.89453125 C-151.84318542 87.52238213 -151.84318542 87.52238213 -151.90637207 86.12251282 C-151.91073175 79.91385822 -151.91073175 79.91385822 -149.3687439 77.36314392 C-147.29902922 76.02775646 -145.25671373 74.98279873 -143 74 C-142.01854004 73.54230225 -141.03708008 73.08460449 -140.02587891 72.61303711 C-139.10210449 72.2547583 -138.17833008 71.89647949 -137.2265625 71.52734375 C-135.64016968 70.90061768 -135.64016968 70.90061768 -134.02172852 70.26123047 C-132.90080811 69.82439941 -131.7798877 69.38756836 -130.625 68.9375 C-117.50088792 63.69850713 -104.68343362 57.9369968 -91.90734863 51.90026855 C-89.85815598 50.93304962 -87.80764316 49.96867345 -85.75683594 49.00488281 C-77.31094862 45.03537405 -68.87220696 41.05119692 -60.44154358 37.04945374 C-55.87124207 34.88161259 -51.29234668 32.73355377 -46.70703125 30.59765625 C-20.56875851 19.07652649 -20.56875851 19.07652649 0 0 Z " fill="#F48C28" transform="translate(304,224)"/>
<path d="M0 0 C0.09356113 7.80736904 0.16419405 15.61460153 0.20724869 23.4223938 C0.22793516 27.04970399 0.25589502 30.67662477 0.30175781 34.30371094 C0.68539092 65.49389695 0.68539092 65.49389695 -4 78 C-4.30292969 78.82032715 -4.60585938 79.6406543 -4.91796875 80.48583984 C-5.72785655 82.45653657 -6.61981118 84.31025821 -7.625 86.1875 C-8.1348645 87.16601929 -8.1348645 87.16601929 -8.6550293 88.16430664 C-19.05223498 107.43323211 -34.72573662 119.4900282 -55.625 125.875 C-56.28064941 126.07834961 -56.93629883 126.28169922 -57.61181641 126.49121094 C-69.47933759 129.85197645 -82.19595881 129.14951007 -94.41796875 129.1328125 C-96.16962192 129.13348737 -97.921275 129.13445893 -99.67292786 129.13571167 C-103.31622218 129.13717572 -106.95949178 129.13507314 -110.6027832 129.13037109 C-115.28142568 129.12462766 -119.96001137 129.12798981 -124.63865185 129.13394356 C-128.24244115 129.13754453 -131.84621679 129.13641355 -135.45000648 129.13381577 C-137.17686279 129.13314761 -138.90372031 129.13397104 -140.63057518 129.13629532 C-143.02873446 129.13881922 -145.42679901 129.13498718 -147.82495117 129.12939453 C-148.5412117 129.13141876 -149.25747223 129.13344299 -149.99543762 129.13552856 C-154.88572729 129.11427271 -154.88572729 129.11427271 -156 128 C-156.30862305 124.8222468 -156.27857854 121.62837838 -156.3125 118.4375 C-156.34150391 117.55513672 -156.37050781 116.67277344 -156.40039062 115.76367188 C-156.46921196 108.60095902 -154.96871133 103.36453951 -150.18359375 97.94140625 C-149.60738281 97.48636719 -149.03117188 97.03132813 -148.4375 96.5625 C-147.85871094 96.08941406 -147.27992188 95.61632812 -146.68359375 95.12890625 C-143.09620251 92.72343973 -139.76355527 92.86042605 -135.57592773 92.82641602 C-134.92830978 92.819729 -134.28069183 92.81304199 -133.6134491 92.80615234 C-132.207365 92.79211229 -130.80125825 92.7802149 -129.39513969 92.77020454 C-127.16154249 92.75374374 -124.92811012 92.73049897 -122.69459534 92.70530701 C-116.34392596 92.63470745 -109.99318598 92.57473275 -103.64233398 92.52319336 C-99.75488821 92.49116849 -95.86762755 92.44982672 -91.98033333 92.40299797 C-90.50656573 92.38710639 -89.03275551 92.37472652 -87.55892754 92.36609077 C-71.14717496 92.2686153 -58.60010566 90.18263854 -46.26953125 78.609375 C-40.84560171 72.37325635 -36.90072388 64.33296027 -36.8581543 55.96923828 C-36.85111984 55.18807648 -36.84408539 54.40691467 -36.83683777 53.6020813 C-36.83059135 52.34885574 -36.83059135 52.34885574 -36.82421875 51.0703125 C-36.80102277 49.28774858 -36.77690552 47.50519645 -36.75195312 45.72265625 C-36.71684819 42.92260808 -36.68749039 40.12299539 -36.67407227 37.32275391 C-36.65855975 34.61307612 -36.61833674 31.90465612 -36.57421875 29.1953125 C-36.57612717 28.36387726 -36.57803558 27.53244202 -36.58000183 26.67581177 C-36.46780585 21.3182909 -35.58969011 18.21831895 -32 14 C-28.70665709 10.95947531 -25.49273541 9.1319108 -21.3671875 7.421875 C-19.78744141 6.76445312 -19.78744141 6.76445312 -18.17578125 6.09375 C-17.08652344 5.6503125 -15.99726563 5.206875 -14.875 4.75 C-13.22951172 4.06164062 -13.22951172 4.06164062 -11.55078125 3.359375 C-3.40229725 0 -3.40229725 0 0 0 Z " fill="#F58C28" transform="translate(309,297)"/>
<path d="M0 0 C2.09212409 0.89284044 4.15110059 1.83896967 6.20898438 2.80810547 C7.79420083 3.53494053 9.38017159 4.26013219 10.96679688 4.98388672 C11.79598633 5.36367676 12.62517578 5.7434668 13.47949219 6.13476562 C18.82779737 8.5442102 24.24281763 10.80228301 29.65087891 13.07373047 C48.32962961 20.99694149 48.32962961 20.99694149 51.08398438 25.30810547 C52.5785854 30.61288656 52.440001 35.39348525 50.22851562 40.45263672 C46.84983928 45.93001305 42.18671788 48.64234695 36.08398438 50.30810547 C33.11132812 50.64404297 33.11132812 50.64404297 30.02148438 50.68310547 C28.51908203 50.72564453 28.51908203 50.72564453 26.98632812 50.76904297 C12.97688904 49.11427439 -0.40873034 42.13620086 -13.29101562 36.74560547 C-15.38844864 35.87332371 -17.48610339 35.0015749 -19.58398438 34.13037109 C-29.40689049 30.04659181 -29.40689049 30.04659181 -33.59857178 28.27609253 C-35.08168021 27.65660405 -36.57108829 27.05186034 -38.06793213 26.46633911 C-42.79054645 24.58545838 -42.79054645 24.58545838 -44.10351562 21.68310547 C-44.37164062 20.89935547 -44.63976562 20.11560547 -44.91601562 19.30810547 C-46.95707202 18.42117243 -46.95707202 18.42117243 -48.91601562 18.30810547 C-47.59601563 17.97810547 -46.27601563 17.64810547 -44.91601562 17.30810547 C-44.91601562 16.64810547 -44.91601562 15.98810547 -44.91601562 15.30810547 C-24.8763161 5.77296146 -24.8763161 5.77296146 -17.06835938 2.30810547 C-14.69151104 1.24227928 -14.69151104 1.24227928 -11.66601562 -0.56689453 C-7.59520413 -2.23222651 -4.11038422 -1.48430541 0 0 Z " fill="#B16D0F" transform="translate(204.916015625,325.69189453125)"/>
<path d="M0 0 C4.08421669 3.40351391 7.16589022 7.94724791 7.80859375 13.2890625 C8.02948241 19.85759381 6.68823936 24.9429412 2.14453125 29.84765625 C-3.00168878 34.3954786 -7.50970582 35.73671515 -14.22265625 35.55859375 C-20.03711583 34.8999647 -23.69073228 31.55281319 -27.4296875 27.30859375 C-30.77230525 23.01094235 -31.54614759 18.65679936 -31.4296875 13.30859375 C-30.46166314 7.14740343 -27.25527787 3.53447299 -22.46875 -0.27734375 C-15.4427785 -5.14976077 -7.09838051 -4.50664623 0 0 Z " fill="#F48D2A" transform="translate(184.4296875,77.69140625)"/>
<path d="M0 0 C4.35345803 3.08182939 6.48017397 6.75562194 7.89453125 11.84375 C8.80082958 17.26285339 8.2338792 21.92597526 5.2734375 26.609375 C0.53732228 31.8058038 -3.99911966 35.2642414 -11.1015625 35.921875 C-17.9525476 35.33127284 -22.90682787 32.42910963 -27.7265625 27.609375 C-30.75569328 22.35888165 -31.63621266 17.54765304 -30.7265625 11.609375 C-28.54914234 4.7572675 -24.60268742 0.75144403 -18.3515625 -2.703125 C-11.28646043 -4.55350887 -6.31306611 -3.45761775 0 0 Z " fill="#F38E2D" transform="translate(347.7265625,115.390625)"/>
<path d="M0 0 C5.4883379 3.18846297 9.59391844 7.29147521 11.33984375 13.484375 C12.34508239 19.8410311 11.22905395 24.76187346 7.67578125 30.12890625 C4.25187339 33.87237885 0.19086989 36.83636573 -4.91015625 37.4296875 C-14.72891849 37.4709428 -14.72891849 37.4709428 -19.32421875 34.12890625 C-24.29278899 29.17066568 -27.44098377 25.54440393 -27.57421875 18.31640625 C-27.47733175 12.74540352 -26.47769044 9.29135074 -22.44921875 5.24609375 C-15.9295043 -0.67438224 -8.73210229 -3.27270388 0 0 Z " fill="#F48C29" transform="translate(344.32421875,155.87109375)"/>
<path d="M0 0 C0 0.66 0 1.32 0 2 C-0.66 2 -1.32 2 -2 2 C-2 2.66 -2 3.32 -2 4 C-3.65 4 -5.3 4 -7 4 C-7 4.66 -7 5.32 -7 6 C-14.86298756 8.07012544 -22.57104568 8.27002298 -30.65242767 8.24382973 C-32.90658703 8.23816255 -35.16024591 8.24751108 -37.41436768 8.2610321 C-43.81517117 8.29787468 -50.21579217 8.31666678 -56.61669922 8.30541992 C-60.55127603 8.29955846 -64.48513331 8.31786321 -68.41956329 8.35130882 C-69.91060627 8.35923464 -71.40172824 8.35802414 -72.8927536 8.34728432 C-81.94185699 7.89609048 -81.94185699 7.89609048 -89.83300781 11.53979492 C-90.54811523 12.3516626 -91.26322266 13.16353027 -92 14 C-92.66 14 -93.32 14 -94 14 C-94 14.66 -94 15.32 -94 16 C-94.99 16.33 -95.98 16.66 -97 17 C-95.62523555 11.80644539 -92.25658407 8.99572509 -88 6 C-84.65414215 4.88471405 -82.10231743 4.85505577 -78.57592773 4.82641602 C-77.92830978 4.819729 -77.28069183 4.81304199 -76.6134491 4.80615234 C-75.207365 4.79211229 -73.80125825 4.7802149 -72.39513969 4.77020454 C-70.16154249 4.75374374 -67.92811012 4.73049897 -65.69459534 4.70530701 C-59.34392596 4.63470745 -52.99318598 4.57473275 -46.64233398 4.52319336 C-42.75488821 4.49116849 -38.86762755 4.44982672 -34.98033333 4.40299797 C-33.50656573 4.38710639 -32.03275551 4.37472652 -30.55892754 4.36609077 C-20.16671995 4.30436761 -9.6990445 0 0 0 Z " fill="#EA9D4C" transform="translate(252,385)"/>
<path d="M0 0 C0.33 0 0.66 0 1 0 C1 6.93 1 13.86 1 21 C3.54871826 20.99476318 6.09743652 20.98952637 8.72338867 20.98413086 C17.14519173 20.96755965 25.5669955 20.9565146 33.98881054 20.94818783 C39.09484406 20.94296969 44.20086086 20.93589139 49.30688477 20.92456055 C54.23463925 20.91369376 59.16237766 20.9077151 64.0901432 20.90512276 C65.9699968 20.90327536 67.84984952 20.89966788 69.72969627 20.89426994 C72.36302973 20.88700925 74.99629681 20.88601119 77.62963867 20.88647461 C78.40647507 20.88287933 79.18331146 20.87928406 79.98368835 20.87557983 C83.78248069 20.88281184 87.30725875 21.07925884 91 22 C91 22.33 91 22.66 91 23 C80.85122931 24.09869251 70.77413978 24.14673684 60.58203125 24.1328125 C58.83037808 24.13348737 57.078725 24.13445893 55.32707214 24.13571167 C51.68377782 24.13717572 48.04050822 24.13507314 44.3972168 24.13037109 C39.71857432 24.12462766 35.03998863 24.12798981 30.36134815 24.13394356 C26.75755885 24.13754453 23.15378321 24.13641355 19.54999352 24.13381577 C17.82313721 24.13314761 16.09627969 24.13397104 14.36942482 24.13629532 C11.97126554 24.13881922 9.57320099 24.13498718 7.17504883 24.12939453 C6.4587883 24.13141876 5.74252777 24.13344299 5.00456238 24.13552856 C0.11427271 24.11427271 0.11427271 24.11427271 -1 23 C-1.09885916 21.54695692 -1.13079333 20.08921328 -1.1328125 18.6328125 C-1.13410156 17.74722656 -1.13539063 16.86164063 -1.13671875 15.94921875 C-1.13285156 15.01722656 -1.12898437 14.08523438 -1.125 13.125 C-1.12886719 12.20074219 -1.13273438 11.27648437 -1.13671875 10.32421875 C-1.13542969 9.43605469 -1.13414062 8.54789062 -1.1328125 7.6328125 C-1.13168457 6.81699707 -1.13055664 6.00118164 -1.12939453 5.16064453 C-1 3 -1 3 0 0 Z " fill="#F18655" transform="translate(154,402)"/>
<path d="M0 0 C2.37447088 3.6315437 1.84469014 5.85594647 1 10 C0.89639246 11.99481036 0.83522372 13.99215522 0.81054688 15.98950195 C0.79382935 17.14702469 0.77711182 18.30454742 0.7598877 19.49714661 C0.74631226 20.73172104 0.73273682 21.96629547 0.71875 23.23828125 C0.70034058 24.5147905 0.68193115 25.79129974 0.66296387 27.10649109 C0.59432225 31.86908609 0.53355744 36.63175542 0.47393799 41.39447021 C0.4150424 46.07165881 0.348955 50.74871008 0.28125 55.42578125 C0.26767456 56.67047684 0.25409912 57.91517242 0.2401123 59.19758606 C0.22339478 60.33934799 0.20667725 61.48110992 0.18945312 62.6574707 C0.17692505 63.66751663 0.16439697 64.67756256 0.15148926 65.71821594 C0 68 0 68 -1 69 C-3.33297433 69.04092937 -5.66705225 69.04241723 -8 69 C-8 69.66 -8 70.32 -8 71 C-7.01 70.505 -7.01 70.505 -6 70 C-4.29297265 69.93003986 -2.58331997 69.91559846 -0.875 69.9375 C0.49011719 69.95103516 0.49011719 69.95103516 1.8828125 69.96484375 C2.58148438 69.97644531 3.28015625 69.98804688 4 70 C1.68055212 73.47917182 -0.26369964 74.29429766 -4 76 C-3.484375 76.598125 -2.96875 77.19625 -2.4375 77.8125 C-1.963125 78.534375 -1.48875 79.25625 -1 80 C-1.33 80.99 -1.66 81.98 -2 83 C-3.31772362 81.40012144 -4.62901137 79.79494034 -5.9375 78.1875 C-6.66839844 77.29417969 -7.39929688 76.40085937 -8.15234375 75.48046875 C-10 73 -10 73 -11 70 C-10.34 69.01 -9.68 68.02 -9 67 C-5.375 66.8125 -5.375 66.8125 -2 67 C-2.00444122 66.29335709 -2.00888245 65.58671417 -2.01345825 64.85865784 C-2.05370381 58.16563408 -2.08406964 51.47264461 -2.10362434 44.77952671 C-2.11401591 41.33937436 -2.12808935 37.89932285 -2.15087891 34.45922852 C-2.17697348 30.49496714 -2.18651104 26.53074514 -2.1953125 22.56640625 C-2.20563507 21.34417862 -2.21595764 20.12195099 -2.22659302 18.86268616 C-2.22745465 12.2432704 -1.7300537 6.3964096 0 0 Z " fill="#F3AE6E" transform="translate(155,166)"/>
<path d="M0 0 C0.33 0 0.66 0 1 0 C1 4.33333333 1 8.66666667 1 13 C0.34 13 -0.32 13 -1 13 C-1 13.99 -1 14.98 -1 16 C0.32 16 1.64 16 3 16 C3 16.99 3 17.98 3 19 C24.12 19 45.24 19 67 19 C67 19.66 67 20.32 67 21 C58.59413885 21.02317503 50.18829106 21.04094143 41.78240585 21.05181217 C37.87917705 21.05702969 33.97597012 21.06410684 30.07275391 21.07543945 C26.30561356 21.08630847 22.53849424 21.09228537 18.77133942 21.09487724 C17.33444131 21.09672424 15.89754436 21.10033095 14.46065521 21.10573006 C12.44741438 21.11299363 10.43415237 21.11340851 8.42089844 21.11352539 C7.27506287 21.115746 6.12922729 21.11796661 4.94866943 21.12025452 C2.44128864 21.01799691 0.38484323 20.73528797 -2 20 C-2.05392397 17.22890693 -2.09363455 14.45886182 -2.125 11.6875 C-2.14175781 10.90181641 -2.15851563 10.11613281 -2.17578125 9.30664062 C-2.18544922 8.1706543 -2.18544922 8.1706543 -2.1953125 7.01171875 C-2.20578613 6.31522217 -2.21625977 5.61872559 -2.22705078 4.90112305 C-2 3 -2 3 0 0 Z " fill="#F3881C" transform="translate(157,403)"/>
<path d="M0 0 C0.99 0 1.98 0 3 0 C3 20.46 3 40.92 3 62 C2.34 62 1.68 62 1 62 C1 43.19 1 24.38 1 5 C-0.32 5 -1.64 5 -3 5 C-2.67 4.01 -2.34 3.02 -2 2 C-1.34 2 -0.68 2 0 2 C0 1.34 0 0.68 0 0 Z " fill="#E79F58" transform="translate(306,297)"/>
<path d="M0 0 C0.33 0 0.66 0 1 0 C1 15.18 1 30.36 1 46 C3.64 46 6.28 46 9 46 C9.66 46.66 10.32 47.32 11 48 C10.76854861 52.44237353 8.91570289 54.64520486 5.9375 57.8125 C5.20402344 58.60269531 4.47054687 59.39289063 3.71484375 60.20703125 C3.14894531 60.79871094 2.58304688 61.39039063 2 62 C1.505 60.515 1.505 60.515 1 59 C0.01 59 -0.98 59 -2 59 C-0.87548273 56.0280615 0.22293791 53.66559313 2 51 C3.98 51.33 5.96 51.66 8 52 C8 50.68 8 49.36 8 48 C4.04 47.505 4.04 47.505 0 47 C0 31.49 0 15.98 0 0 Z " fill="#F3AB68" transform="translate(188,187)"/>
<path d="M0 0 C0.66 0.33 1.32 0.66 2 1 C1.67 1.33 1.34 1.66 1 2 C0.83970312 4.95529504 0.74042672 7.88982457 0.68359375 10.84765625 C0.66281265 11.7340831 0.64203156 12.62050995 0.62062073 13.53379822 C0.555026 16.376617 0.49619448 19.21953117 0.4375 22.0625 C0.3943242 23.98503606 0.35071022 25.90756234 0.30664062 27.83007812 C0.19933457 32.55328668 0.09809549 37.27659153 0 42 C2.475 41.505 2.475 41.505 5 41 C4.34 41.66 3.68 42.32 3 43 C4.32 44.32 5.64 45.64 7 47 C6.01 47.495 6.01 47.495 5 48 C2.64018187 47.06421005 0.30368736 46.06652192 -2 45 C-2.04934154 38.91277254 -2.08569167 32.8256608 -2.10986328 26.73828125 C-2.11993712 24.66632053 -2.13359666 22.59437407 -2.15087891 20.52246094 C-2.17506664 17.54879236 -2.18646908 14.5753113 -2.1953125 11.6015625 C-2.20563507 10.67131256 -2.21595764 9.74106262 -2.22659302 8.78262329 C-2.22674408 7.92188202 -2.22689514 7.06114075 -2.22705078 6.17431641 C-2.231492 5.41486725 -2.23593323 4.65541809 -2.24050903 3.87295532 C-2 2 -2 2 0 0 Z " fill="#E2A25E" transform="translate(155,301)"/>
<path d="M0 0 C1.87476019 3.74952038 2.27486272 5.21273132 2.4140625 9.203125 C2.47207031 10.67265625 2.47207031 10.67265625 2.53125 12.171875 C2.5621875 13.18765625 2.593125 14.2034375 2.625 15.25 C2.66367188 16.28125 2.70234375 17.3125 2.7421875 18.375 C2.83631674 20.9164894 2.92194979 23.45797433 3 26 C3.68707031 25.566875 4.37414062 25.13375 5.08203125 24.6875 C5.98308594 24.130625 6.88414062 23.57375 7.8125 23 C8.70582031 22.443125 9.59914063 21.88625 10.51953125 21.3125 C13 20 13 20 16 20 C15.00269864 22.4932534 14.34925469 23.77467439 12.0625 25.25 C10 26 10 26 7 26 C7 26.66 7 27.32 7 28 C4.69 28.33 2.38 28.66 0 29 C0 19.43 0 9.86 0 0 Z " fill="#E1964A" transform="translate(247,167)"/>
<path d="M0 0 C3.96471091 2.37733605 7.21861437 5.05701097 9.640625 9.05859375 C9.310625 10.04859375 8.980625 11.03859375 8.640625 12.05859375 C8.310625 11.39859375 7.980625 10.73859375 7.640625 10.05859375 C5.97562057 9.71705438 4.30883823 9.38409877 2.640625 9.05859375 C1.980625 8.39859375 1.320625 7.73859375 0.640625 7.05859375 C0.640625 5.73859375 0.640625 4.41859375 0.640625 3.05859375 C-2.56416914 2.10846655 -5.46007333 1.92433771 -8.796875 1.93359375 C-9.72371094 1.93101562 -10.65054687 1.9284375 -11.60546875 1.92578125 C-14.28803481 2.05515323 -16.74506218 2.46076541 -19.359375 3.05859375 C-14.57066374 -2.18618525 -6.44810558 -2.57283683 0 0 Z " fill="#EB9437" transform="translate(344.359375,155.94140625)"/>
<path d="M0 0 C2 1 2 1 3.375 4.4375 C4.60617099 7.96831866 4.60617099 7.96831866 6.80810547 9.19897461 C9.21487049 10.07852418 11.1376237 10.29921869 13.6953125 10.37890625 C14.57574219 10.41306641 15.45617187 10.44722656 16.36328125 10.48242188 C17.73033203 10.52206055 17.73033203 10.52206055 19.125 10.5625 C20.94023947 10.62232907 22.75535929 10.68594545 24.5703125 10.75390625 C25.37227051 10.77783447 26.17422852 10.8017627 27.00048828 10.82641602 C29 11 29 11 31 12 C31 12.66 31 13.32 31 14 C27.79184155 14.08774066 24.58399538 14.14063706 21.375 14.1875 C20.47136719 14.21263672 19.56773437 14.23777344 18.63671875 14.26367188 C13.30624156 14.32203476 9.60166963 14.01016887 5 11 C1.52177888 7.52177888 0.45374289 4.87773605 0 0 Z " fill="#EBA65A" transform="translate(201,98)"/>
<path d="M0 0 C0.66 0.66 1.32 1.32 2 2 C2.99 2 3.98 2 5 2 C4.84330144 9.05143532 1.44987635 14.62711436 -3 20 C-3.99 20 -4.98 20 -6 20 C-6 19.34 -6 18.68 -6 18 C-5.34 18 -4.68 18 -4 18 C-3.19032562 15.08517222 -2.78154007 13.53886783 -3.9375 10.6875 C-4.288125 10.130625 -4.63875 9.57375 -5 9 C-3.68 8.34 -2.36 7.68 -1 7 C-1 6.67 -1 6.34 -1 6 C-0.67329097 3.99890722 -0.34022786 1.99883869 0 0 Z " fill="#EE9236" transform="translate(297,375)"/>
<path d="M0 0 C3.625 -0.1875 3.625 -0.1875 7 0 C7 0.33 7 0.66 7 1 C5.02 1 3.04 1 1 1 C1 1.99 1 2.98 1 4 C1.66 3.67 2.32 3.34 3 3 C4.70702735 2.93003986 6.41668003 2.91559846 8.125 2.9375 C9.03507813 2.94652344 9.94515625 2.95554688 10.8828125 2.96484375 C11.58148438 2.97644531 12.28015625 2.98804688 13 3 C10.68055212 6.47917182 8.73630036 7.29429766 5 9 C5.515625 9.598125 6.03125 10.19625 6.5625 10.8125 C7.036875 11.534375 7.51125 12.25625 8 13 C7.67 13.99 7.34 14.98 7 16 C5.68227638 14.40012144 4.37098863 12.79494034 3.0625 11.1875 C2.33160156 10.29417969 1.60070312 9.40085938 0.84765625 8.48046875 C-1 6 -1 6 -2 3 C-1.34 2.01 -0.68 1.02 0 0 Z " fill="#F1973E" transform="translate(146,233)"/>
<path d="M0 0 C0.66 0.33 1.32 0.66 2 1 C2 2.32 2 3.64 2 5 C1.34 5 0.68 5 0 5 C0 5.99 0 6.98 0 8 C-1.98 8 -3.96 8 -6 8 C-6 25.16 -6 42.32 -6 60 C-6.33 60 -6.66 60 -7 60 C-7 42.18 -7 24.36 -7 6 C-5.02 6 -3.04 6 -1 6 C-1.020625 5.195625 -1.04125 4.39125 -1.0625 3.5625 C-1 1 -1 1 0 0 Z " fill="#ED8212" transform="translate(222,182)"/>
<path d="M0 0 C3.45557759 6.91115518 3.1826235 13.6719237 3.1875 21.25 C3.19974609 22.23613281 3.21199219 23.22226563 3.22460938 24.23828125 C3.23743109 30.72606715 2.53106328 36.69531564 1 43 C0.67 43 0.34 43 0 43 C0 28.81 0 14.62 0 0 Z " fill="#EBA55E" transform="translate(306,140)"/>
<path d="M0 0 C2.0625 0.4375 2.0625 0.4375 4 1 C3.67 1.99 3.34 2.98 3 4 C2.01 4 1.02 4 0 4 C-1.22485812 6.44971624 -1.16722808 8.14234461 -1.1875 10.875 C-1.20167969 11.73867187 -1.21585937 12.60234375 -1.23046875 13.4921875 C-0.98859252 16.1241288 -0.32983541 17.73980544 1 20 C1.99 20 2.98 20 4 20 C3.67 21.98 3.34 23.96 3 26 C-0.75492603 23.33202624 -2.91585412 21.53370094 -4 17 C-4.57142274 10.90822544 -4.39616551 6.29801819 -1 1 C-0.67 0.67 -0.34 0.34 0 0 Z " fill="#E89D4F" transform="translate(321,162)"/>
<path d="M0 0 C-1.11858398 -0.01571045 -1.11858398 -0.01571045 -2.25976562 -0.03173828 C-5.67314213 -0.07358445 -9.08646442 -0.09941676 -12.5 -0.125 C-13.67304688 -0.14175781 -14.84609375 -0.15851563 -16.0546875 -0.17578125 C-23.40195985 -0.23564449 -23.40195985 -0.23564449 -30.59375 1.0703125 C-33.93557047 1.98241488 -34.87398102 1.97624035 -38 1 C-26.56844871 -3.5939879 -11.18199731 -7.45466487 0 0 Z " fill="#ECB374" transform="translate(218,136)"/>
<path d="M0 0 C36.59970716 -0.67228173 36.59970716 -0.67228173 53 5 C48.91556885 6.53166168 45.20544343 5.63081652 41 5 C41 4.34 41 3.68 41 3 C39.95199219 3.01740234 39.95199219 3.01740234 38.8828125 3.03515625 C37.51769531 3.04869141 37.51769531 3.04869141 36.125 3.0625 C34.76761719 3.07990234 34.76761719 3.07990234 33.3828125 3.09765625 C31 3 31 3 29 2 C26.82325217 1.84530633 24.6421652 1.74997894 22.4609375 1.68359375 C21.15898437 1.64169922 19.85703125 1.59980469 18.515625 1.55664062 C17.13541955 1.51682701 15.75521117 1.47711478 14.375 1.4375 C12.98696585 1.39430593 11.59894472 1.35069135 10.2109375 1.30664062 C6.80739744 1.20028 3.40378222 1.09825286 0 1 C0 0.67 0 0.34 0 0 Z " fill="#EB9B4F" transform="translate(201,76)"/>
<path d="M0 0 C0.99 0 1.98 0 3 0 C3.66 2.64 4.32 5.28 5 8 C5.33 8 5.66 8 6 8 C6 16.58 6 25.16 6 34 C5.34 34 4.68 34 4 34 C3.98541748 33.39639648 3.97083496 32.79279297 3.95581055 32.17089844 C3.59718536 15.84687307 3.59718536 15.84687307 0 0 Z " fill="#E99F54" transform="translate(269,140)"/>
<path d="M0 0 C0.33 0 0.66 0 1 0 C1 6.93 1 13.86 1 21 C7.93 21.33 14.86 21.66 22 22 C22 22.33 22 22.66 22 23 C14.41 23 6.82 23 -1 23 C-1.020625 19.761875 -1.04125 16.52375 -1.0625 13.1875 C-1.071604 12.17067139 -1.08070801 11.15384277 -1.09008789 10.10620117 C-1.09258545 9.30158447 -1.09508301 8.49696777 -1.09765625 7.66796875 C-1.10289307 6.84578857 -1.10812988 6.0236084 -1.11352539 5.17651367 C-1 3 -1 3 0 0 Z " fill="#E59444" transform="translate(154,402)"/>
<path d="M0 0 C6.14040005 -0.22742222 12.09858129 0.13639409 18 2 C18.33 2.66 18.66 3.32 19 4 C19.99 3.34 20.98 2.68 22 2 C22.93423645 5.01031744 23.04449911 5.86650268 22 9 C22.66 9 23.32 9 24 9 C23.67 9.66 23.34 10.32 23 11 C22.26136719 10.52949219 21.52273437 10.05898437 20.76171875 9.57421875 C13.98683807 5.41631866 7.7906631 2.61027485 0 1 C0 0.67 0 0.34 0 0 Z " fill="#ED9C46" transform="translate(233,112)"/>
<path d="M0 0 C1.98 0 3.96 0 6 0 C6 0.66 6 1.32 6 2 C2.33893635 3.8798723 -1.32724183 5.74931187 -4.99853516 7.60913086 C-6.24739194 8.2436333 -7.49479935 8.88099674 -8.74072266 9.52124023 C-10.52906263 10.4395962 -12.32305146 11.34692588 -14.1171875 12.25390625 C-15.73536377 13.07870483 -15.73536377 13.07870483 -17.38623047 13.92016602 C-18.24877441 14.27651123 -19.11131836 14.63285645 -20 15 C-20.66 14.67 -21.32 14.34 -22 14 C-20.60717526 11.21435052 -19.08333957 11.1510515 -16.1875 10.125 C-12.18372307 8.60299685 -9.93375319 7.14330699 -7 4 C-5.01200182 3.29835358 -3.01301483 2.62627128 -1 2 C-0.67 1.34 -0.34 0.68 0 0 Z " fill="#F1BB7B" transform="translate(245,233)"/>
<path d="M0 0 C1.32 1.32 2.64 2.64 4 4 C-2.52031122 9.75321578 -8.35469799 10.31900759 -16.78515625 10.203125 C-20.7734939 9.95112797 -24.19526101 9.19364361 -28 8 C-28 7.67 -28 7.34 -28 7 C-26.18757948 6.97312721 -24.37504767 6.95366285 -22.5625 6.9375 C-21.55316406 6.92589844 -20.54382813 6.91429687 -19.50390625 6.90234375 C-17 7 -17 7 -16 8 C-14.65252916 8.23075082 -13.29622435 8.41153063 -11.9375 8.5625 C-10.638125 8.706875 -9.33875 8.85125 -8 9 C-8 8.34 -8 7.68 -8 7 C-5.36 6.67 -2.72 6.34 0 6 C-0.185625 5.38125 -0.37125 4.7625 -0.5625 4.125 C-1 2 -1 2 0 0 Z " fill="#B28649" transform="translate(248,366)"/>
<path d="M0 0 C-0.33 0.99 -0.66 1.98 -1 3 C-0.01 3.33 0.98 3.66 2 4 C-1.62326739 5.2077558 -2.64146369 4.54311128 -6 3 C-6.33 3.66 -6.66 4.32 -7 5 C-9.31470912 5.72870472 -11.6505947 6.39239518 -14 7 C-14.99 7.33 -15.98 7.66 -17 8 C-18.99961564 8.03920815 -21.00049364 8.04443347 -23 8 C-19.69447238 5.79631492 -16.28759868 4.35276665 -12.625 2.875 C-11.965 2.59785156 -11.305 2.32070313 -10.625 2.03515625 C-6.95466116 0.55093556 -3.96826118 -0.35239385 0 0 Z " fill="#EB8E2F" transform="translate(184,291)"/>
<path d="M0 0 C2.81097334 2.81097334 3.18370413 5.35751768 3.3125 9.1875 C3.24140075 15.42392027 0.86902895 19.92330116 -3.25 24.5 C-3.8275 24.995 -4.405 25.49 -5 26 C-5.66 25.67 -6.32 25.34 -7 25 C-6.67 24.01 -6.34 23.02 -6 22 C-6.66 21.67 -7.32 21.34 -8 21 C-5.69 20.01 -3.38 19.02 -1 18 C-0.8309093 15.93769732 -0.66482867 13.8751477 -0.5 11.8125 C-0.4071875 10.66394531 -0.314375 9.51539062 -0.21875 8.33203125 C-0.0354038 5.53927574 0.04213637 2.79680188 0 0 Z " fill="#EEAA63" transform="translate(189,84)"/>
<path d="M0 0 C0 3 0 3 -1.65234375 4.8671875 C-6.78375215 9.37580958 -11.86542389 12.98347085 -18 16 C-18.33 15.01 -18.66 14.02 -19 13 C-16.75 10.5 -16.75 10.5 -14 8 C-12.68 8 -11.36 8 -10 8 C-10 7.34 -10 6.68 -10 6 C-8.63875 5.62875 -8.63875 5.62875 -7.25 5.25 C-3.89648511 3.96018658 -2.32291764 2.68028958 0 0 Z " fill="#EFB16E" transform="translate(288,400)"/>
<path d="M0 0 C-3.70103827 1.23367942 -6.17533441 0.5463808 -10 0 C-10.99 0.33 -11.98 0.66 -13 1 C-15.6875 0.5625 -15.6875 0.5625 -18 0 C-18.20625 0.5775 -18.4125 1.155 -18.625 1.75 C-20.49750888 4.81410544 -22.96958519 6.15539968 -26 8 C-26 5 -26 5 -24.6796875 3.46484375 C-17.01414189 -3.02266346 -9.15804391 -5.05557175 0 0 Z " fill="#EC9847" transform="translate(183,77)"/>
<path d="M0 0 C1.65 0 3.3 0 5 0 C0.96548643 4.63792599 -5.1217985 6.65832471 -10.5625 9.25 C-12.30563477 10.10078125 -12.30563477 10.10078125 -14.08398438 10.96875 C-15.19193359 11.49984375 -16.29988281 12.0309375 -17.44140625 12.578125 C-18.45920166 13.06700195 -19.47699707 13.55587891 -20.52563477 14.05957031 C-21.34217529 14.36991211 -22.15871582 14.68025391 -23 15 C-23.66 14.67 -24.32 14.34 -25 14 C-20.25 11 -20.25 11 -18 11 C-18 10.01 -18 9.02 -18 8 C-16.02 8 -14.04 8 -12 8 C-12 7.34 -12 6.68 -12 6 C-9.36 5.34 -6.72 4.68 -4 4 C-4 3.34 -4 2.68 -4 2 C-2.68 2 -1.36 2 0 2 C0 1.34 0 0.68 0 0 Z " fill="#E59741" transform="translate(260,293)"/>
<path d="M0 0 C1.32 0 2.64 0 4 0 C7.71598398 11.14795195 6.09984682 24.39165482 6 36 C5.67 36 5.34 36 5 36 C4.66218885 31.81284871 4.3305515 27.62523015 4 23.4375 C3.90460938 22.25607422 3.80921875 21.07464844 3.7109375 19.85742188 C3.26898095 14.22247585 2.8671874 8.65283608 3 3 C1.68 3 0.36 3 -1 3 C-0.67 2.01 -0.34 1.02 0 0 Z " fill="#F0B072" transform="translate(304,224)"/>
<path d="M0 0 C0.33 0.66 0.66 1.32 1 2 C2.65 2 4.3 2 6 2 C2.50282194 4.90836747 -1.39525132 6.74398896 -5.5 8.625 C-6.16386719 8.93695313 -6.82773437 9.24890625 -7.51171875 9.5703125 C-10.62654286 11.0127061 -13.61434746 12.36087171 -17 13 C-16.67 12.01 -16.34 11.02 -16 10 C-12.535 9.505 -12.535 9.505 -9 9 C-9.33 8.01 -9.66 7.02 -10 6 C-6.38026598 4.68373308 -3.90432869 4 0 4 C0 2.68 0 1.36 0 0 Z " fill="#ECA861" transform="translate(284,280)"/>
<path d="M0 0 C7.20552118 1.84756953 13.78635494 5.81998724 18 12 C15.03 11.505 15.03 11.505 12 11 C11.67 10.01 11.34 9.02 11 8 C10.34 8 9.68 8 9 8 C9 7.34 9 6.68 9 6 C6.03 5.505 6.03 5.505 3 5 C3 4.34 3 3.68 3 3 C2.01 2.67 1.02 2.34 0 2 C0 1.34 0 0.68 0 0 Z " fill="#EDA95E" transform="translate(218,136)"/>
<path d="M0 0 C0.33 0.66 0.66 1.32 1 2 C0.34 2 -0.32 2 -1 2 C-1 2.66 -1 3.32 -1 4 C-0.34 4 0.32 4 1 4 C0.34 5.32 -0.32 6.64 -1 8 C-2.3921875 7.7215625 -2.3921875 7.7215625 -3.8125 7.4375 C-7.01343771 6.75876119 -7.01343771 6.75876119 -10 8 C-11.32 7.34 -12.64 6.68 -14 6 C-9.38 4.02 -4.76 2.04 0 0 Z " fill="#EE943B" transform="translate(206,279)"/>
<path d="M0 0 C2.95970455 0.28102245 5.917288 0.5742918 8.875 0.875 C10.13763672 0.99294922 10.13763672 0.99294922 11.42578125 1.11328125 C12.23144531 1.19707031 13.03710938 1.28085938 13.8671875 1.3671875 C14.61081543 1.44050293 15.35444336 1.51381836 16.12060547 1.58935547 C18 2 18 2 20 4 C16.07699647 5.96150176 11.28605156 5.35012816 7 5 C1.44680851 2.89361702 1.44680851 2.89361702 0 0 Z " fill="#EEA655" transform="translate(324,188)"/>
<path d="M0 0 C5.27429914 4.82221635 10.30745839 10.61288947 11 18 C10.34 17.67 9.68 17.34 9 17 C9 16.34 9 15.68 9 15 C8.01 14.67 7.02 14.34 6 14 C6 12.35 6 10.7 6 9 C5.01 9 4.02 9 3 9 C0.50022457 5.66696609 0 4.26696398 0 0 Z " fill="#EAA255" transform="translate(236,148)"/>
<path d="M0 0 C1.65 0 3.3 0 5 0 C5 0.66 5 1.32 5 2 C7.64 1.67 10.28 1.34 13 1 C13.66 1.99 14.32 2.98 15 4 C12.04438128 5.52307559 10.60456985 6.15356957 7.32421875 5.3203125 C6.45410156 4.92585938 5.58398438 4.53140625 4.6875 4.125 C3.80449219 3.73570312 2.92148438 3.34640625 2.01171875 2.9453125 C1.34785156 2.63335937 0.68398437 2.32140625 0 2 C0 1.34 0 0.68 0 0 Z " fill="#B27422" transform="translate(208,367)"/>
<path d="M0 0 C1.98 0 3.96 0 6 0 C5.979375 1.093125 5.95875 2.18625 5.9375 3.3125 C5.81455548 6.94384191 5.81455548 6.94384191 7 10 C5.68 10 4.36 10 3 10 C2.67 7.69 2.34 5.38 2 3 C1.34 3 0.68 3 0 3 C0 2.01 0 1.02 0 0 Z " fill="#F98A22" transform="translate(176,98)"/>
<path d="M0 0 C1.65 0 3.3 0 5 0 C1.41788555 3.00048246 -2.53012116 4.77698774 -6.75 6.6875 C-7.44738281 7.00783203 -8.14476562 7.32816406 -8.86328125 7.65820312 C-10.57357208 8.44306261 -12.28652507 9.22211648 -14 10 C-14 9.01 -14 8.02 -14 7 C-12.68 6.67 -11.36 6.34 -10 6 C-10 5.34 -10 4.68 -10 4 C-8.68 4 -7.36 4 -6 4 C-6 3.34 -6 2.68 -6 2 C-4.02 2 -2.04 2 0 2 C0 1.34 0 0.68 0 0 Z " fill="#EBAE62" transform="translate(214,315)"/>
<path d="M0 0 C2.31 0.33 4.62 0.66 7 1 C6.34 1.66 5.68 2.32 5 3 C3.68 3 2.36 3 1 3 C0.34 4.32 -0.32 5.64 -1 7 C-3.31 6.67 -5.62 6.34 -8 6 C-8.33 4.35 -8.66 2.7 -9 1 C-8.01 1.33 -7.02 1.66 -6 2 C-6 2.99 -6 3.98 -6 5 C-4.35 5 -2.7 5 -1 5 C-0.67 3.35 -0.34 1.7 0 0 Z " fill="#E98A2F" transform="translate(223,242)"/>
<path d="M0 0 C0.66 0 1.32 0 2 0 C2 7.26 2 14.52 2 22 C1.34 21.67 0.68 21.34 0 21 C-0.19592461 17.68794116 -0.38032746 14.37534146 -0.5625 11.0625 C-0.61857422 10.11697266 -0.67464844 9.17144531 -0.73242188 8.19726562 C-0.78076172 7.29814453 -0.82910156 6.39902344 -0.87890625 5.47265625 C-0.9260376 4.64000244 -0.97316895 3.80734863 -1.02172852 2.94946289 C-1 1 -1 1 0 0 Z " fill="#E7881E" transform="translate(201,77)"/>
<path d="M0 0 C0.33 0.99 0.66 1.98 1 3 C-1.4175002 7.27711574 -4.29789804 10.7725265 -8 14 C-8.99 14 -9.98 14 -11 14 C-10.67 13.34 -10.34 12.68 -10 12 C-10.66 12 -11.32 12 -12 12 C-11.67 11.34 -11.34 10.68 -11 10 C-9.35 10.33 -7.7 10.66 -6 11 C-6 10.01 -6 9.02 -6 8 C-5.34 8 -4.68 8 -4 8 C-4 6.68 -4 5.36 -4 4 C-3.34 4 -2.68 4 -2 4 C-2 3.01 -2 2.02 -2 1 C-1.34 0.67 -0.68 0.34 0 0 Z " fill="#EBA559" transform="translate(307,264)"/>
<path d="M0 0 C2.38978794 3.65496979 1.75098256 5.82378881 1 10 C0.86166625 11.94325195 0.75686009 13.88914619 0.68359375 15.8359375 C0.64169922 16.89941406 0.59980469 17.96289062 0.55664062 19.05859375 C0.51732422 20.15300781 0.47800781 21.24742187 0.4375 22.375 C0.39431641 23.49261719 0.35113281 24.61023438 0.30664062 25.76171875 C0.20102589 28.50770199 0.0989203 31.25376881 0 34 C-0.33 34 -0.66 34 -1 34 C-1.02476851 29.80078534 -1.04289246 25.60160971 -1.05493164 21.40234375 C-1.05995206 19.97460184 -1.06676972 18.54686504 -1.07543945 17.11914062 C-1.08760553 15.06378921 -1.09325128 13.00850593 -1.09765625 10.953125 C-1.10289307 9.71723633 -1.10812988 8.48134766 -1.11352539 7.20800781 C-1.02071737 4.5854329 -0.78356673 2.48355406 0 0 Z " fill="#E78C37" transform="translate(155,166)"/>
<path d="M0 0 C0 0.66 0 1.32 0 2 C-0.66 2 -1.32 2 -2 2 C-2 2.66 -2 3.32 -2 4 C-3.65 4 -5.3 4 -7 4 C-7 4.66 -7 5.32 -7 6 C-10.96 6 -14.92 6 -19 6 C-16.616756 3.616756 -15.45352292 3.54841764 -12.1875 3 C-8.13843253 2.26380591 -3.99598386 0 0 0 Z " fill="#E7A259" transform="translate(252,385)"/>
<path d="M0 0 C0.99 0 1.98 0 3 0 C2.4520917 4.2829452 0.97567196 6.85135641 -1.5625 10.3125 C-2.20316406 11.19550781 -2.84382813 12.07851562 -3.50390625 12.98828125 C-3.99761719 13.65214844 -4.49132812 14.31601563 -5 15 C-6 12 -6 12 -5.0625 9.8125 C-4.5365625 8.9153125 -4.5365625 8.9153125 -4 8 C-3.34 8 -2.68 8 -2 8 C-2.04125 7.236875 -2.0825 6.47375 -2.125 5.6875 C-2 3 -2 3 0 0 Z " fill="#EA9C45" transform="translate(300,191)"/>
<path d="M0 0 C1.94202011 0.97618418 3.83222572 1.99321758 5.69921875 3.10546875 C2.85511112 4.52752257 1.07118735 3.39008813 -1.859375 2.5859375 C-6.30285669 1.7114603 -10.79256316 1.95629977 -15.30078125 2.10546875 C-11.23502966 -1.96028284 -5.16163118 -2.00681416 0 0 Z " fill="#E89849" transform="translate(342.30078125,112.89453125)"/>
<path d="M0 0 C2.64680904 0.11339204 5.29177518 0.24012873 7.9375 0.375 C9.06961914 0.42140625 9.06961914 0.42140625 10.22460938 0.46875 C12.15507395 0.5726315 14.07942081 0.77895614 16 1 C16.33 1.66 16.66 2.32 17 3 C17.66 3.33 18.32 3.66 19 4 C16 6 16 6 12.875 5.75 C11.92625 5.5025 10.9775 5.255 10 5 C9.67 4.34 9.34 3.68 9 3 C6.88153715 2.31270746 6.88153715 2.31270746 4.4375 1.875 C3.61121094 1.70742188 2.78492188 1.53984375 1.93359375 1.3671875 C1.29550781 1.24601562 0.65742188 1.12484375 0 1 C0 0.67 0 0.34 0 0 Z " fill="#A96916" transform="translate(174,353)"/>
<path d="M0 0 C0 0.66 0 1.32 0 2 C-5.82246448 6.54436252 -11.81097232 7.94794717 -19 9 C-16.26183343 6.26183343 -12.97217359 4.97155085 -9.5 3.375 C-8.81035156 3.05015625 -8.12070313 2.7253125 -7.41015625 2.390625 C-2.25725446 0 -2.25725446 0 0 0 Z " fill="#EEAA64" transform="translate(235,266)"/>
<path d="M0 0 C0.99 0 1.98 0 3 0 C3.65234375 1.765625 3.65234375 1.765625 4 4 C3.00390625 5.921875 3.00390625 5.921875 1.5625 7.75 C1.08941406 8.36359375 0.61632812 8.9771875 0.12890625 9.609375 C-0.24363281 10.06828125 -0.61617187 10.5271875 -1 11 C-3 8 -3 8 -2.75 6.0625 C-1.97936717 3.94325972 -1.0643413 1.98677042 0 0 Z " fill="#F0933D" transform="translate(187,169)"/>
<path d="M0 0 C3.02788635 3.46044155 4.98556464 7.52249221 6 12 C5.578125 14.25 5.578125 14.25 5 16 C1.47726246 11.48649253 0.54267333 8.71658336 1 3 C0.01 3.33 -0.98 3.66 -2 4 C-1.34 2.68 -0.68 1.36 0 0 Z " fill="#EC9C56" transform="translate(300,124)"/>
<path d="M0 0 C4.82675589 2.41337795 7.69984002 5.86062408 11 10 C10.67 10.66 10.34 11.32 10 12 C6.83884224 10.63016497 6.0072908 10.0109362 4 7 C3.01 7 2.02 7 1 7 C0.67 4.69 0.34 2.38 0 0 Z " fill="#EDAE6D" transform="translate(280,97)"/>
<path d="M0 0 C-0.33 0.99 -0.66 1.98 -1 3 C-3.6299697 4.23555624 -6.15135883 5.27422595 -8.875 6.25 C-9.60847656 6.53101563 -10.34195312 6.81203125 -11.09765625 7.1015625 C-16.61030844 9.12989719 -16.61030844 9.12989719 -20 8 C-16.7 6.68 -13.4 5.36 -10 4 C-10 3.67 -10 3.34 -10 3 C-8.35 3 -6.7 3 -5 3 C-5 2.34 -5 1.68 -5 1 C-2 0 -2 0 0 0 Z " fill="#E39848" transform="translate(270,414)"/>
<path d="M0 0 C5.46737191 1.74807129 10.75824848 3.65794081 16 6 C12.74994301 7.08335233 11.72604262 6.9100037 8.5 6.125 C7.7265625 5.94195312 6.953125 5.75890625 6.15625 5.5703125 C4.41929061 5.11089933 2.70448806 4.56816269 1 4 C0.3125 1.9375 0.3125 1.9375 0 0 Z " fill="#C09761" transform="translate(222,334)"/>
<path d="M0 0 C0.33 0.99 0.66 1.98 1 3 C-1.99480917 3.8723412 -4.63575911 4.10829766 -7.75 4.0625 C-8.54921875 4.05347656 -9.3484375 4.04445313 -10.171875 4.03515625 C-10.77515625 4.02355469 -11.3784375 4.01195313 -12 4 C-11.67 3.01 -11.34 2.02 -11 1 C-7.26513121 0.4254048 -3.78706732 0 0 0 Z " fill="#F7891F" transform="translate(338,114)"/>
<path d="M0 0 C2.97 0.33 5.94 0.66 9 1 C9.33 1.99 9.66 2.98 10 4 C12.97 4.33 15.94 4.66 19 5 C19 5.99 19 6.98 19 8 C12.38757278 6.17778624 6.19479329 3.94776396 0 1 C0 0.67 0 0.34 0 0 Z " fill="#CFA97D" transform="translate(174,354)"/>
<path d="M0 0 C0.99 0.33 1.98 0.66 3 1 C0.19195732 3.96404505 -2.18315774 6.44499019 -6 8 C-6 8.66 -6 9.32 -6 10 C-6.99 10.33 -7.98 10.66 -9 11 C-7.67667408 6.00076875 -4.39231845 2.60213075 0 0 Z " fill="#EA9F51" transform="translate(164,391)"/>
<path d="M0 0 C1.45792884 -0.05399736 2.91642712 -0.09279177 4.375 -0.125 C5.18710938 -0.14820313 5.99921875 -0.17140625 6.8359375 -0.1953125 C9 0 9 0 11 2 C10.8125 4.5 10.8125 4.5 10 7 C9.01 7.66 8.02 8.32 7 9 C7.33 6.69 7.66 4.38 8 2 C5.36 1.67 2.72 1.34 0 1 C0 0.67 0 0.34 0 0 Z " fill="#E9AD6D" transform="translate(188,233)"/>
<path d="M0 0 C4.875 1.75 4.875 1.75 6 4 C7.97888961 4.72693904 9.97954558 5.39816251 12 6 C12 6.99 12 7.98 12 9 C7.59061785 8.49607061 5.21156184 7.0379639 2 4 C0.6875 1.75 0.6875 1.75 0 0 Z " fill="#E8A656" transform="translate(156,103)"/>
<path d="M0 0 C1.32 0.33 2.64 0.66 4 1 C1.66460191 2.55693206 -0.57968756 3.90200646 -3.0625 5.1875 C-3.75472656 5.55230469 -4.44695312 5.91710937 -5.16015625 6.29296875 C-5.76730469 6.52628906 -6.37445313 6.75960938 -7 7 C-7.66 6.67 -8.32 6.34 -9 6 C-9 5.01 -9 4.02 -9 3 C-4.545 2.505 -4.545 2.505 0 2 C0 1.34 0 0.68 0 0 Z " fill="#EDA85C" transform="translate(231,307)"/>
<path d="M0 0 C1.32 0.33 2.64 0.66 4 1 C4 1.66 4 2.32 4 3 C-1.47619048 8 -1.47619048 8 -4 8 C-4 7.01 -4 6.02 -4 5 C-4.66 4.67 -5.32 4.34 -6 4 C-4.02 3.34 -2.04 2.68 0 2 C0 1.34 0 0.68 0 0 Z " fill="#E89742" transform="translate(286,209)"/>
<path d="M0 0 C0.33 0 0.66 0 1 0 C1 1.65 1 3.3 1 5 C2.65 4.67 4.3 4.34 6 4 C5.34 4.66 4.68 5.32 4 6 C5.32 7.32 6.64 8.64 8 10 C6 11 6 11 3.4375 10.1875 C1 9 1 9 0 7 C-0.04022391 4.6670134 -0.04320247 2.33293334 0 0 Z " fill="#C6833C" transform="translate(154,338)"/>
<path d="M0 0 C0.66 0.33 1.32 0.66 2 1 C0.12050295 4.57104439 -1.17053157 6.54744301 -5 8 C-5 7.34 -5 6.68 -5 6 C-5.66 5.34 -6.32 4.68 -7 4 C-4.61426621 2.10786631 -2.92824652 0.97608217 0 0 Z " fill="#EE9D44" transform="translate(285,306)"/>
<path d="M0 0 C1.32 0.33 2.64 0.66 4 1 C0.59780735 3.74792483 -3.48464588 7 -8 7 C-7.67 5.68 -7.34 4.36 -7 3 C-6.34 3.33 -5.68 3.66 -5 4 C-4.67 3.34 -4.34 2.68 -4 2 C-2.68 2 -1.36 2 0 2 C0 1.34 0 0.68 0 0 Z " fill="#EEA75C" transform="translate(267,223)"/>
<path d="M0 0 C0.99386719 0.00902344 1.98773438 0.01804688 3.01171875 0.02734375 C4.15060547 0.04474609 4.15060547 0.04474609 5.3125 0.0625 C2.32038115 2.0572459 1.34784012 2.35147443 -2.0625 2.625 C-5.33110612 2.92360023 -8.47992599 3.33820909 -11.6875 4.0625 C-8.13167064 0.16802023 -5.13031675 -0.06035667 0 0 Z " fill="#E5994D" transform="translate(336.6875,154.9375)"/>
<path d="M0 0 C0.6875 1.8125 0.6875 1.8125 1 4 C-0.4375 5.75 -0.4375 5.75 -2 7 C-1.34 7.33 -0.68 7.66 0 8 C-0.66 8.66 -1.32 9.32 -2 10 C-3.65 7.69 -5.3 5.38 -7 3 C-6.34 2.67 -5.68 2.34 -5 2 C-5 2.66 -5 3.32 -5 4 C-3.01508358 3.73323796 -3.01508358 3.73323796 -1 3 C-0.67 2.01 -0.34 1.02 0 0 Z " fill="#ECA155" transform="translate(215,166)"/>
<path d="M0 0 C4.98012761 1.50912958 8.24259942 4.55661849 12 8 C11.01 8.495 11.01 8.495 10 9 C9.01 8.67 8.02 8.34 7 8 C6.67 7.34 6.34 6.68 6 6 C5.01 5.67 4.02 5.34 3 5 C3 4.34 3 3.68 3 3 C2.01 3 1.02 3 0 3 C0 2.01 0 1.02 0 0 Z " fill="#EEAD6F" transform="translate(268,88)"/>
<path d="M0 0 C5.11918146 -0.1765235 9.24983365 -0.2012966 14 2 C14.33 2.99 14.66 3.98 15 5 C14.33613281 4.79503906 13.67226562 4.59007813 12.98828125 4.37890625 C12.10527344 4.10949219 11.22226563 3.84007813 10.3125 3.5625 C9.44238281 3.29566406 8.57226562 3.02882813 7.67578125 2.75390625 C5.12974079 2.03655471 2.5996577 1.482459 0 1 C0 0.67 0 0.34 0 0 Z " fill="#ECB272" transform="translate(233,112)"/>
<path d="M0 0 C0.66 0.33 1.32 0.66 2 1 C1.88557539 2.60495567 1.75805306 4.20898119 1.625 5.8125 C1.55539062 6.70582031 1.48578125 7.59914063 1.4140625 8.51953125 C1 11 1 11 -1 14 C-1.027193 12.41676312 -1.04648306 10.83338938 -1.0625 9.25 C-1.07410156 8.36828125 -1.08570313 7.4865625 -1.09765625 6.578125 C-1.00826198 4.2181162 -0.66912821 2.25501476 0 0 Z " fill="#EB974A" transform="translate(306,358)"/>
<path d="M0 0 C-4.455 2.97 -4.455 2.97 -9 6 C-9.66 5.67 -10.32 5.34 -11 5 C-9.68 3.68 -8.36 2.36 -7 1 C-7.66 0.67 -8.32 0.34 -9 0 C-5.32431536 -0.91892116 -3.83619425 -0.95904856 0 0 Z " fill="#F0A556" transform="translate(282,218)"/>
<path d="M0 0 C0.66 0.33 1.32 0.66 2 1 C2 2.32 2 3.64 2 5 C1.34 5 0.68 5 0 5 C0 5.99 0 6.98 0 8 C-1.98 8 -3.96 8 -6 8 C-6.33 7.34 -6.66 6.68 -7 6 C-5.02 6 -3.04 6 -1 6 C-1.020625 5.195625 -1.04125 4.39125 -1.0625 3.5625 C-1 1 -1 1 0 0 Z " fill="#F2861D" transform="translate(222,182)"/>
<path d="M0 0 C1.65 0.33 3.3 0.66 5 1 C5.33 2.32 5.66 3.64 6 5 C5.4225 4.773125 4.845 4.54625 4.25 4.3125 C1.87827523 3.73494807 1.87827523 3.73494807 -0.25 5.4375 C-1.11625 6.2109375 -1.11625 6.2109375 -2 7 C-2 5.68 -2 4.36 -2 3 C-1.34 3 -0.68 3 0 3 C0 2.01 0 1.02 0 0 Z " fill="#EBA454" transform="translate(198,158)"/>
<path d="M0 0 C1.65 0 3.3 0 5 0 C5.12375 0.804375 5.2475 1.60875 5.375 2.4375 C5.684375 3.7059375 5.684375 3.7059375 6 5 C6.66 5.33 7.32 5.66 8 6 C7.34 6.66 6.68 7.32 6 8 C4.02 5.36 2.04 2.72 0 0 Z " fill="#EEAB61" transform="translate(214,177)"/>
<path d="M0 0 C0.99 0.33 1.98 0.66 3 1 C2.02433888 2.16959987 1.044375 3.33561177 0.0625 4.5 C-0.48277344 5.1496875 -1.02804687 5.799375 -1.58984375 6.46875 C-2.05519531 6.9740625 -2.52054687 7.479375 -3 8 C-3.33 8 -3.66 8 -4 8 C-4.25 5.6875 -4.25 5.6875 -4 3 C-2.1875 1.125 -2.1875 1.125 0 0 Z " fill="#E99B51" transform="translate(351,139)"/>
<path d="M0 0 C-1.50223584 4.20626034 -4.28550034 5.73900021 -8 8 C-8 5 -8 5 -5.6875 2.3125 C-3 0 -3 0 0 0 Z " fill="#E5923D" transform="translate(165,77)"/>
<path d="M0 0 C0.66 0 1.32 0 2 0 C1.74337755 1.44010481 1.46909179 2.8770687 1.1875 4.3125 C1.03667969 5.11300781 0.88585937 5.91351563 0.73046875 6.73828125 C-0.07572236 9.23445587 -1.02052002 10.32422106 -3 12 C-2.67 9.69 -2.34 7.38 -2 5 C-1.34 5 -0.68 5 0 5 C0 3.35 0 1.7 0 0 Z " fill="#B48A3E" transform="translate(255,357)"/>
<path d="M0 0 C-4.74963401 3.68096635 -8.00708997 4.58669586 -14 5 C-9.94779194 1.59614523 -5.27662976 -1.75887659 0 0 Z " fill="#F0BD83" transform="translate(306,299)"/>
<path d="M0 0 C-0.375 1.9375 -0.375 1.9375 -1 4 C-3.95664519 5.4783226 -6.74229737 5.06032783 -10 5 C-3.63636364 0 -3.63636364 0 0 0 Z " fill="#E69E55" transform="translate(264,252)"/>
<path d="M0 0 C0.66 1.32 1.32 2.64 2 4 C0.35 5.98 -1.3 7.96 -3 10 C-3.99928333 7.301935 -4.03624754 6.11989571 -3.1875 3.3125 C-2 1 -2 1 0 0 Z " fill="#EE974A" transform="translate(187,247)"/>
<path d="M0 0 C1.65 0 3.3 0 5 0 C5 0.66 5 1.32 5 2 C3.38007835 2.86375896 1.75388139 3.71575854 0.125 4.5625 C-1.23238281 5.27599609 -1.23238281 5.27599609 -2.6171875 6.00390625 C-3.40351563 6.33261719 -4.18984375 6.66132813 -5 7 C-5.66 6.67 -6.32 6.34 -7 6 C-2.25 3 -2.25 3 0 3 C0 2.01 0 1.02 0 0 Z " fill="#EAAE61" transform="translate(242,301)"/>
<path d="M0 0 C0.66 0.33 1.32 0.66 2 1 C1.67 2.98 1.34 4.96 1 7 C-1.49361571 5.79618552 -3.68143083 4.54571278 -6 3 C-4.03533587 1.93224776 -2.03144641 0.93446535 0 0 Z " fill="#EC9847" transform="translate(252,257)"/>
<path d="M0 0 C0.66 0.33 1.32 0.66 2 1 C1.67 1.66 1.34 2.32 1 3 C0.34 3 -0.32 3 -1 3 C-0.67 4.32 -0.34 5.64 0 7 C-1.32 6.67 -2.64 6.34 -4 6 C-4 6.99 -4 7.98 -4 9 C-4.66 9 -5.32 9 -6 9 C-4.68775452 5.06326356 -3.08089673 2.77280706 0 0 Z " fill="#EA9E54" transform="translate(325,115)"/>
<path d="M0 0 C1.65 0 3.3 0 5 0 C5 0.66 5 1.32 5 2 C6.32 2.33 7.64 2.66 9 3 C9 3.66 9 4.32 9 5 C6.03 4.01 3.06 3.02 0 2 C0 1.34 0 0.68 0 0 Z " fill="#BF955F" transform="translate(208,367)"/>
<path d="M0 0 C0.66 0.33 1.32 0.66 2 1 C-0.05233685 3.2477975 -1.00667261 4.0022242 -4 5 C-5.99961564 5.03920815 -8.00049364 5.04443347 -10 5 C-6.76527494 2.84351662 -3.62848922 1.38542316 0 0 Z " fill="#EBAD6A" transform="translate(171,294)"/>
<path d="M0 0 C1.24546405 2.49092811 0.7767578 3.41080733 0 6 C-2.64 6 -5.28 6 -8 6 C-5.38485683 3.87961365 -2.80362384 1.86908256 0 0 Z " fill="#E79344" transform="translate(288,238)"/>
<path d="M0 0 C0.66 0.33 1.32 0.66 2 1 C0.25 4.875 0.25 4.875 -2 6 C-3.99960012 6.039992 -6.00047242 6.04346799 -8 6 C-5.33333333 4 -2.66666667 2 0 0 Z " fill="#EFAB69" transform="translate(261,186)"/>
<path d="M0 0 C3.44216672 2.6598561 3.99504674 5.90288286 5 10 C4.34 9.67 3.68 9.34 3 9 C3 8.34 3 7.68 3 7 C2.01 6.67 1.02 6.34 0 6 C0 4.02 0 2.04 0 0 Z " fill="#EBB97A" transform="translate(242,156)"/>
<path d="M0 0 C0.66 0 1.32 0 2 0 C4 3 4 3 4 6 C3.01 5.67 2.02 5.34 1 5 C0.67 5.66 0.34 6.32 0 7 C-0.66 7 -1.32 7 -2 7 C-1.34 4.69 -0.68 2.38 0 0 Z " fill="#EC943F" transform="translate(348,117)"/>
<path d="M0 0 C4 1 4 1 5.8125 2.875 C6.204375 3.57625 6.59625 4.2775 7 5 C6.67 5.99 6.34 6.98 6 8 C4.02 5.36 2.04 2.72 0 0 Z " fill="#EEB577" transform="translate(147,241)"/>
<path d="M0 0 C2 2 2 2 2 5 C1.34 5 0.68 5 0 5 C-0.99 6.485 -0.99 6.485 -2 8 C-2.66 8 -3.32 8 -4 8 C-2.87548273 5.0280615 -1.77706209 2.66559313 0 0 Z " fill="#E89646" transform="translate(162,153)"/>
<path d="M0 0 C1.6274637 0.61855631 3.25190356 1.24507305 4.875 1.875 C5.77992188 2.22304688 6.68484375 2.57109375 7.6171875 2.9296875 C10 4 10 4 12 6 C7.27536912 5.53680089 3.82942948 4.90108294 0 2 C0 1.34 0 0.68 0 0 Z " fill="#AD7B39" transform="translate(199,324)"/>
<path d="M0 0 C0.99 0.33 1.98 0.66 3 1 C3 1.99 3 2.98 3 4 C4.65 4.33 6.3 4.66 8 5 C8 5.33 8 5.66 8 6 C5.69 5.67 3.38 5.34 1 5 C0.67 3.35 0.34 1.7 0 0 Z " fill="#E3AA6F" transform="translate(214,243)"/>
<path d="M0 0 C0.33 0.66 0.66 1.32 1 2 C1.66 2 2.32 2 3 2 C3 1.34 3 0.68 3 0 C3.66 0 4.32 0 5 0 C5 0.66 5 1.32 5 2 C5.66 2.33 6.32 2.66 7 3 C6.67 3.33 6.34 3.66 6 4 C3.30917128 3.82364548 0.67148554 3.38164079 -2 3 C-1.34 2.67 -0.68 2.34 0 2 C0 1.34 0 0.68 0 0 Z " fill="#F0891E" transform="translate(209,105)"/>
<path d="M0 0 C0 0.66 0 1.32 0 2 C-0.66 2 -1.32 2 -2 2 C-2 2.66 -2 3.32 -2 4 C-4.64 4 -7.28 4 -10 4 C-6.86268382 1.90845588 -3.85464592 0 0 0 Z " fill="#EFB575" transform="translate(252,385)"/>
<path d="M0 0 C0.33 0 0.66 0 1 0 C1.29296875 6.0546875 1.29296875 6.0546875 1 8 C0.01 8.66 -0.98 9.32 -2 10 C-1.125 2.25 -1.125 2.25 0 0 Z " fill="#F3881D" transform="translate(275,354)"/>
<path d="M0 0 C0.33 0.66 0.66 1.32 1 2 C0.0625 4.125 0.0625 4.125 -1 6 C-2.32 6 -3.64 6 -5 6 C-3.63016497 2.83884224 -3.0109362 2.0072908 0 0 Z " fill="#ECAA60" transform="translate(300,229)"/>
<path d="M0 0 C2.97 0.33 5.94 0.66 9 1 C9.33 1.99 9.66 2.98 10 4 C6.44219804 3.39009109 3.3171411 2.4216319 0 1 C0 0.67 0 0.34 0 0 Z " fill="#C19F5F" transform="translate(174,354)"/>
<path d="M0 0 C0.33 0.99 0.66 1.98 1 3 C3.01508358 3.73323796 3.01508358 3.73323796 5 4 C5 5.65 5 7.3 5 9 C0.125 4.375 0.125 4.375 -1 1 C-0.67 0.67 -0.34 0.34 0 0 Z " fill="#E9974A" transform="translate(160,254)"/>
<path d="M0 0 C0.99 0.33 1.98 0.66 3 1 C2.34 1 1.68 1 1 1 C0.67 2.32 0.34 3.64 0 5 C-1.98 5 -3.96 5 -6 5 C-4.06745228 2.9754262 -2.36841312 1.57894208 0 0 Z " fill="#EF881F" transform="translate(271,249)"/>
<path d="M0 0 C0 0.99 0 1.98 0 3 C-2.5 5.1875 -2.5 5.1875 -5 7 C-5.33 5.35 -5.66 3.7 -6 2 C-4.7934375 1.7834375 -4.7934375 1.7834375 -3.5625 1.5625 C-1.07896294 1.25864751 -1.07896294 1.25864751 0 0 Z " fill="#F0B371" transform="translate(194,242)"/>
<path d="M0 0 C0.66 0.33 1.32 0.66 2 1 C-0.475 4.465 -0.475 4.465 -3 8 C-4 5 -4 5 -3.1875 2.875 C-2 1 -2 1 0 0 Z " fill="#E8B56E" transform="translate(298,198)"/>
<path d="M0 0 C0.33 0 0.66 0 1 0 C1.6875 2.8125 1.6875 2.8125 2 6 C0.5625 7.875 0.5625 7.875 -1 9 C-1.625 6.1875 -1.625 6.1875 -2 3 C-1.34 2.01 -0.68 1.02 0 0 Z " fill="#F69C44" transform="translate(186,171)"/>
<path d="M0 0 C0.66 0 1.32 0 2 0 C5.11450382 4.15267176 5.11450382 4.15267176 4.6875 7.3125 C4.460625 7.869375 4.23375 8.42625 4 9 C0 3.375 0 3.375 0 0 Z " fill="#E9923F" transform="translate(301,131)"/>
<path d="M0 0 C-2.31 1.32 -4.62 2.64 -7 4 C-7.33 3.01 -7.66 2.02 -8 1 C-2.25 -1.125 -2.25 -1.125 0 0 Z " fill="#EEBC80" transform="translate(277,412)"/>
<path d="M0 0 C0.99 0 1.98 0 3 0 C2.3125 1.9375 2.3125 1.9375 1 4 C-1.625 4.75 -1.625 4.75 -4 5 C-2.1875 2.5 -2.1875 2.5 0 0 Z " fill="#E9A65C" transform="translate(263,375)"/>
<path d="M0 0 C0.66 0.33 1.32 0.66 2 1 C0.75023244 4.65316671 0.32901247 5.78065836 -3 8 C-2.67 6.35 -2.34 4.7 -2 3 C-1.34 3 -0.68 3 0 3 C0 2.01 0 1.02 0 0 Z " fill="#E48D30" transform="translate(293,202)"/>
<path d="M0 0 C0.66 0 1.32 0 2 0 C1.6875 2.875 1.6875 2.875 1 6 C0.01 6.66 -0.98 7.32 -2 8 C-2 6.68 -2 5.36 -2 4 C-1.34 4 -0.68 4 0 4 C0 2.68 0 1.36 0 0 Z " fill="#EAA04E" transform="translate(351,180)"/>
<path d="M0 0 C2.17766075 4.35532149 2.03039555 5.46625958 1 10 C0.34 9.67 -0.32 9.34 -1 9 C-0.67 6.03 -0.34 3.06 0 0 Z " fill="#F09A51" transform="translate(155,166)"/>
<path d="M0 0 C0.66 0 1.32 0 2 0 C1.67 1.32 1.34 2.64 1 4 C0.34 4 -0.32 4 -1 4 C-1 5.98 -1 7.96 -1 10 C-1.33 10 -1.66 10 -2 10 C-2.25 3.375 -2.25 3.375 0 0 Z " fill="#F48819" transform="translate(321,165)"/>
<path d="M0 0 C2.375 0.3125 2.375 0.3125 5 1 C5.66 1.99 6.32 2.98 7 4 C4.03 3.505 4.03 3.505 1 3 C0.67 2.01 0.34 1.02 0 0 Z " fill="#EA9A44" transform="translate(229,144)"/>
<path d="M0 0 C-2.25 2.0625 -2.25 2.0625 -5 4 C-7.3125 3.75 -7.3125 3.75 -9 3 C-9 2.34 -9 1.68 -9 1 C-5.92677456 0.08941469 -3.19902639 -0.08886184 0 0 Z " fill="#F0881C" transform="translate(189,137)"/>
<path d="M0 0 C1.0625 1.8125 1.0625 1.8125 2 4 C1.67 4.99 1.34 5.98 1 7 C-0.65 5.35 -2.3 3.7 -4 2 C-3.01 2 -2.02 2 -1 2 C-0.67 1.34 -0.34 0.68 0 0 Z " fill="#EFA455" transform="translate(262,122)"/>
<path d="" fill="#FFFFFF" transform="translate(0,0)"/>
<path d="" fill="#FFFFFF" transform="translate(0,0)"/>
<path d="" fill="#FFFFFF" transform="translate(0,0)"/>
<path d="" fill="#FFFFFF" transform="translate(0,0)"/>
<path d="" fill="#FFFFFF" transform="translate(0,0)"/>
<path d="" fill="#FFFFFF" transform="translate(0,0)"/>
<path d="" fill="#FFFFFF" transform="translate(0,0)"/>
<path d="" fill="#FFFFFF" transform="translate(0,0)"/>
<path d="" fill="#FF00FF" transform="translate(0,0)"/>
<path d="" fill="#FFFFFF" transform="translate(0,0)"/>
<path d="" fill="#FFFFFF" transform="translate(0,0)"/>
<path d="" fill="#FFFFFF" transform="translate(0,0)"/>
<path d="" fill="#FFFFFF" transform="translate(0,0)"/>
<path d="" fill="#FFFFFF" transform="translate(0,0)"/>
<path d="" fill="#FFFFFF" transform="translate(0,0)"/>
<path d="" fill="#FFFFFF" transform="translate(0,0)"/>
<path d="" fill="#FFFFFF" transform="translate(0,0)"/>
<path d="" fill="#FFFFFF" transform="translate(0,0)"/>
<path d="" fill="#FFFFFF" transform="translate(0,0)"/>
<path d="" fill="#FFFFFF" transform="translate(0,0)"/>
<path d="" fill="#FFFFFF" transform="translate(0,0)"/>
<path d="" fill="#FFFFFF" transform="translate(0,0)"/>
<path d="" fill="#FFFFFF" transform="translate(0,0)"/>
<path d="" fill="#FFFFFF" transform="translate(0,0)"/>
<path d="" fill="#FFFFFF" transform="translate(0,0)"/>
<path d="" fill="#FFFFFF" transform="translate(0,0)"/>
<path d="" fill="#FFFFFF" transform="translate(0,0)"/>
<path d="" fill="#FFFFFF" transform="translate(0,0)"/>
<path d="" fill="#FFFFFF" transform="translate(0,0)"/>
<path d="" fill="#FFFFFF" transform="translate(0,0)"/>
<path d="" fill="#FFFFFF" transform="translate(0,0)"/>
<path d="" fill="#FFFFFF" transform="translate(0,0)"/>
<path d="" fill="#FFFFFF" transform="translate(0,0)"/>
<path d="" fill="#FFFFFF" transform="translate(0,0)"/>
<path d="" fill="#FFFFFF" transform="translate(0,0)"/>
<path d="" fill="#FFFFFF" transform="translate(0,0)"/>
<path d="" fill="#FFFFFF" transform="translate(0,0)"/>
<path d="" fill="#FFFFFF" transform="translate(0,0)"/>
<path d="" fill="#FFFFFF" transform="translate(0,0)"/>
<path d="" fill="#FFFFFF" transform="translate(0,0)"/>
<path d="" fill="#FFFFFF" transform="translate(0,0)"/>
<path d="" fill="#FFFFFF" transform="translate(0,0)"/>
<path d="" fill="#FFFFFF" transform="translate(0,0)"/>
<path d="" fill="#FFFFFF" transform="translate(0,0)"/>
<path d="" fill="#FFFFFF" transform="translate(0,0)"/>
<path d="" fill="#FFFFFF" transform="translate(0,0)"/>
<path d="" fill="#FFFFFF" transform="translate(0,0)"/>
<path d="" fill="#FFFFFF" transform="translate(0,0)"/>
<path d="" fill="#FFFFFF" transform="translate(0,0)"/>
<path d="" fill="#FFFFFF" transform="translate(0,0)"/>
<path d="" fill="#FFFFFF" transform="translate(0,0)"/>
<path d="" fill="#FFFFFF" transform="translate(0,0)"/>
<path d="" fill="#FFFFFF" transform="translate(0,0)"/>
<path d="" fill="#FFFFFF" transform="translate(0,0)"/>
<path d="" fill="#FFFFFF" transform="translate(0,0)"/>
<path d="" fill="#FFFFFF" transform="translate(0,0)"/>
<path d="" fill="#FFFFFF" transform="translate(0,0)"/>
<path d="" fill="#FFFFFF" transform="translate(0,0)"/>
<path d="" fill="#FFFFFF" transform="translate(0,0)"/>
<path d="" fill="#FFFFFF" transform="translate(0,0)"/>
<path d="" fill="#FFFFFF" transform="translate(0,0)"/>
<path d="" fill="#FFFFFF" transform="translate(0,0)"/>
<path d="" fill="#FFFFFF" transform="translate(0,0)"/>
</svg>
