<?xml version="1.0" encoding="UTF-8"?>
<svg version="1.1" xmlns="http://www.w3.org/2000/svg" width="512" height="512">
<path d="M0 0 C1.25579317 -0.00668677 1.25579317 -0.00668677 2.53695589 -0.01350862 C3.4516288 -0.01332426 4.36630171 -0.01313989 5.30869198 -0.01294994 C6.28440102 -0.01662663 7.26011006 -0.02030332 8.26538604 -0.02409142 C11.54398172 -0.03512896 14.82254571 -0.03897225 18.10115719 -0.04278088 C20.44840248 -0.04904553 22.79564677 -0.05569233 25.14288998 -0.0626936 C32.86001043 -0.08373803 40.57713109 -0.09409705 48.29427242 -0.10406017 C50.9512594 -0.10810773 53.60824628 -0.11222465 56.26523304 -0.11641026 C67.31858553 -0.13342164 78.37193703 -0.14791423 89.4253006 -0.155159 C92.29251322 -0.15706878 95.15972584 -0.15898913 98.02693844 -0.16094494 C98.73953856 -0.16142868 99.45213869 -0.16191242 100.18633275 -0.16241082 C111.7214467 -0.17070525 123.25645676 -0.1960326 134.79152537 -0.22852562 C146.64440727 -0.26164058 158.49723645 -0.27961181 170.35016483 -0.28280324 C177.00102668 -0.28496438 183.65175438 -0.29410094 190.30257511 -0.31926441 C196.56279963 -0.34256702 202.82275209 -0.34676931 209.08300877 -0.33650303 C211.37629508 -0.33600808 213.66959489 -0.34231632 215.96284008 -0.35605907 C231.95849163 -0.44652532 244.43629182 0.14049734 256.47395992 11.75922108 C263.38289784 19.20226642 265.94536404 27.69066879 265.92458725 37.65473747 C265.92693948 38.41920219 265.92929171 39.18366692 265.93171522 39.97129723 C265.93840301 42.54784123 265.93794706 45.12433477 265.93753719 47.70088673 C265.94083596 49.56090987 265.94456155 51.42093231 265.94867867 53.28095382 C265.95870541 58.40419211 265.96241655 63.52741869 265.96506798 68.6506654 C265.96896904 74.17165286 265.97854753 79.69263103 265.98728085 85.21361256 C266.007051 98.55286227 266.01711223 111.89211275 266.02600864 125.23137346 C266.03039069 131.51147394 266.03575772 137.79157358 266.04099751 144.07167339 C266.05801044 164.94553313 266.07252974 185.81939272 266.07974625 206.69325829 C266.080221 208.04321043 266.08069689 209.39316257 266.08117391 210.74311471 C266.08141028 211.41256588 266.08164666 212.08201705 266.0818902 212.77175462 C266.08309139 216.16349149 266.08430684 219.55522835 266.08553219 222.94696522 C266.08577234 223.62006422 266.08601249 224.29316322 266.08625992 224.98665916 C266.09415132 246.8058833 266.11757968 268.62505305 266.15008813 290.44425343 C266.18439972 313.51584553 266.20409751 336.58741218 266.20739049 359.65903324 C266.20955636 372.23435485 266.21831636 384.80959653 266.24385166 397.38489437 C266.26554736 408.09412432 266.2736146 418.80325492 266.26388488 429.51250435 C266.25933693 434.97611647 266.2612554 440.43952357 266.28064632 445.90310764 C266.2982551 450.9078011 266.29729864 455.91213962 266.28174903 460.91683673 C266.27936951 462.72444224 266.28371436 464.53207218 266.29557768 466.33964033 C266.38199412 480.37965857 264.85058153 491.57924103 254.79036617 502.13422108 C242.73398683 513.57756418 228.25652968 512.71218407 212.68489742 512.6517992 C210.33661624 512.65722479 207.98833847 512.66434989 205.6400671 512.67303944 C199.28472526 512.69122353 192.92964411 512.68422539 186.5742979 512.67152309 C180.58787532 512.66240046 174.60147621 512.66937683 168.61505425 512.67523187 C156.0360971 512.68661613 143.45725688 512.67355792 130.87831891 512.65203041 C120.10382563 512.63416135 109.32950478 512.63726606 98.55501461 512.65570545 C86.01860597 512.67715038 73.4822996 512.6855177 60.94587517 512.6732564 C54.31861651 512.66694963 47.69145374 512.6661566 41.0642004 512.67940235 C34.83257045 512.6909882 28.60126495 512.68288472 22.36966991 512.65982533 C20.08768025 512.6545529 17.8056631 512.65602675 15.5236845 512.66487598 C0.03457785 512.71938628 -12.4154556 512.3755472 -24.20963383 501.13422108 C-34.41150615 490.38581988 -34.79318907 477.74550636 -34.7175684 463.72577381 C-34.72218212 461.85970512 -34.7285382 459.99364006 -34.73647738 458.12758255 C-34.75312894 453.02006109 -34.74494327 447.91283975 -34.7325325 442.8053174 C-34.72346727 437.28920934 -34.73745906 431.77315221 -34.74845219 426.25705433 C-34.76622622 415.45902764 -34.76240236 404.66111225 -34.75080162 393.86308122 C-34.74176321 385.08625422 -34.74054508 376.30945838 -34.74489689 367.53262806 C-34.74550982 366.28283112 -34.74612275 365.03303418 -34.74675426 363.74536461 C-34.74803318 361.20632052 -34.74933003 358.66727643 -34.75064462 356.12823236 C-34.76172219 333.00536689 -34.75023992 309.88255954 -34.72927424 286.75970744 C-34.71029271 265.66478627 -34.71199126 244.56996171 -34.7311182 223.47504139 C-34.75255068 199.75825497 -34.76094855 176.0415153 -34.74866915 152.32471657 C-34.74739497 149.79508242 -34.74613749 147.26544826 -34.74489689 144.73581409 C-34.74427979 143.49122895 -34.74366268 142.24664381 -34.74302688 140.96434397 C-34.73957512 132.19941309 -34.74539861 123.43451651 -34.7548151 114.66959095 C-34.76604059 103.98613211 -34.76298335 93.30279082 -34.74169213 82.61934543 C-34.73118924 77.1698734 -34.72704707 71.72059726 -34.74028873 66.27112675 C-34.75223398 61.27964567 -34.74561473 56.2885415 -34.72437853 51.29709446 C-34.71992153 49.49441687 -34.72215837 47.69170724 -34.73188168 45.88905036 C-34.8038888 31.42642464 -32.94039288 20.17979115 -22.58463383 9.45062733 C-16.42341783 3.73153563 -8.47264076 0.02100098 0 0 Z " fill="#88CEEF" transform="translate(140.20963382720947,-0.13422107696533203)"/>
<path d="M0 0 C1.25579317 -0.00668677 1.25579317 -0.00668677 2.53695589 -0.01350862 C3.4516288 -0.01332426 4.36630171 -0.01313989 5.30869198 -0.01294994 C6.28440102 -0.01662663 7.26011006 -0.02030332 8.26538604 -0.02409142 C11.54398172 -0.03512896 14.82254571 -0.03897225 18.10115719 -0.04278088 C20.44840248 -0.04904553 22.79564677 -0.05569233 25.14288998 -0.0626936 C32.86001043 -0.08373803 40.57713109 -0.09409705 48.29427242 -0.10406017 C50.9512594 -0.10810773 53.60824628 -0.11222465 56.26523304 -0.11641026 C67.31858553 -0.13342164 78.37193703 -0.14791423 89.4253006 -0.155159 C92.29251322 -0.15706878 95.15972584 -0.15898913 98.02693844 -0.16094494 C98.73953856 -0.16142868 99.45213869 -0.16191242 100.18633275 -0.16241082 C111.7214467 -0.17070525 123.25645676 -0.1960326 134.79152537 -0.22852562 C146.64440727 -0.26164058 158.49723645 -0.27961181 170.35016483 -0.28280324 C177.00102668 -0.28496438 183.65175438 -0.29410094 190.30257511 -0.31926441 C196.56279963 -0.34256702 202.82275209 -0.34676931 209.08300877 -0.33650303 C211.37629508 -0.33600808 213.66959489 -0.34231632 215.96284008 -0.35605907 C231.95849163 -0.44652532 244.43629182 0.14049734 256.47395992 11.75922108 C263.38289784 19.20226642 265.94536404 27.69066879 265.92458725 37.65473747 C265.92693948 38.41920219 265.92929171 39.18366692 265.93171522 39.97129723 C265.93840301 42.54784123 265.93794706 45.12433477 265.93753719 47.70088673 C265.94083596 49.56090987 265.94456155 51.42093231 265.94867867 53.28095382 C265.95870541 58.40419211 265.96241655 63.52741869 265.96506798 68.6506654 C265.96896904 74.17165286 265.97854753 79.69263103 265.98728085 85.21361256 C266.007051 98.55286227 266.01711223 111.89211275 266.02600864 125.23137346 C266.03039069 131.51147394 266.03575772 137.79157358 266.04099751 144.07167339 C266.05801044 164.94553313 266.07252974 185.81939272 266.07974625 206.69325829 C266.080221 208.04321043 266.08069689 209.39316257 266.08117391 210.74311471 C266.08141028 211.41256588 266.08164666 212.08201705 266.0818902 212.77175462 C266.08309139 216.16349149 266.08430684 219.55522835 266.08553219 222.94696522 C266.08577234 223.62006422 266.08601249 224.29316322 266.08625992 224.98665916 C266.09415132 246.8058833 266.11757968 268.62505305 266.15008813 290.44425343 C266.18439972 313.51584553 266.20409751 336.58741218 266.20739049 359.65903324 C266.20955636 372.23435485 266.21831636 384.80959653 266.24385166 397.38489437 C266.26554736 408.09412432 266.2736146 418.80325492 266.26388488 429.51250435 C266.25933693 434.97611647 266.2612554 440.43952357 266.28064632 445.90310764 C266.2982551 450.9078011 266.29729864 455.91213962 266.28174903 460.91683673 C266.27936951 462.72444224 266.28371436 464.53207218 266.29557768 466.33964033 C266.38199412 480.37965857 264.85058153 491.57924103 254.79036617 502.13422108 C242.73398683 513.57756418 228.25652968 512.71218407 212.68489742 512.6517992 C210.33661624 512.65722479 207.98833847 512.66434989 205.6400671 512.67303944 C199.28472526 512.69122353 192.92964411 512.68422539 186.5742979 512.67152309 C180.58787532 512.66240046 174.60147621 512.66937683 168.61505425 512.67523187 C156.0360971 512.68661613 143.45725688 512.67355792 130.87831891 512.65203041 C120.10382563 512.63416135 109.32950478 512.63726606 98.55501461 512.65570545 C86.01860597 512.67715038 73.4822996 512.6855177 60.94587517 512.6732564 C54.31861651 512.66694963 47.69145374 512.6661566 41.0642004 512.67940235 C34.83257045 512.6909882 28.60126495 512.68288472 22.36966991 512.65982533 C20.08768025 512.6545529 17.8056631 512.65602675 15.5236845 512.66487598 C0.03457785 512.71938628 -12.4154556 512.3755472 -24.20963383 501.13422108 C-34.41150615 490.38581988 -34.79318907 477.74550636 -34.7175684 463.72577381 C-34.72218212 461.85970512 -34.7285382 459.99364006 -34.73647738 458.12758255 C-34.75312894 453.02006109 -34.74494327 447.91283975 -34.7325325 442.8053174 C-34.72346727 437.28920934 -34.73745906 431.77315221 -34.74845219 426.25705433 C-34.76622622 415.45902764 -34.76240236 404.66111225 -34.75080162 393.86308122 C-34.74176321 385.08625422 -34.74054508 376.30945838 -34.74489689 367.53262806 C-34.74550982 366.28283112 -34.74612275 365.03303418 -34.74675426 363.74536461 C-34.74803318 361.20632052 -34.74933003 358.66727643 -34.75064462 356.12823236 C-34.76172219 333.00536689 -34.75023992 309.88255954 -34.72927424 286.75970744 C-34.71029271 265.66478627 -34.71199126 244.56996171 -34.7311182 223.47504139 C-34.75255068 199.75825497 -34.76094855 176.0415153 -34.74866915 152.32471657 C-34.74739497 149.79508242 -34.74613749 147.26544826 -34.74489689 144.73581409 C-34.74427979 143.49122895 -34.74366268 142.24664381 -34.74302688 140.96434397 C-34.73957512 132.19941309 -34.74539861 123.43451651 -34.7548151 114.66959095 C-34.76604059 103.98613211 -34.76298335 93.30279082 -34.74169213 82.61934543 C-34.73118924 77.1698734 -34.72704707 71.72059726 -34.74028873 66.27112675 C-34.75223398 61.27964567 -34.74561473 56.2885415 -34.72437853 51.29709446 C-34.71992153 49.49441687 -34.72215837 47.69170724 -34.73188168 45.88905036 C-34.8038888 31.42642464 -32.94039288 20.17979115 -22.58463383 9.45062733 C-16.42341783 3.73153563 -8.47264076 0.02100098 0 0 Z M-22.20963383 70.13422108 C-22.20963383 190.91422108 -22.20963383 311.69422108 -22.20963383 436.13422108 C68.87036617 436.13422108 159.95036617 436.13422108 253.79036617 436.13422108 C253.79036617 315.35422108 253.79036617 194.57422108 253.79036617 70.13422108 C162.71036617 70.13422108 71.63036617 70.13422108 -22.20963383 70.13422108 Z " fill="#000000" transform="translate(140.20963382720947,-0.13422107696533203)"/>
<path d="M0 0 C91.08 0 182.16 0 276 0 C276 36.71775478 276 36.71775478 267.97265625 45.2734375 C263.25836129 49.39961249 257.29898584 52.11824046 251.0015316 52.13422108 C249.77822547 52.14090784 249.77822547 52.14090784 248.53020608 52.14772969 C247.18679964 52.14745315 247.18679964 52.14745315 245.81625366 52.14717102 C244.38860701 52.15268605 244.38860701 52.15268605 242.93211901 52.1583125 C239.72866639 52.16936473 236.52524619 52.17319581 233.32177734 52.17700195 C231.03054704 52.18326548 228.73931776 52.18991218 226.4480896 52.19691467 C220.21232817 52.21433555 213.97657441 52.22487959 207.74079466 52.2331202 C203.84560354 52.23826847 199.95041481 52.24434431 196.05522537 52.25063133 C185.26697969 52.26750288 174.4787377 52.2821372 163.69048119 52.28938007 C160.8911476 52.29128992 158.09181402 52.29321026 155.29248047 52.29516602 C154.59673391 52.29564976 153.90098735 52.2961335 153.18415757 52.2966319 C141.91922185 52.30492817 130.65439247 52.330258 119.38950317 52.36274669 C107.8191608 52.39584369 96.24888839 52.41349869 84.67849696 52.41702431 C78.18416725 52.41937563 71.69000555 52.42834682 65.19572067 52.45348549 C59.08407408 52.47676023 52.97270618 52.48100162 46.86102676 52.47072411 C44.62011539 52.47022848 42.37919033 52.47655665 40.13832092 52.49028015 C37.07376353 52.50799503 34.01020672 52.50089428 30.94564819 52.48774719 C30.06342822 52.49871644 29.18120826 52.50968568 28.27225435 52.52098733 C19.78297518 52.43334657 12.78307531 49.44039697 6.50390625 43.71484375 C-4.10718792 31.61544027 0 15.1259464 0 0 Z " fill="#8C9988" transform="translate(118,448)"/>
<path d="M0 0 C1.22330613 -0.00668677 1.22330613 -0.00668677 2.47132552 -0.01350862 C3.81473197 -0.01323207 3.81473197 -0.01323207 5.18527794 -0.01294994 C6.13704237 -0.01662663 7.08880681 -0.02030332 8.06941259 -0.02409142 C11.27286521 -0.03514366 14.47628541 -0.03897473 17.67975426 -0.04278088 C19.97098456 -0.0490444 22.26221384 -0.0556911 24.553442 -0.0626936 C30.78920344 -0.08011447 37.0249572 -0.09065851 43.26073694 -0.09889913 C47.15592806 -0.1040474 51.05111679 -0.11012323 54.94630623 -0.11641026 C65.73455192 -0.1332818 76.5227939 -0.14791612 87.31105042 -0.155159 C90.110384 -0.15706884 92.90971758 -0.15898918 95.70905113 -0.16094494 C96.40479769 -0.16142868 97.10054425 -0.16191242 97.81737404 -0.16241082 C109.08230975 -0.17070709 120.34713913 -0.19603693 131.61202843 -0.22852562 C143.1823708 -0.26162261 154.75264321 -0.27927761 166.32303464 -0.28280324 C172.81736435 -0.28515455 179.31152605 -0.29412574 185.80581093 -0.31926441 C191.91745752 -0.34253915 198.02882542 -0.34678054 204.14050484 -0.33650303 C206.38141621 -0.33600741 208.62234127 -0.34233557 210.86321068 -0.35605907 C213.92776807 -0.37377395 216.99132488 -0.3666732 220.05588341 -0.35352612 C221.37921336 -0.36997998 221.37921336 -0.36997998 222.72927725 -0.38676625 C231.27981245 -0.2984931 238.19650212 2.71487852 244.49762535 8.48968983 C254.50001794 19.42737107 251.0015316 32.40253456 251.0015316 47.13422108 C159.9215316 47.13422108 68.8415316 47.13422108 -24.9984684 47.13422108 C-24.9984684 15.5709249 -24.9984684 15.5709249 -16.97112465 6.89593983 C-12.29770147 2.72224903 -6.29204494 0.01596689 0 0 Z " fill="#8B9887" transform="translate(142.99846839904785,11.865778923034668)"/>
<path d="M0 0 C3.375 0.4375 3.375 0.4375 5.375 2.4375 C6.35026835 10.51038183 3.49019567 18.10334207 1.25390625 25.76953125 C0.82941621 27.25280947 0.40584189 28.73635003 -0.01686096 30.22013855 C-1.12669882 34.10635819 -2.24921501 37.98880299 -3.37438965 41.87060547 C-4.51869217 45.82745215 -5.65022793 49.78794522 -6.78320312 53.74804688 C-8.438246 59.52502567 -10.09729945 65.3008219 -11.76733398 71.07348633 C-12.10264633 72.23294266 -12.43795868 73.39239899 -12.78343201 74.58699036 C-13.36233595 76.54781977 -13.97847222 78.49791665 -14.625 80.4375 C-13.45928467 80.42178955 -12.29356934 80.4060791 -11.0925293 80.38989258 C-6.77082214 80.33562466 -2.44914515 80.30116141 1.87280273 80.27270508 C3.74394799 80.25761127 5.61505783 80.23713411 7.48608398 80.21118164 C10.17440526 80.17482407 12.86225913 80.15777985 15.55078125 80.14453125 C16.80717155 80.12130547 16.80717155 80.12130547 18.08894348 80.09761047 C23.93704154 80.09591285 23.93704154 80.09591285 26.09416199 81.77836609 C27.375 83.4375 27.375 83.4375 27.7890625 86.32421875 C27.28700031 90.09915807 26.26446759 91.42008102 23.75 94.25 C22.93015625 95.19746094 22.1103125 96.14492187 21.265625 97.12109375 C20.80607422 97.64429199 20.34652344 98.16749023 19.87304688 98.70654297 C17.00985645 102.01489044 14.26840775 105.42486796 11.5 108.8125 C6.78230015 114.55041432 2.01988181 120.24711735 -2.79248047 125.90576172 C-6.35832021 130.10435675 -9.84474609 134.36337998 -13.3203125 138.63671875 C-15.84533075 141.70525787 -18.41984769 144.72789812 -21 147.75 C-24.78292492 152.18601603 -28.43032737 156.70350643 -32 161.3125 C-36.4503371 167.05109258 -41.12340429 172.55772772 -45.90942383 178.01831055 C-49.96302748 182.64778281 -53.87732848 187.3631542 -57.72265625 192.16796875 C-62.875234 198.31508922 -62.875234 198.31508922 -66.6875 198.9375 C-69.625 198.4375 -69.625 198.4375 -71.5625 196.875 C-73.8075544 191.72458108 -71.21600466 185.58945561 -69.70727539 180.41992188 C-69.51527054 179.75714737 -69.32326569 179.09437286 -69.1254425 178.41151428 C-68.49566977 176.24175776 -67.85921465 174.07402446 -67.22265625 171.90625 C-66.78005107 170.38614946 -66.33787364 168.86592431 -65.89610291 167.34558105 C-64.73548549 163.35551835 -63.56920465 159.36713333 -62.40167236 155.37908936 C-61.21821597 151.33312693 -60.03993832 147.28565752 -58.86132812 143.23828125 C-57.53423912 138.68210795 -56.20660133 134.12609964 -54.8752594 129.57116699 C-54.57034073 128.52786476 -54.57034073 128.52786476 -54.25926208 127.46348572 C-53.71238933 125.59282816 -53.1652345 123.72225308 -52.61805725 121.85168457 C-51.60924913 118.38334765 -50.61454914 114.91137138 -49.625 111.4375 C-50.73617187 111.37691406 -51.84734375 111.31632812 -52.9921875 111.25390625 C-56.82925551 111.04075978 -60.66506476 110.81070406 -64.50048828 110.56982422 C-66.27993785 110.45899203 -68.05984618 110.3555586 -69.83984375 110.25390625 C-70.69707031 110.19074219 -71.55429688 110.12757813 -72.4375 110.0625 C-73.52998047 109.98902344 -73.52998047 109.98902344 -74.64453125 109.9140625 C-77.38086381 109.25561561 -78.71109036 108.52774739 -80.625 106.4375 C-81.21421394 103.12118098 -81.34642832 100.74313651 -79.67773438 97.72314453 C-78.32155432 95.9003162 -76.879826 94.20214999 -75.375 92.5 C-74.26321256 91.1804142 -73.15391107 89.85873063 -72.046875 88.53515625 C-71.19125977 87.52219482 -71.19125977 87.52219482 -70.31835938 86.48876953 C-67.62876079 83.23069465 -65.13066485 79.83774864 -62.625 76.4375 C-58.25163931 70.54430376 -53.73831873 64.78861041 -49.125 59.08203125 C-45.5225362 54.60709575 -42.05036427 50.04906039 -38.625 45.4375 C-34.27366723 39.58126944 -29.79693899 33.84973257 -25.21289062 28.17431641 C-20.70496168 22.57780829 -16.33562489 16.88043128 -11.98852539 11.15844727 C-10.98423924 9.83673524 -9.9770178 8.51724629 -8.96630859 7.20043945 C-7.7802763 5.6415863 -6.62590765 4.05875255 -5.4765625 2.47265625 C-3.625 0.4375 -3.625 0.4375 0 0 Z " fill="#010202" transform="translate(282.625,156.5625)"/>
<path d="M0 0 C1.32080777 2.64161554 0.7393174 3.53979819 -0.09570312 6.33862305 C-0.35927612 7.23683273 -0.62284912 8.13504242 -0.89440918 9.06047058 C-1.33339539 10.52133842 -1.33339539 10.52133842 -1.78125 12.01171875 C-2.38187513 14.06955504 -2.98212356 16.12750132 -3.58203125 18.18554688 C-4.53814211 21.43480306 -5.49855635 24.68265804 -6.46630859 27.9284668 C-7.39600258 31.05694193 -8.30833283 34.19008853 -9.21875 37.32421875 C-9.65773621 38.76990486 -9.65773621 38.76990486 -10.10559082 40.24479675 C-11.64414363 45.57991025 -12.49411055 49.58476253 -11 55 C-8.0003383 56.49983085 -4.88053039 56.23902055 -1.5859375 56.31640625 C-0.49147812 56.3475779 -0.49147812 56.3475779 0.62509155 56.37937927 C2.95829763 56.44481917 5.29161721 56.50373368 7.625 56.5625 C9.20574095 56.60569053 10.78647039 56.64930499 12.3671875 56.69335938 C16.24467504 56.80049481 20.12227685 56.90177782 24 57 C22.1841514 60.8597773 19.72031108 63.86264639 16.9375 67.0625 C15.93544131 68.22981968 14.93414971 69.39779826 13.93359375 70.56640625 C13.43585449 71.14664551 12.93811523 71.72688477 12.42529297 72.32470703 C10.41474314 74.6879124 8.45585357 77.09143529 6.5 79.5 C3.25986843 83.48386284 -0.04107136 87.40750882 -3.375 91.3125 C-7.15793272 95.74852517 -10.80515259 100.26613331 -14.375 104.875 C-18.4194149 110.08651118 -22.615659 115.14106902 -26.9375 120.125 C-27.48132324 120.7526123 -28.02514648 121.38022461 -28.58544922 122.02685547 C-31.29558447 125.1288582 -34.06911988 128.10250121 -37 131 C-34.89751213 122.15294412 -32.58509541 113.39413174 -29.984375 104.6796875 C-29.72160767 103.79790833 -29.45884033 102.91612915 -29.18811035 102.00762939 C-28.10027823 98.36692884 -27.00808418 94.72760486 -25.90722656 91.09082031 C-25.09238503 88.39338109 -24.28771404 85.69307094 -23.484375 82.9921875 C-23.23443787 82.17652313 -22.98450073 81.36085876 -22.72698975 80.52047729 C-21.47544349 76.28831714 -20.40417547 72.45510395 -21 68 C-24.21123369 65.85917754 -25.78275686 65.58613412 -29.54296875 65.1484375 C-30.61611328 65.01953125 -31.68925781 64.890625 -32.79492188 64.7578125 C-34.47424805 64.56832031 -34.47424805 64.56832031 -36.1875 64.375 C-37.31865234 64.2409375 -38.44980469 64.106875 -39.61523438 63.96875 C-42.40939511 63.63863818 -45.20421689 63.31602577 -48 63 C-45.50506261 58.4127174 -42.94487858 54.5183689 -39.5 50.5625 C-35.51377642 45.90542415 -31.77266047 41.11368509 -28.125 36.1875 C-23.66769116 30.17651705 -19.08500096 24.29104826 -14.38623047 18.46728516 C-9.48808211 12.38968217 -4.73164539 6.20766752 0 0 Z " fill="#02BE3C" transform="translate(267,192)"/>
<path d="M0 0 C0.79541199 -0.00525696 1.59082397 -0.01051392 2.41033936 -0.01593018 C5.04198796 -0.02914387 7.67303265 -0.02038744 10.3046875 -0.01025391 C12.13167436 -0.01227425 13.95866044 -0.01518536 15.78564453 -0.01895142 C19.61563796 -0.02337662 23.44542157 -0.01693743 27.27539062 -0.00292969 C32.18853455 0.01416234 37.10118686 0.0043222 42.01431274 -0.01364708 C45.78722854 -0.02447963 49.56002749 -0.02104101 53.33294678 -0.0132637 C55.14467425 -0.01126023 56.95641229 -0.01372612 58.76812744 -0.02070236 C61.2988298 -0.02830821 63.82873233 -0.01672527 66.359375 0 C67.4862674 -0.00910904 67.4862674 -0.00910904 68.63592529 -0.0184021 C71.57404202 0.01763262 73.67646456 0.06012414 76.17626953 1.68978882 C77.93279122 4.6628941 76.99431886 7.18784609 76.1796875 10.38818359 C72.52073021 12.82748845 69.7893102 12.67717942 65.55883789 12.6628418 C64.78453934 12.66795273 64.01024078 12.67306366 63.21247864 12.67832947 C60.65068857 12.6922395 58.08916711 12.69126766 55.52734375 12.68896484 C53.74759318 12.69285102 51.96784353 12.69718553 50.18809509 12.70195007 C46.45650222 12.70941533 42.72500396 12.70911882 38.9934082 12.70385742 C34.21041865 12.69806257 29.42781631 12.71499259 24.64489079 12.7382021 C20.96888462 12.75293102 17.29297189 12.75381228 13.61694145 12.75069237 C11.85348176 12.75120601 10.09001689 12.75645181 8.32658577 12.76650429 C5.86077816 12.77883514 3.39572705 12.77209754 0.92993164 12.76049805 C0.2009668 12.76814178 -0.52799805 12.77578552 -1.27905273 12.78366089 C-4.3765778 12.7514391 -6.53346132 12.54412981 -9.27735901 11.05241394 C-10.8203125 9.38818359 -10.8203125 9.38818359 -11.2578125 6.38818359 C-10.8203125 3.38818359 -10.8203125 3.38818359 -9.78173828 1.72494507 C-6.73498578 -0.35149413 -3.56059605 -0.02878146 0 0 Z " fill="#010101" transform="translate(222.8203125,467.61181640625)"/>
<path d="M0 0 C1.62716446 -0.01902626 1.62716446 -0.01902626 3.28720093 -0.03843689 C4.45908966 -0.03550125 5.63097839 -0.03256561 6.83837891 -0.02954102 C8.04305817 -0.03478287 9.24773743 -0.04002472 10.48892212 -0.04542542 C13.03931914 -0.05185409 15.58974578 -0.05049777 18.14013672 -0.04199219 C22.04269317 -0.0334957 25.94378016 -0.06221314 29.84619141 -0.09399414 C32.32275347 -0.09560652 34.79931812 -0.09502791 37.27587891 -0.09204102 C39.02763931 -0.10889198 39.02763931 -0.10889198 40.81478882 -0.12608337 C48.9476514 -0.05615822 48.9476514 -0.05615822 52.96582031 2.43505859 C53.53478027 3.08482666 54.10374023 3.73459473 54.68994141 4.40405273 C53.93994141 10.15405273 53.93994141 10.15405273 51.68994141 12.40405273 C49.26771545 12.67147827 49.26771545 12.67147827 46.1862793 12.69458008 C44.45922508 12.71371964 44.45922508 12.71371964 42.69728088 12.73324585 C41.44833542 12.7354715 40.19938995 12.73769714 38.91259766 12.73999023 C36.99645912 12.74997543 36.99645912 12.74997543 35.04161072 12.76016235 C32.33546043 12.77030436 29.62971168 12.77584218 26.92358398 12.7746582 C23.45521646 12.77445492 19.98766749 12.80176075 16.51949406 12.83620262 C13.21305889 12.86378202 9.9066323 12.86261986 6.60009766 12.86499023 C4.72971581 12.88654678 4.72971581 12.88654678 2.82154846 12.90853882 C1.08976601 12.89930893 1.08976601 12.89930893 -0.67700195 12.88989258 C-1.69467148 12.89274261 -2.712341 12.89559265 -3.760849 12.89852905 C-6.31005859 12.40405273 -6.31005859 12.40405273 -8.16993713 10.53384399 C-9.31005859 8.40405273 -9.31005859 8.40405273 -9.18505859 5.84155273 C-7.40786117 0.89078848 -5.10269386 0.02885902 0 0 Z " fill="#050505" transform="translate(233.31005859375,28.595947265625)"/>
<path d="M0 0 C0.70705078 -0.01998047 1.41410156 -0.03996094 2.14257812 -0.06054688 C5.60481398 -0.05729595 7.60121059 0.19616907 10.44140625 2.234375 C11.9375 4.4375 11.9375 4.4375 11.8125 8.125 C11.52375 9.218125 11.235 10.31125 10.9375 11.4375 C7.28883622 13.26183189 3.01743877 12.70794726 -1 12.75 C-1.91974609 12.77900391 -2.83949219 12.80800781 -3.78710938 12.83789062 C-4.67076172 12.84626953 -5.55441406 12.85464844 -6.46484375 12.86328125 C-7.67901978 12.88515503 -7.67901978 12.88515503 -8.91772461 12.9074707 C-11.0625 12.4375 -11.0625 12.4375 -12.84985352 10.57104492 C-14.0625 8.4375 -14.0625 8.4375 -14.0625 5.875 C-11.61140347 -0.0995478 -5.70438301 -0.0575144 0 0 Z " fill="#040404" transform="translate(171.0625,28.5625)"/>
</svg>
