<?xml version="1.0" encoding="UTF-8"?>
<svg version="1.1" xmlns="http://www.w3.org/2000/svg" width="512" height="512">
<path d="M0 0 C1.25579317 -0.00668677 1.25579317 -0.00668677 2.53695589 -0.01350862 C3.4516288 -0.01332426 4.36630171 -0.01313989 5.30869198 -0.01294994 C6.28440102 -0.01662663 7.26011006 -0.02030332 8.26538604 -0.02409142 C11.54398172 -0.03512896 14.82254571 -0.03897225 18.10115719 -0.04278088 C20.44840248 -0.04904553 22.79564677 -0.05569233 25.14288998 -0.0626936 C32.86001043 -0.08373803 40.57713109 -0.09409705 48.29427242 -0.10406017 C50.9512594 -0.10810773 53.60824628 -0.11222465 56.26523304 -0.11641026 C67.31858553 -0.13342164 78.37193703 -0.14791423 89.4253006 -0.155159 C92.29251322 -0.15706878 95.15972584 -0.15898913 98.02693844 -0.16094494 C98.73953856 -0.16142868 99.45213869 -0.16191242 100.18633275 -0.16241082 C111.7214467 -0.17070525 123.25645676 -0.1960326 134.79152537 -0.22852562 C146.64440727 -0.26164058 158.49723645 -0.27961181 170.35016483 -0.28280324 C177.00102668 -0.28496438 183.65175438 -0.29410094 190.30257511 -0.31926441 C196.56279963 -0.34256702 202.82275209 -0.34676931 209.08300877 -0.33650303 C211.37629508 -0.33600808 213.66959489 -0.34231632 215.96284008 -0.35605907 C231.95849163 -0.44652532 244.43629182 0.14049734 256.47395992 11.75922108 C263.38289784 19.20226642 265.94536404 27.69066879 265.92458725 37.65473747 C265.92693948 38.41920219 265.92929171 39.18366692 265.93171522 39.97129723 C265.93840301 42.54784123 265.93794706 45.12433477 265.93753719 47.70088673 C265.94083596 49.56090987 265.94456155 51.42093231 265.94867867 53.28095382 C265.95870541 58.40419211 265.96241655 63.52741869 265.96506798 68.6506654 C265.96896904 74.17165286 265.97854753 79.69263103 265.98728085 85.21361256 C266.007051 98.55286227 266.01711223 111.89211275 266.02600864 125.23137346 C266.03039069 131.51147394 266.03575772 137.79157358 266.04099751 144.07167339 C266.05801044 164.94553313 266.07252974 185.81939272 266.07974625 206.69325829 C266.080221 208.04321043 266.08069689 209.39316257 266.08117391 210.74311471 C266.08141028 211.41256588 266.08164666 212.08201705 266.0818902 212.77175462 C266.08309139 216.16349149 266.08430684 219.55522835 266.08553219 222.94696522 C266.08577234 223.62006422 266.08601249 224.29316322 266.08625992 224.98665916 C266.09415132 246.8058833 266.11757968 268.62505305 266.15008813 290.44425343 C266.18439972 313.51584553 266.20409751 336.58741218 266.20739049 359.65903324 C266.20955636 372.23435485 266.21831636 384.80959653 266.24385166 397.38489437 C266.26554736 408.09412432 266.2736146 418.80325492 266.26388488 429.51250435 C266.25933693 434.97611647 266.2612554 440.43952357 266.28064632 445.90310764 C266.2982551 450.9078011 266.29729864 455.91213962 266.28174903 460.91683673 C266.27936951 462.72444224 266.28371436 464.53207218 266.29557768 466.33964033 C266.38199412 480.37965857 264.85058153 491.57924103 254.79036617 502.13422108 C242.73398683 513.57756418 228.25652968 512.71218407 212.68489742 512.6517992 C210.33661624 512.65722479 207.98833847 512.66434989 205.6400671 512.67303944 C199.28472526 512.69122353 192.92964411 512.68422539 186.5742979 512.67152309 C180.58787532 512.66240046 174.60147621 512.66937683 168.61505425 512.67523187 C156.0360971 512.68661613 143.45725688 512.67355792 130.87831891 512.65203041 C120.10382563 512.63416135 109.32950478 512.63726606 98.55501461 512.65570545 C86.01860597 512.67715038 73.4822996 512.6855177 60.94587517 512.6732564 C54.31861651 512.66694963 47.69145374 512.6661566 41.0642004 512.67940235 C34.83257045 512.6909882 28.60126495 512.68288472 22.36966991 512.65982533 C20.08768025 512.6545529 17.8056631 512.65602675 15.5236845 512.66487598 C0.03457785 512.71938628 -12.4154556 512.3755472 -24.20963383 501.13422108 C-34.41150615 490.38581988 -34.79318907 477.74550636 -34.7175684 463.72577381 C-34.72218212 461.85970512 -34.7285382 459.99364006 -34.73647738 458.12758255 C-34.75312894 453.02006109 -34.74494327 447.91283975 -34.7325325 442.8053174 C-34.72346727 437.28920934 -34.73745906 431.77315221 -34.74845219 426.25705433 C-34.76622622 415.45902764 -34.76240236 404.66111225 -34.75080162 393.86308122 C-34.74176321 385.08625422 -34.74054508 376.30945838 -34.74489689 367.53262806 C-34.74550982 366.28283112 -34.74612275 365.03303418 -34.74675426 363.74536461 C-34.74803318 361.20632052 -34.74933003 358.66727643 -34.75064462 356.12823236 C-34.76172219 333.00536689 -34.75023992 309.88255954 -34.72927424 286.75970744 C-34.71029271 265.66478627 -34.71199126 244.56996171 -34.7311182 223.47504139 C-34.75255068 199.75825497 -34.76094855 176.0415153 -34.74866915 152.32471657 C-34.74739497 149.79508242 -34.74613749 147.26544826 -34.74489689 144.73581409 C-34.74427979 143.49122895 -34.74366268 142.24664381 -34.74302688 140.96434397 C-34.73957512 132.19941309 -34.74539861 123.43451651 -34.7548151 114.66959095 C-34.76604059 103.98613211 -34.76298335 93.30279082 -34.74169213 82.61934543 C-34.73118924 77.1698734 -34.72704707 71.72059726 -34.74028873 66.27112675 C-34.75223398 61.27964567 -34.74561473 56.2885415 -34.72437853 51.29709446 C-34.71992153 49.49441687 -34.72215837 47.69170724 -34.73188168 45.88905036 C-34.8038888 31.42642464 -32.94039288 20.17979115 -22.58463383 9.45062733 C-16.42341783 3.73153563 -8.47264076 0.02100098 0 0 Z M12.79036617 28.13422108 C12.53966705 30.75992811 12.53966705 30.75992811 12.79036617 33.13422108 C14.77036617 34.12422108 14.77036617 34.12422108 16.79036617 35.13422108 C17.10618649 34.32597889 17.4220068 33.5177367 17.74739742 32.68500233 C19.79036617 30.13422108 19.79036617 30.13422108 21.63167477 29.62787342 C23.92306326 29.41600375 26.17681636 29.33870996 28.47786617 29.32172108 C29.67379391 29.284016 29.67379391 29.284016 30.8938818 29.2455492 C32.85884637 29.18671793 34.82466008 29.15759704 36.79036617 29.13422108 C36.13036617 27.81422108 35.47036617 26.49422108 34.79036617 25.13422108 C31.68637639 25.04711818 28.5827007 24.99379799 25.47786617 24.94672108 C24.59679195 24.92158436 23.71571774 24.89644764 22.8079443 24.8705492 C21.9603857 24.86088123 21.11282711 24.85121326 20.23958492 24.84125233 C19.45929928 24.82554188 18.67901363 24.80983143 17.87508297 24.79364491 C15.24310711 25.22362574 14.37161996 26.01972833 12.79036617 28.13422108 Z M80.97711849 26.50024891 C79.59980769 28.14493451 79.59980769 28.14493451 79.35286617 30.63422108 C79.55447499 33.29328562 79.55447499 33.29328562 81.79036617 34.94672108 C82.45036617 35.33859608 83.11036617 35.73047108 83.79036617 36.13422108 C84.12036617 34.15422108 84.45036617 32.17422108 84.79036617 30.13422108 C113.00536617 29.63922108 113.00536617 29.63922108 141.79036617 29.13422108 C141.29536617 27.64922108 141.29536617 27.64922108 140.79036617 26.13422108 C138.21686928 24.84747263 136.35193358 24.99313813 133.47029781 24.97308826 C131.80330585 24.95867695 131.80330585 24.95867695 130.10263729 24.94397449 C128.89743938 24.93972462 127.69224148 24.93547474 126.45052242 24.93109608 C124.60097202 24.92254597 124.60097202 24.92254597 122.71405697 24.91382313 C120.10221372 24.90436378 117.49035848 24.89783545 114.87850094 24.8939867 C112.19639734 24.88958888 109.51461309 24.87564951 106.8326025 24.85297108 C102.97597571 24.82261327 99.11975515 24.81195051 95.26302242 24.80609608 C94.05984875 24.79374928 92.85667507 24.78140247 91.61704159 24.76868153 C90.50256145 24.77168262 89.38808132 24.77468372 88.23982906 24.77777576 C87.25768932 24.77413013 86.27554958 24.7704845 85.26364803 24.7667284 C82.74895873 24.93907207 82.74895873 24.93907207 80.97711849 26.50024891 Z M247.79036617 23.13422108 C248.12036617 33.36422108 248.45036617 43.59422108 248.79036617 54.13422108 C159.69036617 54.13422108 70.59036617 54.13422108 -21.20963383 54.13422108 C-21.20963383 55.45422108 -21.20963383 56.77422108 -21.20963383 58.13422108 C69.21036617 58.13422108 159.63036617 58.13422108 252.79036617 58.13422108 C254.55029953 34.45259482 254.55029953 34.45259482 248.79036617 23.13422108 C248.46036617 23.13422108 248.13036617 23.13422108 247.79036617 23.13422108 Z M248.79036617 71.13422108 C248.79036617 190.26422108 248.79036617 309.39422108 248.79036617 432.13422108 C159.69036617 432.13422108 70.59036617 432.13422108 -21.20963383 432.13422108 C-21.20963383 433.45422108 -21.20963383 434.77422108 -21.20963383 436.13422108 C69.21036617 436.13422108 159.63036617 436.13422108 252.79036617 436.13422108 C252.79036617 315.68422108 252.79036617 195.23422108 252.79036617 71.13422108 C251.47036617 71.13422108 250.15036617 71.13422108 248.79036617 71.13422108 Z M130.10286617 157.32172108 C129.67425289 157.8612743 129.24563961 158.40082752 128.80403805 158.95673084 C127.44983486 160.67048981 126.11891512 162.40052564 124.79036617 164.13422108 C123.95113277 165.21282125 123.1113016 166.29095662 122.27083492 167.36859608 C120.17191907 170.0718642 118.09429461 172.79077463 116.02278805 175.51508045 C114.03712773 178.12381643 112.03864895 180.72264741 110.04036617 183.32172108 C109.63527828 183.84862537 109.23019039 184.37552967 108.81282711 184.91840076 C102.23145182 193.46964279 95.58826733 201.97316357 88.95833492 210.48676014 C79.03170121 223.22541622 79.03170121 223.22541622 69.18880367 236.02875233 C67.46704239 238.25806864 65.72734427 240.45830362 63.95442867 242.64593983 C63.48811031 243.22948231 63.02179195 243.81302479 62.54134274 244.41425037 C61.64946027 245.52910345 60.74826603 246.63659536 59.83626461 247.73505116 C57.92404629 250.14384433 56.83515185 251.82379486 56.39192867 254.89593983 C56.58843658 257.32266293 56.58843658 257.32266293 58.79036617 258.94672108 C59.45036617 259.33859608 60.11036617 259.73047108 60.79036617 260.13422108 C60.98630367 259.48453358 61.18224117 258.83484608 61.38411617 258.16547108 C63.39885717 253.82258493 66.31264696 250.36107176 69.29036617 246.63422108 C70.57191019 245.00945294 71.85315891 243.38445185 73.13411617 241.75922108 C73.76188961 240.96644764 74.38966305 240.1736742 75.03645992 239.35687733 C77.31492189 236.4694723 79.55498556 233.55511841 81.79036617 230.63422108 C88.68997524 221.64894588 95.66187736 212.7197912 102.62239742 203.78168201 C111.25790673 192.69241381 111.25790673 192.69241381 119.85286617 181.57172108 C120.63145992 180.5636742 121.41005367 179.55562733 122.21224117 178.51703358 C124.21321096 175.9100467 126.16888077 173.27199228 128.11849117 170.62640858 C128.69591061 169.85111805 129.27333004 169.07582752 129.86824703 168.27704334 C131.00068097 166.7557088 132.12433313 165.22778657 133.23787594 163.69257069 C138.03002817 157.28690921 138.03002817 157.28690921 142.79036617 156.13422108 C141.63352289 154.03466777 141.63352289 154.03466777 139.79036617 152.13422108 C134.66741837 151.14240458 133.13411958 153.44873119 130.10286617 157.32172108 Z M124.79036617 196.13422108 C118.00649631 203.06274158 115.62073513 210.50245642 113.25228024 219.63763905 C112.66054559 221.90267324 112.02478615 224.15212941 111.38411617 226.40375233 C110.99343297 227.84965016 110.60531704 229.29624468 110.22005367 230.74359608 C110.02966518 231.41139088 109.8392767 232.07918568 109.64311886 232.76721668 C108.7771515 236.23097561 108.64247175 237.82368887 110.2010107 241.09613514 C110.72549801 241.7687035 111.24998531 242.44127186 111.79036617 243.13422108 C113.92898362 242.34021186 113.92898362 242.34021186 114.49317074 240.40170765 C114.70492443 239.64908649 114.91667812 238.89646534 115.13484859 238.12103748 C115.37817425 237.26990376 115.6214999 236.41877003 115.87219906 235.54184437 C116.12749889 234.61584431 116.38279873 233.68984425 116.64583492 232.73578358 C116.91172924 231.78988361 117.17762356 230.84398365 117.45157528 229.86942005 C118.01271177 227.86471344 118.56978139 225.85886477 119.12312984 223.85199451 C119.97327449 220.77583561 120.84084887 217.7049748 121.71028805 214.63422108 C122.2523642 212.68920383 122.79341415 210.74390024 123.33333492 208.79828358 C123.59470745 207.87633198 123.85607998 206.95438038 124.12537289 206.00449085 C124.35924206 205.1470528 124.59311123 204.28961475 124.83406734 203.40619373 C125.04343426 202.65198139 125.25280117 201.89776905 125.46851254 201.12070179 C125.98072207 198.93214538 125.98072207 198.93214538 124.79036617 196.13422108 Z M129.79036617 232.13422108 C129.46036617 233.45422108 129.13036617 234.77422108 128.79036617 236.13422108 C140.34036617 236.13422108 151.89036617 236.13422108 163.79036617 236.13422108 C163.29536617 234.64922108 163.29536617 234.64922108 162.79036617 233.13422108 C159.31254035 231.9749458 156.60233361 232.02109041 152.93489742 232.03656483 C152.27326092 232.03797977 151.61162441 232.03939472 150.92993832 232.04085255 C148.82086789 232.04644112 146.7119044 232.05899143 144.60286617 232.07172108 C143.17122708 232.07673756 141.73958633 232.08130021 140.3079443 232.08539295 C136.80205029 232.09640677 133.29621867 232.11366353 129.79036617 232.13422108 Z M136.35286617 255.94672108 C135.88896481 256.53695057 135.42506344 257.12718006 134.94710445 257.7352953 C133.99776065 258.94464425 133.05789358 260.16149398 132.12776852 261.38568592 C130.20601546 263.8982079 128.18431385 266.32450407 126.16536617 268.75922108 C124.7058748 270.54994453 123.24752606 272.34159992 121.79036617 274.13422108 C117.43835111 279.48813889 113.07087793 284.82415016 108.59651852 290.07635975 C107.18365668 291.73771366 105.77923545 293.40588488 104.37630367 295.07562733 C102.82341225 296.92373877 101.25176614 298.73647384 99.64192867 300.53656483 C94.75761923 306.23492585 93.09504669 311.79073362 91.79036617 319.13422108 C95.40211536 316.4127807 98.22837012 313.60754575 101.04036617 310.07172108 C102.21212399 308.6118578 102.21212399 308.6118578 103.40755367 307.12250233 C104.1938818 306.13636951 104.98020992 305.1502367 105.79036617 304.13422108 C111.02210167 297.68298852 116.32588638 291.29984548 121.70394039 284.97064686 C125.34400411 280.68007262 128.90993719 276.33301926 132.45833492 271.96625233 C134.17302045 269.88392903 135.90138475 267.82116281 137.65364742 265.77093983 C138.14349117 265.19730701 138.63333492 264.6236742 139.13802242 264.03265858 C140.08436768 262.92732732 141.03340397 261.82429181 141.98567867 260.72406483 C144.88501742 257.33722664 147.38956447 253.87812862 149.79036617 250.13422108 C143.061141 249.46632573 140.41909333 250.39228268 136.35286617 255.94672108 Z M81.79036617 251.13422108 C81.46036617 252.12422108 81.13036617 253.11422108 80.79036617 254.13422108 C83.02684248 255.25245923 84.43928147 255.32818169 86.92317867 255.45062733 C87.72884274 255.49252186 88.5345068 255.53441639 89.36458492 255.57758045 C90.20634274 255.61689686 91.04810055 255.65621326 91.91536617 255.69672108 C92.76485836 255.73990467 93.61435055 255.78308826 94.48958492 255.82758045 C96.5896484 255.93376344 98.68998565 256.03450604 100.79036617 256.13422108 C98.34335964 252.98086214 97.12949521 252.19050207 93.11849117 251.52484608 C91.75990802 251.45889544 90.40025515 251.41249854 89.04036617 251.38422108 C88.34298336 251.35457264 87.64560055 251.3249242 86.92708492 251.29437733 C85.21545805 251.2240365 83.50290802 251.17682162 81.79036617 251.13422108 Z M86.79036617 268.13422108 C84.0428737 277.54588675 81.30404436 286.96002582 78.57618618 296.37740231 C77.30920412 300.750388 76.03927634 305.12247249 74.76253414 309.49261951 C73.53006744 313.71162318 72.30544693 317.93283228 71.08618832 322.15567112 C70.62010945 323.76478078 70.15122935 325.37308184 69.67948055 326.98053837 C69.01820859 329.23556824 68.3670378 331.49329146 67.71810055 333.75189686 C67.52173504 334.41292912 67.32536953 335.07396137 67.12305355 335.75502491 C66.02155043 339.63547622 65.24370593 343.11176534 65.79036617 347.13422108 C67.6711449 349.0467882 67.6711449 349.0467882 69.79036617 350.13422108 C70.04560055 349.21228962 70.04560055 349.21228962 70.30599117 348.27173328 C73.71290697 335.98593962 77.18178673 323.72178965 80.79036617 311.49359608 C81.45591104 309.22802403 82.12127544 306.96239896 82.78645992 304.69672108 C83.79920436 301.24772776 84.81546795 297.79994999 85.8416357 294.3549242 C86.85576745 290.94577575 87.85560485 287.53271162 88.85286617 284.11859608 C89.16417477 283.08539234 89.47548336 282.05218861 89.79622555 280.98767567 C90.07401852 280.02766651 90.35181149 279.06765736 90.63802242 278.07855701 C90.88560299 277.24129078 91.13318356 276.40402454 91.38826656 275.5413866 C91.84606173 272.80080013 91.48771195 270.80522207 90.79036617 268.13422108 C89.47036617 268.13422108 88.15036617 268.13422108 86.79036617 268.13422108 Z M248.79036617 449.13422108 C248.78625729 449.89976307 248.7821484 450.66530506 248.777915 451.4540453 C248.74471557 454.97318467 248.67404053 458.49065292 248.60286617 462.00922108 C248.594165 463.81519764 248.594165 463.81519764 248.58528805 465.65765858 C248.37532939 474.242635 247.21339022 481.88935924 240.77205563 488.0712328 C233.98360815 493.59974581 227.45270039 494.42873813 218.95751095 494.37473011 C217.97233183 494.37643896 216.98715272 494.37814781 215.97211969 494.37990844 C212.67399353 494.38320028 209.37607122 494.37220454 206.07796383 494.36127186 C203.71257692 494.36070768 201.34718965 494.36102443 198.98180294 494.36215687 C192.56084477 494.36273112 186.13996119 494.35096502 179.71902037 494.33700895 C173.68840221 494.32482449 167.65777579 494.32376273 161.6271476 494.32170521 C149.68430665 494.31733069 137.74149306 494.30402819 125.79866695 494.28509998 C114.19905897 494.26673488 102.59945842 494.25258146 90.99983883 494.24408436 C90.28453623 494.24355891 89.56923363 494.24303346 88.8322552 494.24249209 C85.24370195 494.23988197 81.65514865 494.23735457 78.06659532 494.23486829 C48.30783346 494.21414337 18.54910233 494.17877553 -11.20963383 494.13422108 C-5.21332878 499.02009927 -0.19318967 499.42850958 7.28382015 499.40837574 C8.72522239 499.41623076 8.72522239 499.41623076 10.19574386 499.42424446 C13.41832599 499.4392559 16.64074951 499.43994988 19.86336422 499.44061756 C22.17297287 499.44823835 24.48257897 499.45666571 26.79218197 499.46584034 C33.06922153 499.48780208 39.34621237 499.4965867 45.62328601 499.50166678 C49.54563682 499.50530884 53.46797484 499.51154817 57.39032078 499.51866817 C68.25842495 499.53812514 79.12651607 499.55463717 89.99463844 499.55754471 C91.03738599 499.55782606 91.03738599 499.55782606 92.10119914 499.5581131 C93.51036568 499.55847934 94.91953223 499.55884304 96.32869878 499.55920421 C97.37791384 499.55947843 97.37791384 499.55947843 98.44832516 499.55975819 C99.14865963 499.55993874 99.84899411 499.56011928 100.57055084 499.5603053 C111.91231656 499.56384512 123.25389221 499.59085625 134.59559204 499.62825608 C146.25075984 499.66638072 157.90582432 499.68526186 169.56105548 499.68600422 C176.10068904 499.68679704 182.64007742 499.69553827 189.17965412 499.72400188 C195.3332473 499.75018587 201.48639212 499.75238534 207.6400156 499.73634624 C209.89502217 499.73453197 212.15005453 499.74122046 214.40500546 499.75716496 C217.49119616 499.77765156 220.57582199 499.76705749 223.66199398 499.74895191 C224.99058116 499.76875186 224.99058116 499.76875186 226.34600848 499.78895181 C233.70046298 499.69086441 240.21512423 497.39732758 245.71369284 492.37880987 C251.15239129 486.56147384 253.18155339 480.55959431 253.08333492 472.66937733 C253.07909008 471.99120457 253.07484524 471.31303181 253.07047176 470.61430836 C253.05384558 468.47468705 253.01622791 466.3360516 252.97786617 464.19672108 C252.96279839 462.73514626 252.94911367 461.27355649 252.93685055 459.81195545 C252.90399594 456.25239711 252.85232858 452.69340551 252.79036617 449.13422108 C251.47036617 449.13422108 250.15036617 449.13422108 248.79036617 449.13422108 Z M66.79036617 468.13422108 C67.90891203 471.86036261 67.90891203 471.86036261 70.79036617 474.13422108 C71.47099117 472.92765858 71.47099117 472.92765858 72.16536617 471.69672108 C73.79036617 469.13422108 73.79036617 469.13422108 75.79036617 468.13422108 C78.26109126 468.01212492 80.70553825 467.94860022 83.1775732 467.92889881 C83.93864376 467.91899921 84.69971432 467.90909962 85.48384762 467.89890003 C88.00525941 467.86725429 90.52669006 467.84251551 93.04817867 467.81781483 C94.79410454 467.79724795 96.54002539 467.77625155 98.28594112 467.7548418 C102.88576359 467.69959362 107.4856312 467.65019647 112.08553219 467.60199451 C116.77754906 467.55179953 121.46950023 467.49610302 126.16145992 467.4408617 C135.37103923 467.33324654 144.58067554 467.23180903 153.79036617 467.13422108 C151.42993254 464.09827411 150.24657318 463.20310459 146.3818121 462.61955738 C145.00660498 462.59282444 143.63086242 462.58808045 142.25545406 462.60077381 C141.50212292 462.59215824 140.74879177 462.58354267 139.97263241 462.57466602 C137.48574486 462.55198837 134.99998264 462.558748 132.51302242 462.56781483 C130.78193483 462.56257971 129.05085009 462.55630364 127.31976986 462.54903126 C123.69240042 462.53862355 120.06542317 462.54319321 116.43807125 462.55780506 C111.7927842 462.57498686 107.14873474 462.55150788 102.50358582 462.51631546 C98.92870566 462.49433838 95.35412144 462.49578373 91.77919483 462.50408077 C90.06679522 462.50490026 88.35437387 462.49803725 86.64203739 462.48330975 C84.24547932 462.46585858 81.85114214 462.4804082 79.45467281 462.50311756 C78.39702724 462.48557926 78.39702724 462.48557926 77.3180151 462.46768665 C72.13634725 462.56742647 70.02403945 464.19720489 66.79036617 468.13422108 Z " fill="#FECA5A" transform="translate(140.20963382720947,-0.13422107696533203)"/>
<path d="M0 0 C1.25579317 -0.00668677 1.25579317 -0.00668677 2.53695589 -0.01350862 C3.4516288 -0.01332426 4.36630171 -0.01313989 5.30869198 -0.01294994 C6.28440102 -0.01662663 7.26011006 -0.02030332 8.26538604 -0.02409142 C11.54398172 -0.03512896 14.82254571 -0.03897225 18.10115719 -0.04278088 C20.44840248 -0.04904553 22.79564677 -0.05569233 25.14288998 -0.0626936 C32.86001043 -0.08373803 40.57713109 -0.09409705 48.29427242 -0.10406017 C50.9512594 -0.10810773 53.60824628 -0.11222465 56.26523304 -0.11641026 C67.31858553 -0.13342164 78.37193703 -0.14791423 89.4253006 -0.155159 C92.29251322 -0.15706878 95.15972584 -0.15898913 98.02693844 -0.16094494 C98.73953856 -0.16142868 99.45213869 -0.16191242 100.18633275 -0.16241082 C111.7214467 -0.17070525 123.25645676 -0.1960326 134.79152537 -0.22852562 C146.64440727 -0.26164058 158.49723645 -0.27961181 170.35016483 -0.28280324 C177.00102668 -0.28496438 183.65175438 -0.29410094 190.30257511 -0.31926441 C196.56279963 -0.34256702 202.82275209 -0.34676931 209.08300877 -0.33650303 C211.37629508 -0.33600808 213.66959489 -0.34231632 215.96284008 -0.35605907 C231.95849163 -0.44652532 244.43629182 0.14049734 256.47395992 11.75922108 C263.38289784 19.20226642 265.94536404 27.69066879 265.92458725 37.65473747 C265.92693948 38.41920219 265.92929171 39.18366692 265.93171522 39.97129723 C265.93840301 42.54784123 265.93794706 45.12433477 265.93753719 47.70088673 C265.94083596 49.56090987 265.94456155 51.42093231 265.94867867 53.28095382 C265.95870541 58.40419211 265.96241655 63.52741869 265.96506798 68.6506654 C265.96896904 74.17165286 265.97854753 79.69263103 265.98728085 85.21361256 C266.007051 98.55286227 266.01711223 111.89211275 266.02600864 125.23137346 C266.03039069 131.51147394 266.03575772 137.79157358 266.04099751 144.07167339 C266.05801044 164.94553313 266.07252974 185.81939272 266.07974625 206.69325829 C266.080221 208.04321043 266.08069689 209.39316257 266.08117391 210.74311471 C266.08141028 211.41256588 266.08164666 212.08201705 266.0818902 212.77175462 C266.08309139 216.16349149 266.08430684 219.55522835 266.08553219 222.94696522 C266.08577234 223.62006422 266.08601249 224.29316322 266.08625992 224.98665916 C266.09415132 246.8058833 266.11757968 268.62505305 266.15008813 290.44425343 C266.18439972 313.51584553 266.20409751 336.58741218 266.20739049 359.65903324 C266.20955636 372.23435485 266.21831636 384.80959653 266.24385166 397.38489437 C266.26554736 408.09412432 266.2736146 418.80325492 266.26388488 429.51250435 C266.25933693 434.97611647 266.2612554 440.43952357 266.28064632 445.90310764 C266.2982551 450.9078011 266.29729864 455.91213962 266.28174903 460.91683673 C266.27936951 462.72444224 266.28371436 464.53207218 266.29557768 466.33964033 C266.38199412 480.37965857 264.85058153 491.57924103 254.79036617 502.13422108 C242.73398683 513.57756418 228.25652968 512.71218407 212.68489742 512.6517992 C210.33661624 512.65722479 207.98833847 512.66434989 205.6400671 512.67303944 C199.28472526 512.69122353 192.92964411 512.68422539 186.5742979 512.67152309 C180.58787532 512.66240046 174.60147621 512.66937683 168.61505425 512.67523187 C156.0360971 512.68661613 143.45725688 512.67355792 130.87831891 512.65203041 C120.10382563 512.63416135 109.32950478 512.63726606 98.55501461 512.65570545 C86.01860597 512.67715038 73.4822996 512.6855177 60.94587517 512.6732564 C54.31861651 512.66694963 47.69145374 512.6661566 41.0642004 512.67940235 C34.83257045 512.6909882 28.60126495 512.68288472 22.36966991 512.65982533 C20.08768025 512.6545529 17.8056631 512.65602675 15.5236845 512.66487598 C0.03457785 512.71938628 -12.4154556 512.3755472 -24.20963383 501.13422108 C-34.41150615 490.38581988 -34.79318907 477.74550636 -34.7175684 463.72577381 C-34.72218212 461.85970512 -34.7285382 459.99364006 -34.73647738 458.12758255 C-34.75312894 453.02006109 -34.74494327 447.91283975 -34.7325325 442.8053174 C-34.72346727 437.28920934 -34.73745906 431.77315221 -34.74845219 426.25705433 C-34.76622622 415.45902764 -34.76240236 404.66111225 -34.75080162 393.86308122 C-34.74176321 385.08625422 -34.74054508 376.30945838 -34.74489689 367.53262806 C-34.74550982 366.28283112 -34.74612275 365.03303418 -34.74675426 363.74536461 C-34.74803318 361.20632052 -34.74933003 358.66727643 -34.75064462 356.12823236 C-34.76172219 333.00536689 -34.75023992 309.88255954 -34.72927424 286.75970744 C-34.71029271 265.66478627 -34.71199126 244.56996171 -34.7311182 223.47504139 C-34.75255068 199.75825497 -34.76094855 176.0415153 -34.74866915 152.32471657 C-34.74739497 149.79508242 -34.74613749 147.26544826 -34.74489689 144.73581409 C-34.74427979 143.49122895 -34.74366268 142.24664381 -34.74302688 140.96434397 C-34.73957512 132.19941309 -34.74539861 123.43451651 -34.7548151 114.66959095 C-34.76604059 103.98613211 -34.76298335 93.30279082 -34.74169213 82.61934543 C-34.73118924 77.1698734 -34.72704707 71.72059726 -34.74028873 66.27112675 C-34.75223398 61.27964567 -34.74561473 56.2885415 -34.72437853 51.29709446 C-34.71992153 49.49441687 -34.72215837 47.69170724 -34.73188168 45.88905036 C-34.8038888 31.42642464 -32.94039288 20.17979115 -22.58463383 9.45062733 C-16.42341783 3.73153563 -8.47264076 0.02100098 0 0 Z M12.79036617 28.13422108 C12.53966705 30.75992811 12.53966705 30.75992811 12.79036617 33.13422108 C14.77036617 34.12422108 14.77036617 34.12422108 16.79036617 35.13422108 C17.10618649 34.32597889 17.4220068 33.5177367 17.74739742 32.68500233 C19.79036617 30.13422108 19.79036617 30.13422108 21.63167477 29.62787342 C23.92306326 29.41600375 26.17681636 29.33870996 28.47786617 29.32172108 C29.67379391 29.284016 29.67379391 29.284016 30.8938818 29.2455492 C32.85884637 29.18671793 34.82466008 29.15759704 36.79036617 29.13422108 C36.13036617 27.81422108 35.47036617 26.49422108 34.79036617 25.13422108 C31.68637639 25.04711818 28.5827007 24.99379799 25.47786617 24.94672108 C24.59679195 24.92158436 23.71571774 24.89644764 22.8079443 24.8705492 C21.9603857 24.86088123 21.11282711 24.85121326 20.23958492 24.84125233 C19.45929928 24.82554188 18.67901363 24.80983143 17.87508297 24.79364491 C15.24310711 25.22362574 14.37161996 26.01972833 12.79036617 28.13422108 Z M80.97711849 26.50024891 C79.59980769 28.14493451 79.59980769 28.14493451 79.35286617 30.63422108 C79.55447499 33.29328562 79.55447499 33.29328562 81.79036617 34.94672108 C82.45036617 35.33859608 83.11036617 35.73047108 83.79036617 36.13422108 C84.12036617 34.15422108 84.45036617 32.17422108 84.79036617 30.13422108 C113.00536617 29.63922108 113.00536617 29.63922108 141.79036617 29.13422108 C141.29536617 27.64922108 141.29536617 27.64922108 140.79036617 26.13422108 C138.21686928 24.84747263 136.35193358 24.99313813 133.47029781 24.97308826 C131.80330585 24.95867695 131.80330585 24.95867695 130.10263729 24.94397449 C128.89743938 24.93972462 127.69224148 24.93547474 126.45052242 24.93109608 C124.60097202 24.92254597 124.60097202 24.92254597 122.71405697 24.91382313 C120.10221372 24.90436378 117.49035848 24.89783545 114.87850094 24.8939867 C112.19639734 24.88958888 109.51461309 24.87564951 106.8326025 24.85297108 C102.97597571 24.82261327 99.11975515 24.81195051 95.26302242 24.80609608 C94.05984875 24.79374928 92.85667507 24.78140247 91.61704159 24.76868153 C90.50256145 24.77168262 89.38808132 24.77468372 88.23982906 24.77777576 C87.25768932 24.77413013 86.27554958 24.7704845 85.26364803 24.7667284 C82.74895873 24.93907207 82.74895873 24.93907207 80.97711849 26.50024891 Z M247.79036617 23.13422108 C248.12036617 33.36422108 248.45036617 43.59422108 248.79036617 54.13422108 C159.69036617 54.13422108 70.59036617 54.13422108 -21.20963383 54.13422108 C-21.20963383 55.45422108 -21.20963383 56.77422108 -21.20963383 58.13422108 C69.21036617 58.13422108 159.63036617 58.13422108 252.79036617 58.13422108 C254.55029953 34.45259482 254.55029953 34.45259482 248.79036617 23.13422108 C248.46036617 23.13422108 248.13036617 23.13422108 247.79036617 23.13422108 Z M-22.20963383 70.13422108 C-22.23250982 116.0383774 -22.25013696 161.94253311 -22.26069916 207.846694 C-22.2619499 213.26293025 -22.26324422 218.67916649 -22.26456547 224.09540272 C-22.26482778 225.1737031 -22.26509009 226.25200348 -22.26536035 227.36297963 C-22.26971471 244.83539129 -22.27760098 262.30779967 -22.28678662 279.78020938 C-22.29612964 297.70109998 -22.30169082 315.62198886 -22.30372232 333.54288179 C-22.3050962 344.6059562 -22.3094395 355.66902134 -22.31755029 366.73209289 C-22.32282574 374.31273257 -22.32443629 381.89336744 -22.3231352 389.47400882 C-22.32249308 393.85123557 -22.32349524 398.22844609 -22.3288393 402.60566998 C-22.33369359 406.61087224 -22.33395904 410.61604729 -22.33053272 414.62125079 C-22.33010904 416.07220553 -22.33138766 417.52316194 -22.33451701 418.97411337 C-22.33851762 420.94310866 -22.33577474 422.91211422 -22.33268166 424.88111115 C-22.33306138 425.97584486 -22.3334411 427.07057857 -22.33383232 428.19848603 C-22.26975631 431.5030815 -22.26975631 431.5030815 -21.20963383 436.13422108 C69.21036617 436.13422108 159.63036617 436.13422108 252.79036617 436.13422108 C252.79036617 315.68422108 252.79036617 195.23422108 252.79036617 71.13422108 C249.5343998 70.32022948 247.33413099 70.00966296 244.06586742 70.01117325 C243.11390303 70.0091822 242.16193863 70.00719115 241.18112683 70.00513977 C240.13833121 70.00805261 239.09553559 70.01096545 238.0211401 70.01396656 C236.91107971 70.01311214 235.80101932 70.01225771 234.65732074 70.01137739 C230.92463475 70.00972567 227.19199336 70.015239 223.45931149 70.02069569 C220.78880366 70.02097765 218.11829859 70.02086371 215.4477911 70.02025318 C209.69163962 70.01972865 203.93549948 70.0228681 198.17935085 70.02849102 C189.85691084 70.03661555 181.53447631 70.03922222 173.21203277 70.04047901 C159.70965772 70.04266803 146.20728872 70.04932405 132.70491695 70.05878162 C119.58805528 70.06795962 106.47119525 70.07503856 93.35433102 70.07928944 C92.54590611 70.07955216 91.7374812 70.07981488 90.90455857 70.08008557 C86.84895781 70.0813906 82.79335703 70.08265431 78.73775625 70.08389747 C45.08862185 70.09426541 11.43949475 70.11187965 -22.20963383 70.13422108 Z M248.79036617 449.13422108 C248.78625729 449.89976307 248.7821484 450.66530506 248.777915 451.4540453 C248.74471557 454.97318467 248.67404053 458.49065292 248.60286617 462.00922108 C248.594165 463.81519764 248.594165 463.81519764 248.58528805 465.65765858 C248.37532939 474.242635 247.21339022 481.88935924 240.77205563 488.0712328 C233.98360815 493.59974581 227.45270039 494.42873813 218.95751095 494.37473011 C217.97233183 494.37643896 216.98715272 494.37814781 215.97211969 494.37990844 C212.67399353 494.38320028 209.37607122 494.37220454 206.07796383 494.36127186 C203.71257692 494.36070768 201.34718965 494.36102443 198.98180294 494.36215687 C192.56084477 494.36273112 186.13996119 494.35096502 179.71902037 494.33700895 C173.68840221 494.32482449 167.65777579 494.32376273 161.6271476 494.32170521 C149.68430665 494.31733069 137.74149306 494.30402819 125.79866695 494.28509998 C114.19905897 494.26673488 102.59945842 494.25258146 90.99983883 494.24408436 C90.28453623 494.24355891 89.56923363 494.24303346 88.8322552 494.24249209 C85.24370195 494.23988197 81.65514865 494.23735457 78.06659532 494.23486829 C48.30783346 494.21414337 18.54910233 494.17877553 -11.20963383 494.13422108 C-5.21332878 499.02009927 -0.19318967 499.42850958 7.28382015 499.40837574 C8.72522239 499.41623076 8.72522239 499.41623076 10.19574386 499.42424446 C13.41832599 499.4392559 16.64074951 499.43994988 19.86336422 499.44061756 C22.17297287 499.44823835 24.48257897 499.45666571 26.79218197 499.46584034 C33.06922153 499.48780208 39.34621237 499.4965867 45.62328601 499.50166678 C49.54563682 499.50530884 53.46797484 499.51154817 57.39032078 499.51866817 C68.25842495 499.53812514 79.12651607 499.55463717 89.99463844 499.55754471 C91.03738599 499.55782606 91.03738599 499.55782606 92.10119914 499.5581131 C93.51036568 499.55847934 94.91953223 499.55884304 96.32869878 499.55920421 C97.37791384 499.55947843 97.37791384 499.55947843 98.44832516 499.55975819 C99.14865963 499.55993874 99.84899411 499.56011928 100.57055084 499.5603053 C111.91231656 499.56384512 123.25389221 499.59085625 134.59559204 499.62825608 C146.25075984 499.66638072 157.90582432 499.68526186 169.56105548 499.68600422 C176.10068904 499.68679704 182.64007742 499.69553827 189.17965412 499.72400188 C195.3332473 499.75018587 201.48639212 499.75238534 207.6400156 499.73634624 C209.89502217 499.73453197 212.15005453 499.74122046 214.40500546 499.75716496 C217.49119616 499.77765156 220.57582199 499.76705749 223.66199398 499.74895191 C224.99058116 499.76875186 224.99058116 499.76875186 226.34600848 499.78895181 C233.70046298 499.69086441 240.21512423 497.39732758 245.71369284 492.37880987 C251.15239129 486.56147384 253.18155339 480.55959431 253.08333492 472.66937733 C253.07909008 471.99120457 253.07484524 471.31303181 253.07047176 470.61430836 C253.05384558 468.47468705 253.01622791 466.3360516 252.97786617 464.19672108 C252.96279839 462.73514626 252.94911367 461.27355649 252.93685055 459.81195545 C252.90399594 456.25239711 252.85232858 452.69340551 252.79036617 449.13422108 C251.47036617 449.13422108 250.15036617 449.13422108 248.79036617 449.13422108 Z M66.79036617 468.13422108 C67.90891203 471.86036261 67.90891203 471.86036261 70.79036617 474.13422108 C71.47099117 472.92765858 71.47099117 472.92765858 72.16536617 471.69672108 C73.79036617 469.13422108 73.79036617 469.13422108 75.79036617 468.13422108 C78.26109126 468.01212492 80.70553825 467.94860022 83.1775732 467.92889881 C83.93864376 467.91899921 84.69971432 467.90909962 85.48384762 467.89890003 C88.00525941 467.86725429 90.52669006 467.84251551 93.04817867 467.81781483 C94.79410454 467.79724795 96.54002539 467.77625155 98.28594112 467.7548418 C102.88576359 467.69959362 107.4856312 467.65019647 112.08553219 467.60199451 C116.77754906 467.55179953 121.46950023 467.49610302 126.16145992 467.4408617 C135.37103923 467.33324654 144.58067554 467.23180903 153.79036617 467.13422108 C151.42993254 464.09827411 150.24657318 463.20310459 146.3818121 462.61955738 C145.00660498 462.59282444 143.63086242 462.58808045 142.25545406 462.60077381 C141.50212292 462.59215824 140.74879177 462.58354267 139.97263241 462.57466602 C137.48574486 462.55198837 134.99998264 462.558748 132.51302242 462.56781483 C130.78193483 462.56257971 129.05085009 462.55630364 127.31976986 462.54903126 C123.69240042 462.53862355 120.06542317 462.54319321 116.43807125 462.55780506 C111.7927842 462.57498686 107.14873474 462.55150788 102.50358582 462.51631546 C98.92870566 462.49433838 95.35412144 462.49578373 91.77919483 462.50408077 C90.06679522 462.50490026 88.35437387 462.49803725 86.64203739 462.48330975 C84.24547932 462.46585858 81.85114214 462.4804082 79.45467281 462.50311756 C78.39702724 462.48557926 78.39702724 462.48557926 77.3180151 462.46768665 C72.13634725 462.56742647 70.02403945 464.19720489 66.79036617 468.13422108 Z " fill="#333333" transform="translate(140.20963382720947,-0.13422107696533203)"/>
<path d="M0 0 C89.43 0 178.86 0 271 0 C271 32.81132075 271 32.81132075 262.6875 41.4375 C256.37666385 46.76276476 249.00521259 47.44018764 241.12559509 47.38095093 C240.1599803 47.3856309 239.1943655 47.39031087 238.19948965 47.39513266 C234.97912422 47.40705361 231.7591866 47.39763664 228.53881836 47.38818359 C226.22389987 47.39225054 223.90898332 47.39759312 221.59407043 47.40411377 C215.31736632 47.4177776 209.04081032 47.41249267 202.76410365 47.40297651 C196.19303793 47.39537606 189.6219848 47.40242652 183.05091858 47.40713501 C171.31107415 47.4135397 159.57129198 47.40362417 147.83145834 47.388357 C137.19383929 47.3749514 126.55631845 47.37728549 115.91870117 47.39111328 C103.55412766 47.40717849 91.18961673 47.41313843 78.8250342 47.40427649 C72.28394085 47.39960024 65.7429151 47.39897398 59.2018261 47.40888596 C53.05319802 47.41755266 46.90475543 47.41153888 40.75614738 47.39420319 C38.49989123 47.39023697 36.24361947 47.39137467 33.98736954 47.39799118 C30.90717614 47.40619107 27.82757683 47.39590344 24.74742126 47.38095093 C23.40879584 47.39098918 23.40879584 47.39098918 22.04312748 47.40123022 C15.31559592 47.33790204 10.6804107 46.07122645 5.25 41.875 C-3.96431215 30.1011567 0 13.61835937 0 0 Z M89 20 C90.11854586 23.72614153 90.11854586 23.72614153 93 26 C93.680625 24.7934375 93.680625 24.7934375 94.375 23.5625 C96 21 96 21 98 20 C100.47072509 19.87790384 102.91517208 19.81437914 105.38720703 19.79467773 C106.14827759 19.78477814 106.90934814 19.77487854 107.69348145 19.76467896 C110.21489324 19.73303322 112.73632388 19.70829443 115.2578125 19.68359375 C117.00373836 19.66302687 118.74965922 19.64203047 120.49557495 19.62062073 C125.09539742 19.56537254 129.69526503 19.5159754 134.29516602 19.46777344 C138.98718289 19.41757845 143.67913405 19.36188195 148.37109375 19.30664062 C157.58067306 19.19902546 166.79030937 19.09758796 176 19 C173.63956637 15.96405303 172.456207 15.06888351 168.59144592 14.4853363 C167.2162388 14.45860336 165.84049625 14.45385937 164.46508789 14.46655273 C163.71175674 14.45793716 162.9584256 14.44932159 162.18226624 14.44044495 C159.69537869 14.41776729 157.20961647 14.42452692 154.72265625 14.43359375 C152.99156866 14.42835863 151.26048392 14.42208256 149.52940369 14.41481018 C145.90203425 14.40440247 142.27505699 14.40897214 138.64770508 14.42358398 C134.00241802 14.44076578 129.35836857 14.41728681 124.71321964 14.38209438 C121.13833949 14.3601173 117.56375527 14.36156265 113.98882866 14.3698597 C112.27642904 14.37067918 110.5640077 14.36381617 108.85167122 14.34908867 C106.45511315 14.3316375 104.06077596 14.34618712 101.66430664 14.36889648 C100.60666107 14.35135818 100.60666107 14.35135818 99.52764893 14.33346558 C94.34598108 14.43320539 92.23367327 16.06298381 89 20 Z " fill="#0E99A6" transform="translate(118,448)"/>
<path d="M0 0 C0.94768088 -0.00297112 1.89536176 -0.00594224 2.87176025 -0.0090034 C6.06139678 -0.01770565 9.25099584 -0.01919995 12.44064331 -0.02069092 C14.72202129 -0.02531809 17.00339849 -0.03034261 19.28477478 -0.03573608 C25.49368081 -0.04887359 31.70257602 -0.05530791 37.91149378 -0.05974674 C41.78993406 -0.06267586 45.66837136 -0.0667804 49.54681015 -0.07125092 C60.28873423 -0.0833626 71.03065443 -0.09374319 81.77258492 -0.09712601 C82.46016891 -0.09734557 83.14775291 -0.09756514 83.85617279 -0.09779136 C84.54539224 -0.09800964 85.23461169 -0.09822791 85.94471657 -0.09845281 C87.34130804 -0.09889627 88.7378995 -0.09934283 90.13449097 -0.09979248 C90.82724691 -0.10001391 91.52000285 -0.10023534 92.2337514 -0.10046348 C103.45016732 -0.10440854 114.66651816 -0.12185292 125.88290896 -0.145152 C137.4035292 -0.16888941 148.92410756 -0.18107123 160.44475353 -0.18249393 C166.91110476 -0.18354208 173.37736426 -0.18945206 179.84369278 -0.20731354 C185.92904136 -0.22379491 192.01422926 -0.22594927 198.09959221 -0.21717453 C200.33082319 -0.21640414 202.56206281 -0.22074705 204.79327202 -0.23063278 C207.84454982 -0.24335684 210.89525902 -0.23747262 213.9465332 -0.22705078 C215.26402673 -0.23913539 215.26402673 -0.23913539 216.6081363 -0.25146413 C223.69955038 -0.19500492 230.10563741 0.92962745 235.72921753 5.45294189 C245.0600578 17.25371047 240.85421753 23.9193211 240.85421753 42.14044189 C151.42421753 42.14044189 61.99421753 42.14044189 -30.14578247 42.14044189 C-30.14578247 15.42268712 -30.14578247 15.42268712 -22.11843872 6.86700439 C-15.53649897 1.10617792 -8.50162998 -0.00826108 0 0 Z M4.85421753 16.14044189 C4.6035184 18.76614893 4.6035184 18.76614893 4.85421753 21.14044189 C6.83421753 22.13044189 6.83421753 22.13044189 8.85421753 23.14044189 C9.17003784 22.33219971 9.48585815 21.52395752 9.81124878 20.69122314 C11.85421753 18.14044189 11.85421753 18.14044189 13.69552612 17.63409424 C15.98691462 17.42222457 18.24066772 17.34493078 20.54171753 17.32794189 C21.73764526 17.29023682 21.73764526 17.29023682 22.95773315 17.25177002 C24.92269772 17.19293874 26.88851144 17.16381786 28.85421753 17.14044189 C28.19421753 15.82044189 27.53421753 14.50044189 26.85421753 13.14044189 C23.75022775 13.053339 20.64655205 13.00001881 17.54171753 12.95294189 C16.66064331 12.92780518 15.77956909 12.90266846 14.87179565 12.87677002 C14.02423706 12.86710205 13.17667847 12.85743408 12.30343628 12.84747314 C11.52315063 12.8317627 10.74286499 12.81605225 9.93893433 12.79986572 C7.30695846 13.22984655 6.43547132 14.02594915 4.85421753 16.14044189 Z M73.04096985 14.50646973 C71.66365905 16.15115533 71.66365905 16.15115533 71.41671753 18.64044189 C71.61832634 21.29950644 71.61832634 21.29950644 73.85421753 22.95294189 C74.51421753 23.34481689 75.17421753 23.73669189 75.85421753 24.14044189 C76.18421753 22.16044189 76.51421753 20.18044189 76.85421753 18.14044189 C105.06921753 17.64544189 105.06921753 17.64544189 133.85421753 17.14044189 C133.35921753 15.65544189 133.35921753 15.65544189 132.85421753 14.14044189 C130.28072064 12.85369345 128.41578494 12.99935895 125.53414917 12.97930908 C123.86715721 12.96489777 123.86715721 12.96489777 122.16648865 12.95019531 C120.96129074 12.94594543 119.75609283 12.94169556 118.51437378 12.93731689 C116.66482338 12.92876678 116.66482338 12.92876678 114.77790833 12.92004395 C112.16606507 12.9105846 109.55420984 12.90405627 106.94235229 12.90020752 C104.2602487 12.89580969 101.57846444 12.88187033 98.89645386 12.85919189 C95.03982707 12.82883409 91.1836065 12.81817133 87.32687378 12.81231689 C86.1237001 12.79997009 84.92052643 12.78762329 83.68089294 12.77490234 C82.56641281 12.77790344 81.45193268 12.78090454 80.30368042 12.78399658 C79.32154068 12.78035095 78.33940094 12.77670532 77.32749939 12.77294922 C74.81281009 12.94529289 74.81281009 12.94529289 73.04096985 14.50646973 Z " fill="#CCCE7C" transform="translate(148.14578247070313,11.85955810546875)"/>
<path d="M0 0 C2 2 2 2 2.31640625 5.4140625 C2.16779799 10.97126218 0.52193377 16.08286627 -1.0625 21.375 C-1.70710536 23.59725752 -2.35028867 25.81992794 -2.9921875 28.04296875 C-3.32444336 29.18556152 -3.65669922 30.3281543 -3.99902344 31.50537109 C-5.63399459 37.21341428 -7.15918456 42.95015622 -8.6875 48.6875 C-10.81319483 56.63345181 -12.97410558 64.56323222 -15.2734375 72.4609375 C-15.89489918 74.63271218 -16.4586742 76.80736886 -17 79 C-15.40345581 78.97643433 -15.40345581 78.97643433 -13.7746582 78.95239258 C-9.81444914 78.89796946 -5.85427296 78.86360507 -1.89379883 78.83520508 C-0.18182816 78.8201466 1.53010411 78.79969545 3.24194336 78.77368164 C5.70696505 78.7371681 8.17147535 78.72024438 10.63671875 78.70703125 C11.77919319 78.68380547 11.77919319 78.68380547 12.94474792 78.66011047 C17.46935131 78.65868725 20.44874389 79.11213738 24 82 C25.046875 84.87109375 25.046875 84.87109375 25 88 C23.515625 90.53515625 23.515625 90.53515625 21.25 93.0625 C20.00476563 94.48755859 20.00476563 94.48755859 18.734375 95.94140625 C18.28771484 96.43914551 17.84105469 96.93688477 17.38085938 97.44970703 C15.03231403 100.08642255 12.7735603 102.79869666 10.5 105.5 C9.56524752 106.60168415 8.63035262 107.70324747 7.6953125 108.8046875 C3.73490905 113.48567608 -0.13253008 118.24217729 -4 123 C-9.23918408 129.44532718 -14.53539575 135.83422912 -19.91357422 142.16357422 C-22.81219839 145.58020732 -25.67140579 149.02486997 -28.5 152.5 C-31.7882374 156.53983452 -35.12731461 160.53083277 -38.5 164.5 C-44.22429482 171.23947977 -49.83013403 178.0714448 -55.3828125 184.953125 C-56.16398437 185.91734375 -56.94515625 186.8815625 -57.75 187.875 C-58.79414063 189.17050781 -58.79414063 189.17050781 -59.859375 190.4921875 C-66.13501178 197.84430212 -66.13501178 197.84430212 -70.125 198.5625 C-73 198 -73 198 -74.9375 196.5625 C-78.08527476 188.97080793 -73.42168429 178.87765068 -71.19035149 171.39217186 C-70.5154866 169.12819138 -69.84988303 166.86165974 -69.18641663 164.59431458 C-68.01720882 160.6041526 -66.84000413 156.61640373 -65.66009521 152.62939453 C-63.76695026 146.23181505 -61.88067591 139.83225642 -60.00470161 133.42962074 C-59.34901492 131.19916637 -58.68657462 128.97079439 -58.02366638 126.74247742 C-57.62217826 125.37682437 -57.22096404 124.01109075 -56.82006836 122.64526367 C-56.46778671 121.45551437 -56.11550507 120.26576508 -55.75254822 119.03996277 C-54.83980114 115.87482146 -54.83980114 115.87482146 -55 112 C-61.88443982 110.95103949 -68.66243041 109.97975601 -75.625 109.6875 C-79.53495739 109.39034324 -80.63362122 109.29976446 -83.75 106.75 C-85.1601984 103.64756351 -85.49171053 102.36081757 -85 99 C-83.34824948 96.58338483 -81.70879388 94.45785712 -79.8125 92.25 C-78.70000071 90.90906177 -77.5893893 89.5665555 -76.48046875 88.22265625 C-75.90345215 87.5280127 -75.32643555 86.83336914 -74.73193359 86.11767578 C-71.94255364 82.70703556 -69.28506131 79.19931914 -66.625 75.6875 C-60.4028407 67.50855184 -54.10222406 59.39270837 -47.78369141 51.28808594 C-44.77046583 47.42277659 -41.75979468 43.55548127 -38.75 39.6875 C-37.8684021 38.55453491 -37.8684021 38.55453491 -36.96899414 37.39868164 C-33.633179 33.10883745 -30.30962331 28.81008134 -27 24.5 C-25.80351126 22.94456464 -24.60700759 21.38914074 -23.41015625 19.83398438 C-22.35449245 18.46103658 -21.29999722 17.08719014 -20.24609375 15.71289062 C-18.33450527 13.22233027 -16.41764041 10.73590248 -14.5 8.25 C-13.88769531 7.45013672 -13.27539062 6.65027344 -12.64453125 5.82617188 C-12.07089844 5.08431641 -11.49726563 4.34246094 -10.90625 3.578125 C-10.39384766 2.91200195 -9.88144531 2.24587891 -9.35351562 1.55957031 C-6.45707114 -1.77781918 -4.03631836 -0.92498962 0 0 Z M-21 39 C-27.78386986 45.9285205 -30.16963104 53.36823535 -32.53808594 62.50341797 C-33.12982058 64.76845216 -33.76558002 67.01790833 -34.40625 69.26953125 C-34.7969332 70.71542909 -35.18504913 72.16202361 -35.5703125 73.609375 C-35.76070099 74.2771698 -35.95108948 74.9449646 -36.14724731 75.63299561 C-37.01321467 79.09675453 -37.14789442 80.68946779 -35.58935547 83.96191406 C-35.06486816 84.63448242 -34.54038086 85.30705078 -34 86 C-31.86138256 85.20599078 -31.86138256 85.20599078 -31.29719543 83.26748657 C-31.08544174 82.51486542 -30.87368805 81.76224426 -30.65551758 80.98681641 C-30.41219193 80.13568268 -30.16886627 79.28454895 -29.91816711 78.40762329 C-29.66286728 77.48162323 -29.40756744 76.55562317 -29.14453125 75.6015625 C-28.87863693 74.65566254 -28.61274261 73.70976257 -28.33879089 72.73519897 C-27.7776544 70.73049236 -27.22058478 68.7246437 -26.66723633 66.71777344 C-25.81709169 63.64161453 -24.9495173 60.57075372 -24.08007812 57.5 C-23.53800198 55.55498276 -22.99695202 53.60967916 -22.45703125 51.6640625 C-22.19565872 50.7421109 -21.93428619 49.8201593 -21.66499329 48.87026978 C-21.43112411 48.01283173 -21.19725494 47.15539368 -20.95629883 46.27197266 C-20.74693192 45.51776031 -20.537565 44.76354797 -20.32185364 43.98648071 C-19.8096441 41.7979243 -19.8096441 41.7979243 -21 39 Z M-9.4375 98.8125 C-9.90140137 99.40272949 -10.36530273 99.99295898 -10.84326172 100.60107422 C-11.79260552 101.81042317 -12.73247259 103.0272729 -13.66259766 104.25146484 C-15.58435071 106.76398682 -17.60605232 109.190283 -19.625 111.625 C-21.08449137 113.41572346 -22.54284011 115.20737884 -24 117 C-28.35201507 122.35391782 -32.71948825 127.68992909 -37.19384766 132.94213867 C-38.60670949 134.60349258 -40.01113073 136.27166381 -41.4140625 137.94140625 C-42.96695393 139.78951769 -44.53860003 141.60225277 -46.1484375 143.40234375 C-51.03274694 149.10070477 -52.69531949 154.65651254 -54 162 C-50.38825082 159.27855962 -47.56199605 156.47332467 -44.75 152.9375 C-43.57824219 151.47763672 -43.57824219 151.47763672 -42.3828125 149.98828125 C-41.59648437 149.00214844 -40.81015625 148.01601563 -40 147 C-34.7682645 140.54876744 -29.46447979 134.16562441 -24.08642578 127.83642578 C-20.44636206 123.54585154 -16.88042898 119.19879819 -13.33203125 114.83203125 C-11.61734572 112.74970795 -9.88898143 110.68694173 -8.13671875 108.63671875 C-7.646875 108.06308594 -7.15703125 107.48945313 -6.65234375 106.8984375 C-5.7059985 105.79310624 -4.7569622 104.69007073 -3.8046875 103.58984375 C-0.90534875 100.20300557 1.5991983 96.74390755 4 93 C-2.72922517 92.33210465 -5.37127284 93.2580616 -9.4375 98.8125 Z M-64 94 C-64.33 94.99 -64.66 95.98 -65 97 C-62.76352369 98.11823815 -61.35108471 98.19396061 -58.8671875 98.31640625 C-58.06152344 98.35830078 -57.25585938 98.40019531 -56.42578125 98.44335938 C-55.58402344 98.48267578 -54.74226563 98.52199219 -53.875 98.5625 C-53.02550781 98.60568359 -52.17601562 98.64886719 -51.30078125 98.69335938 C-49.20071777 98.79954236 -47.10038052 98.90028497 -45 99 C-47.44700653 95.84664106 -48.66087096 95.05628099 -52.671875 94.390625 C-54.03045815 94.32467436 -55.39011102 94.27827746 -56.75 94.25 C-57.44738281 94.22035156 -58.14476562 94.19070312 -58.86328125 94.16015625 C-60.57490813 94.08981542 -62.28745815 94.04260054 -64 94 Z " fill="#343333" transform="translate(286,157)"/>
<path d="M0 0 C1.49676719 3.91119879 0.46038354 6.67889509 -0.72265625 10.59375 C-1.09982147 11.88405261 -1.47676796 13.17441916 -1.85351562 14.46484375 C-2.45691235 16.48731739 -3.06500135 18.50824125 -3.67797852 20.52783203 C-4.26774317 22.48388083 -4.83970692 24.44449648 -5.41015625 26.40625 C-5.76215088 27.57478516 -6.11414551 28.74332031 -6.47680664 29.94726562 C-7.23894047 32.9152069 -7.23894047 32.9152069 -6.19311523 35.31445312 C-4.93873606 37.08654926 -3.56546868 38.49975919 -2 40 C-1.34 40.99 -0.68 41.98 0 43 C2.71004503 43.510605 2.71004503 43.510605 5.8828125 43.51171875 C7.04941406 43.54716797 8.21601563 43.58261719 9.41796875 43.61914062 C10.64128906 43.64169922 11.86460937 43.66425781 13.125 43.6875 C14.35605469 43.72166016 15.58710938 43.75582031 16.85546875 43.79101562 C19.9035551 43.87371564 22.95134571 43.94279427 26 44 C23.12876019 48.50709984 19.96634479 52.49460937 16.4375 56.5 C12.33772851 61.21188362 8.37902724 65.99363365 4.5625 70.9375 C0.09931537 76.70940739 -4.60664379 82.22798715 -9.41650391 87.71289062 C-13.46239093 92.3388639 -17.32636339 97.07064761 -21 102 C-22.17222246 98.48333261 -21.76161762 97.42789124 -20.70703125 93.94921875 C-20.25855835 92.44560791 -20.25855835 92.44560791 -19.80102539 90.91162109 C-19.31170532 89.31568115 -19.31170532 89.31568115 -18.8125 87.6875 C-18.16145166 85.50651241 -17.51040996 83.32552284 -16.859375 81.14453125 C-15.99877975 78.29543939 -15.13567405 75.44712421 -14.27148438 72.59912109 C-13.695414 70.6930059 -13.12847413 68.78413737 -12.5625 66.875 C-12.25441406 65.86179687 -11.94632813 64.84859375 -11.62890625 63.8046875 C-10.93060678 60.69053209 -10.64491472 58.1784463 -11 55 C-14.12737388 50.55895959 -18.66973457 48.1085559 -23.9375 47.11328125 C-27.61118362 46.56477534 -31.2932529 46.23930251 -35 46 C-31.08027798 39.65623937 -26.57925575 33.87944159 -21.89550781 28.09594727 C-17.27869668 22.38459676 -12.80721198 16.57044286 -8.36499023 10.72265625 C-5.62055657 7.11117317 -2.85400882 3.52634744 0 0 Z " fill="#FB6E68" transform="translate(257,205)"/>
<path d="M0 0 C1.14484612 -0.01073296 1.14484612 -0.01073296 2.31282043 -0.02168274 C4.82700086 -0.03854382 7.3393915 -0.01918423 9.85351562 0.00219727 C11.60559232 0.00136832 13.35766893 -0.00109203 15.10974121 -0.00511169 C18.77831484 -0.0079679 22.44627734 0.00671379 26.11474609 0.03417969 C30.81257973 0.06826251 35.50932078 0.06224278 40.20720673 0.04351711 C43.82412795 0.03293864 47.4407958 0.04189258 51.05769348 0.05690193 C52.78960924 0.062078 54.52155153 0.06160891 56.25346375 0.05535698 C58.67606316 0.04989436 61.09710897 0.07031124 63.51953125 0.09765625 C64.23240799 0.09113037 64.94528473 0.08460449 65.67976379 0.07788086 C69.21326657 0.1455573 71.18799002 0.58632611 74.21228027 2.47303772 C76.25976562 4.63110352 76.25976562 4.63110352 76.75976562 7.69360352 C76.25976562 10.63110352 76.25976562 10.63110352 75.21728516 12.29043579 C72.17480621 14.37417149 68.99978532 14.04806644 65.43945312 14.01928711 C64.24633514 14.02717255 64.24633514 14.02717255 63.02911377 14.03521729 C60.39746517 14.04843098 57.76642048 14.03967455 55.13476562 14.02954102 C53.30777876 14.03156136 51.48079269 14.03447247 49.65380859 14.03823853 C45.82381517 14.04266373 41.99403155 14.03622454 38.1640625 14.0222168 C33.25091857 14.00512477 28.33826626 14.01496491 23.42514038 14.03293419 C19.65222458 14.04376674 15.87942564 14.04032812 12.10650635 14.03255081 C10.29477887 14.03054734 8.48304084 14.03301322 6.67132568 14.03998947 C4.14062332 14.04759532 1.6107208 14.03601238 -0.91992188 14.01928711 C-2.04681427 14.02839615 -2.04681427 14.02839615 -3.19647217 14.03768921 C-8.25789192 13.9756131 -8.25789192 13.9756131 -10.66650391 12.25527954 C-12.21953411 9.90609184 -12.74023438 8.47298073 -12.74023438 5.63110352 C-8.9961178 0.75722918 -5.89371481 -0.09666537 0 0 Z " fill="#323334" transform="translate(223.740234375,466.368896484375)"/>
<path d="M0 0 C1.65730888 -0.01925285 1.65730888 -0.01925285 3.34809875 -0.03889465 C4.54702255 -0.04628159 5.74594635 -0.05366852 6.98120117 -0.0612793 C8.20949142 -0.06935104 9.43778168 -0.07742279 10.70329285 -0.08573914 C13.30673812 -0.09958939 15.91020162 -0.11030731 18.51367188 -0.11816406 C22.49726713 -0.13139295 26.48025272 -0.17926321 30.46362305 -0.22338867 C32.99030964 -0.23351477 35.5170033 -0.24203113 38.04370117 -0.2487793 C39.83297783 -0.27504143 39.83297783 -0.27504143 41.65840149 -0.30183411 C49.91305273 -0.28016229 49.91305273 -0.28016229 53.97216797 2.04345703 C55.71166992 4.17700195 55.71166992 4.17700195 56.21166992 6.73950195 C55.61559188 9.64538239 55.05979898 10.40552932 52.71166992 12.17700195 C50.16918945 12.56468201 50.16918945 12.56468201 47.09448242 12.58105469 C45.3675415 12.60008095 45.3675415 12.60008095 43.60571289 12.61949158 C42.36192871 12.61655594 41.11814453 12.6136203 39.83666992 12.6105957 C38.56065918 12.61583755 37.28464844 12.62107941 35.9699707 12.6264801 C33.26962533 12.6329094 30.57012322 12.63298667 27.86987305 12.62304688 C24.40933442 12.61154973 20.94981509 12.63177716 17.4894104 12.66096401 C14.18849133 12.68371708 10.88764908 12.67686032 7.58666992 12.6730957 C6.34288574 12.68432968 5.09910156 12.69556366 3.81762695 12.70713806 C2.09068604 12.69306664 2.09068604 12.69306664 0.32885742 12.67871094 C-1.19312256 12.67846169 -1.19312256 12.67846169 -2.74584961 12.6782074 C-5.28833008 12.17700195 -5.28833008 12.17700195 -7.15112305 10.37611389 C-8.85587629 7.07949058 -8.1502405 4.69094444 -7.28833008 1.17700195 C-4.72530888 -0.10450865 -2.86985722 0.02896661 0 0 Z " fill="#333333" transform="translate(232.288330078125,28.822998046875)"/>
<path d="M0 0 C0.77988281 -0.00386719 1.55976563 -0.00773437 2.36328125 -0.01171875 C3.17410156 -0.00011719 3.98492187 0.01148437 4.8203125 0.0234375 C5.62339844 0.01183594 6.42648438 0.00023438 7.25390625 -0.01171875 C11.91179312 0.01130211 15.23529907 0.26373431 18.9453125 3.3984375 C19.5078125 6.3359375 19.5078125 6.3359375 18.9453125 9.3984375 C17.40625 11.5625 17.40625 11.5625 14.9453125 13.3984375 C12.13916098 13.77318118 9.79770077 13.91477664 7.0078125 13.8359375 C6.30462891 13.84302734 5.60144531 13.85011719 4.87695312 13.85742188 C0.43332055 13.80328202 -2.59255109 13.24303915 -6.0546875 10.3984375 C-7.0546875 6.8984375 -7.0546875 6.8984375 -7.0546875 3.3984375 C-4.97690142 0.57515512 -3.44376071 0.01649235 0 0 Z " fill="#383835" transform="translate(164.0546875,28.6015625)"/>
</svg>
