<?xml version="1.0" encoding="UTF-8"?>
<svg version="1.1" xmlns="http://www.w3.org/2000/svg" width="512" height="512">
<path d="M0 0 C3.02438538 0.75597814 4.65615598 1.92778362 6.81700802 4.16315651 C8.05209103 5.39654762 8.05209103 5.39654762 9.31212521 6.65485573 C10.21350216 7.59732155 11.11487911 8.53978737 12.04357052 9.51081276 C13.11449744 10.57452566 14.18922434 11.63442293 15.26720333 12.69098854 C18.76256288 16.12399573 22.21698528 19.59638338 25.66857052 23.07331276 C26.87536511 24.28513702 28.08239491 25.4967271 29.28966427 26.70807838 C32.21034459 29.63963747 35.12784798 32.57432297 38.04357052 35.51081276 C46.16643646 33.50239454 53.96033177 30.8112753 61.78331661 27.86768532 C91.41513672 16.73346763 118.57423426 9.62806484 148.85607052 23.13581276 C151.13800816 24.19638609 153.40801392 25.27824422 155.67345333 26.37360573 C158.11448105 27.54483637 160.57195796 28.67350776 163.03575802 29.79596901 C172.48499703 34.1406319 181.63667845 38.8530695 190.66857052 44.01081276 C192.113811 44.83488625 192.113811 44.83488625 193.58824825 45.67560768 C197.26135645 47.77341654 200.93420965 49.87156316 204.59923458 51.98346901 C216.10909988 58.5657735 227.06290262 62.74896853 240.04357052 65.51081276 C240.08482052 64.29393776 240.12607052 63.07706276 240.16857052 61.82331276 C240.28839525 58.28848328 241.12486405 57.42498252 243.6378088 54.77179909 C247.13962089 52.07568319 249.98680487 51.93112752 254.41075802 52.02253151 C255.43013958 52.03314362 255.43013958 52.03314362 256.47011471 52.04397011 C258.62076513 52.07175129 260.76872008 52.13444388 262.91857052 52.19831276 C264.38467849 52.22341735 265.85082767 52.24622674 267.31700802 52.26667213 C270.89339075 52.32151988 274.46821716 52.40767146 278.04357052 52.51081276 C278.02399288 51.37192604 278.02399288 51.37192604 278.00401974 50.21003151 C277.99386837 49.21616432 277.983717 48.22229713 277.97325802 47.19831276 C277.95368038 45.71911354 277.95368038 45.71911354 277.93370724 44.21003151 C278.07355604 40.77410177 278.68361431 39.02809938 281.04357052 36.51081276 C285.28940218 34.01747015 288.39993373 33.13360159 293.30504513 33.12262917 C294.52328472 33.11317268 295.74152431 33.1037162 296.99668026 33.09397316 C298.95155109 33.1030822 298.95155109 33.1030822 300.94591427 33.11237526 C302.31062634 33.11035149 303.67533735 33.10743754 305.04004574 33.10367775 C307.89378357 33.09926708 310.74723873 33.10564344 313.60094357 33.11969948 C317.24357031 33.13677477 320.88553299 33.12695338 324.5281353 33.10898209 C327.34473245 33.098096 330.16117448 33.10161281 332.97777653 33.10936546 C334.96902686 33.11231688 336.96028341 33.10326606 338.95151424 33.09397316 C350.54485093 33.1837332 350.54485093 33.1837332 356.04357052 36.51081276 C358.29638407 39.89003309 358.29919688 41.04216339 358.31772518 45.00101662 C358.32770031 46.14223976 358.33767544 47.28346291 358.34795284 48.45926857 C358.34861752 49.71232796 358.34928219 50.96538734 358.349967 52.25641823 C358.35829052 53.57531044 358.36661404 54.89420265 358.37518978 56.25306129 C358.39714734 59.8729471 358.40593533 63.49274843 358.41101623 67.11269331 C358.41465832 69.37430735 358.4208976 71.63589921 358.42801762 73.89750481 C358.45251649 81.78766033 358.46556495 89.67775006 358.46910763 97.56794167 C358.47274327 104.92246441 358.50263918 112.27656991 358.54451221 119.63096511 C358.57920303 125.9452911 358.59465585 132.25947874 358.59535366 138.57389939 C358.59614691 142.34517831 358.60490635 146.1160323 358.63335133 149.88721275 C358.65951194 153.43490305 358.66174944 156.98181553 358.64569569 160.52955818 C358.64301426 162.45018835 358.66507874 164.37080323 358.68788815 166.29129982 C358.61760879 174.54649681 358.61760879 174.54649681 356.09017086 178.79229164 C351.84824705 181.18506878 348.49225513 181.1446449 343.69859982 181.01154518 C342.29763561 181.00317635 342.29763561 181.00317635 340.8683691 180.99463844 C338.84395395 180.98009283 336.81959478 180.95445875 334.79543781 180.91900635 C331.58737677 180.86577689 328.38090528 180.8479046 325.17243099 180.84023476 C316.0527384 180.81318517 306.93413119 180.73121535 297.81529903 180.60383034 C292.23305658 180.52832476 286.65227575 180.50160101 281.06955051 180.50455093 C278.94639959 180.49575172 276.82323791 180.4681495 274.70058918 180.42114258 C263.26257775 179.72612024 263.26257775 179.72612024 253.00382137 183.70701027 C250.96996727 186.22792443 249.49513291 188.62671445 248.04357052 191.51081276 C235.74668397 205.67682606 218.93660462 216.32690296 200.04357052 218.51081276 C198.84944011 218.49740852 197.6553097 218.48400429 196.42499352 218.47019386 C189.25071011 218.39228542 184.00090955 218.66828047 178.30774593 223.4966526 C176.50208283 225.28345462 174.73657612 227.11147405 173.00670528 228.97175026 C172.01736102 229.97846843 171.02457902 230.98181773 170.0286932 231.9820652 C167.90856068 234.1257093 165.81405383 236.29056575 163.73699284 238.47596169 C160.4493977 241.93437866 157.10783452 245.33725516 153.75766659 248.73493385 C148.46634341 254.11384242 143.21111533 259.52643431 137.97111791 264.95531464 C128.58222487 274.68238859 119.15406188 284.37090338 109.68100303 294.01603317 C106.36213177 297.39853728 103.0666421 300.80181075 99.78849423 304.22377968 C97.74535288 306.34911796 95.68576018 308.4579516 93.62179279 310.56305122 C92.22001609 312.00328913 90.83894424 313.46358941 89.45867062 314.92444801 C84.95870541 319.48112165 81.69129257 322.5143907 75.14443016 322.91764259 C68.81272845 321.69151349 64.52374197 316.28486325 60.15996456 311.91481972 C59.37235595 311.13385892 58.58474734 310.35289811 57.7732718 309.54827183 C55.1329898 306.92768933 52.49991361 304.29998611 49.86681271 301.67218971 C47.97647305 299.79274433 46.08576548 297.91367518 44.19466305 296.03499794 C38.52151888 290.39655509 32.85791307 284.74857724 27.19520175 279.09965995 C24.52722727 276.43865201 21.85816029 273.77874044 19.18917751 271.1187439 C10.31684652 262.27560486 1.44671469 253.43027043 -7.41634846 244.57784176 C-7.98320265 244.01167826 -8.55005685 243.44551476 -9.13408844 242.86219479 C-9.7022825 242.29469275 -10.27047655 241.72719071 -10.85588861 241.14249164 C-12.00723637 239.99255586 -13.15858854 238.8426245 -14.30994511 237.69269753 C-14.88105332 237.12229448 -15.45216154 236.55189143 -16.04057607 235.96420344 C-25.30029124 226.71674557 -34.57518292 217.48466874 -43.85659257 208.25899027 C-53.38796755 198.78438402 -62.90615028 189.29668901 -72.41136527 179.7958371 C-77.74760182 174.46268289 -83.08940936 169.13538421 -88.44590855 163.82257462 C-93.0055139 159.30005577 -97.5529969 154.76577622 -102.085094 150.21568427 C-104.39750292 147.89481838 -106.71702742 145.58196182 -109.04843616 143.2801609 C-111.5756847 140.78319041 -114.0804788 138.26565709 -116.58075809 135.74172401 C-117.32149673 135.02001103 -118.06223536 134.29829805 -118.82542062 133.55471498 C-121.96106273 130.34783037 -124.305782 127.81379766 -125.10490894 123.30888081 C-124.85579746 116.93667052 -121.66487738 113.9699555 -117.33507633 109.58165932 C-116.87404375 109.11186222 -116.41301116 108.64206513 -115.93800789 108.15803176 C-114.39996937 106.59339603 -112.85493665 105.03586784 -111.30970097 103.47834206 C-110.20199027 102.35481596 -109.09464374 101.23093071 -107.98763371 100.10671425 C-104.35849042 96.4253089 -100.71858732 92.75464141 -97.07752323 89.08503151 C-95.82247836 87.81926199 -94.56744875 86.55347735 -93.3124342 85.28767776 C-88.0916676 80.02368961 -82.86803065 74.76257776 -77.63689423 69.50889301 C-70.14814768 61.9876482 -62.67688939 54.44994866 -55.22901958 46.88821667 C-49.98523086 41.56701929 -44.72240375 36.26513678 -39.44506031 30.97721797 C-36.29554511 27.82040007 -33.15492804 24.65578862 -30.03436947 21.47032166 C-27.09867525 18.47444183 -24.14007124 15.5032442 -21.16239071 12.54911041 C-20.0757571 11.46291802 -18.99759839 10.3681681 -17.92890644 9.26431847 C-8.17921116 -0.78831866 -8.17921116 -0.78831866 0 0 Z " fill="#000101" transform="translate(153.95642948150635,-0.5108127593994141)"/>
<path d="M0 0 C0.91652344 0.75603516 0.91652344 0.75603516 1.8515625 1.52734375 C4.45288804 3.70249468 6.83101318 5.80177558 9.03759766 8.39013672 C12.82070005 11.72303309 16.38022341 12.87027533 21.13671875 14.34765625 C22.03708862 14.64111938 22.9374585 14.93458252 23.8651123 15.23693848 C25.79814054 15.86539808 27.73335841 16.48715517 29.67050171 17.10281372 C33.73947982 18.3971275 37.79664557 19.72668194 41.85481262 21.0544281 C43.91383676 21.72775112 45.97340023 22.39942706 48.03349304 23.06947327 C56.73167363 25.89944756 65.40239317 28.80085409 74.03848267 31.81515503 C75.45141868 32.30651943 76.86591962 32.79341077 78.28207397 33.27542114 C93.47762217 38.44958327 106.36677305 45.22495556 114 60 C114.33 60.99 114.66 61.98 115 63 C119.81980718 62.39364786 124.37071698 61.45902526 129.04931641 60.15820312 C129.7153035 59.97434555 130.38129059 59.79048798 131.06745911 59.60105896 C133.24662375 58.99845296 135.42405968 58.3898307 137.6015625 57.78125 C139.12645774 57.35866052 140.65147405 56.9365077 142.17660522 56.51477051 C146.17710022 55.40752961 150.17622335 54.29541822 154.17498779 53.1819458 C160.58116398 51.39882613 166.98919771 49.62240637 173.39762497 47.84739685 C175.62989591 47.22822686 177.86145011 46.60652532 180.09292603 45.98449707 C181.46508842 45.60352561 182.83726963 45.22262194 184.20947266 44.84179688 C185.40303375 44.50950073 186.59659485 44.17720459 187.82632446 43.83483887 C199.95024631 40.64562779 212.55435688 40.48217503 224 46 C232.96679665 51.27369227 239.44972373 59.24006449 243 69 C246.08517654 81.60389656 244.93236069 91.73242194 238.8203125 103.14453125 C231.13715615 115.1968645 218.72374284 121.89386756 205.5390625 126.390625 C204.45629028 126.77278168 203.37351807 127.15493835 202.25793457 127.54867554 C198.71791927 128.79510276 195.17157119 130.02236586 191.625 131.25 C189.1190869 132.1291979 186.61364048 133.00960646 184.10888672 133.89208984 C179.59168972 135.48239969 175.07311706 137.06866192 170.55256844 138.64941978 C159.47529208 142.5239815 148.42865757 146.48288354 137.38540649 150.45321655 C134.12820834 151.62384693 130.87026044 152.79236598 127.61206055 153.96020508 C116.40016785 157.97942201 105.1923504 162.0098066 93.98828125 166.05078125 C92.84389587 166.46338196 91.6995105 166.87598267 90.52044678 167.30108643 C85.05802572 169.27059837 79.59611775 171.24150641 74.13525391 173.21533203 C43.63287354 184.22937329 16.69343558 189.12184904 -13.79296875 174.97387695 C-16.53659905 173.66510097 -19.26914623 172.33522642 -22 171 C-23.0725 170.48083008 -24.145 169.96166016 -25.25 169.42675781 C-38.86004346 162.81892706 -52.26700604 155.93331091 -65.36645508 148.35058594 C-76.54597936 141.70489768 -76.54597936 141.70489768 -88.6875 137.25 C-89.595 137.02183594 -90.5025 136.79367187 -91.4375 136.55859375 C-94.6220359 135.86440376 -97.76121931 135.35986452 -101 135 C-101.0928125 136.5778125 -101.0928125 136.5778125 -101.1875 138.1875 C-102.17023415 142.79879103 -103.32460181 144.11203334 -107 147 C-110.50512695 147.56762695 -110.50512695 147.56762695 -114.48828125 147.48828125 C-115.5430793 147.47766914 -115.5430793 147.47766914 -116.6191864 147.46684265 C-118.85140227 147.43899212 -121.08105077 147.3762832 -123.3125 147.3125 C-124.83134381 147.28740451 -126.3502272 147.26459352 -127.86914062 147.24414062 C-131.58025248 147.18920007 -135.28987541 147.10299739 -139 147 C-138.97244629 147.82346924 -138.94489258 148.64693848 -138.91650391 149.49536133 C-138.89507324 150.5758374 -138.87364258 151.65631348 -138.8515625 152.76953125 C-138.81023193 154.37598511 -138.81023193 154.37598511 -138.76806641 156.01489258 C-139.11898913 160.5314527 -140.66089268 162.05840546 -144 165 C-146.78733895 166.39366947 -149.08771724 166.14266411 -152.20629883 166.16113281 C-153.51137894 166.17074036 -154.81645905 166.1803479 -156.16108704 166.19024658 C-157.59306667 166.19509481 -159.02504832 166.19937358 -160.45703125 166.203125 C-161.92193097 166.20887694 -163.38683067 166.21463467 -164.85173035 166.22039795 C-167.9259781 166.23090971 -171.00019969 166.23675094 -174.07446289 166.24023438 C-178.00878489 166.24571379 -181.94275986 166.26972889 -185.87697315 166.29820633 C-188.90448506 166.31685668 -191.93191388 166.32203962 -194.95947838 166.32357025 C-196.40952129 166.32659287 -197.85956287 166.33460826 -199.30954933 166.34775543 C-201.34146881 166.36486099 -203.37353139 166.36108435 -205.40551758 166.35644531 C-206.56086502 166.36009094 -207.71621246 166.36373657 -208.90657043 166.36749268 C-212.38129035 165.95470354 -214.21929384 165.09255228 -217 163 C-219.24844818 159.62732772 -219.2540092 158.49568834 -219.26742554 154.54776001 C-219.27595551 153.41495102 -219.28448547 152.28214203 -219.29327393 151.11500549 C-219.29236755 149.87129684 -219.29146118 148.6275882 -219.29052734 147.34619141 C-219.30060318 145.38248344 -219.30060318 145.38248344 -219.31088257 143.37910461 C-219.32856316 139.78606728 -219.33323882 136.19312517 -219.33451414 132.60004854 C-219.3364129 129.60056786 -219.34377022 126.60110938 -219.35085833 123.60163724 C-219.36714792 116.52445246 -219.37202679 109.44731856 -219.37060547 102.37011719 C-219.36940405 95.07018412 -219.39050439 87.77054671 -219.4220928 80.47068846 C-219.44824771 74.20307163 -219.45897309 67.9355514 -219.45769465 61.66788042 C-219.45718475 57.92461596 -219.46288274 54.18161418 -219.48405075 50.43840408 C-219.50701813 46.26292984 -219.49791713 42.08811755 -219.48583984 37.91259766 C-219.49707886 36.67293747 -219.50831787 35.43327728 -219.51989746 34.15605164 C-219.51150848 33.017603 -219.50311951 31.87915436 -219.49447632 30.70620728 C-219.49556585 29.71917627 -219.49665539 28.73214527 -219.49777794 27.71520424 C-218.85916153 24.2317755 -217.41325693 22.54205816 -215 20 C-211.63488168 18.31744084 -207.83159156 18.93888084 -204.13500977 19.00097656 C-202.22962564 19.02374708 -200.32423477 19.04595754 -198.4188385 19.06768799 C-196.89775828 19.08686153 -196.89775828 19.08686153 -195.34594917 19.10642242 C-188.84926336 19.1768616 -182.35214 19.1832332 -175.85513401 19.20027542 C-170.14772618 19.21889772 -164.44232118 19.26065836 -158.7355957 19.35302734 C-153.21470748 19.44112691 -147.69676676 19.46516176 -142.17524529 19.44664764 C-140.0768907 19.45093346 -137.97844672 19.47807739 -135.88070869 19.5291214 C-123.79797587 20.21522364 -123.79797587 20.21522364 -113.36471558 15.17736816 C-110.49392018 12.03823479 -108.30447054 8.56545192 -106 5 C-77.81926573 -24.6423582 -30.91685097 -26.63493968 0 0 Z " fill="#020202" transform="translate(219,328)"/>
<path d="M0 0 C5.27102606 3.90568964 9.92060344 8.74842468 14.10522461 13.79296875 C17.3789539 16.61023399 20.78309368 17.67118841 24.84375 19.0234375 C26.10112976 19.45755196 26.10112976 19.45755196 27.38391113 19.9004364 C29.197115 20.52452644 31.01221027 21.14314249 32.82894897 21.75686646 C35.7027622 22.72786628 38.57114354 23.71362935 41.4387207 24.70288086 C50.37837444 27.77906266 59.33556306 30.80103729 68.30863953 33.77825928 C72.04143701 35.0179626 75.7710247 36.26718235 79.50064087 37.51641846 C82.12512444 38.38940003 84.75493961 39.24465243 87.38549805 40.09912109 C98.69590675 43.83579046 106.98559801 47.40004662 113.48828125 57.84375 C115.44326913 63.70871364 115.01329302 68.36590562 112.61328125 73.96875 C109.61125194 79.46399009 105.4367303 82.86629261 99.48828125 84.84375 C92.61354835 85.56250731 86.81749543 84.05745457 80.34765625 81.87890625 C79.39501892 81.57012039 78.44238159 81.26133453 77.46087646 80.94319153 C74.38265009 79.94276952 71.31062766 78.92456972 68.23828125 77.90625 C66.11440373 77.21290965 63.99005134 76.52102234 61.86523438 75.83056641 C58.69176593 74.79904339 55.51865484 73.76654398 52.34716797 72.72894287 C43.92001419 69.9721026 35.46547934 67.31694422 26.98828125 64.71875 C18.70956201 62.17889372 10.48202236 59.56081089 2.3359375 56.62109375 C-0.78393844 55.76944037 -3.2925841 55.56089716 -6.51171875 55.84375 C-9.36973606 57.83193595 -11.13072958 59.31979331 -11.99609375 62.78125 C-12.25918017 66.63985089 -12.01160335 68.1836983 -9.59765625 71.37109375 C-5.51871432 74.63941051 -1.46660029 75.89986421 3.48828125 77.40625 C4.43670898 77.70797119 5.38513672 78.00969238 6.36230469 78.32055664 C9.06644891 79.1770844 11.77587149 80.01383358 14.48828125 80.84375 C15.6071875 81.19179688 16.72609375 81.53984375 17.87890625 81.8984375 C19.82504057 82.49929318 21.77304511 83.09411708 23.72265625 83.68359375 C29.15902367 85.35849118 34.57215506 87.10468485 39.98828125 88.84375 C50.96688106 92.37505389 50.96688106 92.37505389 61.98828125 95.76953125 C65.00019487 96.6939467 67.99352698 97.65870667 70.98828125 98.63671875 C73.02987529 99.28928977 75.07154264 99.94163146 77.11328125 100.59375 C78.06799316 100.912229 79.02270508 101.23070801 80.00634766 101.55883789 C91.49245667 105.18399878 101.69502013 104.67830076 112.55078125 99.59375 C121.14799153 95.05157918 126.17427109 89.59573612 130.48828125 80.84375 C130.71378662 79.85955078 130.71378662 79.85955078 130.94384766 78.85546875 C131.53448747 76.51225712 132.1116126 74.83916431 133.48828125 72.84375 C136.94986121 71.03942467 140.55439019 70.35312513 144.36328125 69.59375 C146.4757131 69.11135304 148.58769787 68.6269939 150.69921875 68.140625 C152.21660645 67.80708008 152.21660645 67.80708008 153.76464844 67.46679688 C156.89828799 66.74995857 159.93516618 65.84773932 162.98828125 64.84375 C168.93174124 62.94690107 174.94796328 61.39615019 180.98828125 59.84375 C188.30976611 57.9615536 195.56874817 56.00899374 202.76953125 53.703125 C203.66671875 53.41953125 204.56390625 53.1359375 205.48828125 52.84375 C206.59171875 52.48539062 207.69515625 52.12703125 208.83203125 51.7578125 C215.77858723 50.0211735 226.08486148 49.01621842 232.67578125 52.40625 C237.18506531 56.31429619 240.98946377 60.69784076 241.7265625 66.82421875 C241.95946422 73.74998049 240.44026401 78.57857719 235.7578125 83.7578125 C227.26138102 91.72851668 215.67324609 94.66158505 204.89584351 98.46765137 C201.19271094 99.77552484 197.4924543 101.09145482 193.79191589 102.40664673 C191.79972208 103.1145577 189.80737878 103.82204811 187.81489563 104.52914429 C177.19718474 108.2979014 166.59166859 112.10048506 155.98696899 115.90567017 C152.66422053 117.09789808 149.34129485 118.28963075 146.01831055 119.48120117 C141.49946307 121.10158965 136.98066347 122.72211149 132.46191406 124.34277344 C121.65188601 128.21972328 110.84142252 132.09545861 100.03091431 135.97106934 C95.57914893 137.56709497 91.12744645 139.16329597 86.67579651 140.75964355 C84.64995869 141.48579462 82.62395335 142.21147853 80.59776306 142.93664551 C76.41584767 144.43347245 72.23517602 145.93302708 68.06201172 147.45410156 C67.4134874 147.68932526 66.76496307 147.92454895 66.0967865 148.16690063 C64.46131727 148.76061594 62.82714207 149.35789278 61.19311523 149.95556641 C56.02772598 151.65172004 51.08757176 152.08115577 45.67578125 152.15625 C45.02158203 152.18525391 44.36738281 152.21425781 43.69335938 152.24414062 C29.46569438 152.41619611 16.57920692 146.49912153 4.17578125 140.21875 C2.71764676 139.49406117 1.2589813 138.77043977 -0.20019531 138.04785156 C-4.31578777 136.00272533 -8.41560552 133.92755207 -12.51171875 131.84375 C-13.50800293 131.3394043 -14.50428711 130.83505859 -15.53076172 130.31542969 C-23.69501869 126.16359324 -31.67423763 121.76699068 -39.57592773 117.13549805 C-51.47893874 110.18740483 -62.227278 105.39272356 -75.9375 103.22265625 C-76.76527954 103.08831177 -77.59305908 102.95396729 -78.44592285 102.81555176 C-80.46727531 102.48802117 -82.48941892 102.16537938 -84.51171875 101.84375 C-84.74452407 91.50766885 -84.92165332 81.172222 -85.02984047 70.83404255 C-85.08179526 66.03221139 -85.15213146 61.23218757 -85.26611328 56.43139648 C-85.37563767 51.78871905 -85.43473772 47.14776733 -85.46049118 42.50389671 C-85.4788164 40.74202519 -85.51460131 38.98023677 -85.56901932 37.21911049 C-85.90562267 25.86276499 -84.72502131 19.09869635 -77.09213257 10.44718933 C-76.24059601 9.58805435 -75.38905945 8.72891937 -74.51171875 7.84375 C-73.72793854 7.04475784 -72.94415833 6.24576569 -72.1366272 5.42256165 C-51.90068301 -14.34695504 -23.41709515 -14.64035295 0 0 Z " fill="#E8BE91" transform="translate(201.51171875,340.15625)"/>
<path d="M0 0 C0.73546051 0.36889343 1.47092102 0.73778687 2.22866821 1.11785889 C11.68979354 5.86586901 21.00920272 10.78499863 30.1875 16.0625 C44.50565809 24.28963963 57.52191332 30.64589673 74.21337891 32.46923828 C75.01788483 32.55746857 75.82239075 32.64569885 76.65127563 32.73660278 C77.26135468 32.80289886 77.87143372 32.86919495 78.5 32.9375 C78.68603183 43.30830004 78.82784475 53.67869793 78.91449738 64.05083179 C78.95610452 68.86806834 79.01246272 73.68415663 79.10351562 78.50073242 C79.19096588 83.15630421 79.23838278 87.81077752 79.25901794 92.46710777 C79.27370693 94.23611415 79.30239145 96.00506591 79.34584045 97.77359962 C79.58227078 107.80358392 79.46477197 114.80541399 72.59484863 122.77690125 C71.90354858 123.48989883 71.21224854 124.20289642 70.5 124.9375 C69.82569946 125.6941243 69.15139893 126.4507486 68.45666504 127.2303009 C60.82542317 135.6726222 48.09362796 144.11398825 36.43798828 145.11450195 C16.4038885 145.63301701 0.91469756 142.24337467 -14.2109375 128.28125 C-16.5 125.9375 -16.5 125.9375 -18.73999023 122.9609375 C-21.40796557 119.75359295 -23.96417404 118.56555146 -27.94921875 117.21875 C-28.89998039 116.88883057 -28.89998039 116.88883057 -29.86994934 116.55224609 C-31.96999687 115.82886637 -34.07816334 115.13327828 -36.1875 114.4375 C-37.67632396 113.93062776 -39.16459403 113.42212606 -40.65234375 112.91210938 C-44.71542374 111.52586512 -48.78676129 110.16572616 -52.86126709 108.81347656 C-55.59156013 107.90710491 -58.32057304 106.99696338 -61.04931641 106.0859375 C-72.22341547 102.35485139 -72.22341547 102.35485139 -83.40893555 98.65820312 C-112.42639312 89.10738661 -112.42639312 89.10738661 -118.79296875 78.85546875 C-120.64425994 74.44887422 -121.46987704 69.64963844 -120.5 64.9375 C-117.84809781 58.82905863 -113.49594717 53.93547359 -107.5 50.9375 C-99.25180408 50.23233063 -92.27650391 51.427552 -84.50390625 54.078125 C-83.50850327 54.40157898 -82.51310028 54.72503296 -81.48753357 55.05828857 C-78.3401795 56.08493993 -75.20144566 57.13545575 -72.0625 58.1875 C-69.96343096 58.87794697 -67.86382435 59.56676185 -65.76367188 60.25390625 C-61.74991662 61.56857989 -57.73891834 62.89117765 -53.72973633 64.21972656 C-48.6613845 65.8932512 -43.57176442 67.47430321 -38.46313477 69.02050781 C-35.08757573 70.06513167 -31.73786144 71.17645267 -28.38671875 72.296875 C-27.20142578 72.69003906 -26.01613281 73.08320312 -24.79492188 73.48828125 C-22.36769505 74.29516661 -19.94323882 75.11042948 -17.52148438 75.93359375 C-11.33319607 77.97041691 -6.03065374 79.70311005 0.5 78.9375 C3.49380345 76.94163103 5.13808488 75.55490829 5.94140625 71.96484375 C6.13731416 68.58385239 5.92743394 66.46100274 3.76635742 63.81420898 C1.40222837 61.85653797 -0.43109617 60.95174234 -3.32421875 59.97265625 C-4.26064209 59.65055176 -5.19706543 59.32844727 -6.16186523 58.99658203 C-7.16032471 58.66770996 -8.15878418 58.33883789 -9.1875 58 C-10.22914307 57.6479248 -11.27078613 57.29584961 -12.34399414 56.93310547 C-18.01221579 55.03511731 -23.69907284 53.2352158 -29.4375 51.5625 C-30.09105469 51.35689453 -30.74460937 51.15128906 -31.41796875 50.93945312 C-36.02747809 49.52276906 -40.57433667 48.56658057 -45.328125 47.74609375 C-73.50289752 41.93523724 -89.9478432 21.72748534 -108.5 0.9375 C-105.5769091 -1.9855909 -101.91423761 -2.89008102 -98.08984375 -4.25 C-97.24837296 -4.55317139 -96.40690216 -4.85634277 -95.53993225 -5.16870117 C-93.75458999 -5.81024162 -91.96821617 -6.44891742 -90.1809082 -7.08496094 C-87.46977871 -8.05099836 -84.76306677 -9.02868744 -82.05664062 -10.0078125 C-80.31796333 -10.63092031 -78.57903839 -11.25333763 -76.83984375 -11.875 C-76.03949203 -12.16463623 -75.23914032 -12.45427246 -74.41453552 -12.75268555 C-47.23415906 -22.36763294 -24.31625865 -12.28492566 0 0 Z " fill="#E8BE90" transform="translate(316.5,52.0625)"/>
<path d="M0 0 C3.5148623 1.67261214 6.94632242 3.47380181 10.38037109 5.3059082 C18.48910427 8.98503996 25.83245251 10.38759569 34.71630859 10.2512207 C35.68375 10.24034424 36.65119141 10.22946777 37.64794922 10.21826172 C49.63485875 9.95123658 58.48897704 6.92973209 68.81005859 1.10668945 C71.84130859 -0.1237793 71.84130859 -0.1237793 73.76025391 0.54101562 C76.22755159 2.12403428 78.11062663 3.92081471 80.16943359 6.0090332 C80.96865234 6.81469727 81.76787109 7.62036133 82.59130859 8.45043945 C83.41630859 9.29219727 84.24130859 10.13395508 85.09130859 11.0012207 C85.93177734 11.85071289 86.77224609 12.70020508 87.63818359 13.57543945 C89.71046542 15.67126994 91.77793252 17.77162784 93.84130859 19.8762207 C90.11518519 22.36030297 86.14524021 24.21450797 82.11083984 26.1340332 C76.0098578 29.11267112 72.14903623 31.98056916 68.77880859 37.8762207 C65.22836264 43.1441275 61.95744967 44.35332873 55.96240234 45.9699707 C41.83740318 50.07134718 31.8131612 60.31172981 24.84130859 72.8762207 C18.09769648 86.0524531 17.65661132 101.77496967 21.84130859 115.8762207 C26.74229662 130.39562716 36.01425642 141.96359718 49.65380859 149.2512207 C65.26464062 156.42861474 80.77990869 156.74480913 96.84130859 150.8762207 C104.91732755 147.75594065 110.74227517 142.95407693 116.84130859 136.8762207 C117.41880859 136.32192383 117.99630859 135.76762695 118.59130859 135.1965332 C124.16904624 129.3573391 127.31610992 121.45181673 129.84130859 113.8762207 C136.96454799 114.49245402 143.4836263 116.8842703 150.21630859 119.1887207 C151.41642578 119.57995117 152.61654297 119.97118164 153.85302734 120.37426758 C154.99126953 120.76291992 156.12951172 121.15157227 157.30224609 121.55200195 C158.34171387 121.90174072 159.38118164 122.25147949 160.45214844 122.61181641 C162.84130859 123.8762207 162.84130859 123.8762207 163.69238281 125.75878906 C163.84271731 127.89624986 163.8741035 129.93907385 163.76318359 132.0793457 C163.13033497 149.41178993 166.93740595 160.06841541 174.84130859 175.8762207 C167.58130859 183.1362207 160.32130859 190.3962207 152.84130859 197.8762207 C149.42727497 196.51060725 146.24995574 195.10724127 142.96630859 193.5012207 C126.05426534 185.86132985 109.38130964 184.34317869 91.84130859 190.8762207 C88.28597621 192.61693987 84.90984884 194.59212148 81.54833984 196.6809082 C78.84130859 197.8762207 78.84130859 197.8762207 76.9370842 197.20086098 C74.49541287 195.65759644 72.64310804 193.92371 70.60186768 191.87728882 C69.76336777 191.04153824 68.92486786 190.20578766 68.06095886 189.3447113 C67.14961685 188.42617874 66.23827484 187.50764618 65.29931641 186.5612793 C64.32379903 185.58519761 63.34784072 184.60955644 62.37147522 183.63432312 C59.72473756 180.9881592 57.08421104 178.33587483 54.44475269 175.68245268 C51.68433786 172.90953412 48.91825705 170.14227945 46.152771 167.37442017 C40.91794722 162.13338058 35.68824253 156.88726367 30.46035552 151.63930571 C24.50785594 145.66445031 18.54967536 139.69527391 12.59100962 133.72656894 C0.33477481 121.44942984 -11.91430283 109.16517422 -24.15869141 96.8762207 C-23.60439453 95.71864258 -23.05009766 94.56106445 -22.47900391 93.3684082 C-21.74705177 91.82943192 -21.01529105 90.29036459 -20.28369141 88.7512207 C-19.73648438 87.61040039 -19.73648438 87.61040039 -19.17822266 86.4465332 C-11.93831921 71.17691866 -10.62620245 53.86508481 -16.26416016 37.70825195 C-18.50563457 32.15629226 -21.14479296 27.03832337 -24.15869141 21.8762207 C-21.11479117 18.70884723 -18.05488164 15.55813036 -14.97900391 12.421875 C-13.93471996 11.35242563 -12.89496472 10.27853475 -11.85986328 9.20019531 C-10.37217212 7.65194201 -8.86898914 6.12032935 -7.36181641 4.59106445 C-6.46108398 3.66414795 -5.56035156 2.73723145 -4.63232422 1.78222656 C-2.15869141 -0.1237793 -2.15869141 -0.1237793 0 0 Z " fill="#25CDAB" transform="translate(115.15869140625,62.123779296875)"/>
<path d="M0 0 C5.27102606 3.90568964 9.92060344 8.74842468 14.10522461 13.79296875 C17.3789539 16.61023399 20.78309368 17.67118841 24.84375 19.0234375 C26.10112976 19.45755196 26.10112976 19.45755196 27.38391113 19.9004364 C29.197115 20.52452644 31.01221027 21.14314249 32.82894897 21.75686646 C35.7027622 22.72786628 38.57114354 23.71362935 41.4387207 24.70288086 C50.37837444 27.77906266 59.33556306 30.80103729 68.30863953 33.77825928 C72.04143701 35.0179626 75.7710247 36.26718235 79.50064087 37.51641846 C82.12512444 38.38940003 84.75493961 39.24465243 87.38549805 40.09912109 C98.69590675 43.83579046 106.98559801 47.40004662 113.48828125 57.84375 C115.44326913 63.70871364 115.01329302 68.36590562 112.61328125 73.96875 C109.61125194 79.46399009 105.4367303 82.86629261 99.48828125 84.84375 C92.61354835 85.56250731 86.81749543 84.05745457 80.34765625 81.87890625 C79.39501892 81.57012039 78.44238159 81.26133453 77.46087646 80.94319153 C74.38265009 79.94276952 71.31062766 78.92456972 68.23828125 77.90625 C66.11440373 77.21290965 63.99005134 76.52102234 61.86523438 75.83056641 C58.69176593 74.79904339 55.51865484 73.76654398 52.34716797 72.72894287 C43.92001419 69.9721026 35.46547934 67.31694422 26.98828125 64.71875 C18.70956201 62.17889372 10.48202236 59.56081089 2.3359375 56.62109375 C-0.78951967 55.76791683 -3.28744496 55.53710578 -6.51171875 55.84375 C-9.43883145 58.30518568 -11.39254661 60.66499178 -13.51171875 63.84375 C-15.9495926 63.7028151 -18.38689728 63.55620458 -20.82421875 63.40625 C-21.51451172 63.36693359 -22.20480469 63.32761719 -22.91601562 63.28710938 C-25.9833341 63.09447585 -28.58140027 62.82052283 -31.51171875 61.84375 C-30.98578125 60.5753125 -30.98578125 60.5753125 -30.44921875 59.28125 C-29.35112894 55.25492069 -29.39602097 52.86026201 -30.51171875 48.84375 C-33.25503772 45.69700177 -34.88664261 44.94420867 -39.01171875 44.28125 C-42.58716248 44.61803144 -42.58716248 44.61803144 -45.44921875 46.71875 C-48.33446994 51.09034272 -47.9566601 54.75164339 -47.51171875 59.84375 C-56.16211708 59.39590921 -64.77462481 58.78436168 -73.38671875 57.84375 C-74.16515137 57.7607666 -74.94358398 57.6777832 -75.74560547 57.59228516 C-81.26382514 56.96769681 -81.26382514 56.96769681 -83.51171875 55.84375 C-83.71148145 50.918447 -83.85555781 45.99556578 -83.95117188 41.06713867 C-83.99107623 39.39582184 -84.04542442 37.72477832 -84.11523438 36.05444336 C-84.52132393 26.07837558 -84.52435412 19.01438202 -77.70800781 11.05688477 C-76.62084473 9.96138306 -76.62084473 9.96138306 -75.51171875 8.84375 C-74.28279907 7.59235229 -74.28279907 7.59235229 -73.02905273 6.31567383 C-52.40378717 -13.896509 -24.18808525 -15.12237547 0 0 Z " fill="#FCD9A9" transform="translate(201.51171875,340.15625)"/>
<path d="M0 0 C0.92535049 0.31555847 1.85070099 0.63111694 2.80409241 0.95623779 C4.29719688 1.44141876 4.29719688 1.44141876 5.82046509 1.93640137 C8.96781916 2.96305272 12.106553 4.01356854 15.24549866 5.06561279 C17.3445677 5.75605976 19.44417431 6.44487464 21.54432678 7.13201904 C25.55808204 8.44669268 29.56908032 9.76929045 33.57826233 11.09783936 C38.64661416 12.77136399 43.73623423 14.352416 48.84486389 15.89862061 C52.22042293 16.94324446 55.57013722 18.05456547 58.92127991 19.17498779 C60.10657288 19.56815186 61.29186584 19.96131592 62.51307678 20.36639404 C64.9403036 21.17327941 67.36475983 21.98854227 69.78651428 22.81170654 C78.6257822 25.73210961 78.6257822 25.73210961 87.80799866 25.81561279 C90.84522062 23.37262991 92.65224299 21.0492463 94.80799866 17.81561279 C100.74799866 18.47561279 106.68799866 19.13561279 112.80799866 19.81561279 C112.14799866 21.79561279 111.48799866 23.77561279 110.80799866 25.81561279 C110.94022119 29.65006636 111.29518631 32.01562552 113.37049866 35.25311279 C116.21086335 37.07385939 118.46695514 37.45697622 121.83534241 37.24920654 C125.52200697 36.43887037 126.80601925 34.94370562 128.80799866 31.81561279 C129.20501119 28.43842822 129.10354379 25.19796264 128.80799866 21.81561279 C130.06096741 21.95998779 131.31393616 22.10436279 132.60487366 22.25311279 C139.05554945 22.97041582 145.52110318 23.51379771 151.98768616 24.06561279 C152.92354553 24.14811279 153.85940491 24.23061279 154.82362366 24.31561279 C155.66183655 24.38780029 156.50004944 24.45998779 157.36366272 24.53436279 C159.88422801 24.82438389 162.32802339 25.28442666 164.80799866 25.81561279 C165.00742095 30.90164832 165.15168504 35.98535711 165.24745178 41.07440186 C165.28741137 42.80104254 165.3418025 44.52741725 165.41151428 46.25311279 C166.04774896 62.4209588 166.04774896 62.4209588 160.98377991 68.78045654 C159.6279536 70.16189099 158.23808045 71.51120022 156.80799866 72.81561279 C155.6970536 74.03865645 154.59156696 75.26671925 153.49549866 76.50311279 C141.07643269 88.47057636 126.85498002 92.32299318 110.19862366 92.09295654 C94.63189803 91.54936519 81.48781306 83.75057634 70.80799866 72.81561279 C70.06880188 71.83334717 69.3296051 70.85108154 68.56800842 69.83905029 C65.90003309 66.63170574 63.34382461 65.44366425 59.35877991 64.09686279 C58.72493881 63.8769165 58.09109772 63.65697021 57.43804932 63.43035889 C55.33800179 62.70697917 53.22983532 62.01139107 51.12049866 61.31561279 C49.6316747 60.80874055 48.14340463 60.30023886 46.65565491 59.79022217 C42.59257491 58.40397791 38.52123737 57.04383895 34.44673157 55.69158936 C31.71643853 54.7852177 28.98742562 53.87507617 26.25868225 52.96405029 C15.08458319 49.23296419 15.08458319 49.23296419 3.89906311 45.53631592 C-25.11839446 35.98549941 -25.11839446 35.98549941 -31.48497009 25.73358154 C-33.33626129 21.32698701 -34.16187838 16.52775123 -33.19200134 11.81561279 C-26.77141255 -2.97369217 -14.23561736 -4.55548695 0 0 Z " fill="#FCD9A9" transform="translate(229.19200134277344,105.18438720703125)"/>
<path d="M0 0 C12.87 0 25.74 0 39 0 C39 34.98 39 69.96 39 106 C26.13 106 13.26 106 0 106 C0 71.02 0 36.04 0 0 Z " fill="#3688C8" transform="translate(453,54)"/>
<path d="M0 0 C12.87 0 25.74 0 39 0 C39 34.65 39 69.3 39 105 C26.13 105 13.26 105 0 105 C0 70.35 0 35.7 0 0 Z " fill="#3688C8" transform="translate(20,368)"/>
<path d="M0 0 C0.29390625 1.21623047 0.29390625 1.21623047 0.59375 2.45703125 C3.76125632 14.18499644 9.01883782 22.90032201 19.3828125 29.515625 C25.0478573 32.72863548 30.7767961 35.33280122 36.99609375 37.27734375 C37.67969971 37.49245605 38.36330566 37.70756836 39.06762695 37.92919922 C40.41905039 38.34519452 41.7757321 38.74454394 43.13745117 39.12548828 C47.7383135 40.51757794 47.7383135 40.51757794 49.0234375 42.88671875 C48.9495197 49.55164081 44.3465889 55.47510633 39.98046875 60.1484375 C31.27866429 68.28385233 22.1356634 71.66590754 10.27734375 71.34765625 C-0.0642541 70.25063336 -8.16050502 65.26753528 -15.1875 57.8125 C-23.16040667 47.72076608 -24.42271345 37.46381377 -23 25 C-21.08167841 15.21908399 -13.89961115 7.73484493 -6.125 1.875 C-3 0 -3 0 0 0 Z " fill="#FCD06A" transform="translate(177,127)"/>
<path d="M0 0 C5.94 0 11.88 0 18 0 C18 29.04 18 58.08 18 88 C12.06 88 6.12 88 0 88 C0 58.96 0 29.92 0 0 Z " fill="#E2E4E8" transform="translate(415,72)"/>
<path d="M0 0 C5.61 0 11.22 0 17 0 C17 28.71 17 57.42 17 87 C11.39 87 5.78 87 0 87 C0 58.29 0 29.58 0 0 Z " fill="#E9EBEF" transform="translate(80,368)"/>
<path d="M0 0 C-1.51376081 3.56764285 -3.60513129 5.83706287 -6.3515625 8.546875 C-7.20234375 9.39121094 -8.053125 10.23554688 -8.9296875 11.10546875 C-9.81914062 11.97816406 -10.70859375 12.85085938 -11.625 13.75 C-12.5221875 14.63816406 -13.419375 15.52632813 -14.34375 16.44140625 C-16.55807004 18.63216969 -18.77692435 20.81812763 -21 23 C-24.56764285 21.48623919 -26.83706287 19.39486871 -29.546875 16.6484375 C-30.39121094 15.79765625 -31.23554688 14.946875 -32.10546875 14.0703125 C-33.41451172 12.73613281 -33.41451172 12.73613281 -34.75 11.375 C-35.63816406 10.4778125 -36.52632812 9.580625 -37.44140625 8.65625 C-39.63216969 6.44192996 -41.81812763 4.22307565 -44 2 C-43 -1 -43 -1 -40.85546875 -2.1328125 C-39.97503906 -2.46023438 -39.09460938 -2.78765625 -38.1875 -3.125 C-37.31480469 -3.45757812 -36.44210938 -3.79015625 -35.54296875 -4.1328125 C-23.95943107 -8.08295899 -10.29204257 -6.86136171 0 0 Z " fill="#00AC8E" transform="translate(252,274)"/>
<path d="M0 0 C5.62257408 5.39266899 7.17823865 12.59384978 7.52856445 20.19116211 C7.66676092 29.08445291 5.92483953 35.94006169 2 44 C-1 44 -1 44 -3.26831055 42.07226562 C-4.56442261 40.75258789 -4.56442261 40.75258789 -5.88671875 39.40625 C-6.34859085 38.94013306 -6.81046295 38.47401611 -7.28633118 37.99377441 C-8.76056952 36.5027371 -10.22404088 35.00161128 -11.6875 33.5 C-12.68485528 32.48759946 -13.68289417 31.47587189 -14.68164062 30.46484375 C-17.12907564 27.98432371 -19.56695887 25.49464911 -22 23 C-17.47008204 17.56266945 -12.65705784 12.53541069 -7.625 7.5625 C-6.88894531 6.83095703 -6.15289062 6.09941406 -5.39453125 5.34570312 C-3.59863926 3.56147277 -1.80044015 1.77963876 0 0 Z " fill="#00AD8F" transform="translate(76,99)"/>
<path d="M0 0 C3.53816053 1.51031326 5.83366147 3.57593356 8.546875 6.28125 C9.39121094 7.12300781 10.23554688 7.96476562 11.10546875 8.83203125 C12.41451172 10.15267578 12.41451172 10.15267578 13.75 11.5 C14.63816406 12.38042969 15.52632812 13.26085938 16.44140625 14.16796875 C17.28058594 15.00972656 18.11976563 15.85148437 18.984375 16.71875 C20.14018066 17.87793945 20.14018066 17.87793945 21.31933594 19.06054688 C23 21 23 21 23 23 C12.44206984 28.30739757 0.63175783 30.44401782 -11.02050781 27.48730469 C-14.51971001 26.32212724 -17.784721 24.79696232 -21 23 C-19.48623919 19.43235715 -17.39486871 17.16293713 -14.6484375 14.453125 C-13.79765625 13.60878906 -12.946875 12.76445313 -12.0703125 11.89453125 C-11.18085938 11.02183594 -10.29140625 10.14914063 -9.375 9.25 C-8.4778125 8.36183594 -7.580625 7.47367188 -6.65625 6.55859375 C-4.44192996 4.36783031 -2.22307565 2.18187237 0 0 Z " fill="#00AF90" transform="translate(150,25)"/>
<path d="M0 0 C4.00079356 2.4449294 5.65936873 3.95918222 7.125 8.4375 C6.97001806 12.85448522 5.85971159 14.67655139 3 18 C0.30184117 20.13991907 -0.99240811 20.00027114 -4.5 19.875 C-8.29736911 18.92565772 -9.61471502 18.02747709 -12 15 C-13.55024464 11.89951072 -13.28992015 9.42105782 -13 6 C-9.33404658 0.37887142 -6.67491925 -0.66749193 0 0 Z " fill="#060504" transform="translate(166,384)"/>
<path d="M0 0 C2.92584944 1.3154029 3.83752812 2.40503374 6 5 C6.74114582 7.82775635 6.68737021 10.16459787 6 13 C4.20636089 15.8100346 2.98119065 17.50940468 0 19 C-7.01699346 19.69019608 -7.01699346 19.69019608 -10.9375 16.9375 C-13.43209094 13.38459775 -14.07615714 11.34095695 -14 7 C-10.53450968 0.54701803 -7.28743426 -1.16059138 0 0 Z " fill="#050403" transform="translate(353,124)"/>
<path d="M0 0 C3.89608498 1.48904175 7.59097018 3.24378713 11.3125 5.125 C12.38113281 5.66382813 13.44976562 6.20265625 14.55078125 6.7578125 C15.76314453 7.37269531 15.76314453 7.37269531 17 8 C15.52278578 11.45201639 13.56205999 13.64961936 10.875 16.25 C10.15054687 16.95640625 9.42609375 17.6628125 8.6796875 18.390625 C8.12539063 18.92171875 7.57109375 19.4528125 7 20 C4.54745557 17.01337713 3.12584735 14.19055917 1.8125 10.5625 C1.46832031 9.63566406 1.12414062 8.70882812 0.76953125 7.75390625 C0.00634973 5.02272364 -0.14832648 2.81820315 0 0 Z " fill="#00AA8C" transform="translate(298,203)"/>
</svg>
