<?xml version="1.0" encoding="UTF-8"?>
<svg version="1.1" xmlns="http://www.w3.org/2000/svg" width="512" height="512">
<path d="M0 0 C0.96680165 -0.00573832 0.96680165 -0.00573832 1.95313466 -0.01159257 C4.1048368 -0.02188064 6.25627 -0.01793849 8.4079895 -0.01396179 C9.95400234 -0.01831063 11.50001302 -0.02349435 13.04602051 -0.02944946 C17.24029986 -0.04283308 21.43448907 -0.04341879 25.62878561 -0.04088616 C29.13269688 -0.0398159 32.63658996 -0.0447013 36.14049733 -0.04949158 C44.40871171 -0.06058482 52.67688066 -0.06102537 60.94509888 -0.05497742 C69.46852701 -0.04893852 77.99179004 -0.06124689 86.51519001 -0.08254749 C93.83849255 -0.10017453 101.1617426 -0.10616306 108.48506558 -0.10290974 C112.85652285 -0.10109831 117.22786236 -0.10371894 121.59930038 -0.11762428 C125.71156231 -0.13021578 129.82356729 -0.12824611 133.93582535 -0.11521339 C135.44224383 -0.11285084 136.94868047 -0.11557081 138.45507812 -0.12383652 C152.67960954 -0.19623915 152.67960954 -0.19623915 158.44754028 3.26069641 C162.58466574 7.53572605 162.57317617 11.95713896 162.58798218 17.69290161 C162.5909533 18.33658162 162.59392442 18.98026163 162.59698558 19.6434471 C162.60565029 21.79818471 162.60717893 23.9528666 162.6086731 26.10762024 C162.61330283 27.65348427 162.6183277 29.19934717 162.62371826 30.74520874 C162.63682889 34.94365466 162.64328456 39.14208461 162.64772892 43.3405478 C162.65066167 45.96449832 162.65476686 48.58844448 162.65923309 51.21239281 C162.67290422 59.42486259 162.68257288 67.63732242 162.68643498 75.84980279 C162.69091558 85.32493042 162.70846513 94.79991377 162.73743558 104.27499753 C162.75906096 111.60251848 162.76913971 118.92999886 162.7704761 126.25755137 C162.77152347 130.63238777 162.77741689 135.00708849 162.79529572 139.38189125 C162.81179133 143.49822892 162.81392473 147.61432912 162.80515671 151.7306881 C162.80438714 153.23872387 162.80871847 154.7467725 162.81861496 156.254776 C162.83136574 158.31931146 162.82544171 160.38300971 162.81503296 162.44754028 C162.81649952 163.60103879 162.81796608 164.7545373 162.81947708 165.9429903 C162.28504908 170.71013099 160.97024299 174.61106158 157.68187618 178.17354584 C154.59342671 179.67627854 152.13023909 179.64456388 148.69816589 179.65510559 C148.02040633 179.66119669 147.34264677 179.6672878 146.64434904 179.67356348 C144.37422989 179.6902071 142.10467081 179.68541596 139.83450317 179.68061829 C138.20657264 179.68795783 136.57864731 179.69654373 134.95072937 179.70628357 C130.52923792 179.72851987 126.10793271 179.73142922 121.68639302 179.72953606 C117.99593428 179.72941646 114.30551515 179.73797618 110.61506742 179.74631357 C101.9092145 179.76555508 93.20345747 179.76842867 84.49758911 179.76167297 C75.51449979 179.75503049 66.5318209 179.77790305 57.54881483 179.81498671 C49.8374431 179.84566644 42.12620353 179.85704565 34.41477197 179.85314989 C29.80853984 179.85108068 25.2026271 179.85658798 20.59645271 179.88104248 C16.2649283 179.90327886 11.93407204 179.90145811 7.60254478 179.88111496 C6.01304228 179.87769941 4.42349506 179.88281752 2.83405304 179.89709854 C0.66322009 179.91525721 -1.50533786 179.90257183 -3.67610168 179.88215637 C-4.89043853 179.88286888 -6.10477537 179.88358139 -7.3559103 179.88431549 C-11.44072095 179.08740435 -12.90950363 177.38810902 -15.55245972 174.26069641 C-15.88245972 173.93069641 -16.21245972 173.60069641 -16.55245972 173.26069641 C-16.66035541 171.13327595 -16.69660438 169.00221799 -16.70635986 166.87208557 C-16.71074212 166.19688928 -16.71512437 165.521693 -16.71963942 164.82603621 C-16.73307299 162.5467666 -16.73921647 160.26753567 -16.74533081 157.98823547 C-16.75322827 156.36075158 -16.76149699 154.73326945 -16.77011108 153.10578918 C-16.79637503 147.74598371 -16.81164422 142.38617025 -16.82589722 137.02632141 C-16.83125532 135.1836471 -16.83663282 133.34097284 -16.84202957 131.49829865 C-16.86366575 123.83436893 -16.88240312 116.17044135 -16.89365196 108.5064888 C-16.90989405 97.51150262 -16.94306955 86.51686973 -17.00005281 75.52201676 C-17.03872315 67.79799077 -17.05828127 60.07405938 -17.06357253 52.34993911 C-17.06723034 47.7335673 -17.07929656 43.11757189 -17.11167526 38.50130463 C-17.14170452 34.15755559 -17.14808633 29.81441169 -17.1362915 25.47058105 C-17.13607033 23.87622576 -17.14441196 22.28184282 -17.16194534 20.68758392 C-17.18458945 18.5100724 -17.17636758 16.334764 -17.16046143 14.15724182 C-17.16542665 12.32989187 -17.16542665 12.32989187 -17.17049217 10.46562576 C-16.36477554 6.28742303 -14.85542558 4.87255253 -11.55245972 2.26069641 C-7.6766042 0.16998934 -4.36630362 0.00778452 0 0 Z M6.44754028 24.26069641 C6.44754028 67.82069641 6.44754028 111.38069641 6.44754028 156.26069641 C50.00754028 156.26069641 93.56754028 156.26069641 138.44754028 156.26069641 C138.44754028 112.70069641 138.44754028 69.14069641 138.44754028 24.26069641 C94.88754028 24.26069641 51.32754028 24.26069641 6.44754028 24.26069641 Z " fill="#FF8B09" transform="translate(16.552459716796875,332.7393035888672)"/>
<path d="M0 0 C0.67775956 -0.0060911 1.35551912 -0.01218221 2.05381685 -0.01845789 C4.323936 -0.03510151 6.59349508 -0.03031037 8.86366272 -0.0255127 C10.49159326 -0.03285224 12.11951858 -0.04143814 13.74743652 -0.05117798 C18.16892797 -0.07341428 22.59023318 -0.07632363 27.01177287 -0.07443047 C30.70223161 -0.07431087 34.39265074 -0.08287059 38.08309847 -0.09120798 C46.78895139 -0.11044949 55.49470842 -0.11332307 64.20057678 -0.10656738 C73.18366611 -0.0999249 82.16634499 -0.12279746 91.14935106 -0.15988111 C98.86072279 -0.19056085 106.57196237 -0.20194005 114.28339392 -0.1980443 C118.88962605 -0.19597509 123.4955388 -0.20148239 128.10171318 -0.22593689 C132.43323759 -0.24817327 136.76409385 -0.24635252 141.09562111 -0.22600937 C142.68512362 -0.22259382 144.27467083 -0.22771193 145.86411285 -0.24199295 C148.0349458 -0.26015162 150.20350376 -0.24746624 152.37426758 -0.22705078 C153.58860442 -0.22776329 154.80294127 -0.2284758 156.05407619 -0.2292099 C160.13888684 0.56770125 161.60766952 2.26699657 164.25062561 5.39440918 C164.58062561 5.72440918 164.91062561 6.05440918 165.25062561 6.39440918 C165.35852131 8.52182964 165.39477028 10.6528876 165.40452576 12.78302002 C165.41109914 13.79581445 165.41109914 13.79581445 165.41780531 14.82906938 C165.43123889 17.108339 165.43738236 19.38756992 165.4434967 21.66687012 C165.45139416 23.29435401 165.45966289 24.92183615 165.46827698 26.54931641 C165.49454092 31.90912188 165.50981012 37.26893534 165.52406311 42.62878418 C165.52942122 44.47145849 165.53479872 46.31413275 165.54019547 48.15680695 C165.56183165 55.82073666 165.58056901 63.48466424 165.59181786 71.14861679 C165.60805994 82.14360297 165.64123545 93.13823586 165.6982187 104.13308883 C165.73688904 111.85711482 165.75644716 119.58104621 165.76173842 127.30516648 C165.76539623 131.92153829 165.77746245 136.5375337 165.80984116 141.15380096 C165.83987041 145.49755 165.84625222 149.8406939 165.8344574 154.18452454 C165.83423622 155.77887983 165.84257785 157.37326277 165.86011124 158.96752167 C165.88275534 161.14503319 165.87453347 163.32034159 165.85862732 165.49786377 C165.86359254 167.32521372 165.86359254 167.32521372 165.86865807 169.18947983 C165.06294143 173.36768256 163.55359148 174.78255306 160.25062561 177.39440918 C156.37477009 179.48511625 153.06446951 179.64732107 148.69816589 179.65510559 C148.05363146 179.65893114 147.40909702 179.66275669 146.74503124 179.66669816 C144.5933291 179.67698623 142.4418959 179.67304409 140.29017639 179.66906738 C138.74416355 179.67341622 137.19815287 179.67859994 135.65214539 179.68455505 C131.45786603 179.69793867 127.26367683 179.69852438 123.06938028 179.69599175 C119.56546901 179.69492149 116.06157594 179.69980689 112.55766857 179.70459718 C104.28945419 179.71569041 96.02128524 179.71613097 87.75306702 179.71008301 C79.22963888 179.70404411 70.70637586 179.71635248 62.18297589 179.73765308 C54.85967334 179.75528012 47.53642329 179.76126865 40.21310031 179.75801533 C35.84164305 179.7562039 31.47030353 179.75882453 27.09886551 179.77272987 C22.98660358 179.78532137 18.8745986 179.7833517 14.76234055 179.77031898 C13.25592206 179.76795643 11.74948543 179.7706764 10.24308777 179.77894211 C-3.98144364 179.85134474 -3.98144364 179.85134474 -9.74937439 176.39440918 C-13.88649985 172.11937954 -13.87501028 167.69796663 -13.88981628 161.96220398 C-13.89427297 160.99668396 -13.89427297 160.99668396 -13.89881968 160.01165849 C-13.9074844 157.85692089 -13.90901304 155.70223899 -13.9105072 153.54748535 C-13.91513694 152.00162132 -13.92016181 150.45575842 -13.92555237 148.90989685 C-13.93866299 144.71145093 -13.94511866 140.51302098 -13.94956303 136.31455779 C-13.95249578 133.69060727 -13.95660096 131.06666111 -13.9610672 128.44271278 C-13.97473832 120.230243 -13.98440699 112.01778318 -13.98826909 103.8053028 C-13.99274969 94.33017517 -14.01029924 84.85519182 -14.03926969 75.38010806 C-14.06089506 68.05258711 -14.07097382 60.72510673 -14.07231021 53.39755422 C-14.07335758 49.02271782 -14.07925099 44.6480171 -14.09712982 40.27321434 C-14.11362543 36.15687667 -14.11575883 32.04077647 -14.10699081 27.9244175 C-14.10622125 26.41638172 -14.11055257 24.90833309 -14.12044907 23.40032959 C-14.13319984 21.33579413 -14.12727582 19.27209589 -14.11686707 17.20756531 C-14.11833363 16.0540668 -14.11980019 14.90056829 -14.12131119 13.71211529 C-13.58688319 8.9449746 -12.2720771 5.04404401 -8.98371029 1.48155975 C-5.89526082 -0.02117295 -3.4320732 0.01054172 0 0 Z M10.25062561 23.39440918 C10.25062561 66.95440918 10.25062561 110.51440918 10.25062561 155.39440918 C53.81062561 155.39440918 97.37062561 155.39440918 142.25062561 155.39440918 C142.25062561 111.83440918 142.25062561 68.27440918 142.25062561 23.39440918 C98.69062561 23.39440918 55.13062561 23.39440918 10.25062561 23.39440918 Z " fill="#FF6730" transform="translate(346.74937438964844,-0.3944091796875)"/>
<path d="M0 0 C1.01279443 -0.00657338 1.01279443 -0.00657338 2.04604936 -0.01327956 C4.32531898 -0.02671313 6.6045499 -0.0328566 8.8838501 -0.03897095 C10.51133399 -0.04686841 12.13881613 -0.05513713 13.76629639 -0.06375122 C19.12610186 -0.09001516 24.48591532 -0.10528436 29.84576416 -0.11953735 C31.68843847 -0.12489546 33.53111273 -0.13027296 35.37378693 -0.13566971 C43.03771665 -0.15730589 50.70164422 -0.17604326 58.36559677 -0.1872921 C69.36058295 -0.20353418 80.35521584 -0.23670969 91.35006881 -0.29369295 C99.0740948 -0.33236329 106.79802619 -0.3519214 114.52214646 -0.35721266 C119.13851828 -0.36087048 123.75451368 -0.37293669 128.37078094 -0.4053154 C132.71452998 -0.43534465 137.05767388 -0.44172646 141.40150452 -0.42993164 C142.99585981 -0.42971046 144.59024275 -0.4380521 146.18450165 -0.45558548 C148.36201317 -0.47822958 150.53732157 -0.47000772 152.71484375 -0.45410156 C153.93307705 -0.45741171 155.15131035 -0.46072186 156.40645981 -0.46413231 C160.58466254 0.34158433 161.99953304 1.85093428 164.61138916 5.15390015 C166.70209623 9.02975567 166.86430105 12.34005624 166.87208557 16.70635986 C166.87591112 17.3508943 166.87973667 17.99542874 166.88367814 18.65949452 C166.89396621 20.81119666 166.89002407 22.96262986 166.88604736 25.11434937 C166.8903962 26.6603622 166.89557992 28.20637289 166.90153503 29.75238037 C166.91491866 33.94665972 166.91550436 38.14084893 166.91297174 42.33514547 C166.91190147 45.83905675 166.91678687 49.34294982 166.92157716 52.84685719 C166.93267039 61.11507157 166.93311095 69.38324052 166.92706299 77.65145874 C166.92102409 86.17488688 166.93333246 94.6981499 166.95463306 103.22154987 C166.9722601 110.54485242 166.97824863 117.86810247 166.97499532 125.19142544 C166.97318389 129.56288271 166.97580451 133.93422223 166.98970985 138.30566025 C167.00230135 142.41792217 167.00033168 146.52992715 166.98729897 150.64218521 C166.98493641 152.14860369 166.98765638 153.65504033 166.99592209 155.16143799 C167.06832473 169.3859694 167.06832473 169.3859694 163.61138916 175.15390015 C159.33635952 179.29102561 154.91494661 179.27953603 149.17918396 179.29434204 C148.53550395 179.29731316 147.89182394 179.30028429 147.22863847 179.30334544 C145.07390087 179.31201016 142.91921897 179.31353879 140.76446533 179.31503296 C139.2186013 179.31966269 137.6727384 179.32468757 136.12687683 179.33007812 C131.92843091 179.34318875 127.73000096 179.34964442 123.53153777 179.35408878 C120.90758725 179.35702154 118.28364109 179.36112672 115.65969276 179.36559296 C107.44722298 179.37926408 99.23476316 179.38893274 91.02228278 179.39279485 C81.54715515 179.39727544 72.0721718 179.414825 62.59708804 179.44379544 C55.26956709 179.46542082 47.94208671 179.47549958 40.6145342 179.47683597 C36.2396978 179.47788334 31.86499708 179.48377675 27.49019432 179.50165558 C23.37385665 179.51815119 19.25775645 179.52028459 15.14139748 179.51151657 C13.6333617 179.510747 12.12531307 179.51507833 10.61730957 179.52497482 C8.55277411 179.5377256 6.48907587 179.53180158 4.42454529 179.52139282 C3.27104678 179.52285938 2.11754827 179.52432594 0.92909527 179.52583694 C-3.83804542 178.99140894 -7.738976 177.67660286 -11.30146027 174.38823605 C-12.80419296 171.29978657 -12.7724783 168.83659895 -12.78302002 165.40452576 C-12.78911112 164.72676619 -12.79520223 164.04900663 -12.80147791 163.3507089 C-12.81812153 161.08058975 -12.81333039 158.81103067 -12.80853271 156.54086304 C-12.81587226 154.9129325 -12.82445816 153.28500718 -12.834198 151.65708923 C-12.8564343 147.23559778 -12.85934365 142.81429258 -12.85745049 138.39275289 C-12.85733089 134.70229415 -12.86589061 131.01187502 -12.874228 127.32142729 C-12.89346951 118.61557436 -12.89634309 109.90981733 -12.8895874 101.20394897 C-12.88294492 92.22085965 -12.90581748 83.23818076 -12.94290113 74.2551747 C-12.97358087 66.54380297 -12.98496007 58.83256339 -12.98106432 51.12113184 C-12.97899511 46.51489971 -12.98450241 41.90898696 -13.00895691 37.30281258 C-13.03119329 32.97128817 -13.02937254 28.6404319 -13.00902939 24.30890465 C-13.00561384 22.71940214 -13.01073195 21.12985492 -13.02501297 19.5404129 C-13.04317164 17.36957996 -13.03048626 15.201022 -13.0100708 13.03025818 C-13.01113956 11.20875291 -13.01113956 11.20875291 -13.01222992 9.35044956 C-12.21531877 5.26563892 -10.51602345 3.79685624 -7.38861084 1.15390015 C-5.53516658 -0.69954411 -2.47809398 0.01134906 0 0 Z M10.61138916 23.15390015 C10.61138916 66.71390015 10.61138916 110.27390015 10.61138916 155.15390015 C54.17138916 155.15390015 97.73138916 155.15390015 142.61138916 155.15390015 C142.61138916 111.59390015 142.61138916 68.03390015 142.61138916 23.15390015 C99.05138916 23.15390015 55.49138916 23.15390015 10.61138916 23.15390015 Z " fill="#FF6730" transform="translate(12.38861083984375,-0.153900146484375)"/>
<path d="M0 0 C29.7 0 59.4 0 90 0 C90 29.7 90 59.4 90 90 C60.3 90 30.6 90 0 90 C0 60.3 0 30.6 0 0 Z " fill="#FF8B09" transform="translate(44,378)"/>
<path d="M0 0 C29.7 0 59.4 0 90 0 C90 29.7 90 59.4 90 90 C60.3 90 30.6 90 0 90 C0 60.3 0 30.6 0 0 Z " fill="#FF6630" transform="translate(378,44)"/>
<path d="M0 0 C29.7 0 59.4 0 90 0 C90 29.7 90 59.4 90 90 C60.3 90 30.6 90 0 90 C0 60.3 0 30.6 0 0 Z " fill="#FF6630" transform="translate(44,44)"/>
<path d="M0 0 C0.65418915 -0.00335861 1.3083783 -0.00671722 1.98239136 -0.01017761 C4.13948479 -0.01965629 6.29650033 -0.02162919 8.45361328 -0.02270508 C9.95809969 -0.02591989 11.46258578 -0.02928413 12.96707153 -0.03279114 C16.1193311 -0.03877475 19.27156328 -0.04063184 22.42382812 -0.04003906 C26.45432116 -0.0399375 30.48463778 -0.05358668 34.51508904 -0.07081127 C37.62241414 -0.08195414 40.72969691 -0.08395757 43.83703995 -0.08342934 C45.32252739 -0.08460612 46.80801604 -0.08901091 48.29348373 -0.0967617 C50.3754674 -0.10660764 52.45707215 -0.10366564 54.5390625 -0.09765625 C56.31299881 -0.09979378 56.31299881 -0.09979378 58.12277222 -0.10197449 C62.69525874 0.24309272 66.17397747 1.11895563 69.71142578 4.08276367 C73.01293836 8.11794571 72.52966913 12.36440351 72.49658203 17.31323242 C72.49445961 18.50545158 72.49445961 18.50545158 72.49229431 19.72175598 C72.48669956 22.25879693 72.47414806 24.79574943 72.46142578 27.33276367 C72.4564101 29.05346552 72.45184731 30.77416876 72.44775391 32.49487305 C72.43673185 36.71170397 72.41947084 40.92846883 72.39892578 45.14526367 C73.98761475 45.121698 73.98761475 45.121698 75.60839844 45.09765625 C79.55558604 45.04316245 83.50274068 45.00884321 87.45019531 44.98046875 C89.15533041 44.96542629 90.86042711 44.94498714 92.56542969 44.91894531 C95.0230459 44.88236083 97.48014847 44.86549194 99.93798828 44.85229492 C100.69447662 44.83681107 101.45096497 44.82132721 102.2303772 44.80537415 C107.01035393 44.80387044 110.26607421 45.4880974 114.39892578 48.14526367 C117.40995843 52.66181265 117.52574959 56.61888749 117.46142578 61.95776367 C117.45240234 62.93358398 117.44337891 63.9094043 117.43408203 64.91479492 C117.41667969 66.01887695 117.41667969 66.01887695 117.39892578 67.14526367 C118.57648438 67.09305664 118.57648438 67.09305664 119.77783203 67.03979492 C131.2427472 66.74437993 131.2427472 66.74437993 136.39892578 70.14526367 C139.74659811 76.07390563 139.83842934 81.37544354 139.79736328 88.08276367 C139.80166855 89.64111938 139.80166855 89.64111938 139.80606079 91.23095703 C139.80809515 93.41952054 139.8026094 95.6081025 139.79003906 97.79663086 C139.77397704 101.13461201 139.78990975 104.4713824 139.80908203 107.80932617 C139.80709949 109.94214133 139.80325559 112.07495573 139.79736328 114.20776367 C139.80343597 115.1996167 139.80950867 116.19146973 139.81576538 117.21337891 C139.75792804 122.9495616 139.21568322 127.10272375 136.39892578 132.14526367 C133.04581773 134.6405999 130.43640848 135.3928098 126.33642578 135.14526367 C122.14038965 134.43788593 120.09931786 132.41846619 117.39892578 129.14526367 C117.06892578 128.81526367 116.73892578 128.48526367 116.39892578 128.14526367 C116.31030586 125.33362987 116.28370223 122.54668112 116.30126953 119.73510742 C116.30339195 118.47205528 116.30339195 118.47205528 116.30555725 117.18348694 C116.31117315 114.48321032 116.3237283 111.7830154 116.33642578 109.08276367 C116.34143874 107.25659299 116.346002 105.43042102 116.35009766 103.60424805 C116.36114774 99.11788825 116.37842299 94.63158983 116.39892578 90.14526367 C115.30193359 90.20327148 114.20494141 90.2612793 113.07470703 90.32104492 C111.62032264 90.36796055 110.16589204 90.41345878 108.71142578 90.45776367 C107.99019531 90.4996582 107.26896484 90.54155273 106.52587891 90.5847168 C102.44469163 90.67789459 100.86178321 90.49818465 97.50439453 87.93823242 C93.91429082 83.17584995 93.14352334 79.76607494 93.27392578 73.83276367 C93.29197266 72.76413086 93.31001953 71.69549805 93.32861328 70.59448242 C93.35181641 69.78624023 93.37501953 68.97799805 93.39892578 68.14526367 C92.3397998 68.16621094 91.28067383 68.1871582 90.18945312 68.20874023 C86.24232621 68.28139752 82.29525786 68.32715621 78.34765625 68.36499023 C76.64247684 68.38504736 74.93736572 68.41230025 73.23242188 68.44702148 C70.77473054 68.49580228 68.31795212 68.51829086 65.85986328 68.53588867 C65.10337494 68.55653381 64.3468866 68.57717896 63.56747437 68.59844971 C58.41094968 68.60061259 55.44613348 67.61473381 51.39892578 64.14526367 C48.58705755 60.56872042 49.14482711 56.22796352 49.20361328 51.87963867 C49.20562744 51.17597168 49.2076416 50.47230469 49.2097168 49.74731445 C49.22014588 47.12989746 49.24806846 44.51257372 49.27392578 41.89526367 C49.33580078 33.10901367 49.33580078 33.10901367 49.39892578 24.14526367 C34.87892578 24.14526367 20.35892578 24.14526367 5.39892578 24.14526367 C5.59633862 36.05233469 5.59633862 36.05233469 5.84936523 47.95825195 C5.86398025 49.46067523 5.87671852 50.96311842 5.88720703 52.46557617 C5.91278687 53.23377686 5.9383667 54.00197754 5.96472168 54.79345703 C5.96798893 58.85138797 5.61954683 61.39111911 3.0559082 64.62524414 C-0.47519398 67.97432406 -2.8651098 68.27026813 -7.54394531 68.30639648 C-9.05098526 68.3208078 -9.05098526 68.3208078 -10.58847046 68.33551025 C-11.67286407 68.33976013 -12.75725769 68.34401001 -13.87451172 68.34838867 C-15.54835434 68.35693878 -15.54835434 68.35693878 -17.25601196 68.36566162 C-19.61809338 68.37511201 -21.98018798 68.38164575 -24.34228516 68.38549805 C-27.95482373 68.39520656 -31.56679413 68.42623149 -35.17919922 68.45776367 C-37.47346667 68.46429348 -39.76773819 68.46954404 -42.06201172 68.47338867 C-43.68252945 68.49190887 -43.68252945 68.49190887 -45.33578491 68.51080322 C-51.81171 68.49157975 -55.48957676 67.93488209 -60.41357422 63.52026367 C-62.28849934 59.77041344 -62.37366864 56.2421405 -61.60107422 52.14526367 C-59.66765873 48.57474158 -57.51751523 46.45074401 -53.60107422 45.14526367 C-50.86947862 45.06019288 -48.16415978 45.02934802 -45.43310547 45.04760742 C-44.24088631 45.04972984 -44.24088631 45.04972984 -43.02458191 45.05189514 C-40.48754096 45.05748989 -37.95058846 45.07004139 -35.41357422 45.08276367 C-33.69287237 45.08777935 -31.97216913 45.09234214 -30.25146484 45.09643555 C-26.03463392 45.1074576 -21.81786906 45.12471861 -17.60107422 45.14526367 C-17.61678467 43.59415894 -17.61678467 43.59415894 -17.6328125 42.01171875 C-17.66910166 38.16328412 -17.69200707 34.31486453 -17.7109375 30.46630859 C-17.72097479 28.80287123 -17.73460753 27.13945142 -17.75195312 25.47607422 C-17.77630171 23.08060363 -17.7875801 20.68536699 -17.79638672 18.28979492 C-17.80670929 17.55001907 -17.81703186 16.81024323 -17.82766724 16.04804993 C-17.82854707 11.9690089 -17.53263756 8.76891635 -15.60107422 5.14526367 C-10.54849811 0.35861262 -6.78561972 0.02190067 0 0 Z " fill="#FF7D18" transform="translate(150.60107421875,243.854736328125)"/>
<path d="M0 0 C3.33615288 2.64282038 5.3094575 5.80758018 6 10 C6.08316178 12.61897019 6.11634452 15.21001753 6.09765625 17.828125 C6.0962413 18.57713074 6.09482635 19.32613647 6.09336853 20.09783936 C6.08778659 22.48193412 6.07523745 24.86593378 6.0625 27.25 C6.05748266 28.86979031 6.05292016 30.48958209 6.04882812 32.109375 C6.03782308 36.07295312 6.02057091 40.03646045 6 44 C7.08941895 43.97381592 8.17883789 43.94763184 9.30126953 43.9206543 C13.36014097 43.82985339 17.41892345 43.77264316 21.47851562 43.7253418 C23.23225015 43.70026533 24.98588086 43.66619505 26.73925781 43.62280273 C29.26653706 43.56184396 31.79242981 43.53372281 34.3203125 43.51171875 C35.09867462 43.48591232 35.87703674 43.4601059 36.6789856 43.43351746 C40.7244172 43.43145377 43.25626255 43.7876285 46.47998047 46.34301758 C50.41756285 50.49460729 50.11320601 53.66054444 50.0625 59.1875 C50.05347656 60.45980469 50.04445313 61.73210937 50.03515625 63.04296875 C50.02355469 64.01878906 50.01195312 64.99460937 50 66 C51.05912598 65.98428955 52.11825195 65.9685791 53.20947266 65.95239258 C57.15666026 65.89789878 61.10381489 65.86357954 65.05126953 65.83520508 C66.75640463 65.82016262 68.46150132 65.79972347 70.16650391 65.77368164 C72.62412012 65.73709716 75.08122269 65.72022827 77.5390625 65.70703125 C78.29555084 65.69154739 79.05203918 65.67606354 79.83145142 65.66011047 C84.58070211 65.65861643 88.02427155 66.13010089 92 69 C94.90751123 73.97966256 95.4166019 78.47132009 95.29296875 84.12109375 C95.28872391 84.86585464 95.28447906 85.61061554 95.28010559 86.37794495 C95.26345724 88.73151473 95.22583375 91.08419379 95.1875 93.4375 C95.17243515 95.04360733 95.15874991 96.64972823 95.14648438 98.25585938 C95.11359952 102.17091047 95.06191626 106.08530479 95 110 C96.12148438 109.97715942 96.12148438 109.97715942 97.265625 109.95385742 C98.25046875 109.94201416 99.2353125 109.9301709 100.25 109.91796875 C101.22453125 109.9027417 102.1990625 109.88751465 103.203125 109.87182617 C107.86073437 110.08527283 111.2094678 111.56757424 114.875 114.5 C117.08969926 117.45293235 117.13310203 120.29036512 117.16113281 123.83520508 C117.17074036 124.81664993 117.1803479 125.79809479 117.19024658 126.8092804 C117.1966214 128.39835457 117.1966214 128.39835457 117.203125 130.01953125 C117.20882507 131.11085861 117.21452515 132.20218597 117.22039795 133.32658386 C117.22984864 135.63739044 117.2363822 137.94821051 117.24023438 140.2590332 C117.24993312 143.78816348 117.28095372 147.31670972 117.3125 150.84570312 C117.31903085 153.09114238 117.324281 155.33658579 117.328125 157.58203125 C117.3404718 158.63534134 117.3528186 159.68865143 117.36553955 160.77388 C117.34892693 166.25902693 117.16927807 170.29814005 114 175 C111.06791771 177.44340191 109.31177679 177.96659534 105.5 178.375 C100.98532183 177.89128448 98.59596202 176.55345107 95.37768555 173.42089844 C93.3669729 169.88763127 93.62945321 166.46713511 93.70703125 162.515625 C93.71127609 161.70003113 93.71552094 160.88443726 93.71989441 160.04412842 C93.73665285 157.44574616 93.77429903 154.84814681 93.8125 152.25 C93.82755054 150.48568831 93.8412383 148.72136442 93.85351562 146.95703125 C93.88654699 142.63772035 93.93830914 138.3189928 94 134 C93.18088135 134.01450195 92.3617627 134.02900391 91.51782227 134.04394531 C90.44072998 134.05522461 89.3636377 134.06650391 88.25390625 134.078125 C87.1872876 134.09262695 86.12066895 134.10712891 85.02172852 134.12207031 C80.09655472 133.92310555 76.68089913 132.68089913 73.125 129.125 C70.65227217 124.45429188 70.86402967 119.45983741 70.90234375 114.29296875 C70.9037587 113.56757401 70.90517365 112.84217926 70.90663147 112.09480286 C70.91220069 109.7923255 70.92474739 107.48994765 70.9375 105.1875 C70.94251898 103.62044412 70.94708119 102.0533867 70.95117188 100.48632812 C70.96216002 96.65751411 70.97940327 92.82877389 71 89 C69.94087402 89.02094727 68.88174805 89.04189453 67.79052734 89.06347656 C63.84340043 89.13613385 59.89633208 89.18189254 55.94873047 89.21972656 C54.24355106 89.23978369 52.53843994 89.26703657 50.83349609 89.30175781 C48.37580476 89.35053861 45.91902634 89.37302719 43.4609375 89.390625 C42.70444916 89.41127014 41.94796082 89.43191528 41.16854858 89.45318604 C36.0120239 89.45534892 33.0472077 88.46947013 29 85 C26.52885959 81.39111202 26.7958284 78.02526666 26.875 73.75 C26.89304687 72.48671875 26.91109375 71.2234375 26.9296875 69.921875 C26.95289063 68.95765625 26.97609375 67.9934375 27 67 C26.30144394 67.00666183 25.60288788 67.01332367 24.88316345 67.02018738 C18.27783894 67.08046969 11.67259197 67.12606096 5.06705379 67.15543652 C1.67161698 67.1710469 -1.72359121 67.19219932 -5.11889648 67.22631836 C-9.02845459 67.26535614 -12.93792232 67.27974753 -16.84765625 67.29296875 C-18.05833267 67.30845261 -19.26900909 67.32393646 -20.51637268 67.33988953 C-26.74480232 67.34112682 -31.5923952 67.25040334 -37 64 C-39.32020929 60.2296599 -40 57.79561909 -40 53.375 C-38.81155037 49.3639825 -37.15319678 47.68021726 -34 45 C-33.505 44.505 -33.505 44.505 -33 44 C-30.46950598 43.92686433 -27.96695163 43.90752473 -25.4375 43.9375 C-24.72658203 43.94201172 -24.01566406 43.94652344 -23.28320312 43.95117188 C-21.52209987 43.96299136 -19.76103964 43.98092737 -18 44 C-18.01571045 43.00669678 -18.0314209 42.01339355 -18.04760742 40.98999023 C-18.10220199 37.27946182 -18.13645656 33.56896842 -18.16479492 29.8581543 C-18.17981466 28.25685644 -18.20023663 26.65559925 -18.22631836 25.05444336 C-18.26300438 22.74322429 -18.27979435 20.43255244 -18.29296875 18.12109375 C-18.30845261 17.41351425 -18.32393646 16.70593475 -18.33988953 15.97691345 C-18.34159915 10.84504606 -17.31391631 7.47840026 -15 3 C-10.58254299 -1.14136594 -5.74051614 -1.83517475 0 0 Z " fill="#FF7E17" transform="translate(351,223)"/>
<path d="M0 0 C1.50438974 -0.01650508 3.00870282 -0.0437234 4.51269531 -0.08203125 C6.68604038 -0.13710114 8.85754313 -0.15872152 11.03149414 -0.17333984 C12.3343335 -0.19315918 13.63717285 -0.21297852 14.97949219 -0.23339844 C19.71176517 0.53302647 21.26291928 1.94846931 24.58227539 5.35009766 C26.0758714 9.83088567 26.23577377 13.6586901 24.51977539 18.10009766 C21.92129319 21.11768989 19.41425777 22.5196746 15.58227539 23.35009766 C13.49902676 23.43004781 11.41297747 23.45124201 9.32836914 23.42431641 C8.25127686 23.41360107 7.17418457 23.40288574 6.06445312 23.3918457 C5.24533447 23.37806885 4.42621582 23.36429199 3.58227539 23.35009766 C3.59798584 24.37893066 3.61369629 25.40776367 3.62988281 26.46777344 C3.68438873 30.30314229 3.71870017 34.13847723 3.74707031 37.97412109 C3.76211004 39.63075528 3.78254716 41.28734996 3.80859375 42.94384766 C3.84519055 45.33196795 3.86204978 47.71955954 3.87524414 50.10791016 C3.89846992 51.209832 3.89846992 51.209832 3.92216492 52.33401489 C3.92370607 57.09687324 3.10118747 60.30807834 0.58227539 64.35009766 C-3.38243886 67.6621269 -6.67543728 67.67932067 -11.73022461 67.53759766 C-15.04053711 67.44478516 -15.04053711 67.44478516 -18.41772461 67.35009766 C-18.41772461 74.61009766 -18.41772461 81.87009766 -18.41772461 89.35009766 C-15.81639648 89.29208984 -13.21506836 89.23408203 -10.53491211 89.17431641 C-8.00304205 89.13527311 -5.47120609 89.10494166 -2.93920898 89.07543945 C-1.18547446 89.05036299 0.56815625 89.0162927 2.3215332 88.97290039 C4.84881245 88.91194161 7.3747052 88.88382047 9.90258789 88.86181641 C10.68095001 88.83600998 11.45931213 88.81020355 12.26126099 88.78361511 C16.30669259 88.78155143 18.83853794 89.13772616 22.06225586 91.69311523 C25.93924192 95.78081523 25.72379414 98.92414305 25.79101562 104.37255859 C25.80079941 105.08351685 25.81058319 105.7944751 25.82066345 106.52697754 C25.85057242 108.87945699 25.87199122 111.23187973 25.89086914 113.58447266 C25.89744097 114.389394 25.90401279 115.19431534 25.91078377 116.02362823 C25.94335906 120.28510277 25.96781331 124.54655251 25.98730469 128.80810547 C26.00510908 132.32931001 26.03991649 135.84971239 26.08984375 139.37060547 C26.15013364 143.6276171 26.18079199 147.8838858 26.19047737 152.14130402 C26.19901878 153.7600189 26.21780476 155.37871463 26.24722099 156.99718475 C26.4921557 171.2413641 26.4921557 171.2413641 22.73095703 175.83154297 C19.88812948 178.50709972 17.55461326 179.4328547 13.58227539 179.35009766 C9.09400542 178.36267826 6.4958943 176.91118744 3.58227539 173.35009766 C2.5311593 170.19674939 2.46157067 167.99497482 2.46875 164.68530273 C2.46882553 163.52432571 2.46890106 162.36334869 2.46897888 161.16719055 C2.47414017 159.91399521 2.47930145 158.66079987 2.48461914 157.36962891 C2.48603409 156.08650314 2.48744904 154.80337738 2.48890686 153.48136902 C2.49272134 150.07339525 2.50254248 146.66546423 2.51361084 143.25750732 C2.52384796 139.77861103 2.52840941 136.29970781 2.53344727 132.82080078 C2.54416572 125.99721553 2.5612293 119.17365865 2.58227539 112.35009766 C1.55344238 112.36580811 0.52460938 112.38151855 -0.53540039 112.39770508 C-4.37076924 112.452211 -8.20610418 112.48652243 -12.04174805 112.51489258 C-13.69838223 112.52993231 -15.35497692 112.55036942 -17.01147461 112.57641602 C-19.3995949 112.61301281 -21.78718649 112.62987205 -24.17553711 112.64306641 C-25.27745895 112.66629219 -25.27745895 112.66629219 -26.40164185 112.68998718 C-31.16653373 112.691529 -34.365205 111.85007804 -38.41772461 109.35009766 C-41.97820991 105.54406164 -42.53481067 101.86250126 -42.57885742 96.78442383 C-42.58846497 95.8863652 -42.59807251 94.98830658 -42.60797119 94.06303406 C-42.61222107 93.09944473 -42.61647095 92.13585541 -42.62084961 91.14306641 C-42.62654968 90.14430984 -42.63224976 89.14555328 -42.63812256 88.11653137 C-42.64756189 86.004212 -42.6541023 83.89187796 -42.65795898 81.77954102 C-42.66765725 78.55995787 -42.69868811 75.34101524 -42.73022461 72.12158203 C-42.73675587 70.06624727 -42.74200586 68.01090795 -42.74584961 65.95556641 C-42.75819641 64.99804977 -42.77054321 64.04053314 -42.78326416 63.05400085 C-42.76203466 56.63432035 -42.0526966 51.64381264 -37.91772461 46.47509766 C-34.32503606 43.78058125 -30.52341687 44.24821057 -26.23022461 44.28759766 C-24.95791992 44.29662109 -23.68561523 44.30564453 -22.37475586 44.31494141 C-20.91102539 44.33234375 -20.91102539 44.33234375 -19.41772461 44.35009766 C-19.44390869 43.22514893 -19.47009277 42.1002002 -19.49707031 40.94116211 C-19.58774206 36.75744608 -19.64503498 32.57381644 -19.69238281 28.3894043 C-19.71748851 26.58033634 -19.75158056 24.77136943 -19.79492188 22.96264648 C-19.8557504 20.35847015 -19.8839727 17.75563734 -19.90600586 15.15087891 C-19.93181229 14.34548172 -19.95761871 13.54008453 -19.98420715 12.71028137 C-19.98636953 8.35631195 -19.83243006 6.85210088 -16.94970703 3.36254883 C-16.11415283 2.69843994 -15.27859863 2.03433105 -14.41772461 1.35009766 C-11.70206719 -1.36555976 -3.90676546 0.03140009 0 0 Z " fill="#FF6631" transform="translate(286.417724609375,-0.35009765625)"/>
<path d="M0 0 C2.64233769 2.19257809 4.46669809 3.93339618 6 7 C6.09297087 9.56333475 6.12580976 12.09924241 6.11352539 14.66259766 C6.11367142 15.45292892 6.11381744 16.24326019 6.1139679 17.05754089 C6.11326983 19.67640911 6.10548239 22.29520667 6.09765625 24.9140625 C6.09579169 26.72724366 6.09436797 28.54042533 6.09336853 30.35360718 C6.08954632 35.13103623 6.07971855 39.90843499 6.06866455 44.68585205 C6.05844407 49.55879303 6.05386954 54.4317389 6.04882812 59.3046875 C6.03809603 68.86980499 6.02102314 78.43489998 6 88 C6.89638184 87.98549805 7.79276367 87.97099609 8.71630859 87.95605469 C9.89016113 87.94477539 11.06401367 87.93349609 12.2734375 87.921875 C14.02019775 87.90012207 14.02019775 87.90012207 15.80224609 87.87792969 C20.61245269 88.06155339 23.31880066 89.54296057 26.875 92.625 C28.65782274 96.38873689 28.77544474 99.92539036 28 104 C26.28095248 107.06881816 24.19285833 109.40357084 21 111 C18.44842345 111.0716735 15.92527029 111.09308442 13.375 111.0625 C12.66859375 111.05798828 11.9621875 111.05347656 11.234375 111.04882812 C9.48954725 111.03703875 7.744763 111.01910324 6 111 C6.00888245 111.72583282 6.01776489 112.45166565 6.0269165 113.19949341 C6.10721846 120.05525625 6.16804351 126.91094837 6.20724869 133.76706123 C6.22808269 137.29152694 6.25632202 140.81560253 6.30175781 144.33984375 C6.35371956 148.39587043 6.37297967 152.45149029 6.390625 156.5078125 C6.41127014 157.76739777 6.43191528 159.02698303 6.45318604 160.32473755 C6.45602793 171.43154486 6.45602793 171.43154486 2 176 C-1.08739578 177.90491251 -3.43816822 178.25577662 -7.04052734 178.2746582 C-8.04191742 178.28419022 -9.0433075 178.29372223 -10.07504272 178.30354309 C-11.68918564 178.30217598 -11.68918564 178.30217598 -13.3359375 178.30078125 C-14.44804596 178.30506638 -15.56015442 178.3093515 -16.70596313 178.31376648 C-19.05787475 178.31950798 -21.40980413 178.32001138 -23.76171875 178.31567383 C-27.35447625 178.31251803 -30.94640704 178.33596183 -34.5390625 178.36132812 C-36.8255198 178.36360158 -39.1119793 178.3643044 -41.3984375 178.36328125 C-42.47048431 178.372491 -43.54253113 178.38170074 -44.64706421 178.39118958 C-50.13026344 178.35729666 -54.34916486 178.26184005 -59 175 C-61.24553216 171.23330089 -62 168.76098765 -62 164.375 C-60.80638034 160.34653364 -59.20415439 158.65710364 -56 156 C-52.77396455 154.38698227 -49.25289962 154.87946401 -45.7109375 154.90234375 C-44.48330185 154.90446617 -44.48330185 154.90446617 -43.23086548 154.90663147 C-40.61220675 154.9122371 -37.99363296 154.92479052 -35.375 154.9375 C-33.60156373 154.94251428 -31.82812613 154.94707731 -30.0546875 154.95117188 C-25.70309218 154.96220836 -21.3515605 154.97947675 -17 155 C-17.00368717 154.24277838 -17.00737434 153.48555676 -17.01117325 152.70538902 C-17.09952598 134.27712135 -17.16571043 115.84889597 -17.20724869 97.42046165 C-17.22787042 88.50858324 -17.25598356 79.59684624 -17.30175781 70.68505859 C-17.34163752 62.91717421 -17.36743564 55.14939225 -17.37635398 47.38140833 C-17.38156683 43.26860222 -17.39381064 39.1560891 -17.42292023 35.04337692 C-17.4501074 31.17082892 -17.45843843 27.2986941 -17.45243073 23.42605972 C-17.4535295 22.00628157 -17.46146408 20.58648934 -17.4768219 19.16679382 C-17.61428448 5.80195187 -17.61428448 5.80195187 -13 1 C-8.89605474 -1.62196503 -4.5407341 -1.44936563 0 0 Z " fill="#FF6D29" transform="translate(217,45)"/>
<path d="M0 0 C3.35151885 3.2289329 5.27799526 5.36061672 5.56762695 10.07763672 C5.56684429 11.61188143 5.53912087 13.14628514 5.48828125 14.6796875 C5.48120651 15.49245148 5.47413177 16.30521545 5.46684265 17.14260864 C5.43900674 19.72103623 5.37629411 22.29723662 5.3125 24.875 C5.28740291 26.63017682 5.26459221 28.38538791 5.24414062 30.140625 C5.18921623 34.42793247 5.10302347 38.71358956 5 43 C5.99330322 42.98428955 6.98660645 42.9685791 8.01000977 42.95239258 C11.72053818 42.89779801 15.43103158 42.86354344 19.1418457 42.83520508 C20.74314356 42.82018534 22.34440075 42.79976337 23.94555664 42.77368164 C26.25677571 42.73699562 28.56744756 42.72020565 30.87890625 42.70703125 C31.58648575 42.69154739 32.29406525 42.67606354 33.02308655 42.66011047 C38.73863901 42.6582064 43.54343771 43.78909394 47.875 47.6875 C50.17639741 52.41815022 50.48777894 56.38423226 49 61.3125 C46.51860353 64.64687651 43.88142488 65.83337495 40 67 C37.2346059 67.25974286 34.70873039 67.38222596 31.95336914 67.34057617 C31.18181488 67.34101425 30.41026062 67.34145233 29.61532593 67.34190369 C27.08833698 67.33982894 24.56202797 67.31656104 22.03515625 67.29296875 C20.27396507 67.2873681 18.51276919 67.28310022 16.75157166 67.28010559 C12.13356446 67.26869372 7.51584381 67.23925832 2.89794922 67.20599365 C-1.82124964 67.17521362 -6.54049515 67.16158335 -11.25976562 67.14648438 C-20.50663577 67.11438488 -29.75329399 67.0632331 -39 67 C-38.98694824 67.89638184 -38.97389648 68.79276367 -38.96044922 69.71630859 C-38.95029785 70.89016113 -38.94014648 72.06401367 -38.9296875 73.2734375 C-38.91663574 74.43794434 -38.90358398 75.60245117 -38.89013672 76.80224609 C-39.02280267 80.6637096 -39.59251492 82.95051889 -42 86 C-45.3898318 88.44383222 -47.9606267 89.24707534 -52.0625 88.9375 C-55.90289572 88.27536281 -58.22083632 86.77916368 -61 84 C-62.53266582 80.93466836 -62.10276471 77.73245728 -62.0625 74.375 C-62.05798828 73.66859375 -62.05347656 72.9621875 -62.04882812 72.234375 C-62.03703875 70.48954725 -62.01910324 68.744763 -62 67 C-63.17755859 67.05220703 -63.17755859 67.05220703 -64.37890625 67.10546875 C-70.7317599 67.26916191 -75.48068101 67.28810493 -81 64 C-86.26108922 58.56354114 -85.21620374 51.26359105 -85.25 44.1875 C-85.270625 43.11951172 -85.29125 42.05152344 -85.3125 40.95117188 C-85.34644594 34.08984811 -85.15398933 28.37927428 -80.25 23.125 C-77.07835561 21.5391778 -74.54524971 21.12224999 -71 21 C-66.83439034 22.52204969 -64.22675943 24.13247046 -62 28 C-61 32 -61 32 -61 43 C-46.81 43 -32.62 43 -18 43 C-18.11832042 32.12562518 -18.11832042 32.12562518 -18.27026367 21.25170898 C-18.27903653 19.87484439 -18.28667857 18.49797193 -18.29296875 17.12109375 C-18.3159906 16.07362976 -18.3159906 16.07362976 -18.33947754 15.00500488 C-18.34218279 9.86051918 -17.36183685 6.47386067 -15 2 C-10.53067383 -1.40520089 -5.22897617 -2.11887208 0 0 Z " fill="#FF8B08" transform="translate(329,379)"/>
<path d="M0 0 C1.17175781 -0.020625 2.34351563 -0.04125 3.55078125 -0.0625 C14.324148 -0.11141426 14.324148 -0.11141426 19.125 3.25 C23.0446457 7.43996609 23.25379882 11.43089918 23.1875 17 C23.17847656 17.98484375 23.16945313 18.9696875 23.16015625 19.984375 C23.14855469 20.73203125 23.13695312 21.4796875 23.125 22.25 C24.09324707 22.23952637 25.06149414 22.22905273 26.05908203 22.21826172 C29.67086044 22.18190629 33.28262284 22.15904327 36.89453125 22.14013672 C38.45412929 22.13011443 40.0137087 22.11649295 41.57324219 22.09912109 C43.82231254 22.0747059 46.07113322 22.0634791 48.3203125 22.0546875 C49.0111795 22.04436493 49.70204651 22.03404236 50.41384888 22.02340698 C55.84533404 22.02216425 60.25827187 22.63553242 64.4375 26.25 C67.06588419 29.36512201 67.25590611 31.16813249 67.28613281 35.17114258 C67.29574036 36.19593216 67.3053479 37.22072174 67.31524658 38.27656555 C67.31949646 39.38799423 67.32374634 40.49942291 67.328125 41.64453125 C67.33382507 42.78403732 67.33952515 43.9235434 67.34539795 45.09757996 C67.35485769 47.51271636 67.36138578 49.92786572 67.36523438 52.34301758 C67.37493266 56.0368507 67.40594464 59.73012586 67.4375 63.42382812 C67.44403061 65.76822586 67.44928085 68.11262757 67.453125 70.45703125 C67.4654718 71.56238724 67.4778186 72.66774323 67.49053955 73.80659485 C67.48753845 74.84084091 67.48453735 75.87508698 67.48144531 76.94067383 C67.48691376 78.30063225 67.48691376 78.30063225 67.49249268 79.68806458 C66.89726204 83.83765055 65.11404499 86.47164796 61.85351562 89.03759766 C58.54556023 90.50747118 56.08419703 90.63786307 52.46875 90.6484375 C50.56416016 90.65423828 50.56416016 90.65423828 48.62109375 90.66015625 C47.30238281 90.64855469 45.98367188 90.63695312 44.625 90.625 C43.30628906 90.63660156 41.98757813 90.64820313 40.62890625 90.66015625 C39.35917969 90.65628906 38.08945312 90.65242188 36.78125 90.6484375 C35.62431641 90.64505371 34.46738281 90.64166992 33.27539062 90.63818359 C29.0211143 90.11398185 26.4581755 88.4452608 23.3125 85.625 C21.44789148 81.89578296 21.46187659 78.33075945 22.125 74.25 C24.26140315 70.66389472 26.25089543 68.7224215 30.125 67.25 C34.80569045 66.98525506 39.4326072 67.16310384 44.125 67.25 C44.125 60.32 44.125 53.39 44.125 46.25 C40.56525391 46.30220703 40.56525391 46.30220703 36.93359375 46.35546875 C34.61679282 46.37891319 32.30000546 46.39710183 29.9831543 46.41479492 C28.38185644 46.42981466 26.78059925 46.45023663 25.17944336 46.47631836 C22.86822429 46.51300438 20.55755244 46.52979435 18.24609375 46.54296875 C17.53851425 46.55845261 16.83093475 46.57393646 16.10191345 46.58988953 C10.97003398 46.59159915 7.60517219 45.55920393 3.125 43.25 C-0.97848691 39.00973019 -0.99938946 34.69383052 -0.9375 29 C-0.92847656 27.92234375 -0.91945313 26.8446875 -0.91015625 25.734375 C-0.89855469 24.91453125 -0.88695312 24.0946875 -0.875 23.25 C-2.41220703 23.31960938 -2.41220703 23.31960938 -3.98046875 23.390625 C-5.34111656 23.42816011 -6.70179605 23.46455841 -8.0625 23.5 C-8.73603516 23.53351563 -9.40957031 23.56703125 -10.10351562 23.6015625 C-13.7483158 23.67268055 -15.68791792 23.37086056 -18.77734375 21.375 C-21.60140386 18.51412719 -22.80096042 16.39279265 -22.94140625 12.328125 C-22.69347512 8.33117458 -22.10244251 6.53891345 -19.5625 3.3125 C-13.86267572 -1.06178375 -6.89920945 0.03016048 0 0 Z " fill="#FF8311" transform="translate(333.875,310.75)"/>
<path d="M0 0 C4.08752333 3.98271504 4.93632598 6.99474779 5.11352539 12.57519531 C5.11336802 13.9928484 5.10777532 15.41050802 5.09765625 16.828125 C5.0962413 17.57713074 5.09482635 18.32613647 5.09336853 19.09783936 C5.08778659 21.48193412 5.07523745 23.86593378 5.0625 26.25 C5.05748266 27.86979031 5.05292016 29.48958209 5.04882812 31.109375 C5.03782308 35.07295312 5.02057091 39.03646045 5 43 C6.05912598 42.97905273 7.11825195 42.95810547 8.20947266 42.93652344 C12.15659957 42.86386615 16.10366792 42.81810746 20.05126953 42.78027344 C21.75644894 42.76021631 23.46156006 42.73296343 25.16650391 42.69824219 C27.62419524 42.64946139 30.08097366 42.62697281 32.5390625 42.609375 C33.29555084 42.58872986 34.05203918 42.56808472 34.83145142 42.54681396 C40.00792431 42.54464272 42.86767553 43.62438723 47 47 C49.59036348 50.41457004 49.43108741 53.83282171 49 58 C46.89455271 61.98531094 45.25324261 64.45532574 41 66 C37.546875 66.1953125 37.546875 66.1953125 33.75 66.125 C32.48671875 66.10695313 31.2234375 66.08890625 29.921875 66.0703125 C28.95765625 66.04710937 27.9934375 66.02390625 27 66 C27.01571045 67.02883301 27.0314209 68.05766602 27.04760742 69.11767578 C27.10211334 72.95304463 27.13642477 76.78837957 27.16479492 80.62402344 C27.17983465 82.28065763 27.20027177 83.93725231 27.22631836 85.59375 C27.26291515 87.9818703 27.27977439 90.36946188 27.29296875 92.7578125 C27.30845261 93.49242706 27.32393646 94.22704163 27.33988953 94.98391724 C27.34143175 99.75008667 26.49098009 102.94229142 24 107 C20.98127496 110.01872504 18.24455029 110.83354705 14 111 C9.40778285 109.52115041 6.3180504 108.29687391 4 104 C3.74296955 101.02471138 3.6503009 98.26663022 3.70703125 95.296875 C3.71127609 94.45908508 3.71552094 93.62129517 3.71989441 92.75811768 C3.73665592 90.08841498 3.77430289 87.41947363 3.8125 84.75 C3.82755013 82.93751092 3.84123797 81.12500998 3.85351562 79.3125 C3.88655111 74.87470769 3.93831557 70.43748283 4 66 C2.58847656 66.05220703 2.58847656 66.05220703 1.1484375 66.10546875 C-0.09679687 66.13253906 -1.34203125 66.15960938 -2.625 66.1875 C-4.46964844 66.23970703 -4.46964844 66.23970703 -6.3515625 66.29296875 C-10.32482471 65.97391665 -12.64288087 65.11173623 -16 63 C-18.75745928 58.86381108 -19.1185893 55.21173551 -19.16113281 50.32080078 C-19.17074036 49.42281769 -19.1803479 48.52483459 -19.19024658 47.59963989 C-19.19449646 46.64121185 -19.19874634 45.68278381 -19.203125 44.6953125 C-19.20882507 43.69797089 -19.21452515 42.70062927 -19.22039795 41.67306519 C-19.22982709 39.56672215 -19.23637363 37.46036451 -19.24023438 35.35400391 C-19.24994468 32.14329166 -19.28099011 28.93321857 -19.3125 25.72265625 C-19.31903031 23.67187878 -19.32428067 21.62109676 -19.328125 19.5703125 C-19.3404718 18.61593292 -19.3528186 17.66155334 -19.36553955 16.67825317 C-19.34670553 11.003208 -18.71541345 7.015811 -16 2 C-11.13009324 -2.71281299 -5.9807054 -2.50526469 0 0 Z " fill="#FF7422" transform="translate(263,157)"/>
<path d="M0 0 C3.52240766 2.71518924 5.2601286 4.65992962 6 9 C6.06743348 11.08234592 6.08514472 13.16668557 6.0625 15.25 C6.05347656 16.32765625 6.04445313 17.4053125 6.03515625 18.515625 C6.02355469 19.33546875 6.01195312 20.1553125 6 21 C6.99330322 20.98428955 7.98660645 20.9685791 9.01000977 20.95239258 C12.72053818 20.89779801 16.43103158 20.86354344 20.1418457 20.83520508 C21.74314356 20.82018534 23.34440075 20.79976337 24.94555664 20.77368164 C27.25677571 20.73699562 29.56744756 20.72020565 31.87890625 20.70703125 C32.58648575 20.69154739 33.29406525 20.67606354 34.02308655 20.66011047 C39.15583197 20.65840056 42.52525955 21.67403321 47 24 C49.96015387 27.34210921 50.58185442 30.53643691 50.4296875 35 C49.65395507 38.61068185 47.60947818 40.45265225 45 43 C42.54902382 44.22548809 40.94072385 44.13662006 38.19950867 44.15390015 C37.1858725 44.16250061 36.17223633 44.17110107 35.12788391 44.17996216 C34.01149033 44.18422211 32.89509674 44.18848206 31.74487305 44.19287109 C30.57243042 44.20104858 29.39998779 44.20922607 28.1920166 44.21765137 C24.29859786 44.24253533 20.40518669 44.25917873 16.51171875 44.2734375 C15.17145086 44.27879728 13.83118304 44.28417479 12.4909153 44.28956985 C6.9157781 44.31119823 1.34064381 44.32993494 -4.23452473 44.34119225 C-12.22463685 44.35743186 -20.21426271 44.39060947 -28.20419151 44.44759309 C-33.82209796 44.48629364 -39.43987436 44.50582501 -45.05791062 44.51111281 C-48.41341926 44.51476624 -51.76840924 44.52678475 -55.12377357 44.55921555 C-58.86845783 44.59071924 -62.6119083 44.59092533 -66.35668945 44.58349609 C-67.46701035 44.59990143 -68.57733124 44.61630676 -69.72129822 44.63320923 C-78.08900264 44.56510739 -78.08900264 44.56510739 -81.16520691 41.52603149 C-81.77068863 40.6924411 -82.37617035 39.85885071 -83 39 C-83.33 38.67 -83.66 38.34 -84 38 C-84.65527694 32.94500644 -84.87485609 29.19980263 -81.8125 25 C-77.32317917 21.80759407 -73.78403429 20.74815334 -68.29174805 20.77294922 C-66.61057137 20.77317581 -66.61057137 20.77317581 -64.89543152 20.77340698 C-63.6963063 20.78372955 -62.49718109 20.79405212 -61.26171875 20.8046875 C-59.40786308 20.80893234 -59.40786308 20.80893234 -57.51655579 20.81326294 C-54.24335003 20.82254782 -50.97034356 20.84049367 -47.69720459 20.8626709 C-44.35219152 20.88319183 -41.00716974 20.89210732 -37.66210938 20.90234375 C-31.10799526 20.92438205 -24.55401392 20.95784339 -18 21 C-18.02284058 19.87851562 -18.02284058 19.87851562 -18.04614258 18.734375 C-18.05798584 17.74953125 -18.0698291 16.7646875 -18.08203125 15.75 C-18.10487183 14.28820312 -18.10487183 14.28820312 -18.12817383 12.796875 C-17.91472717 8.13926563 -16.43242576 4.7905322 -13.5 1.125 C-9.42076623 -1.93442533 -4.66191684 -1.20228382 0 0 Z " fill="#FF9300" transform="translate(351,468)"/>
<path d="M0 0 C4.01320444 2.49710499 5.6473056 4.52033827 7 9 C7.28791562 11.96838851 7.28354086 14.92128979 7.2746582 17.90185547 C7.27976913 18.78867004 7.28488007 19.67548462 7.29014587 20.58917236 C7.30402431 23.51524643 7.30308629 26.44108447 7.30078125 29.3671875 C7.30466937 31.40593554 7.30900429 33.44468277 7.31376648 35.48342896 C7.32122511 39.75541815 7.32094015 44.02732471 7.31567383 48.29931641 C7.30988226 53.76574593 7.3268045 59.2318363 7.3500185 64.69820976 C7.36477256 68.90876229 7.36562521 73.11923348 7.36250877 77.32980728 C7.36302123 79.34477535 7.36824469 81.35974807 7.37832069 83.37469101 C7.39069892 86.19646791 7.38388483 89.01758856 7.37231445 91.83935547 C7.38378006 93.08022415 7.38378006 93.08022415 7.39547729 94.34616089 C7.34155438 100.31554031 6.48918683 105.474588 2.12109375 109.90625 C-1.79110714 111.92359116 -5.73123678 111.73336937 -10 111 C-14.31248347 107.94532421 -15.65851606 105.0019558 -17 100 C-17.16163015 97.35865054 -17.23469585 94.83115344 -17.1953125 92.1953125 C-17.1924826 91.4713327 -17.18965271 90.74735291 -17.18673706 90.00143433 C-17.17562087 87.7091151 -17.15053312 85.41719937 -17.125 83.125 C-17.1149591 81.56250568 -17.10583519 80.00000518 -17.09765625 78.4375 C-17.07570973 74.62484662 -17.04124013 70.81249152 -17 67 C-18.34457275 67.01848999 -18.34457275 67.01848999 -19.71630859 67.03735352 C-21.4770874 67.05173462 -21.4770874 67.05173462 -23.2734375 67.06640625 C-25.02019775 67.08489624 -25.02019775 67.08489624 -26.80224609 67.10375977 C-30.69835092 66.97734012 -32.95692801 66.48250609 -36 64 C-38.24553216 60.23330089 -39 57.76098765 -39 53.375 C-37.80638034 49.34653364 -36.20415439 47.65710364 -33 45 C-29.99686252 43.49843126 -27.20932478 43.90718796 -23.875 43.9375 C-22.59367187 43.94652344 -21.31234375 43.95554687 -19.9921875 43.96484375 C-19.00476563 43.97644531 -18.01734375 43.98804688 -17 44 C-17.01571045 43.00669678 -17.0314209 42.01339355 -17.04760742 40.98999023 C-17.10220199 37.27946182 -17.13645656 33.56896842 -17.16479492 29.8581543 C-17.17981466 28.25685644 -17.20023663 26.65559925 -17.22631836 25.05444336 C-17.26300438 22.74322429 -17.27979435 20.43255244 -17.29296875 18.12109375 C-17.30845261 17.41351425 -17.32393646 16.70593475 -17.33988953 15.97691345 C-17.34159915 10.84504606 -16.31391631 7.47840026 -14 3 C-9.55545696 -1.1667591 -5.82800905 -1.30627789 0 0 Z " fill="#FF8F05" transform="translate(439,401)"/>
<path d="M0 0 C2.58297781 2.18991597 4.48415844 3.96831688 6 7 C6.09110781 8.87919548 6.11752837 10.76166792 6.11352539 12.64306641 C6.11344986 13.82413971 6.11337433 15.00521301 6.11329651 16.22207642 C6.10813522 17.50230682 6.10297394 18.78253723 6.09765625 20.1015625 C6.0962413 21.40829926 6.09482635 22.71503601 6.09336853 24.06137085 C6.08954894 27.53676258 6.07972342 31.01211257 6.06866455 34.48748779 C6.05843843 38.03331945 6.05386833 41.57915785 6.04882812 45.125 C6.03810066 52.08335049 6.02103092 59.04167324 6 66 C7.45067871 65.96845825 7.45067871 65.96845825 8.93066406 65.9362793 C10.82896973 65.91174683 10.82896973 65.91174683 12.765625 65.88671875 C14.02149414 65.86569092 15.27736328 65.84466309 16.57128906 65.82299805 C21.10904706 66.05725286 22.79022843 66.87938875 26 70 C28.68121076 74.02181615 28.81344335 77.27236391 28 82 C26.28922026 85.0717718 24.19028693 87.40485654 21 89 C18.44842345 89.0716735 15.92527029 89.09308442 13.375 89.0625 C12.66859375 89.05798828 11.9621875 89.05347656 11.234375 89.04882812 C9.48954725 89.03703875 7.744763 89.01910324 6 89 C6.05220703 90.42892578 6.05220703 90.42892578 6.10546875 91.88671875 C6.13253906 93.14097656 6.15960938 94.39523437 6.1875 95.6875 C6.23970703 97.54955078 6.23970703 97.54955078 6.29296875 99.44921875 C5.91600838 104.01797841 4.37864327 106.4622825 1.375 109.8125 C-2.37485024 111.68742512 -5.90312317 111.77259442 -10 111 C-13.57052209 109.06658451 -15.69451966 106.91644101 -17 103 C-17.10721407 99.96802234 -17.15727649 96.95869631 -17.16113281 93.92626953 C-17.16609772 92.99752014 -17.17106262 92.06877075 -17.17617798 91.11187744 C-17.19079848 88.03551496 -17.19760113 84.95920403 -17.203125 81.8828125 C-17.20887617 79.7467346 -17.21463391 77.61065672 -17.22039795 75.47457886 C-17.23090736 70.99395507 -17.23675055 66.51334923 -17.24023438 62.03271484 C-17.24572154 56.29029202 -17.2697547 50.54810603 -17.29820633 44.80575752 C-17.31682517 40.39284572 -17.32203789 35.97999107 -17.32357025 31.5670433 C-17.32659858 29.44993672 -17.33463314 27.33283118 -17.34775543 25.21576309 C-17.36480132 22.25449822 -17.36293924 19.2938135 -17.35644531 16.33251953 C-17.3656601 15.45753815 -17.37487488 14.58255676 -17.3843689 13.68106079 C-17.35207092 8.98179343 -17.11932201 5.77452801 -14 2 C-9.02064459 -0.87270504 -5.54767627 -1.64375593 0 0 Z " fill="#FF8F04" transform="translate(217,401)"/>
<path d="M0 0 C4.07234334 3.5067401 5.14060558 7.67973869 5.59057617 12.85327148 C5.59010916 14.25513532 5.57363819 15.65706537 5.54296875 17.05859375 C5.53872391 17.80335464 5.53447906 18.54811554 5.53010559 19.31544495 C5.51345724 21.66901473 5.47583375 24.02169379 5.4375 26.375 C5.42243515 27.98110733 5.40874991 29.58722823 5.39648438 31.19335938 C5.36359952 35.10841047 5.31191626 39.02280479 5.25 42.9375 C6.37148438 42.91465942 6.37148438 42.91465942 7.515625 42.89135742 C8.50046875 42.87951416 9.4853125 42.8676709 10.5 42.85546875 C11.47453125 42.8402417 12.4490625 42.82501465 13.453125 42.80932617 C18.11073437 43.02277283 21.4594678 44.50507424 25.125 47.4375 C28.81840253 52.3620367 27.47661763 59.93071304 27.5 65.75 C27.520625 67.02166016 27.54125 68.29332031 27.5625 69.60351562 C27.57023437 71.44913086 27.57023437 71.44913086 27.578125 73.33203125 C27.5874707 74.45456299 27.59681641 75.57709473 27.60644531 76.73364258 C27.19716345 80.41241375 26.16675516 82.78655676 24.25 85.9375 C20.88204875 88.36555788 18.27087191 89.19174769 14.1875 88.9375 C9.98711816 88.22134294 7.92044998 86.25533179 5.25 82.9375 C3.74843126 79.93436252 4.15718796 77.14682478 4.1875 73.8125 C4.19652344 72.53117187 4.20554687 71.24984375 4.21484375 69.9296875 C4.22644531 68.94226563 4.23804688 67.95484375 4.25 66.9375 C3.07244141 66.98970703 3.07244141 66.98970703 1.87109375 67.04296875 C-4.4817599 67.20666191 -9.23068101 67.22560493 -14.75 63.9375 C-19.84126233 58.84623767 -18.92266357 51.56441058 -18.953125 44.8515625 C-18.95882507 43.87641693 -18.96452515 42.90127136 -18.97039795 41.89657593 C-18.97982608 39.83731159 -18.98637322 37.7780323 -18.99023438 35.71875 C-18.99994443 32.58046004 -19.03099063 29.44282407 -19.0625 26.3046875 C-19.06903037 24.29948304 -19.07428071 22.29427391 -19.078125 20.2890625 C-19.0904718 19.3565567 -19.1028186 18.4240509 -19.11553955 17.46328735 C-19.09400365 11.11778437 -18.33586282 6.16982852 -14.25 1.0625 C-10.04950665 -2.08787001 -4.69804516 -1.81515381 0 0 Z " fill="#FF781D" transform="translate(440.75,201.0625)"/>
<path d="M0 0 C3.75516474 3.72960966 5.55785337 6.01299497 5.66653442 11.51403809 C5.65484222 12.19526733 5.64315002 12.87649658 5.63110352 13.57836914 C5.63825882 14.3124852 5.64541412 15.04660126 5.65278625 15.80296326 C5.66960871 18.21433949 5.65031302 20.62383959 5.62890625 23.03515625 C5.62973547 24.71854302 5.63219684 26.40192971 5.63621521 28.08531189 C5.63906865 31.60668419 5.62441551 35.12741883 5.59692383 38.64868164 C5.56281502 43.1570513 5.56887198 47.66428316 5.5875864 52.17270756 C5.59816533 55.64637195 5.58921102 59.11977253 5.57420158 62.5934124 C5.5690276 64.25555068 5.56949207 65.91771659 5.57574654 67.57985115 C5.58121085 69.90417671 5.5607886 72.22688435 5.53344727 74.55102539 C5.53997314 75.23427887 5.54649902 75.91753235 5.55322266 76.62149048 C5.45934295 81.32621241 4.29679004 83.68272782 1 87 C-2.68793383 89.25373734 -5.90782467 89.26971688 -10.06640625 88.609375 C-13.32116798 87.58363191 -14.96648125 85.64973655 -17 83 C-18.25437239 79.46306945 -18.140181 75.95498377 -18.16113281 72.23120117 C-18.16609772 71.55911118 -18.17106262 70.88702118 -18.17617798 70.19456482 C-18.19074866 67.9773556 -18.19759326 65.76021793 -18.203125 63.54296875 C-18.2088809 61.99603779 -18.21463857 60.44910685 -18.22039795 58.9021759 C-18.23089362 55.65995961 -18.23674558 52.417768 -18.24023438 49.17553711 C-18.24571436 45.03297086 -18.26973763 40.89073406 -18.29820633 36.74827099 C-18.3168847 33.55254684 -18.32204108 30.35690121 -18.32357025 27.16112709 C-18.32658588 25.63458773 -18.33457741 24.1080494 -18.34775543 22.58156395 C-18.36492467 20.43978609 -18.36290977 18.2988023 -18.35644531 16.15698242 C-18.36009094 14.94104904 -18.36373657 13.72511566 -18.36749268 12.47233582 C-17.9277373 8.31720993 -16.91467723 5.70587454 -15 2 C-10.53067383 -1.40520089 -5.22897617 -2.11887208 0 0 Z " fill="#FF8113" transform="translate(507,290)"/>
<path d="M0 0 C1.0046933 -0.00960754 2.0093866 -0.01921509 3.04452515 -0.02911377 C4.12891876 -0.03336365 5.21331238 -0.03761353 6.33056641 -0.04199219 C7.44646149 -0.04769226 8.56235657 -0.05339233 9.71206665 -0.05926514 C12.07414806 -0.06871553 14.43624267 -0.07524927 16.79833984 -0.07910156 C20.41087842 -0.08881008 24.02284882 -0.11983501 27.63525391 -0.15136719 C29.92952136 -0.157897 32.22379288 -0.16314756 34.51806641 -0.16699219 C35.59841156 -0.17933899 36.67875671 -0.19168579 37.7918396 -0.20440674 C44.26776469 -0.18518326 47.94563144 0.3715144 52.86962891 4.78613281 C54.73423742 8.51534985 54.72025232 12.08037336 54.05712891 16.16113281 C51.92185458 19.74534329 49.94166536 21.7170049 46.05712891 23.16113281 C43.26628672 23.32971447 40.57940898 23.39397523 37.79150391 23.35644531 C36.99810608 23.35361542 36.20470825 23.35078552 35.38726807 23.34786987 C32.86039974 23.3367006 30.33388959 23.31160225 27.80712891 23.28613281 C26.0909882 23.27609879 24.37484193 23.26697368 22.65869141 23.25878906 C18.45803317 23.23677195 14.25764171 23.20226468 10.05712891 23.16113281 C10.07163086 23.98025146 10.08613281 24.79937012 10.10107422 25.64331055 C10.11799316 27.25894897 10.11799316 27.25894897 10.13525391 28.90722656 C10.14975586 29.97384521 10.16425781 31.04046387 10.17919922 32.1394043 C10.01180706 36.28302989 9.17468532 38.60666311 7.05712891 42.16113281 C3.31633961 45.59357071 0.3878888 45.71800659 -4.52880859 45.59472656 C-8.16919141 44.9408714 -9.76969893 43.03532826 -11.94287109 40.16113281 C-12.27287109 39.83113281 -12.60287109 39.50113281 -12.94287109 39.16113281 C-13.23440707 34.69325165 -13.25699216 30.2195763 -13.29296875 25.7434082 C-13.30947383 24.23901847 -13.33669215 22.73470538 -13.375 21.23071289 C-13.43006989 19.05736782 -13.45169027 16.88586507 -13.46630859 14.71191406 C-13.48612793 13.40907471 -13.50594727 12.10623535 -13.52636719 10.76391602 C-12.75994228 6.03164303 -11.34449944 4.48048893 -7.94287109 1.16113281 C-5.00425867 0.18159534 -3.06400236 0.02365917 0 0 Z " fill="#FF7421" transform="translate(12.94287109375,199.8388671875)"/>
<path d="M0 0 C2.02817196 -0.00967986 4.05531899 -0.04069095 6.08325195 -0.07226562 C7.36651367 -0.07742187 8.64977539 -0.08257812 9.97192383 -0.08789062 C11.73596558 -0.10190918 11.73596558 -0.10190918 13.53564453 -0.11621094 C17.89417479 0.36958601 20.41072001 1.78664538 23.34895325 5.01509094 C25.04107491 7.73426652 25.12487201 9.384398 25.15356445 12.57202148 C25.16947632 13.63670151 25.18538818 14.70138153 25.20178223 15.79832458 C25.20198364 16.94317825 25.20218506 18.08803192 25.20239258 19.26757812 C25.21381287 21.03918053 25.21381287 21.03918053 25.22546387 22.84657288 C25.23626772 25.34390143 25.23911684 27.84127518 25.23461914 30.33862305 C25.23364706 34.16010869 25.27526494 37.97958566 25.31958008 41.80078125 C25.32478716 44.22720935 25.32747527 46.65364444 25.32739258 49.08007812 C25.35198547 50.79432228 25.35198547 50.79432228 25.3770752 52.54319763 C25.30810043 60.45831331 25.30810043 60.45831331 22.4074707 64.40649414 C19.10785689 66.66940497 16.71261748 67.69141025 12.73364258 68.24023438 C8.14009887 66.86217126 5.12018392 65.48297455 2.73364258 61.24023438 C1.50184124 57.54483036 1.60952146 54.1372006 1.63598633 50.29101562 C1.63740128 49.5183989 1.63881622 48.74578217 1.64027405 47.94975281 C1.64586792 45.48404048 1.65841925 43.01841922 1.67114258 40.55273438 C1.67615837 38.88020965 1.68072114 37.20768349 1.68481445 35.53515625 C1.69583534 31.43681391 1.71309573 27.33853958 1.73364258 23.24023438 C0.28296387 23.26960083 0.28296387 23.26960083 -1.19702148 23.29956055 C-2.46255859 23.3147876 -3.7280957 23.33001465 -5.03198242 23.34570312 C-6.28785156 23.36528076 -7.5437207 23.3848584 -8.83764648 23.4050293 C-13.42937036 23.18433622 -15.09228601 22.50247444 -18.26635742 19.24023438 C-20.58660702 15.60853935 -20.52528959 12.31386384 -19.88354492 8.17382812 C-18.86636939 4.98710731 -16.81341891 3.29030826 -14.26635742 1.24023438 C-10.07006908 -0.8579098 -4.61600893 0.0133491 0 0 Z " fill="#FF7620" transform="translate(487.266357421875,199.759765625)"/>
<path d="M0 0 C2.31136017 2.24337899 3.06423144 3.13059578 3.27217102 6.31941223 C3.28693733 7.72908516 3.28693733 7.72908516 3.30200195 9.16723633 C3.32125481 10.76448296 3.32125481 10.76448296 3.34089661 12.39399719 C3.34828354 13.54917343 3.35567047 14.70434967 3.36328125 15.89453125 C3.371353 17.07842941 3.37942474 18.26232758 3.38774109 19.48210144 C3.40159064 21.99138927 3.41230888 24.50069601 3.42016602 27.01000977 C3.43738264 30.84883284 3.48126318 34.68679582 3.52539062 38.52539062 C3.53551688 40.96093115 3.54403319 43.39647902 3.55078125 45.83203125 C3.56828934 46.9811348 3.58579742 48.13023834 3.60383606 49.31416321 C3.58210996 57.29212918 3.58210996 57.29212918 1.23901367 61.2409668 C-2.36124651 64.34311961 -5.166576 65.29206389 -9.875 65 C-14.14988608 64.32119011 -16.22464335 62.51599502 -18.875 59.0625 C-20.07044901 55.66294187 -19.97638346 52.3897784 -19.9375 48.8125 C-19.92847656 47.73484375 -19.91945313 46.6571875 -19.91015625 45.546875 C-19.89855469 44.72703125 -19.88695312 43.9071875 -19.875 43.0625 C-21.05255859 43.11470703 -21.05255859 43.11470703 -22.25390625 43.16796875 C-33.55361776 43.45912696 -33.55361776 43.45912696 -38.875 40.0625 C-41.52949258 36.57847849 -42.11550507 33.77924177 -41.9375 29.5 C-41.42306956 26.11047496 -40.64981826 24.32804518 -38.0625 22.0625 C-33.56207015 19.23870088 -30.39597911 18.93725025 -25.125 19 C-24.14015625 19.00902344 -23.1553125 19.01804687 -22.140625 19.02734375 C-21.01914062 19.04474609 -21.01914062 19.04474609 -19.875 19.0625 C-19.92720703 17.86753906 -19.92720703 17.86753906 -19.98046875 16.6484375 C-20.16024041 9.61166092 -19.93955208 4.92650045 -15.4375 -0.75 C-10.66657702 -4.37590146 -4.7164161 -3.17845433 0 0 Z " fill="#FF8C07" transform="translate(508.875,402.9375)"/>
<path d="M0 0 C1.60198242 -0.0309375 1.60198242 -0.0309375 3.23632812 -0.0625 C10.19968908 -0.09695077 15.88128957 -0.0021211 21.09765625 5.12890625 C23.10286316 9.03151324 22.80229725 12.98786624 22.1875 17.25 C20.38367663 20.58013545 19.010778 21.81777905 15.6875 23.5625 C10.52344906 24.57686715 5.43226267 24.40276008 0.1875 24.25 C0.23390625 25.19101562 0.2803125 26.13203125 0.328125 27.1015625 C0.65989528 38.54763726 0.65989528 38.54763726 -1.5 42 C-4.50846497 44.9271551 -6.49259136 46.17455582 -10.734375 46.3125 C-14.77387909 46.06952231 -16.51789424 45.48819189 -19.75 42.875 C-24.2147166 37.19263341 -23.03483414 30.28454947 -23.0625 23.375 C-23.083125 22.09496094 -23.10375 20.81492187 -23.125 19.49609375 C-23.13273437 17.64564453 -23.13273437 17.64564453 -23.140625 15.7578125 C-23.1499707 14.63004395 -23.15931641 13.50227539 -23.16894531 12.34033203 C-22.67064923 8.02017328 -21.07600577 5.39123102 -17.875 2.5 C-12.4935289 -0.76149764 -6.08137612 0.02904538 0 0 Z " fill="#FF791B" transform="translate(66.8125,243.75)"/>
<path d="M0 0 C2.00812669 -0.01718416 4.01596651 -0.06108822 6.02368164 -0.10522461 C7.29920898 -0.11360352 8.57473633 -0.12198242 9.88891602 -0.13061523 C11.05334229 -0.14519775 12.21776855 -0.15978027 13.41748047 -0.17480469 C17.46429157 0.40228335 19.57512476 1.70963656 22.71313477 4.29516602 C26.11232052 8.90716656 25.04680909 15.24758491 25.02880859 20.71240234 C25.02565001 22.72296441 25.04912093 24.73205141 25.07446289 26.74243164 C25.07510742 28.01666992 25.07575195 29.2909082 25.07641602 30.60375977 C25.07939697 31.76705811 25.08237793 32.93035645 25.08544922 34.12890625 C24.58297146 38.4021089 22.91762666 40.95169428 20.08813477 44.10766602 C16.33828453 45.98259113 12.8100116 46.06776044 8.71313477 45.29516602 C5.14261267 43.36175053 3.0186151 41.21160702 1.71313477 37.29516602 C1.64343425 34.90025616 1.62865474 32.5034891 1.65063477 30.10766602 C1.6596582 28.83536133 1.66868164 27.56305664 1.67797852 26.25219727 C1.68958008 25.27637695 1.70118164 24.30055664 1.71313477 23.29516602 C0.30161133 23.36477539 0.30161133 23.36477539 -1.13842773 23.43579102 C-12.57934135 23.7674117 -12.57934135 23.7674117 -16.03686523 21.48266602 C-19.18287186 18.42404846 -20.59669007 16.33113192 -20.72436523 11.98266602 C-20.65625374 8.50330397 -20.16294011 6.51770042 -17.97436523 3.79516602 C-12.81288809 -1.00620808 -6.70404706 0.03994872 0 0 Z " fill="#FF7521" transform="translate(376.286865234375,199.704833984375)"/>
<path d="M0 0 C2.14525308 0.0009707 4.2869053 -0.04062787 6.43164062 -0.08496094 C7.80663322 -0.09017008 9.18163816 -0.0928561 10.55664062 -0.09277344 C11.79849121 -0.09986328 13.0403418 -0.10695313 14.31982422 -0.11425781 C18.89511053 0.69849571 20.5103447 2.25688649 23.78320312 5.50097656 C25.51584224 8.9662548 25.25518053 12.71204684 24.78320312 16.50097656 C22.41580027 20.62201116 20.22119936 22.0606332 15.78320312 23.50097656 C11.31223627 23.91711272 6.8341093 23.82534437 2.34570312 23.81347656 C0.52329102 23.83764648 0.52329102 23.83764648 -1.3359375 23.86230469 C-2.51220703 23.86294922 -3.68847656 23.86359375 -4.90039062 23.86425781 C-6.5022522 23.86872925 -6.5022522 23.86872925 -8.13647461 23.87329102 C-12.73261023 23.31776222 -16.11430011 21.82397268 -19.09179688 18.25097656 C-20.52838494 14.73931685 -20.6203961 12.26790265 -20.21679688 8.50097656 C-16.01463003 -0.74379049 -8.9895759 -0.0287338 0 0 Z " fill="#FF850F" transform="translate(220.216796875,355.4990234375)"/>
<path d="M0 0 C2.22860987 0.00097224 4.45377195 -0.04065957 6.68188477 -0.08496094 C8.10570575 -0.09016873 9.52953864 -0.09285612 10.95336914 -0.09277344 C12.24235107 -0.09986328 13.53133301 -0.10695312 14.859375 -0.11425781 C19.13627875 0.65028765 20.56564778 2.21661835 23.30102539 5.50097656 C23.79602539 5.99597656 23.79602539 5.99597656 24.30102539 6.50097656 C24.83838411 11.25792263 24.98246655 15.24293135 22.67602539 19.50097656 C16.66007518 24.5670399 9.31959619 23.83511345 1.86352539 23.81347656 C0.75686523 23.82958984 -0.34979492 23.84570312 -1.48999023 23.86230469 C-7.65940658 23.86599232 -12.2984847 23.58803347 -17.69897461 20.50097656 C-20.21317387 17.5812613 -20.66238408 15.84248818 -21.07397461 12.00097656 C-20.58929059 7.47725903 -19.27930537 5.0364076 -16.04052734 1.88964844 C-11.33944957 -0.8983539 -5.34673012 -0.01648953 0 0 Z " fill="#FF5F38" transform="translate(220.698974609375,-0.5009765625)"/>
<path d="M0 0 C1.10214844 -0.01160156 2.20429688 -0.02320313 3.33984375 -0.03515625 C10.33661227 -0.0099578 16.17426936 0.09697452 21.40625 5.25390625 C23.41626943 9.15190821 23.26382452 13.12235538 22.5 17.375 C20.0625 20.4375 20.0625 20.4375 17.5 22.375 C17.005 22.87 17.005 22.87 16.5 23.375 C12.03211883 23.66653598 7.55844349 23.68912107 3.08227539 23.72509766 C1.57788565 23.74160274 0.07357257 23.76882105 -1.43041992 23.80712891 C-3.60376499 23.86219879 -5.77526774 23.88381918 -7.94921875 23.8984375 C-9.90347778 23.9281665 -9.90347778 23.9281665 -11.8972168 23.95849609 C-16.61047411 23.1951509 -18.17221623 21.73201346 -21.5 18.375 C-23.20188247 14.17507544 -22.76625758 10.27361933 -21.5 6 C-16.22225316 -0.92704273 -7.94108455 -0.08359036 0 0 Z " fill="#FF9300" transform="translate(489.5,488.625)"/>
<path d="M0 0 C3.919716 0.03919716 4.96946342 0.17044207 8.25 2.5625 C12.87870511 9.07161655 12.58477837 15.01495086 12.5625 22.75 C12.57861328 23.86117188 12.59472656 24.97234375 12.61132812 26.1171875 C12.61500919 32.30137845 12.34807345 36.96270302 9.25 42.375 C6.33028473 44.88919926 4.59151162 45.33840947 0.75 45.75 C-3.77371753 45.26531598 -6.21456896 43.95533077 -9.36132812 40.71655273 C-12.14933046 36.01547496 -11.26746609 30.02275551 -11.25097656 24.67602539 C-11.25000433 22.44741552 -11.29163613 20.22225344 -11.3359375 17.99414062 C-11.34114529 16.57031964 -11.34383268 15.14648675 -11.34375 13.72265625 C-11.35083984 12.43367432 -11.35792969 11.14469238 -11.36523438 9.81665039 C-10.60068891 5.53974664 -9.03435821 4.11037761 -5.75 1.375 C-4.10843264 -0.26656736 -2.25784199 0.08684008 0 0 Z " fill="#FF7C18" transform="translate(10.75,266.625)"/>
<path d="M0 0 C2.00812669 -0.01718416 4.01596651 -0.06108822 6.02368164 -0.10522461 C7.29920898 -0.11360352 8.57473633 -0.12198242 9.88891602 -0.13061523 C11.05334229 -0.14519775 12.21776855 -0.15978027 13.41748047 -0.17480469 C17.96105424 0.47312327 21.29721685 2.42872876 24.08813477 6.10766602 C25.44850698 10.86896875 25.28191664 14.21854319 22.96313477 18.60766602 C20.02300707 22.11948521 18.25316651 23.15588346 13.67626953 23.56982422 C6.96263688 23.61962378 6.96263688 23.61962378 4.29589844 23.61083984 C2.28533637 23.60768126 0.27624937 23.63115218 -1.73413086 23.65649414 C-3.00836914 23.65713867 -4.28260742 23.6577832 -5.59545898 23.65844727 C-6.75875732 23.66142822 -7.92205566 23.66440918 -9.12060547 23.66748047 C-13.39380812 23.16500271 -15.9433935 21.49965791 -19.09936523 18.67016602 C-20.97429035 14.92031578 -21.05945965 11.39204285 -20.28686523 7.29516602 C-15.7633239 -1.05865361 -8.41532071 0.05014602 0 0 Z " fill="#FF7422" transform="translate(109.286865234375,199.704833984375)"/>
</svg>
