<?xml version="1.0" encoding="UTF-8"?>
<svg version="1.1" xmlns="http://www.w3.org/2000/svg" width="512" height="512">
<path d="M0 0 C6.38289056 4.36143769 9.94145454 9.99796106 12.03515625 17.390625 C12.42548937 20.43565934 12.43144051 23.43217317 12.40023804 26.49902344 C12.40335703 27.38226162 12.40647603 28.2654998 12.40968955 29.17550278 C12.41660015 32.11717676 12.4023341 35.05835781 12.38818359 38 C12.38901489 40.11625259 12.39123261 42.23250502 12.39472961 44.34875488 C12.3996713 48.89730409 12.39559749 53.44572417 12.38471603 57.9942627 C12.36833674 65.1886119 12.37682919 72.38279965 12.38955688 79.57714844 C12.41965854 98.73949388 12.41820617 117.90180991 12.39930403 137.06416702 C12.38697118 149.66023323 12.38882791 162.25611632 12.41769183 174.85216141 C12.43292493 182.00206052 12.42544461 189.15146246 12.40098166 196.30133057 C12.39090756 200.75077149 12.40160564 205.19998452 12.41809654 209.6493988 C12.42154658 211.7101226 12.41645802 213.77088137 12.40212822 215.83155823 C12.38375065 218.64903584 12.39620554 221.4647962 12.41610718 224.28222656 C12.40338756 225.09391171 12.39066794 225.90559685 12.37756288 226.74187851 C12.46811998 232.70742995 14.25433164 236.77088779 18.03515625 241.390625 C23.24361624 245.62249874 27.6681112 246.50113499 34.23339844 246.55175781 C35.24505066 246.56136536 36.25670288 246.5709729 37.29901123 246.58087158 C38.38240784 246.58512146 39.46580444 246.58937134 40.58203125 246.59375 C41.70780579 246.59945007 42.83358032 246.60515015 43.99346924 246.61102295 C46.37389185 246.62045877 48.75432744 246.62700129 51.13476562 246.63085938 C54.75804708 246.64055248 58.38075811 246.67158508 62.00390625 246.703125 C64.32161123 246.70965691 66.63932025 246.71490664 68.95703125 246.71875 C70.03233093 246.7310968 71.10763062 246.7434436 72.21551514 246.75616455 C80.01132255 246.73332273 87.36601651 246.05835293 93.41015625 240.703125 C96.70960335 236.47260105 97.12889786 231.45625814 97.93212891 226.31030273 C99.293036 217.95503405 102.6966712 212.77110042 109.30078125 207.578125 C115.21448031 203.52910582 122.11992578 203.6955374 129.03515625 204.390625 C136.20007934 206.13762785 141.07971172 210.2436504 145.03515625 216.390625 C150.29163333 226.66794398 148.14263948 238.87600857 144.97265625 249.515625 C139.06520555 267.77240814 126.7001241 280.6969036 110.24609375 289.9609375 C98.39905696 295.79708836 85.81244088 296.86182138 72.79296875 296.82421875 C71.37156938 296.82880054 69.9501722 296.83411187 68.52877808 296.84010315 C65.5723156 296.84895451 62.61612438 296.84670407 59.65966797 296.83666992 C55.91938257 296.82519603 52.18004366 296.84540778 48.43988228 296.87458706 C45.51055206 296.89316275 42.58143977 296.89261473 39.65206528 296.88694954 C37.61852703 296.88672702 35.58500849 296.90341795 33.55154419 296.92076111 C15.36044707 296.78691535 -2.37305577 291.69639887 -15.66015625 278.7578125 C-16.42070312 277.97664063 -17.18125 277.19546875 -17.96484375 276.390625 C-19.13660156 275.24980469 -19.13660156 275.24980469 -20.33203125 274.0859375 C-35.84194087 258.15825253 -37.41817789 239.541703 -37.36889648 218.40917969 C-37.37460616 216.19381365 -37.38157272 213.97845055 -37.38969421 211.76309204 C-37.40756865 205.77581036 -37.40646872 199.78867569 -37.40075183 193.80137539 C-37.39765359 188.79606556 -37.40375907 183.79078371 -37.40979058 178.78547788 C-37.42461387 166.30562654 -37.42103793 153.82584039 -37.40892727 141.34599224 C-37.39898333 130.5206622 -37.41196153 119.69550279 -37.43586146 108.87019905 C-37.46026487 97.73236786 -37.46945854 86.5945985 -37.46320873 75.4567368 C-37.45983914 69.2124245 -37.46225542 62.9682534 -37.47945976 56.72396088 C-37.49492184 50.8567581 -37.49098123 44.98988195 -37.47215462 39.12269211 C-37.46846764 36.97166634 -37.47158034 34.82061638 -37.48204041 32.66961288 C-37.49524325 29.72994748 -37.48370889 26.79136472 -37.46604919 23.85174561 C-37.4756542 23.00387946 -37.48525921 22.15601331 -37.49515527 21.28245425 C-37.41351454 14.66275143 -35.58210349 9.49595183 -31.2890625 4.40234375 C-22.04236736 -3.0788726 -11.00433709 -5.67192692 0 0 Z " fill="#000000" transform="translate(241.96484375,29.609375)"/>
<path d="M0 0 C6.02533439 4.0939892 9.86846991 9.34143316 11.54931641 16.44482422 C19.0697757 61.92281777 4.23015422 123.30673324 -22.0390625 160.7890625 C-27.92300603 168.71388705 -34.24901735 176.15130657 -40.96484375 183.3828125 C-41.54234375 184.02605469 -42.11984375 184.66929687 -42.71484375 185.33203125 C-52.94857742 196.22821643 -66.02307283 205.03918307 -78.96484375 212.3828125 C-80.09792969 213.03636719 -81.23101562 213.68992187 -82.3984375 214.36328125 C-130.2829818 241.3379148 -189.15104479 248.25860156 -243.29962158 248.85559082 C-244.84672748 248.87349129 -246.3937679 248.89891021 -247.94061279 248.93249512 C-257.55948107 249.11878763 -266.08810274 248.68299805 -273.56494141 241.93969727 C-279.64265185 235.14859364 -280.51570909 228.83056318 -280.30859375 220.01953125 C-279.60827934 212.61052312 -276.62529011 208.42759647 -271.0390625 203.70703125 C-264.87752086 199.77339167 -259.66131714 198.91516372 -252.4921875 198.7578125 C-251.58429977 198.72595856 -250.67641205 198.69410461 -249.74101257 198.6612854 C-247.80036067 198.5934842 -245.85950997 198.53118527 -243.91851807 198.47393799 C-238.82450296 198.3200362 -233.73267732 198.1142721 -228.640625 197.90625 C-227.63143005 197.86535248 -226.62223511 197.82445496 -225.5824585 197.78231812 C-172.71799351 195.53917503 -112.53051815 185.3764529 -74 145.73828125 C-69.56086627 140.60047388 -65.76094761 135.0029308 -61.96484375 129.3828125 C-61.40796875 128.58359375 -60.85109375 127.784375 -60.27734375 126.9609375 C-41.81240132 98.66140616 -39.02561037 61.31386065 -38.53515625 28.54101562 C-38.26307474 18.16223964 -36.9788721 10.71450989 -29.734375 3.04296875 C-21.86347513 -4.34142958 -9.41658133 -4.8877355 0 0 Z " fill="#000000" transform="translate(481.96484375,236.6171875)"/>
<path d="M0 0 C4.20039663 3.82567245 7.61929157 8.07939516 8.18702769 13.9260453 C8.26401519 16.31499848 8.27608151 18.69669834 8.26742554 21.0868988 C8.27195665 22.00417584 8.27648776 22.92145288 8.28115618 23.86652619 C8.29382064 26.94158619 8.29217844 30.01646953 8.29052734 33.09155273 C8.29651157 35.29614998 8.30331687 37.50074514 8.31088257 39.70533752 C8.32856691 45.69753708 8.33323916 51.68967952 8.33451414 57.68190265 C8.33593566 61.42873462 8.34020541 65.17555208 8.34550858 68.92238045 C8.3630657 81.32820747 8.37234781 93.73400669 8.37084763 106.13984465 C8.37076772 106.8084005 8.3706878 107.47695636 8.37060547 108.16577148 C8.37052371 108.83515057 8.37044195 109.50452965 8.37035771 110.19419295 C8.36954625 121.02237548 8.38864767 131.85041841 8.4168822 142.67856061 C8.44568688 153.8139347 8.45905285 164.94925137 8.45769465 176.08466488 C8.45718594 182.32928241 8.46281794 188.57374221 8.48405075 194.81832695 C8.50350018 200.69939428 8.50351168 206.5801546 8.48901749 212.46123314 C8.48693616 214.61135052 8.49158962 216.76148744 8.5037384 218.9115715 C8.61324509 239.64744945 5.23690419 257.21307682 -9.69921875 272.7265625 C-10.83810547 273.85191406 -10.83810547 273.85191406 -12 275 C-12.68707031 275.70898438 -13.37414062 276.41796875 -14.08203125 277.1484375 C-28.69145814 291.29708469 -47.85335792 294.63847892 -67.41601562 294.47070312 C-87.91443634 293.90893883 -105.84357839 286.67188826 -120.2109375 271.6953125 C-131.7519268 258.2087158 -137.26943142 241.6670028 -137 224 C-136.04593381 216.46896687 -132.78539728 210.89446865 -127 206 C-120.522593 201.59884438 -113.64766853 201.01979148 -106 202 C-98.82485776 203.77988025 -94.00801197 207.86239039 -90 214 C-87.72688416 218.7190922 -86.92015765 223.47526211 -86.1875 228.625 C-85.23543236 234.10706688 -83.48656128 237.62063732 -79 241 C-71.17757853 245.24602255 -62.06503431 244.98187335 -53.625 242.875 C-48.00558441 240.98402205 -45.60486603 238.11315134 -42.89072227 232.8482008 C-41.68629381 228.99688348 -41.72559735 225.297503 -41.7484436 221.30378723 C-41.74547346 220.42860701 -41.74250333 219.55342678 -41.73944318 218.65172595 C-41.73180514 215.71932947 -41.73829651 212.78713341 -41.74462891 209.85473633 C-41.74187887 207.75202295 -41.7381989 205.64931061 -41.73365784 203.54660034 C-41.72554431 199.01767893 -41.7233778 194.4888069 -41.72560501 189.95987892 C-41.72843756 182.79463797 -41.71408754 175.62949567 -41.69662476 168.46427917 C-41.64959448 148.08875006 -41.62566156 127.71322746 -41.61914062 107.33764648 C-41.6153873 96.08491746 -41.59733477 84.83229989 -41.56404626 73.57961863 C-41.54384973 66.46130592 -41.54145383 59.34328103 -41.55232644 52.22495139 C-41.5549384 47.78853771 -41.54090542 43.35229066 -41.52224541 38.91592026 C-41.51693457 36.86411205 -41.51840118 34.81227294 -41.52728081 32.76047707 C-41.61500085 10.70581923 -41.61500085 10.70581923 -34.8515625 2.34375 C-24.18683395 -6.48739364 -11.81859323 -8.3907806 0 0 Z " fill="#000000" transform="translate(155,32)"/>
<path d="M0 0 C5.02357816 3.78205312 8.11786548 9.75702319 9.3125 15.875 C10.2360574 23.65710664 8.4985598 30.67160923 3.734375 36.95703125 C-1.81221961 42.8908881 -8.02904992 45.36811274 -16.07421875 45.9296875 C-23.69650881 45.77017769 -29.51789576 43.06740546 -34.99609375 37.84375 C-40.25107555 31.72709682 -42.21031687 24.8479573 -41.6875 16.875 C-39.77975915 8.82321143 -36.8666625 3.01126149 -29.6875 -1.4375 C-19.6237031 -7.2824796 -9.67989591 -6.04209486 0 0 Z " fill="#000000" transform="translate(349.6875,342.125)"/>
<path d="M0 0 C5.02576904 3.78370255 8.11320636 9.75615492 9.3125 15.875 C9.86918723 24.08613671 8.39374323 30.70381826 3.125 37.1875 C-2.34651542 42.93373586 -8.19378009 45.49136491 -16.109375 45.96484375 C-23.72581647 45.6994223 -29.50679692 43.0779886 -34.99609375 37.84375 C-40.25107555 31.72709682 -42.21031687 24.8479573 -41.6875 16.875 C-39.77975915 8.82321143 -36.8666625 3.01126149 -29.6875 -1.4375 C-19.6237031 -7.2824796 -9.67989591 -6.04209486 0 0 Z " fill="#000000" transform="translate(276.6875,342.125)"/>
</svg>
