<?xml version="1.0" encoding="UTF-8"?>
<svg version="1.1" xmlns="http://www.w3.org/2000/svg" width="512" height="512">
<path d="M0 0 C0.93944731 -0.00384115 1.87889463 -0.00768229 2.84681004 -0.01163983 C4.39012202 -0.01034011 4.39012202 -0.01034011 5.96461201 -0.00901413 C7.6079268 -0.01347081 7.6079268 -0.01347081 9.28443986 -0.01801753 C12.9684724 -0.02671369 16.65247248 -0.02821356 20.33651447 -0.02970505 C22.97271599 -0.03433259 25.60891454 -0.03933654 28.24511433 -0.04475021 C35.41673895 -0.05832846 42.58835798 -0.06435759 49.75999331 -0.06876087 C54.23929605 -0.07152442 58.71859663 -0.07576201 63.19789791 -0.08026505 C75.60320589 -0.09245755 88.00851215 -0.10275657 100.41382599 -0.10614014 C101.20770887 -0.1063597 102.00159176 -0.10657927 102.8195317 -0.10680549 C104.01318591 -0.10713291 104.01318591 -0.10713291 105.23095435 -0.10746694 C106.84345226 -0.1079104 108.45595016 -0.10835696 110.06844807 -0.10880661 C110.86830064 -0.10902804 111.66815321 -0.10924947 112.49224374 -0.10947761 C125.44808765 -0.11342427 138.40387526 -0.13087435 151.35969742 -0.15416613 C164.66576578 -0.17789418 177.9718059 -0.19034267 191.27789575 -0.19150805 C198.74691605 -0.19242405 206.21586302 -0.19815729 213.68486309 -0.21632767 C220.04596569 -0.23174835 226.40697229 -0.23683758 232.76809003 -0.22858956 C236.01176755 -0.22468984 239.25521201 -0.22722021 242.49887371 -0.23964691 C246.02082214 -0.25234751 249.54227632 -0.24649927 253.06422138 -0.23606491 C254.59080294 -0.24814952 254.59080294 -0.24814952 256.14822453 -0.26047826 C265.81421052 -0.19360343 274.03237104 2.01427156 281.14828205 8.88533401 C288.40163813 16.62325668 289.94653392 23.1523796 289.6756258 33.72908401 C288.82847463 42.11395529 284.53653004 48.55816692 278.3318758 54.13142776 C271.21711488 59.04952151 265.1870318 60.28833079 256.6040926 60.24495316 C255.46182964 60.2451722 255.46182964 60.2451722 254.29649067 60.24539566 C251.79132918 60.24470163 249.28624298 60.23693317 246.78109455 60.22908401 C245.03946187 60.22721802 243.29782866 60.22579498 241.55619526 60.2247963 C236.98102071 60.22098538 232.4058781 60.21116729 227.83071613 60.20009232 C223.15858104 60.18984752 218.48644077 60.1852921 213.81429768 60.18025589 C204.65347638 60.16954372 195.49267875 60.15248445 186.3318758 60.13142776 C186.94313313 61.20376663 187.55439045 62.2761055 188.18417072 63.38093948 C188.99787207 64.81591677 189.81142194 66.25097996 190.62484455 67.68611526 C191.02634724 68.38954056 191.42784992 69.09296585 191.84151936 69.81770706 C198.06584209 80.8204579 201.97196793 91.98867657 205.3318758 104.13142776 C206.04882618 104.13729401 206.76577656 104.14316025 207.50445271 104.14920425 C214.30039556 104.20739411 221.09606427 104.27961863 227.89168835 104.36714268 C231.38442213 104.41164471 234.87704468 104.45094335 238.36996174 104.47786331 C242.39661845 104.50913473 246.42267114 104.56391341 250.4490633 104.61970901 C251.68800343 104.62609894 252.92694355 104.63248886 254.20342731 104.63907242 C265.62774206 104.83063585 273.82879377 106.4790881 282.12484455 114.63142776 C288.72655332 122.10946955 290.3394736 129.46145966 289.82015705 139.27595901 C288.70005146 148.12031274 284.48357548 153.8961362 277.7068758 159.46736526 C269.62864741 165.70635416 261.41653659 165.45595078 251.52328205 165.54549026 C250.18806004 165.56422602 248.85284957 165.58380119 247.51765156 165.60417557 C244.02433837 165.65524895 240.53098689 165.69500624 237.03750324 165.73231888 C233.4643091 165.77251515 229.89127079 165.82353575 226.31820393 165.87361526 C219.32287541 165.97008033 212.32744658 166.05457808 205.3318758 166.13142776 C205.02387043 167.23679886 204.71586506 168.34216995 204.39852619 169.48103714 C202.04191307 177.80251703 199.58954132 185.84227968 195.7693758 193.63142776 C195.34446857 194.5067012 194.91956135 195.38197464 194.48177814 196.28377151 C178.61718797 227.93256668 150.37552388 252.04729238 117.0115633 263.69783401 C105.17858561 267.53715519 92.88836347 269.31266467 80.55453205 270.66756058 C79.36162556 270.79895432 79.36162556 270.79895432 78.14461994 270.93300247 C77.54641438 270.99848282 76.94820881 271.06396317 76.3318758 271.13142776 C81.878418 276.70345152 87.42897698 282.27145088 92.98226643 287.83675003 C94.86888711 289.72781267 96.75402062 291.62032395 98.63851643 293.51350784 C101.35681865 296.24402231 104.07840903 298.97122284 106.8006258 301.69783401 C107.63428669 302.53665619 108.46794758 303.37547836 109.32687092 304.23971939 C113.53417966 308.44742525 117.81729069 312.47010407 122.32687092 316.35004044 C126.16970427 319.76428381 129.74870896 323.44763456 133.3631258 327.10017776 C134.61615498 328.35888687 134.61615498 328.35888687 135.89449787 329.64302444 C139.4352371 333.19997297 142.96994904 336.76288896 146.50521564 340.32527542 C149.1015964 342.93982941 151.70104146 345.55130961 154.3006258 348.16267776 C155.08731647 348.95766678 155.87400715 349.75265579 156.68453693 350.57173538 C160.79160353 354.69678561 164.98328969 358.63284015 169.3943758 362.4299202 C172.70813081 365.34005141 175.83696659 368.43408497 178.9725008 371.53377151 C179.66196796 372.21516693 180.35143513 372.89656235 181.06179523 373.59860611 C182.50515893 375.02825144 183.94705908 376.45937577 185.38753986 377.89192581 C186.85315132 379.34595978 188.32323358 380.79550086 189.79769611 382.24055862 C191.94924051 384.3493302 194.08712839 386.47113968 196.2225008 388.59627151 C196.87672016 389.23298279 197.53093952 389.86969406 198.20498371 390.52569962 C204.94078777 397.29356999 208.43114271 404.20969335 208.5818758 413.81892776 C208.42300732 423.90096599 205.73824577 429.63343629 198.74203205 436.95955276 C192.10896577 442.93683777 184.83547272 444.55304225 176.0740633 444.39705276 C160.63854309 442.90187417 150.94365939 429.88473371 140.7068758 419.50642776 C138.73861365 417.51115025 136.7667526 415.51952483 134.7928133 413.52986526 C133.50576496 412.22541458 133.50576496 412.22541458 132.19271564 410.89461136 C130.0181285 408.79425487 127.82910297 406.81067024 125.54134846 404.84090042 C120.98893946 400.89220271 116.75591843 396.66393731 112.5193758 392.38142776 C111.70621906 391.56448441 110.89306232 390.74754105 110.05526447 389.90584183 C106.6101024 386.44447734 103.1709729 382.97714186 99.73128986 379.51033401 C97.20441072 376.96527589 94.67446265 374.42329645 92.1443758 371.88142776 C91.37955891 371.10831253 90.61474201 370.3351973 89.82674885 369.53865433 C86.42449758 366.12109946 83.00100145 362.79185472 79.34554768 359.64509964 C74.77132561 355.70543546 70.54506965 351.45189377 66.3006258 347.16267776 C65.46527302 346.32353836 64.62992023 345.48439896 63.76925373 344.61983109 C60.22851451 341.06288256 56.69380256 337.49996657 53.15853596 333.93758011 C50.5621552 331.32302612 47.96271014 328.71154592 45.3631258 326.10017776 C44.57643513 325.30518875 43.78974445 324.51019974 42.97921467 323.69112015 C38.8961986 319.59022576 34.72574814 315.69026246 30.34103107 311.91572952 C26.57295402 308.56935475 23.06227647 304.96276926 19.5193758 301.38142776 C18.70621906 300.56448441 17.89306232 299.74754105 17.05526447 298.90584183 C13.6101024 295.44447734 10.1709729 291.97714186 6.73128986 288.51033401 C4.20441072 285.96527589 1.67446265 283.42329645 -0.8556242 280.88142776 C-1.62044109 280.10831253 -2.38525799 279.3351973 -3.17325115 278.53865433 C-7.31983988 274.37341391 -11.55253438 270.38341628 -16.01584148 266.55838394 C-23.18527456 260.36666704 -27.90792612 253.50298487 -29.04703045 243.95564651 C-29.38958591 234.55194655 -27.39232738 227.23068404 -21.5431242 219.81892776 C-15.46756839 213.35055585 -7.66445676 210.30597293 1.09037495 210.00012589 C2.57360624 209.99172141 4.05687301 209.98855161 5.54012775 209.98958206 C6.76088253 209.98437042 6.76088253 209.98437042 8.00629902 209.9790535 C9.77030287 209.97171654 11.53431582 209.96636021 13.29833126 209.96276283 C16.1050126 209.95555703 18.91152316 209.93985577 21.71815205 209.92142105 C29.69752237 209.86917481 37.67680136 209.82109553 45.65633869 209.80550003 C50.54471865 209.79532236 55.43267045 209.76574763 60.32087994 209.72418022 C62.16927736 209.71199659 64.01773563 209.70672542 65.86617184 209.70897865 C80.35785894 209.72228563 94.44311337 208.48425886 107.5193758 201.56892776 C108.17099689 201.23159622 108.82261799 200.89426468 109.49398518 200.54671097 C122.55725364 193.46653394 131.77646703 183.40812249 138.94320393 170.45027542 C139.39119343 169.64111679 139.83918293 168.83195816 140.30074787 167.99827957 C140.8111562 167.07418793 140.8111562 167.07418793 141.3318758 166.13142776 C140.58772702 166.12903941 139.84357824 166.12665106 139.0768795 166.12419033 C120.94785194 166.06498581 102.81895988 165.98940088 84.69007683 165.89571285 C75.92298366 165.85079815 67.15593071 165.81137355 58.38876057 165.78499222 C50.74492522 165.76197706 43.10121765 165.72853985 35.45748371 165.6827262 C31.41232038 165.65884131 27.36728322 165.64008159 23.32205105 165.63381386 C19.50937181 165.62774148 15.6970152 165.6076646 11.88445568 165.57715225 C10.4901717 165.56840636 9.0958455 165.56464225 7.70153522 165.5664196 C-4.6271628 165.57716685 -12.44066838 164.16907205 -21.4962492 155.54939651 C-27.85194396 148.4735421 -29.03658385 140.94570582 -28.9415617 131.70955276 C-28.29401153 123.23589631 -23.91047126 116.73854577 -17.6681242 111.13142776 C-11.11627773 106.60244984 -5.51117648 105.02138566 2.43790913 104.97320938 C3.66483479 104.96342056 4.89176044 104.95363174 6.15586567 104.9435463 C7.50725993 104.93764295 8.85865461 104.93183245 10.21004963 104.9261055 C11.63934324 104.91652078 13.06863406 104.90651035 14.49792194 104.89610672 C18.37145132 104.86911594 22.24499281 104.84807491 26.11856389 104.82810473 C30.16915696 104.80620916 34.21971294 104.77883797 38.27027607 104.75204849 C45.93764617 104.70216985 53.6050369 104.65721314 61.27244729 104.61402613 C70.00277226 104.56461245 78.73306002 104.50970966 87.46334898 104.45434654 C105.41949002 104.34060063 123.37566619 104.23374554 141.3318758 104.13142776 C140.25319423 102.22440194 139.16709691 100.32156971 138.07796955 98.42049026 C137.4739632 97.36039749 136.86995686 96.30030472 136.24764729 95.20808792 C134.0303833 91.64724164 131.51299645 88.67176004 128.61703205 85.65486526 C127.3318758 84.13142776 127.3318758 84.13142776 127.3318758 82.13142776 C126.73632893 81.85814651 126.14078205 81.58486526 125.5271883 81.30330276 C123.40540383 80.1706776 121.95440744 79.01479905 120.2068758 77.38142776 C104.52808565 63.75778558 85.59694648 60.84760234 65.62281322 60.82646751 C62.80918897 60.82276824 59.99590611 60.80594725 57.18235493 60.78570938 C49.18986083 60.73062352 41.19731897 60.69961215 33.20467854 60.67512894 C28.29767323 60.65919975 23.39091511 60.62893391 18.48403835 60.59036446 C16.62426671 60.57877167 14.76445083 60.57278461 12.90464306 60.57268333 C10.29931573 60.57248991 7.69466552 60.55412651 5.08944416 60.53206253 C3.95530079 60.5389283 3.95530079 60.5389283 2.79824543 60.54593277 C-6.08559977 60.42714506 -14.02757458 57.61230256 -20.48453045 51.37752151 C-27.73788653 43.63959885 -29.28278232 37.11047593 -29.0118742 26.53377151 C-28.1652931 18.15454266 -23.8756794 11.69640401 -17.6681242 6.13142776 C-11.98016627 2.25938883 -6.91694799 0.01063441 0 0 Z " fill="#000000" transform="translate(125.66812419891357,33.86857223510742)"/>
</svg>
