<?xml version="1.0" encoding="UTF-8"?>
<svg version="1.1" xmlns="http://www.w3.org/2000/svg" width="512" height="512">
<path d="M0 0 C2.49974076 0.91943616 5.00012441 1.83684192 7.50170898 2.7512207 C12.58128491 4.61109848 17.65547178 6.48494487 22.72607422 8.36914062 C32.19812133 11.88435961 41.70444362 15.30275291 51.21133423 18.72229004 C55.00397538 20.0893572 58.79298252 21.46634043 62.58207703 22.84320068 C70.61822776 25.76301925 78.66184338 28.65970349 86.72010803 31.51799011 C91.04504959 33.05282121 95.3671908 34.59545397 99.68917847 36.13858032 C101.74226664 36.86916235 103.7966984 37.59598155 105.85256958 38.31869507 C132.96506103 47.85275491 132.96506103 47.85275491 137.5625 55.8125 C138.01753906 56.57046875 138.47257812 57.3284375 138.94140625 58.109375 C142.39456258 64.48051214 142.14998681 71.61762673 140.35546875 78.55371094 C133.89327518 99.14238215 120.62261189 141.21434399 101 153.0625 C99.85402344 153.0109375 98.70804687 152.959375 97.52734375 152.90625 C94.13892342 152.7078046 94.13892342 152.7078046 92.50439453 154.265625 C91.07434415 155.9713294 89.80724217 157.71744305 88.5625 159.5625 C88.11712891 160.18253906 87.67175781 160.80257812 87.21289062 161.44140625 C86.12132977 162.96724401 85.05779082 164.51305993 84 166.0625 C85.01578125 166.14886719 86.0315625 166.23523438 87.078125 166.32421875 C100.0337199 167.58201282 110.4740148 171.16296025 121 179.0625 C121.82628906 179.67867187 122.65257812 180.29484375 123.50390625 180.9296875 C130.84963665 187.20632098 135.66133341 196.10762683 139 205.0625 C139.51578613 206.43547241 139.51578613 206.43547241 140.04199219 207.83618164 C141.7259114 213.8530541 141.32920171 220.18980906 141.3359375 226.38671875 C141.34237273 227.7796085 141.34910163 229.17249692 141.35610962 230.56538391 C141.36803521 233.47273903 141.37179485 236.37997569 141.37060547 239.28735352 C141.37040143 243.00992086 141.39781112 246.73173208 141.43214989 250.45411968 C141.45438628 253.32548005 141.45844419 256.1966566 141.45738602 259.06809425 C141.45974276 260.44082074 141.46857059 261.81355224 141.48405075 263.18619347 C141.50366012 265.10278852 141.49536316 267.01960759 141.48583984 268.9362793 C141.48868988 270.02547165 141.49153992 271.114664 141.49447632 272.23686218 C140.87696899 275.76554898 139.87316331 276.96926189 137 279.0625 C135.68 279.0625 134.36 279.0625 133 279.0625 C133 284.3425 133 289.6225 133 295.0625 C134.98 295.3925 136.96 295.7225 139 296.0625 C142.10707593 300.72311389 141.36858465 305.51808512 141.375 311 C141.39949219 312.09763672 141.42398437 313.19527344 141.44921875 314.32617188 C141.45308594 315.38255859 141.45695312 316.43894531 141.4609375 317.52734375 C141.46915527 318.492771 141.47737305 319.45819824 141.48583984 320.45288086 C140.85636289 323.83402617 139.73402509 325.02655584 137 327.0625 C135.68 327.0625 134.36 327.0625 133 327.0625 C133 332.3425 133 337.6225 133 343.0625 C134.98 343.3925 136.96 343.7225 139 344.0625 C141.40489419 347.66984129 141.29585511 350.29659684 141.29052734 354.46459961 C141.29724457 355.21629425 141.30396179 355.96798889 141.31088257 356.74246216 C141.32991069 359.23332304 141.33379057 361.72391464 141.3359375 364.21484375 C141.34236715 365.95300913 141.34909564 367.69117343 141.35610962 369.42933655 C141.36809798 373.08027651 141.37178935 376.73112181 141.37060547 380.38208008 C141.37040335 385.03210721 141.39758697 389.6815158 141.43214989 394.33139706 C141.45454224 397.92709564 141.45843909 401.52264898 141.45738602 405.11841011 C141.45972802 406.83061394 141.46847153 408.54282264 141.48405075 410.2549572 C141.61859515 426.58394307 138.27935491 441.92661849 126.8125 454.37890625 C119.80887481 460.88442879 111.94647372 465.726965 103 469.0625 C102.08526004 469.40777048 101.17052008 469.75304096 100.22806072 470.10877419 C94.19746731 471.79116263 87.8554211 471.3448265 81.64790344 471.32992554 C80.17373347 471.33366434 78.69956549 471.33826677 77.22540063 471.34365618 C73.18259719 471.35587342 69.13987658 471.35562722 65.09705889 471.35326743 C60.73357219 471.35285894 56.37011193 471.36390158 52.00663757 471.37338257 C43.46036638 471.38998698 34.91412278 471.39549188 26.36783681 471.39660732 C19.41920826 471.39755814 12.4705888 471.40167014 5.52196312 471.40800858 C-14.18673167 471.42562013 -33.89540469 471.43484768 -53.6041074 471.43334763 C-54.66634131 471.43326772 -55.72857523 471.4331878 -56.82299805 471.43310547 C-57.8865319 471.43302371 -58.95006575 471.43294195 -60.0458279 471.43285771 C-77.27707321 471.43204502 -94.50823106 471.45117849 -111.73945107 471.4793822 C-129.4402511 471.50812542 -147.1410085 471.52192168 -164.84183246 471.52019465 C-174.7762778 471.5195312 -184.71063148 471.52500348 -194.64505577 471.54655075 C-203.10453157 471.56478155 -211.56387415 471.56909435 -220.02336111 471.5555319 C-224.33678222 471.5490116 -228.64994792 471.54885098 -232.96334457 471.5662384 C-236.9182029 471.58201607 -240.8726043 471.57905806 -244.8274518 471.56167014 C-246.25207859 471.5586105 -247.67673988 471.56219331 -249.10132595 471.57339029 C-264.20853343 471.68419034 -278.96716115 467.32610341 -290.31640625 456.875 C-300.4674305 445.94675116 -307.17619052 432.74415752 -307.4140625 417.72265625 C-307.43342865 416.95569931 -307.4527948 416.18874237 -307.4727478 415.39854431 C-307.53202558 412.97413894 -307.57871911 410.54968472 -307.625 408.125 C-307.66322762 406.47068362 -307.70228206 404.81638613 -307.7421875 403.16210938 C-307.83768363 399.12906156 -307.92190307 395.09592073 -308 391.0625 C-308.73895508 390.81072998 -309.47791016 390.55895996 -310.23925781 390.29956055 C-311.21733398 389.95707275 -312.19541016 389.61458496 -313.203125 389.26171875 C-314.16895508 388.92744873 -315.13478516 388.59317871 -316.12988281 388.2487793 C-324.96743309 384.59603544 -331.76103809 377.20789266 -336.16760254 368.84716797 C-339.88009816 359.85801731 -339.58221876 350.99417117 -339.53125 341.4375 C-339.53395077 339.64111115 -339.53783802 337.84472374 -339.54284668 336.04833984 C-339.54871427 332.29966187 -339.54026786 328.55136744 -339.52148438 324.80273438 C-339.49869639 320.02498839 -339.51183428 315.24814155 -339.53577423 310.47042847 C-339.55030676 306.76580164 -339.54559227 303.06138401 -339.53526306 299.35675049 C-339.53261632 297.59629202 -339.53579231 295.83581384 -339.54518127 294.07537842 C-339.60393554 279.96657705 -338.18116976 268.72752733 -328 258.0625 C-323.48490577 253.75224936 -319.11674288 250.90996131 -313.203125 248.86328125 C-312.22504883 248.52079346 -311.24697266 248.17830566 -310.23925781 247.82543945 C-309.50030273 247.57366943 -308.76134766 247.32189941 -308 247.0625 C-307.9906543 246.06508789 -307.98130859 245.06767578 -307.97167969 244.04003906 C-307.93132047 240.28228701 -307.86544405 236.52531489 -307.79248047 232.76806641 C-307.76453361 231.15260968 -307.74319062 229.53702288 -307.72900391 227.92138672 C-307.57732425 211.61076797 -304.26913207 196.18728014 -292.8125 183.74609375 C-283.73112343 175.31059095 -270.85350297 166.81053573 -258.01953125 167.17578125 C-257.33552246 167.21477539 -256.65151367 167.25376953 -255.94677734 167.29394531 C-251.21979255 167.47346475 -246.97809231 167.49981888 -243.03173828 164.63232422 C-239.04984931 160.7539707 -235.22327101 156.19834078 -233 151.0625 C-233.09552123 148.49111408 -233.09552123 148.49111408 -234 146.0625 C-234.72436022 139.51243418 -232.76094367 136.32091649 -229.125 131.1875 C-228.11376302 129.70154344 -227.10604648 128.21318604 -226.1015625 126.72265625 C-225.58625977 125.96098145 -225.07095703 125.19930664 -224.54003906 124.41455078 C-221.56922588 119.87732596 -218.91649619 115.14787191 -216.26220703 110.42041016 C-214.39472769 107.15758896 -213.17769534 105.18096356 -210 103.0625 C-207.95703125 102.8671875 -207.95703125 102.8671875 -205.8125 102.9375 C-204.554375 102.97875 -203.29625 103.02 -202 103.0625 C-201.62875 101.825 -201.62875 101.825 -201.25 100.5625 C-200.0239742 97.12962775 -198.5019022 94.15065298 -196.70703125 90.9921875 C-195.81614611 88.56071093 -196.09002464 87.46021286 -197 85.0625 C-197.66 84.0725 -198.32 83.0825 -199 82.0625 C-199.79788051 76.26690641 -197.53658305 71.59380889 -195.3125 66.375 C-194.80299805 65.09399414 -194.80299805 65.09399414 -194.28320312 63.78710938 C-192.70151305 60.02357393 -191.63840839 57.57207296 -188.40625 54.9921875 C-185.7634957 53.97112334 -183.80948844 53.8216867 -181 54.0625 C-180.87882813 53.49402344 -180.75765625 52.92554688 -180.6328125 52.33984375 C-179.58677946 47.52004536 -178.40795516 42.7892066 -177 38.0625 C-177.99 37.7325 -178.98 37.4025 -180 37.0625 C-182.85153972 32.72278298 -182.71525715 28.06177104 -182 23.0625 C-179.23018896 15.74504572 -173.23582834 11.28630988 -166.5 7.75 C-158.65173583 5.59172735 -152.4204064 6.40158801 -144.5625 8.046875 C-143.44069336 8.2724408 -142.31888672 8.49800659 -141.16308594 8.73040771 C-127.11359459 11.58882022 -113.11750842 14.70574999 -99.12689209 17.83740234 C-96.23853614 18.48259311 -93.34911148 19.12292717 -90.45968628 19.76330948 C-87.6609467 20.38411255 -84.86279098 21.00751307 -82.06481934 21.63176727 C-80.0985098 22.07009768 -78.13177805 22.50653266 -76.16503906 22.94293213 C-74.39918457 23.33904694 -74.39918457 23.33904694 -72.59765625 23.74316406 C-71.56133057 23.97457092 -70.52500488 24.20597778 -69.45727539 24.44439697 C-67 25.0625 -67 25.0625 -65 26.0625 C-64.88785156 25.53785156 -64.77570313 25.01320312 -64.66015625 24.47265625 C-63.10449395 18.36185204 -60.62086309 12.89557164 -57.75 7.3125 C-57.21258179 6.23174194 -57.21258179 6.23174194 -56.66430664 5.12915039 C-44.1260787 -18.58582432 -19.51533151 -7.33703917 0 0 Z " fill="#F39E68" transform="translate(355,24.9375)"/>
<path d="M0 0 C2.49974076 0.91943616 5.00012441 1.83684192 7.50170898 2.7512207 C12.58128491 4.61109848 17.65547178 6.48494487 22.72607422 8.36914062 C32.19812133 11.88435961 41.70444362 15.30275291 51.21133423 18.72229004 C55.00397538 20.0893572 58.79298252 21.46634043 62.58207703 22.84320068 C70.61822776 25.76301925 78.66184338 28.65970349 86.72010803 31.51799011 C91.04504959 33.05282121 95.3671908 34.59545397 99.68917847 36.13858032 C101.74226664 36.86916235 103.7966984 37.59598155 105.85256958 38.31869507 C132.96506103 47.85275491 132.96506103 47.85275491 137.5625 55.8125 C138.01753906 56.57046875 138.47257812 57.3284375 138.94140625 58.109375 C142.39456258 64.48051214 142.14998681 71.61762673 140.35546875 78.55371094 C133.89327518 99.14238215 120.62261189 141.21434399 101 153.0625 C99.85402344 153.0109375 98.70804687 152.959375 97.52734375 152.90625 C94.13892342 152.7078046 94.13892342 152.7078046 92.50439453 154.265625 C91.07434415 155.9713294 89.80724217 157.71744305 88.5625 159.5625 C88.11712891 160.18253906 87.67175781 160.80257812 87.21289062 161.44140625 C86.12132977 162.96724401 85.05779082 164.51305993 84 166.0625 C85.01578125 166.14886719 86.0315625 166.23523438 87.078125 166.32421875 C100.0337199 167.58201282 110.4740148 171.16296025 121 179.0625 C121.82628906 179.67867187 122.65257812 180.29484375 123.50390625 180.9296875 C130.84963665 187.20632098 135.66133341 196.10762683 139 205.0625 C139.51578613 206.43547241 139.51578613 206.43547241 140.04199219 207.83618164 C141.7259114 213.8530541 141.32920171 220.18980906 141.3359375 226.38671875 C141.34237273 227.7796085 141.34910163 229.17249692 141.35610962 230.56538391 C141.36803521 233.47273903 141.37179485 236.37997569 141.37060547 239.28735352 C141.37040143 243.00992086 141.39781112 246.73173208 141.43214989 250.45411968 C141.45438628 253.32548005 141.45844419 256.1966566 141.45738602 259.06809425 C141.45974276 260.44082074 141.46857059 261.81355224 141.48405075 263.18619347 C141.50366012 265.10278852 141.49536316 267.01960759 141.48583984 268.9362793 C141.48868988 270.02547165 141.49153992 271.114664 141.49447632 272.23686218 C140.87853467 275.75660207 139.82922588 276.93648721 137 279.0625 C133.24650538 279.53168683 130.96151547 279.59386381 127.625 277.75 C124.78217334 274.79783385 124.86989934 271.85129831 124.84228516 267.95532227 C124.82689194 266.3920797 124.82689194 266.3920797 124.81118774 264.79725647 C124.80388641 263.6692009 124.79658508 262.54114532 124.7890625 261.37890625 C124.76097163 258.98241531 124.73230704 256.58593103 124.703125 254.18945312 C124.66204027 250.41772813 124.6251485 246.64612463 124.59863281 242.87426758 C124.57079901 239.22971875 124.52490417 235.58573345 124.4765625 231.94140625 C124.4716832 230.27665001 124.4716832 230.27665001 124.46670532 228.57826233 C124.27329179 216.07980943 121.82861249 204.42835323 113.11328125 195.02734375 C102.60018495 185.29911515 91.78520026 183.76142703 77.91365051 183.78834534 C76.4683537 183.78388983 75.02305932 183.77857475 73.5777685 183.77247661 C69.61477998 183.75832373 65.65186999 183.75663281 61.68885982 183.75707352 C57.41125999 183.75542292 53.13369229 183.74235188 48.85610962 183.73088074 C39.50684347 183.70805064 30.15760004 183.70011231 20.80830979 183.69505429 C14.96794882 183.69179505 9.12759442 183.6852712 3.28723717 183.6780529 C-12.89094804 183.65848979 -29.06912715 183.64208382 -45.24732494 183.63917637 C-46.2821919 183.6389888 -47.31705886 183.63880123 -48.38328542 183.63860798 C-50.48110537 183.63824173 -52.57892531 183.63787803 -54.67674526 183.63751686 C-55.7180702 183.63733405 -56.75939515 183.63715124 -57.83227539 183.63696289 C-58.87487494 183.63678234 -59.91747449 183.63660179 -60.99166796 183.63641577 C-77.88344029 183.63287453 -94.77508511 183.60585397 -111.66681322 183.568465 C-129.01957002 183.53036369 -146.37226358 183.51101876 -163.72506315 183.51071686 C-173.46391496 183.51013271 -183.20261463 183.5016681 -192.94142723 183.47271919 C-201.23440272 183.44818097 -209.52717057 183.44093892 -217.82017257 183.45596672 C-222.0485912 183.46312556 -226.27660003 183.46232274 -230.50497246 183.43955612 C-234.38220035 183.41888081 -238.25870561 183.4216452 -242.1359264 183.44243097 C-243.53229299 183.44590962 -244.92871263 183.44108517 -246.32500973 183.42672653 C-258.78066981 183.30698063 -269.77636163 186.33631628 -279 195.0625 C-289.04292692 205.67794532 -290.76087905 217.89048707 -290.8125 231.8125 C-290.83570418 233.29951489 -290.86108153 234.78649752 -290.88867188 236.2734375 C-290.95076668 239.86976791 -290.98369711 243.46563559 -291 247.0625 C-289.83870071 247.05139694 -288.67740143 247.04029388 -287.48091125 247.02885437 C-276.49208799 246.92712832 -265.50336131 246.8523673 -254.51417255 246.80343914 C-248.86561136 246.77743822 -243.21743283 246.74221478 -237.5690918 246.68530273 C-232.10958832 246.63064287 -226.65045098 246.60100812 -221.19069481 246.58811378 C-219.11643912 246.5789346 -217.04220157 246.56101095 -214.96810341 246.53384972 C-199.83521214 246.34370948 -186.66919942 247.16768681 -175 258.0625 C-164.37812134 268.56058054 -162.76353261 280.58685633 -162.67080688 294.99201965 C-162.66774841 296.51160544 -162.66552109 298.03119309 -162.6640625 299.55078125 C-162.65761891 301.14202488 -162.65088945 302.73326738 -162.64389038 304.32450867 C-162.63197586 307.64694969 -162.62820356 310.9692872 -162.62939453 314.29174805 C-162.62959749 318.51439657 -162.60229279 322.73637044 -162.56785011 326.95885944 C-162.54543316 330.2423345 -162.54156146 333.52565088 -162.54261398 336.80919456 C-162.54028031 338.3642732 -162.5315855 339.91935774 -162.51594925 341.47435951 C-162.39414883 354.83601519 -164.01118025 367.53097663 -173 378.0625 C-183.19812647 388.3207333 -193.66032937 391.26490039 -207.89941406 391.40307617 C-211.77183949 391.41403364 -215.64334243 391.38648834 -219.515625 391.35546875 C-221.58355398 391.34986364 -223.65148698 391.34559787 -225.71942139 391.34260559 C-231.1248095 391.33122887 -236.52995033 391.30182443 -241.9352417 391.26849365 C-247.46590837 391.23763704 -252.99661555 391.22406713 -258.52734375 391.20898438 C-269.3516703 391.17694704 -280.17581447 391.12583881 -291 391.0625 C-290.95510934 394.95521659 -290.88454573 398.84663256 -290.79248047 402.73852539 C-290.7511426 404.69589705 -290.72881633 406.65364122 -290.70703125 408.61132812 C-290.37023094 421.84758027 -287.69032975 433.99217749 -278.33984375 443.8046875 C-267.48861468 453.74134829 -254.89467282 454.36406718 -240.77394104 454.32319641 C-239.35009195 454.32622163 -237.92624449 454.33011296 -236.50239986 454.33478898 C-232.61265882 454.34502989 -228.72301035 454.34289719 -224.83326185 454.33860838 C-220.62936062 454.33613407 -216.42548127 454.34516401 -212.22158813 454.35264587 C-203.99490079 454.36537485 -195.76824612 454.36718885 -187.54155058 454.36484561 C-180.85328302 454.36306045 -174.16502534 454.36481634 -167.47675896 454.36907005 C-166.52379018 454.36966524 -165.5708214 454.37026043 -164.58897479 454.37087366 C-162.65284817 454.37208544 -160.71672155 454.37329958 -158.78059494 454.37451603 C-140.63681726 454.38538442 -122.49305818 454.38323227 -104.34927946 454.37713119 C-87.76098283 454.37196141 -71.17274492 454.38322033 -54.58445991 454.40222941 C-37.53784759 454.42161348 -20.49126304 454.42986288 -3.44463962 454.42610615 C6.12026945 454.42419514 15.68512854 454.42667211 25.25002861 454.44082069 C33.39177721 454.45274263 41.53344506 454.45413017 49.67519479 454.44203053 C53.82645077 454.43614786 57.97755908 454.43502547 62.12880516 454.44703293 C65.93416247 454.45791175 69.73924918 454.45476483 73.54459394 454.44077124 C75.56206876 454.43688531 77.57955569 454.44765496 79.59700197 454.45906812 C92.31812275 454.3837705 103.24120651 451.82308614 113.00390625 443.31640625 C120.97656381 435.03379656 124.12181565 424.21811959 124.12597656 412.96484375 C124.1278447 412.269888 124.12971283 411.57493225 124.13163757 410.85891724 C124.13562655 409.3568051 124.13771502 407.85468696 124.13809967 406.35256958 C124.14153134 403.15566622 124.1629084 399.95896334 124.18333054 396.76213074 C124.22128534 390.81697796 124.25261109 384.87204583 124.25048828 378.92675781 C124.24970113 374.78395854 124.27305836 370.6419031 124.3123703 366.4992981 C124.32282515 364.92370956 124.32435805 363.34803513 124.31671906 361.77243042 C124.30709136 359.56751953 124.32828224 357.36486349 124.35644531 355.16015625 C124.36009094 353.90726807 124.36373657 352.65437988 124.36749268 351.36352539 C125.17355576 347.15672082 126.66021611 345.66660281 130 343.0625 C133.88268437 342.44944457 135.9470269 342.30723813 139.18249512 344.62792969 C141.61471165 347.88591387 141.56245906 350.66770628 141.51757812 354.578125 C141.52809204 355.705886 141.52809204 355.705886 141.53881836 356.85643005 C141.55641972 359.34216292 141.54475932 361.82675546 141.53125 364.3125 C141.53394657 366.04923723 141.53783037 367.78597299 141.54284668 369.52270508 C141.54874649 373.16778904 141.54017181 376.81248114 141.52148438 380.45751953 C141.49883003 385.09973848 141.51172805 389.7410254 141.53577423 394.38320923 C141.55033578 397.97465837 141.5455769 401.56589246 141.53526306 405.15734863 C141.53261716 406.86674106 141.53578925 408.57615379 141.54518127 410.28552246 C141.61502713 426.58784589 138.25791798 441.94989766 126.8125 454.37890625 C119.80887481 460.88442879 111.94647372 465.726965 103 469.0625 C102.08526004 469.40777048 101.17052008 469.75304096 100.22806072 470.10877419 C94.19746731 471.79116263 87.8554211 471.3448265 81.64790344 471.32992554 C80.17373347 471.33366434 78.69956549 471.33826677 77.22540063 471.34365618 C73.18259719 471.35587342 69.13987658 471.35562722 65.09705889 471.35326743 C60.73357219 471.35285894 56.37011193 471.36390158 52.00663757 471.37338257 C43.46036638 471.38998698 34.91412278 471.39549188 26.36783681 471.39660732 C19.41920826 471.39755814 12.4705888 471.40167014 5.52196312 471.40800858 C-14.18673167 471.42562013 -33.89540469 471.43484768 -53.6041074 471.43334763 C-54.66634131 471.43326772 -55.72857523 471.4331878 -56.82299805 471.43310547 C-57.8865319 471.43302371 -58.95006575 471.43294195 -60.0458279 471.43285771 C-77.27707321 471.43204502 -94.50823106 471.45117849 -111.73945107 471.4793822 C-129.4402511 471.50812542 -147.1410085 471.52192168 -164.84183246 471.52019465 C-174.7762778 471.5195312 -184.71063148 471.52500348 -194.64505577 471.54655075 C-203.10453157 471.56478155 -211.56387415 471.56909435 -220.02336111 471.5555319 C-224.33678222 471.5490116 -228.64994792 471.54885098 -232.96334457 471.5662384 C-236.9182029 471.58201607 -240.8726043 471.57905806 -244.8274518 471.56167014 C-246.25207859 471.5586105 -247.67673988 471.56219331 -249.10132595 471.57339029 C-264.20853343 471.68419034 -278.96716115 467.32610341 -290.31640625 456.875 C-300.4674305 445.94675116 -307.17619052 432.74415752 -307.4140625 417.72265625 C-307.43342865 416.95569931 -307.4527948 416.18874237 -307.4727478 415.39854431 C-307.53202558 412.97413894 -307.57871911 410.54968472 -307.625 408.125 C-307.66322762 406.47068362 -307.70228206 404.81638613 -307.7421875 403.16210938 C-307.83768363 399.12906156 -307.92190307 395.09592073 -308 391.0625 C-308.73895508 390.81072998 -309.47791016 390.55895996 -310.23925781 390.29956055 C-311.21733398 389.95707275 -312.19541016 389.61458496 -313.203125 389.26171875 C-314.16895508 388.92744873 -315.13478516 388.59317871 -316.12988281 388.2487793 C-324.96743309 384.59603544 -331.76103809 377.20789266 -336.16760254 368.84716797 C-339.88009816 359.85801731 -339.58221876 350.99417117 -339.53125 341.4375 C-339.53395077 339.64111115 -339.53783802 337.84472374 -339.54284668 336.04833984 C-339.54871427 332.29966187 -339.54026786 328.55136744 -339.52148438 324.80273438 C-339.49869639 320.02498839 -339.51183428 315.24814155 -339.53577423 310.47042847 C-339.55030676 306.76580164 -339.54559227 303.06138401 -339.53526306 299.35675049 C-339.53261632 297.59629202 -339.53579231 295.83581384 -339.54518127 294.07537842 C-339.60393554 279.96657705 -338.18116976 268.72752733 -328 258.0625 C-323.48490577 253.75224936 -319.11674288 250.90996131 -313.203125 248.86328125 C-312.22504883 248.52079346 -311.24697266 248.17830566 -310.23925781 247.82543945 C-309.50030273 247.57366943 -308.76134766 247.32189941 -308 247.0625 C-307.9906543 246.06508789 -307.98130859 245.06767578 -307.97167969 244.04003906 C-307.93132047 240.28228701 -307.86544405 236.52531489 -307.79248047 232.76806641 C-307.76453361 231.15260968 -307.74319062 229.53702288 -307.72900391 227.92138672 C-307.57732425 211.61076797 -304.26913207 196.18728014 -292.8125 183.74609375 C-283.73112343 175.31059095 -270.85350297 166.81053573 -258.01953125 167.17578125 C-257.33552246 167.21477539 -256.65151367 167.25376953 -255.94677734 167.29394531 C-251.21979255 167.47346475 -246.97809231 167.49981888 -243.03173828 164.63232422 C-239.04984931 160.7539707 -235.22327101 156.19834078 -233 151.0625 C-233.09552123 148.49111408 -233.09552123 148.49111408 -234 146.0625 C-234.72436022 139.51243418 -232.76094367 136.32091649 -229.125 131.1875 C-228.11376302 129.70154344 -227.10604648 128.21318604 -226.1015625 126.72265625 C-225.58625977 125.96098145 -225.07095703 125.19930664 -224.54003906 124.41455078 C-221.56922588 119.87732596 -218.91649619 115.14787191 -216.26220703 110.42041016 C-214.39472769 107.15758896 -213.17769534 105.18096356 -210 103.0625 C-207.95703125 102.8671875 -207.95703125 102.8671875 -205.8125 102.9375 C-204.554375 102.97875 -203.29625 103.02 -202 103.0625 C-201.62875 101.825 -201.62875 101.825 -201.25 100.5625 C-200.0239742 97.12962775 -198.5019022 94.15065298 -196.70703125 90.9921875 C-195.81614611 88.56071093 -196.09002464 87.46021286 -197 85.0625 C-197.66 84.0725 -198.32 83.0825 -199 82.0625 C-199.79788051 76.26690641 -197.53658305 71.59380889 -195.3125 66.375 C-194.80299805 65.09399414 -194.80299805 65.09399414 -194.28320312 63.78710938 C-192.70151305 60.02357393 -191.63840839 57.57207296 -188.40625 54.9921875 C-185.7634957 53.97112334 -183.80948844 53.8216867 -181 54.0625 C-180.87882813 53.49402344 -180.75765625 52.92554688 -180.6328125 52.33984375 C-179.58677946 47.52004536 -178.40795516 42.7892066 -177 38.0625 C-177.99 37.7325 -178.98 37.4025 -180 37.0625 C-182.85153972 32.72278298 -182.71525715 28.06177104 -182 23.0625 C-179.23018896 15.74504572 -173.23582834 11.28630988 -166.5 7.75 C-158.65173583 5.59172735 -152.4204064 6.40158801 -144.5625 8.046875 C-143.44069336 8.2724408 -142.31888672 8.49800659 -141.16308594 8.73040771 C-127.11359459 11.58882022 -113.11750842 14.70574999 -99.12689209 17.83740234 C-96.23853614 18.48259311 -93.34911148 19.12292717 -90.45968628 19.76330948 C-87.6609467 20.38411255 -84.86279098 21.00751307 -82.06481934 21.63176727 C-80.0985098 22.07009768 -78.13177805 22.50653266 -76.16503906 22.94293213 C-74.39918457 23.33904694 -74.39918457 23.33904694 -72.59765625 23.74316406 C-71.56133057 23.97457092 -70.52500488 24.20597778 -69.45727539 24.44439697 C-67 25.0625 -67 25.0625 -65 26.0625 C-64.88785156 25.53785156 -64.77570313 25.01320312 -64.66015625 24.47265625 C-63.10449395 18.36185204 -60.62086309 12.89557164 -57.75 7.3125 C-57.21258179 6.23174194 -57.21258179 6.23174194 -56.66430664 5.12915039 C-44.1260787 -18.58582432 -19.51533151 -7.33703917 0 0 Z " fill="#3C354F" transform="translate(355,24.9375)"/>
<path d="M0 0 C3.80697951 1.04914029 7.47403605 2.4220087 11.16796875 3.8125 C12.26026291 4.2133078 13.35255707 4.6141156 14.47795105 5.02706909 C18.05171319 6.34102888 21.6194872 7.67051658 25.1875 9 C27.6624965 9.91277887 30.13792413 10.82438953 32.61376953 11.73486328 C37.02014561 13.35599952 41.4251499 14.98075735 45.82826614 16.61072731 C56.07393297 20.40345593 66.3387518 24.14265312 76.60830688 27.87011719 C79.28926901 28.84386189 81.96935374 29.81998162 84.64916992 30.796875 C92.28122842 33.57708083 99.91927604 36.3366865 107.58203125 39.03125 C115.74420529 41.90239711 123.89205362 44.81031845 132.01635742 47.78710938 C133.56881796 48.35362129 135.12290949 48.91568036 136.6784668 49.47363281 C138.97323773 50.29738456 141.2623518 51.13537954 143.55078125 51.9765625 C144.24238846 52.22145416 144.93399567 52.46634583 145.64656067 52.71865845 C149.57996215 54.18465994 152.55642947 55.51873818 155 59 C155.60601754 63.54010719 154.54311887 66.90790374 152.875 71.11328125 C152.42012207 72.27005371 151.96524414 73.42682617 151.49658203 74.61865234 C151.00270996 75.83762207 150.50883789 77.0565918 150 78.3125 C149.48936703 79.58542774 148.97878798 80.85837712 148.46826172 82.13134766 C140.9660292 100.73474209 132.15573985 118.26639023 121 135 C121.30404066 139.18055914 122.03285779 142.33176351 124 146 C122.35504034 148.14650816 120.70907674 150.29223289 119.0625 152.4375 C118.35963867 153.35499023 118.35963867 153.35499023 117.64257812 154.29101562 C114.11328125 158.88671875 114.11328125 158.88671875 113 160 C111.5195715 160.09675527 110.03452727 160.12371762 108.55094051 160.12304783 C107.10060308 160.1260344 107.10060308 160.1260344 105.6209659 160.12908131 C104.54608606 160.12616847 103.47120623 160.12325563 102.36375427 160.12025452 C101.23175584 160.12110894 100.09975742 160.12196337 98.933456 160.12284368 C95.10853507 160.12450178 91.28365719 160.11897174 87.45874023 160.11352539 C84.72956311 160.112688 82.00038685 160.11335704 79.27120972 160.1139679 C73.37913498 160.11449333 67.48707128 160.11134451 61.59499931 160.10573006 C53.07595678 160.09761767 44.55691961 160.09500011 36.03787363 160.09374207 C22.21771025 160.09155113 8.39755276 160.08488993 -5.42260742 160.07543945 C-18.85099254 160.0662664 -32.27937606 160.05918505 -45.70776367 160.05493164 C-46.53489872 160.05466892 -47.36203378 160.05440619 -48.21423353 160.05413551 C-52.36355062 160.05283051 -56.51286772 160.05156679 -60.66218483 160.05032361 C-95.10812746 160.03994971 -129.5540631 160.02233028 -164 160 C-163.5875 159.35675781 -163.175 158.71351563 -162.75 158.05078125 C-158.08243111 150.74728617 -153.54440069 143.38465113 -149 136 C-159.23 136 -169.46 136 -180 136 C-176.535 130.555 -176.535 130.555 -173 125 C-165.46744696 112.66484407 -158.13246503 100.17057857 -151.98486328 87.08056641 C-150.90815447 84.80597234 -149.79501724 82.550789 -148.68359375 80.29296875 C-143.29943814 69.13079878 -139.01274174 57.74913121 -135.125 46 C-134.89597992 45.30802521 -134.66695984 44.61605042 -134.43099976 43.90310669 C-131.39064124 34.66460358 -128.60439529 25.37069844 -126 16 C-117.80380231 17.44614408 -109.6489062 19.05874893 -101.5 20.75 C-100.24550049 21.01022949 -98.99100098 21.27045898 -97.69848633 21.53857422 C-79.39018555 25.35734287 -61.10191071 29.28740456 -43 34 C-43.64718353 37.03129657 -44.65720368 39.53269799 -46.08203125 42.28125 C-46.51265869 43.11221191 -46.94328613 43.94317383 -47.38696289 44.79931641 C-62.65510095 73.72484187 -80.51366932 101.42165784 -100.70532227 127.17504883 C-101.25244873 127.88040771 -101.7995752 128.5857666 -102.36328125 129.3125 C-102.85868408 129.9415625 -103.35408691 130.570625 -103.86450195 131.21875 C-105.56019462 133.87877444 -105.4970234 135.94685626 -105 139 C-104.67 139.99 -104.34 140.98 -104 142 C-102.61135566 142.30556226 -101.21318736 142.56800808 -99.8125 142.8125 C-98.64654297 143.03873047 -98.64654297 143.03873047 -97.45703125 143.26953125 C-92.57295136 142.73375778 -89.96939252 138.00591263 -87.01171875 134.41796875 C-63.17260083 104.36778248 -42.94297718 70.75849258 -26.13623047 36.31201172 C-25.05735375 34.11670391 -23.95812538 31.9333747 -22.84765625 29.75390625 C-19.05353017 22.29586671 -15.49441917 14.80706692 -12.3449707 7.04980469 C-9.71522101 0.76402248 -6.65972592 -0.94364241 0 0 Z " fill="#389AA3" transform="translate(325,32)"/>
<path d="M0 0 C1.02990555 -0.00671722 2.0598111 -0.01343445 3.1209259 -0.02035522 C6.52435132 -0.03934623 9.92757959 -0.04326022 13.33105469 -0.04541016 C15.70131511 -0.05183806 18.07157474 -0.05856642 20.4418335 -0.06558228 C25.41159911 -0.07755835 30.38129519 -0.08126283 35.35107422 -0.08007812 C41.70743588 -0.0798751 48.06334964 -0.10715985 54.41960526 -0.14162254 C59.3165083 -0.16390408 64.21330384 -0.16791525 69.11025238 -0.16685867 C71.45292451 -0.1692134 73.79559966 -0.17802962 76.13822174 -0.19352341 C79.42188995 -0.21320486 82.70459625 -0.2073358 85.98828125 -0.1953125 C86.94859756 -0.20655151 87.90891388 -0.21779053 88.89833069 -0.22937012 C96.40123771 -0.15985664 102.53273375 1.54229906 108.31152344 6.47412109 C108.9315625 7.21791016 109.55160156 7.96169922 110.19042969 8.72802734 C111.14755859 9.83984375 111.14755859 9.83984375 112.12402344 10.97412109 C115.49669787 15.77027442 116.00918678 19.78266606 116.04345703 25.60009766 C116.05017426 26.31788895 116.05689148 27.03568024 116.06381226 27.77522278 C116.08275301 30.13977047 116.08671479 32.50403358 116.08886719 34.86865234 C116.09529915 36.52146519 116.10202781 38.17427691 116.10903931 39.8270874 C116.1210032 43.29035071 116.12472118 46.75351436 116.12353516 50.21679688 C116.12333232 54.63614688 116.1506017 59.0548513 116.18507957 63.47404861 C116.2074149 66.88861983 116.21137063 70.3030375 116.2103157 73.71767426 C116.21266295 75.34583505 116.2214367 76.97400064 116.23698044 78.60208893 C116.32194921 88.42347668 115.92764287 96.29763008 110.14746094 104.59521484 C109.36435547 105.37251953 109.36435547 105.37251953 108.56542969 106.16552734 C107.80166016 106.96603516 107.80166016 106.96603516 107.02246094 107.78271484 C100.31421179 112.23948622 92.96577135 112.73186855 85.12768555 112.69458008 C84.10534317 112.70144333 83.08300079 112.70830658 82.02967834 112.71537781 C78.6755658 112.73356751 75.32192436 112.72982022 71.96777344 112.72412109 C69.62325388 112.72868582 67.27873565 112.73399225 64.93421936 112.74000549 C60.03120471 112.74892061 55.12835309 112.74653061 50.2253418 112.73657227 C43.95192354 112.72507 37.67906711 112.74532211 31.40572262 112.7744894 C26.56804348 112.7928582 21.73049892 112.79255778 16.89279366 112.78685188 C14.58000461 112.78669883 12.26720635 112.79272966 9.95445061 112.80514336 C6.71887036 112.82006822 3.48432771 112.80936526 0.2487793 112.79223633 C-0.69949738 112.8019043 -1.64777405 112.81157227 -2.62478638 112.8215332 C-9.92579526 112.74085017 -15.17899885 110.96900243 -20.70800781 106.14208984 C-21.33964844 105.40732422 -21.97128906 104.67255859 -22.62207031 103.91552734 C-23.26917969 103.18591797 -23.91628906 102.45630859 -24.58300781 101.70458984 C-28.03988452 96.6896842 -28.50238349 91.83289995 -28.53759766 85.8515625 C-28.54431488 85.13201889 -28.5510321 84.41247528 -28.55795288 83.67112732 C-28.57685351 81.30721004 -28.58085291 78.94357784 -28.58300781 76.57958984 C-28.58944092 74.92581061 -28.59616966 73.2720325 -28.60317993 71.61825562 C-28.61513259 68.15677249 -28.6188628 64.69538902 -28.61767578 61.23388672 C-28.61747263 56.81334684 -28.64477979 52.39345009 -28.6792202 47.97306252 C-28.70153151 44.55853377 -28.70551204 41.14415883 -28.70445633 37.72956467 C-28.70680572 36.10057737 -28.71559177 34.47158541 -28.73112106 32.84267044 C-28.88087988 15.51288875 -28.88087988 15.51288875 -22.06347656 7.82958984 C-20.94779297 6.88212891 -20.94779297 6.88212891 -19.80957031 5.91552734 C-19.06835938 5.26841797 -18.32714844 4.62130859 -17.56347656 3.95458984 C-11.91022048 -0.10660256 -6.7320611 -0.00630077 0 0 Z " fill="#D1814C" transform="translate(60.2470703125,287.70947265625)"/>
<path d="M0 0 C2.49974076 0.91943616 5.00012441 1.83684192 7.50170898 2.7512207 C12.58128491 4.61109848 17.65547178 6.48494487 22.72607422 8.36914062 C32.19812133 11.88435961 41.70444362 15.30275291 51.21133423 18.72229004 C55.00397538 20.0893572 58.79298252 21.46634043 62.58207703 22.84320068 C70.61822776 25.76301925 78.66184338 28.65970349 86.72010803 31.51799011 C91.04504959 33.05282121 95.3671908 34.59545397 99.68917847 36.13858032 C101.74226664 36.86916235 103.7966984 37.59598155 105.85256958 38.31869507 C132.96506103 47.85275491 132.96506103 47.85275491 137.5625 55.8125 C138.01753906 56.57046875 138.47257812 57.3284375 138.94140625 58.109375 C142.39456258 64.48051214 142.14998681 71.61762673 140.35546875 78.55371094 C133.52767984 100.30717585 120.75703716 139.58310207 101 153.0625 C98 153.6875 98 153.6875 95 153.0625 C90.98104716 149.55660497 90.98104716 149.55660497 90 147.0625 C90.10853641 140.73637773 92.70727309 136.72944752 96.0625 131.625 C101.30433271 123.34404218 105.86459552 114.94300256 110 106.0625 C110.33628418 105.340625 110.67256836 104.61875 111.01904297 103.875 C114.75534102 95.78816984 118.28353143 87.62057814 121.5 79.3125 C121.75539551 78.66925781 122.01079102 78.02601562 122.27392578 77.36328125 C123.73568814 73.47620552 124.69257505 70.19486446 124 66.0625 C120.02215572 62.14303895 115.62251904 60.54284581 110.46875 58.734375 C109.62273727 58.4288269 108.77672455 58.12327881 107.90507507 57.80847168 C105.10663447 56.80048785 102.30343237 55.80650728 99.5 54.8125 C97.51183351 54.09944685 95.52396419 53.38556463 93.53637695 52.67089844 C87.36233347 50.45468436 81.18170971 48.25722235 75 46.0625 C73.13587589 45.39982132 71.27177987 44.73706361 69.40771484 44.07421875 C62.18176618 41.50551522 54.95513885 38.93874166 47.7265625 36.37744141 C31.7894042 30.72528028 15.89102195 24.96775416 0 19.1875 C-1.21837555 18.74458618 -2.4367511 18.30167236 -3.69204712 17.84533691 C-7.14927555 16.58812031 -10.60600835 15.32955315 -14.0625 14.0703125 C-15.09682663 13.69397675 -16.13115326 13.31764099 -17.19682312 12.92990112 C-18.15409805 12.58065582 -19.11137299 12.23141052 -20.09765625 11.87158203 C-20.92789307 11.56898468 -21.75812988 11.26638733 -22.61352539 10.95462036 C-24.28350684 10.330342 -25.9383582 9.66475006 -27.57983398 8.96896362 C-30.86880183 7.73709371 -33.52004633 7.74028207 -37 8.0625 C-39.81144399 10.24027998 -40.99359743 12.83471282 -42.41796875 16.04296875 C-42.86325928 17.03369385 -43.3085498 18.02441895 -43.76733398 19.04516602 C-44.23598877 20.10276123 -44.70464355 21.16035645 -45.1875 22.25 C-46.1803243 24.45140917 -47.17511864 26.65193091 -48.171875 28.8515625 C-48.65720703 29.9230957 -49.14253906 30.99462891 -49.64257812 32.09863281 C-52.24129742 37.77281487 -55.02815908 43.34297408 -57.88525391 48.890625 C-59.15748927 51.36933849 -60.41170489 53.85690551 -61.66796875 56.34375 C-76.95942997 86.37861906 -95.62265337 114.45873294 -115.9375 141.3125 C-116.49381104 142.05274414 -117.05012207 142.79298828 -117.62329102 143.55566406 C-118.14850342 144.24370117 -118.67371582 144.93173828 -119.21484375 145.640625 C-119.68011475 146.25325195 -120.14538574 146.86587891 -120.62475586 147.49707031 C-122.82213155 149.99832593 -124.59649423 151.00109695 -127.875 151.5 C-131 151.0625 -131 151.0625 -133.875 148.9375 C-136 146.0625 -136 146.0625 -136.5546875 143.46484375 C-135.69358917 138.18303638 -132.53395984 134.86414552 -129.25 130.75 C-127.85889505 128.95059501 -126.46959563 127.14979286 -125.08203125 125.34765625 C-124.38803223 124.45320801 -123.6940332 123.55875977 -122.97900391 122.63720703 C-103.70461232 97.56100006 -86.38670364 69.71108756 -73 41.0625 C-73.56879883 40.95292969 -74.13759766 40.84335938 -74.72363281 40.73046875 C-90.22809119 37.72606012 -105.64647923 34.40536871 -121.05541992 30.95092773 C-122.57469031 30.6104397 -124.09397713 30.270025 -125.61328125 29.9296875 C-126.34542343 29.76567947 -127.07756561 29.60167145 -127.83189392 29.43269348 C-134.4788983 27.94772793 -141.13875552 26.52808914 -147.81201172 25.16577148 C-150.61296411 24.59022865 -153.28308709 23.96813764 -156 23.0625 C-156.11609619 24.22064209 -156.23219238 25.37878418 -156.35180664 26.57202148 C-156.88983953 30.84480111 -158.00530664 34.83413678 -159.37109375 38.91015625 C-159.60887039 39.63591354 -159.84664703 40.36167084 -160.09162903 41.10942078 C-160.86379906 43.4513354 -161.64910625 45.78850065 -162.4375 48.125 C-162.70566528 48.92562866 -162.97383057 49.72625732 -163.25012207 50.55114746 C-167.78825239 64.05760012 -172.8644445 77.19117161 -179 90.0625 C-179.34482422 90.79227051 -179.68964844 91.52204102 -180.04492188 92.27392578 C-182.25950625 96.92649559 -184.5886586 101.50912121 -187 106.0625 C-187.37060547 106.76648926 -187.74121094 107.47047852 -188.12304688 108.19580078 C-194.3821607 120.00323888 -201.46580354 131.02402611 -209 142.0625 C-199.1 142.3925 -189.2 142.7225 -179 143.0625 C-180.46945615 146.73614037 -181.6456201 149.27592624 -183.78515625 152.453125 C-184.31560547 153.24460938 -184.84605469 154.03609375 -185.39257812 154.8515625 C-186.21918945 156.06972656 -186.21918945 156.06972656 -187.0625 157.3125 C-187.61744141 158.14007813 -188.17238281 158.96765625 -188.74414062 159.8203125 C-192.83129699 165.89379699 -192.83129699 165.89379699 -194 167.0625 C-195.59610982 167.15583705 -197.19633428 167.17995372 -198.79516602 167.17602539 C-199.81614883 167.17594986 -200.83713165 167.17587433 -201.88905334 167.17579651 C-202.9994548 167.17063522 -204.10985626 167.16547394 -205.25390625 167.16015625 C-206.38448959 167.1587413 -207.51507294 167.15732635 -208.67991638 167.15586853 C-212.30747065 167.15025019 -215.93496424 167.13769458 -219.5625 167.125 C-222.01497307 167.11998736 -224.4674471 167.11542405 -226.91992188 167.11132812 C-232.94663545 167.1002748 -238.97331339 167.08351884 -245 167.0625 C-244.04095309 165.7777386 -243.08107688 164.49359624 -242.12084961 163.2097168 C-241.58640732 162.49454391 -241.05196503 161.77937103 -240.50132751 161.04252625 C-238.9078183 158.94092614 -237.23571659 156.91328202 -235.5625 154.875 C-233.33044533 152.02233144 -233.33044533 152.02233144 -233.125 148.5 C-233.41375 147.695625 -233.7025 146.89125 -234 146.0625 C-234.74424819 139.51796973 -232.74955358 136.30483535 -229.125 131.1875 C-228.11376302 129.70154344 -227.10604648 128.21318604 -226.1015625 126.72265625 C-225.58625977 125.96098145 -225.07095703 125.19930664 -224.54003906 124.41455078 C-221.56922588 119.87732596 -218.91649619 115.14787191 -216.26220703 110.42041016 C-214.39472769 107.15758896 -213.17769534 105.18096356 -210 103.0625 C-207.95703125 102.8671875 -207.95703125 102.8671875 -205.8125 102.9375 C-204.554375 102.97875 -203.29625 103.02 -202 103.0625 C-201.7525 102.2375 -201.505 101.4125 -201.25 100.5625 C-200.0239742 97.12962775 -198.5019022 94.15065298 -196.70703125 90.9921875 C-195.81614611 88.56071093 -196.09002464 87.46021286 -197 85.0625 C-197.66 84.0725 -198.32 83.0825 -199 82.0625 C-199.79788051 76.26690641 -197.53658305 71.59380889 -195.3125 66.375 C-194.97283203 65.52099609 -194.63316406 64.66699219 -194.28320312 63.78710938 C-192.70151305 60.02357393 -191.63840839 57.57207296 -188.40625 54.9921875 C-185.7634957 53.97112334 -183.80948844 53.8216867 -181 54.0625 C-180.81824219 53.20978516 -180.81824219 53.20978516 -180.6328125 52.33984375 C-179.58677946 47.52004536 -178.40795516 42.7892066 -177 38.0625 C-178.485 37.5675 -178.485 37.5675 -180 37.0625 C-182.85153972 32.72278298 -182.71525715 28.06177104 -182 23.0625 C-179.23018896 15.74504572 -173.23582834 11.28630988 -166.5 7.75 C-158.65173583 5.59172735 -152.4204064 6.40158801 -144.5625 8.046875 C-143.44069336 8.2724408 -142.31888672 8.49800659 -141.16308594 8.73040771 C-127.11359459 11.58882022 -113.11750842 14.70574999 -99.12689209 17.83740234 C-96.23853614 18.48259311 -93.34911148 19.12292717 -90.45968628 19.76330948 C-87.6609467 20.38411255 -84.86279098 21.00751307 -82.06481934 21.63176727 C-80.0985098 22.07009768 -78.13177805 22.50653266 -76.16503906 22.94293213 C-74.98780273 23.20700867 -73.81056641 23.47108521 -72.59765625 23.74316406 C-71.56133057 23.97457092 -70.52500488 24.20597778 -69.45727539 24.44439697 C-67 25.0625 -67 25.0625 -65 26.0625 C-64.83177734 25.27552734 -64.83177734 25.27552734 -64.66015625 24.47265625 C-63.10449395 18.36185204 -60.62086309 12.89557164 -57.75 7.3125 C-57.21258179 6.23174194 -57.21258179 6.23174194 -56.66430664 5.12915039 C-44.1260787 -18.58582432 -19.51533151 -7.33703917 0 0 Z " fill="#3B354F" transform="translate(355,24.9375)"/>
<path d="M0 0 C6.54149564 0.98238503 12.71765656 3.25554447 18.94677734 5.41064453 C20.27820188 5.86400793 21.60988276 6.31661912 22.94180298 6.76852417 C25.72908766 7.71626607 28.51425812 8.6698897 31.29785156 9.62841797 C34.80580858 10.83636081 38.31701955 12.03444966 41.82963181 13.22877884 C50.28996642 16.1056315 58.73565236 19.02270431 67.17333984 21.96533203 C68.22831665 22.3313855 69.28329346 22.69743896 70.37023926 23.07458496 C73.09287329 24.02366383 75.80990252 24.98685507 78.52490234 25.95751953 C79.29297211 26.22444611 80.06104187 26.49137268 80.85238647 26.76638794 C84.48844959 28.08902409 85.9651118 28.65298997 88.17333984 31.96533203 C88.86426015 38.57443836 87.5002921 42.25967091 83.98583984 47.77783203 C83.54167725 48.50139893 83.09751465 49.22496582 82.63989258 49.97045898 C74.73259571 62.69148429 66.31207647 75.18537887 56.73974609 86.71923828 C54.9574285 88.88681523 53.47924526 91.06407863 52.07568359 93.49267578 C47.80110408 100.14115971 47.80110408 100.14115971 44.17333984 101.96533203 C36.60632432 103.39499386 28.7908551 102.70822549 21.17333984 101.96533203 C21.17333984 104.60533203 21.17333984 107.24533203 21.17333984 109.96533203 C-5.22666016 109.96533203 -31.62666016 109.96533203 -58.82666016 109.96533203 C-58.82666016 107.32533203 -58.82666016 104.68533203 -58.82666016 101.96533203 C-62.78666016 101.96533203 -66.74666016 101.96533203 -70.82666016 101.96533203 C-69.31798411 98.94797994 -68.11287792 96.89325354 -66.06103516 94.34033203 C-65.50802734 93.64456055 -64.95501953 92.94878906 -64.38525391 92.23193359 C-63.78841797 91.48395508 -63.19158203 90.73597656 -62.57666016 89.96533203 C-44.64117845 67.15607812 -29.27977334 42.76149304 -15.1953125 17.42333984 C-13.38612928 14.17416813 -11.55471174 10.93971948 -9.70166016 7.71533203 C-9.20408203 6.84392578 -8.70650391 5.97251953 -8.19384766 5.07470703 C-4.87605372 -0.04417504 -4.87605372 -0.04417504 0 0 Z " fill="#78C6D0" transform="translate(347.82666015625,82.03466796875)"/>
<path d="M0 0 C8.19619769 1.44614408 16.3510938 3.05874893 24.5 4.75 C26.38174927 5.14034424 26.38174927 5.14034424 28.30151367 5.53857422 C46.60981445 9.35734287 64.89808929 13.28740456 83 18 C82.35281647 21.03129657 81.34279632 23.53269799 79.91796875 26.28125 C79.48726074 27.11229248 79.05655273 27.94333496 78.61279297 28.79956055 C78.14244629 29.69070557 77.67209961 30.58185059 77.1875 31.5 C76.6939502 32.43561768 76.20040039 33.37123535 75.69189453 34.33520508 C65.59991964 53.26920215 53.83342997 71.12755658 42 89 C41.70996094 88.38382812 41.41992188 87.76765625 41.12109375 87.1328125 C39.18275727 83.44524554 36.42834889 81.28556592 33 79 C33.31638428 78.50822266 33.63276855 78.01644531 33.95874023 77.50976562 C41.00596807 66.52786744 47.74466625 55.45231559 54 44 C52.08380859 43.81630859 52.08380859 43.81630859 50.12890625 43.62890625 C44.119368 42.96222494 38.27241121 41.67153606 32.37304688 40.37304688 C27.14793725 39.27323583 22.32273382 38.27234963 17 39 C12.61227365 43.54007796 11.06332868 49.88480158 9 55.75 C0.94719688 77.84049974 -8.91425567 100.3713835 -22 120 C-20.02 120 -18.04 120 -16 120 C-16.86625 120.94875 -17.7325 121.8975 -18.625 122.875 C-23.98976927 129.15508535 -28.23511097 135.88151048 -30 144 C-32.64 144 -35.28 144 -38 144 C-37.5875 143.35675781 -37.175 142.71351563 -36.75 142.05078125 C-32.08243111 134.74728617 -27.54440069 127.38465113 -23 120 C-33.23 120 -43.46 120 -54 120 C-51.69 116.37 -49.38 112.74 -47 109 C-39.46744696 96.66484407 -32.13246503 84.17057857 -25.98486328 71.08056641 C-24.90815447 68.80597234 -23.79501724 66.550789 -22.68359375 64.29296875 C-17.29943814 53.13079878 -13.01274174 41.74913121 -9.125 30 C-8.78146988 28.96203781 -8.78146988 28.96203781 -8.43099976 27.90310669 C-5.39064124 18.66460358 -2.60439529 9.37069844 0 0 Z " fill="#389AA2" transform="translate(199,48)"/>
<path d="M0 0 C5.91756637 0.83257742 11.74600745 2.09353064 17.58203125 3.36328125 C18.94255075 3.65308455 20.30322692 3.94215336 21.6640625 4.23046875 C24.9716617 4.93421326 28.27748868 5.64534519 31.58203125 6.36328125 C30.39375446 10.210622 29.05889774 13.56566211 26.97265625 17.0078125 C26.46476562 17.85021484 25.956875 18.69261719 25.43359375 19.56054688 C24.90507812 20.42357422 24.3765625 21.28660156 23.83203125 22.17578125 C23.31898438 23.02720703 22.8059375 23.87863281 22.27734375 24.75585938 C18.85947731 30.39362148 15.28346071 35.90789025 11.58203125 41.36328125 C13.03609375 42.13671875 13.03609375 42.13671875 14.51953125 42.92578125 C17.58203125 45.36328125 17.58203125 45.36328125 18.68359375 48.42578125 C18.53278182 54.27264366 15.58244217 57.34625806 12.01953125 61.80078125 C11.39755859 62.60837891 10.77558594 63.41597656 10.13476562 64.24804688 C8.29739313 66.63067934 6.44054746 68.99712632 4.58203125 71.36328125 C3.44196433 72.82872195 2.3074042 74.29847172 1.1796875 75.7734375 C0.70152588 76.39484619 0.22336426 77.01625488 -0.26928711 77.65649414 C-1.60380762 79.47523445 -1.60380762 79.47523445 -2.41796875 82.36328125 C-3.92423828 82.193125 -3.92423828 82.193125 -5.4609375 82.01953125 C-10.7764835 81.71253855 -15.97380221 81.46438504 -20.35498047 84.86816406 C-24.02482269 88.67766829 -26.99456942 92.96062903 -29.99267578 97.3034668 C-30.46302246 97.98320557 -30.93336914 98.66294434 -31.41796875 99.36328125 C-31.88702637 100.04624268 -32.35608398 100.7292041 -32.83935547 101.43286133 C-35.57639357 105.06033322 -36.64547883 106.22673 -41.28515625 107.046875 C-42.62282261 107.00097468 -43.95968848 106.91834763 -45.29296875 106.80078125 C-45.98132813 106.76919922 -46.6696875 106.73761719 -47.37890625 106.70507812 C-49.06046767 106.62333556 -50.73980372 106.49779066 -52.41796875 106.36328125 C-51.39998713 96.60263393 -46.57227319 89.83622336 -39.41796875 83.36328125 C-41.06796875 83.03328125 -42.71796875 82.70328125 -44.41796875 82.36328125 C-43.15404443 79.05189414 -41.73535995 75.98625959 -39.984375 72.90625 C-29.28489193 53.84250279 -20.22666004 34.38605843 -12.76513672 13.82714844 C-7.48309406 -0.4859152 -7.48309406 -0.4859152 0 0 Z " fill="#78C6D0" transform="translate(221.41796875,85.63671875)"/>
<path d="M0 0 C-0.55467529 5.53328055 -1.60120743 10.56565362 -3.37109375 15.84765625 C-3.60887039 16.57341354 -3.84664703 17.29917084 -4.09162903 18.04692078 C-4.86379906 20.3888354 -5.64910625 22.72600065 -6.4375 25.0625 C-6.70566528 25.86312866 -6.97383057 26.66375732 -7.25012207 27.48864746 C-11.78825239 40.99510012 -16.8644445 54.12867161 -23 67 C-23.34482422 67.72977051 -23.68964844 68.45954102 -24.04492188 69.21142578 C-26.25950625 73.86399559 -28.5886586 78.44662121 -31 83 C-31.37060547 83.70398926 -31.74121094 84.40797852 -32.12304688 85.13330078 C-38.3821607 96.94073888 -45.46580354 107.96152611 -53 119 C-38.15 119.495 -38.15 119.495 -23 120 C-24.46945615 123.67364037 -25.6456201 126.21342624 -27.78515625 129.390625 C-28.31560547 130.18210938 -28.84605469 130.97359375 -29.39257812 131.7890625 C-30.21918945 133.00722656 -30.21918945 133.00722656 -31.0625 134.25 C-31.61744141 135.07757813 -32.17238281 135.90515625 -32.74414062 136.7578125 C-36.83129699 142.83129699 -36.83129699 142.83129699 -38 144 C-39.59610982 144.09333705 -41.19633428 144.11745372 -42.79516602 144.11352539 C-43.81614883 144.11344986 -44.83713165 144.11337433 -45.88905334 144.11329651 C-46.9994548 144.10813522 -48.10985626 144.10297394 -49.25390625 144.09765625 C-50.38448959 144.0962413 -51.51507294 144.09482635 -52.67991638 144.09336853 C-56.30747065 144.08775019 -59.93496424 144.07519458 -63.5625 144.0625 C-66.01497307 144.05748736 -68.4674471 144.05292405 -70.91992188 144.04882812 C-76.94663545 144.0377748 -82.97331339 144.02101884 -89 144 C-88.04095309 142.7152386 -87.08107688 141.43109624 -86.12084961 140.1472168 C-85.58640732 139.43204391 -85.05196503 138.71687103 -84.50132751 137.98002625 C-82.9078183 135.87842614 -81.23571659 133.85078202 -79.5625 131.8125 C-77.33044533 128.95983144 -77.33044533 128.95983144 -77.125 125.4375 C-77.41375 124.633125 -77.7025 123.82875 -78 123 C-78.74424819 116.45546973 -76.74955358 113.24233535 -73.125 108.125 C-72.11376302 106.63904344 -71.10604648 105.15068604 -70.1015625 103.66015625 C-69.58625977 102.89848145 -69.07095703 102.13680664 -68.54003906 101.35205078 C-65.56922588 96.81482596 -62.91649619 92.08537191 -60.26220703 87.35791016 C-58.39472769 84.09508896 -57.17769534 82.11846356 -54 80 C-51.95703125 79.8046875 -51.95703125 79.8046875 -49.8125 79.875 C-48.554375 79.91625 -47.29625 79.9575 -46 80 C-45.7525 79.175 -45.505 78.35 -45.25 77.5 C-44.0239742 74.06712775 -42.5019022 71.08815298 -40.70703125 67.9296875 C-39.81614611 65.49821093 -40.09002464 64.39771286 -41 62 C-41.66 61.01 -42.32 60.02 -43 59 C-43.79788051 53.20440641 -41.53658305 48.53130889 -39.3125 43.3125 C-38.97283203 42.45849609 -38.63316406 41.60449219 -38.28320312 40.72460938 C-36.70151305 36.96107393 -35.63840839 34.50957296 -32.40625 31.9296875 C-29.7634957 30.90862334 -27.80948844 30.7591867 -25 31 C-24.81824219 30.12988281 -24.81824219 30.12988281 -24.6328125 29.2421875 C-24.28554102 27.62336813 -23.92418268 26.00752381 -23.55078125 24.39453125 C-23.10529202 22.45775893 -22.70225079 20.51125396 -22.3125 18.5625 C-21 16 -21 16 -17.5625 14.8125 C-15.7990625 14.4103125 -15.7990625 14.4103125 -14 14 C-11.15808852 12.138058 -10.98514931 10.94165799 -10.125 7.5625 C-8.35074587 1.94402858 -5.86726771 0 0 0 Z " fill="#2A747A" transform="translate(199,48)"/>
<path d="M0 0 C-8.39881181 6.74086454 -15.51789108 10.05448765 -26.44262695 10.20532227 C-27.72357742 10.22526749 -29.00452789 10.24521271 -30.32429504 10.26576233 C-31.71228924 10.28274278 -33.10028467 10.29962173 -34.48828125 10.31640625 C-35.91603675 10.33699424 -37.34378641 10.35799118 -38.77153015 10.37937927 C-42.51806895 10.43440953 -46.26466101 10.48390227 -50.0112915 10.53222656 C-53.83895574 10.58258121 -57.66654323 10.63819418 -61.49414062 10.69335938 C-68.99602863 10.80070776 -76.49798074 10.90220387 -84 11 C-65.22801971 31.58613186 -45.36037106 49.41785602 -21.2109375 63.609375 C-20.48132813 64.06828125 -19.75171875 64.5271875 -19 65 C-19 65.33 -19 65.66 -19 66 C-25.75855155 66.07667264 -32.51698908 66.12885867 -39.27587891 66.16479492 C-41.5705179 66.17979151 -43.86512867 66.20019551 -46.15966797 66.22631836 C-49.47630825 66.2631058 -52.79256642 66.2798182 -56.109375 66.29296875 C-57.11925476 66.30845261 -58.12913452 66.32393646 -59.1696167 66.33988953 C-71.65528197 66.3427761 -82.75207988 63.41995033 -92.22265625 55.03125 C-100.50538203 46.4853348 -104.14942825 35.92021332 -104.09765625 24.16796875 C-104.09443359 22.87568359 -104.09121094 21.58339844 -104.08789062 20.25195312 C-104.07953665 18.89713474 -104.07107172 17.54231703 -104.0625 16.1875 C-104.05748 14.81315265 -104.05291797 13.43880355 -104.04882812 12.06445312 C-104.03705668 8.70959076 -104.02061283 5.35481779 -104 2 C-102.27898071 1.98786972 -102.27898071 1.98786972 -100.52319336 1.97549438 C-89.69450521 1.89790766 -78.86594077 1.81013683 -68.03741455 1.71247292 C-62.47076902 1.66259181 -56.90414171 1.61626105 -51.33740234 1.578125 C-45.96215339 1.54116881 -40.58706 1.49478085 -35.21194458 1.44193649 C-33.16434466 1.42344741 -31.11671146 1.40831934 -29.06906128 1.39665604 C-26.19431735 1.37969955 -23.31992546 1.35064206 -20.4453125 1.31884766 C-19.18402779 1.31560738 -19.18402779 1.31560738 -17.89726257 1.31230164 C-13.94441955 1.25669138 -10.42203076 0.95364918 -6.59716797 -0.08242798 C-3 -1 -3 -1 0 0 Z " fill="#D1814C" transform="translate(168,414)"/>
<path d="M0 0 C9.71041721 7.14995894 15.59588914 15.63355655 18.54296875 27.421875 C18.54296875 32.041875 18.54296875 36.661875 18.54296875 41.421875 C-7.85703125 41.421875 -34.25703125 41.421875 -61.45703125 41.421875 C-61.45703125 25.56297448 -60.12729426 17.33596444 -50.14453125 5.734375 C-35.76589271 -6.63794189 -16.72485421 -10.74219571 0 0 Z " fill="#98D6EE" transform="translate(350.45703125,150.578125)"/>
<path d="M0 0 C-0.66 0.33 -1.32 0.66 -2 1 C-2.7066143 2.98623782 -3.36582132 4.9894623 -4 7 C-6.01918166 11.71415887 -8.20258879 16.35473469 -10.375 21 C-10.843685 22.00324814 -10.843685 22.00324814 -11.32183838 23.02676392 C-17.07063166 35.29618091 -23.23970409 47.25302958 -30 59 C-30.60038086 60.04720215 -31.20076172 61.0944043 -31.81933594 62.17333984 C-47.19673179 88.87096693 -64.1372412 114.59963533 -83.3671875 138.69140625 C-86.61124336 142.76813521 -89.80139784 146.8875115 -93 151 C-78.81 151.33 -64.62 151.66 -50 152 C-50.66 153.32 -51.32 154.64 -52 156 C-52.54960136 157.09970123 -52.54960136 157.09970123 -53.11030579 158.22161865 C-56.07671115 161.01328723 -59.37766781 160.52402316 -63.23510742 160.45410156 C-64.07435257 160.45468567 -64.91359772 160.45526978 -65.77827454 160.45587158 C-68.55442558 160.4530831 -71.32950512 160.42195563 -74.10546875 160.390625 C-76.02931634 160.38316531 -77.95317152 160.3774711 -79.87702942 160.37347412 C-84.94234165 160.35819635 -90.00719559 160.31889603 -95.07232666 160.2746582 C-100.240212 160.23375173 -105.40817133 160.21547299 -110.57617188 160.1953125 C-120.71764935 160.15240389 -130.85878658 160.0841266 -141 160 C-140.40020828 159.20825378 -140.40020828 159.20825378 -139.78829956 158.4005127 C-137.14325109 154.89438248 -134.53917365 151.39474235 -132.1328125 147.71875 C-124.56940588 136.8597605 -124.56940588 136.8597605 -119.84033203 135.27734375 C-115.12473759 134.62847467 -110.65635163 135.13926234 -106 136 C-105.34 137.98 -104.68 139.96 -104 142 C-102.61135566 142.30556226 -101.21318736 142.56800808 -99.8125 142.8125 C-98.64654297 143.03873047 -98.64654297 143.03873047 -97.45703125 143.26953125 C-92.57295136 142.73375778 -89.96939252 138.00591263 -87.01171875 134.41796875 C-63.17260083 104.36778248 -42.94297718 70.75849258 -26.13623047 36.31201172 C-25.05735375 34.11670391 -23.95812538 31.9333747 -22.84765625 29.75390625 C-19.05353017 22.29586671 -15.49441917 14.80706692 -12.3449707 7.04980469 C-9.55766659 0.38742664 -7.00369015 -0.26429019 0 0 Z " fill="#2A7379" transform="translate(325,32)"/>
<path d="M0 0 C6.51299055 3.65059343 11.44298219 8.83214933 13.75 16 C14.68220158 23.02585611 14.23430419 28.9307747 10.375 34.9609375 C5.72876688 40.79106656 0.5272959 45.43331387 -7.08203125 46.3359375 C-15.21320476 46.44250596 -20.43987209 45.57284236 -26.4453125 39.94140625 C-32.75420937 33.23679004 -34.78711557 27.93044248 -34.55078125 18.73828125 C-33.69571185 10.95381831 -29.28190339 6.65394 -23.56640625 1.6640625 C-16.43452678 -3.45934501 -7.88692362 -3.57620811 0 0 Z " fill="#3E364E" transform="translate(130.25,322)"/>
<path d="M0 0 C4.78306186 -0.09992737 9.56549757 -0.17195954 14.34936523 -0.21972656 C15.97186893 -0.23966813 17.59430242 -0.26683174 19.21655273 -0.30175781 C33.82512508 -0.60807385 45.95373976 1.36574766 56.97265625 11.8828125 C68.00801205 23.83192388 68.30763952 37.10753314 68.125 52.625 C68.11494608 54.12108773 68.10582451 55.61718203 68.09765625 57.11328125 C68.07584308 60.74232626 68.04144741 64.37111985 68 68 C66.52221329 65.78331993 65.30578687 63.73399661 64.1171875 61.375 C49.77765561 33.31813263 29.03690492 13.23129899 0 1 C0 0.67 0 0.34 0 0 Z " fill="#F6B58A" transform="translate(412,208)"/>
<path d="M0 0 C1.73618591 -0.00006042 1.73618591 -0.00006042 3.50744629 -0.00012207 C5.95179684 0.00523347 8.39614694 0.02281732 10.84033203 0.05175781 C14.58028833 0.09359939 18.31844293 0.09282635 22.05859375 0.0859375 C24.43490834 0.09643055 26.81121365 0.10936926 29.1875 0.125 C30.3053186 0.12520142 31.42313721 0.12540283 32.5748291 0.12561035 C34.14170471 0.14947815 34.14170471 0.14947815 35.74023438 0.17382812 C37.11326721 0.18645691 37.11326721 0.18645691 38.51403809 0.19934082 C41.63433226 0.676399 43.54257635 1.76301627 46.09375 3.59375 C47.53805855 6.48236709 47.47063506 8.39022701 47.09375 11.59375 C45.33032227 14.25585938 45.33032227 14.25585938 42.09375 16.59375 C38.04163046 17.32719913 34.04149865 17.24643284 29.93359375 17.1875 C28.75156876 17.18754028 27.56954376 17.18758057 26.35169983 17.18762207 C23.85607579 17.1822665 21.36045221 17.16468254 18.86499023 17.13574219 C15.0416319 17.09386372 11.22003353 17.09467632 7.39648438 17.1015625 C4.97134191 17.09107094 2.54620853 17.07813303 0.12109375 17.0625 C-1.02375992 17.06229858 -2.16861359 17.06209717 -3.34815979 17.06188965 C-4.94517982 17.03802185 -4.94517982 17.03802185 -6.57446289 17.01367188 C-7.50980362 17.00525269 -8.44514435 16.9968335 -9.40882874 16.98815918 C-12.35577145 16.52275862 -13.73539252 15.60597614 -15.90625 13.59375 C-16.69140625 11.7265625 -16.69140625 11.7265625 -16.96875 9.71875 C-17.08347656 9.06132812 -17.19820313 8.40390625 -17.31640625 7.7265625 C-16.80554703 5.07009458 -15.68096573 3.52957478 -13.73875427 1.67184448 C-9.65179109 -0.73258782 -4.59754977 -0.06743316 0 0 Z " fill="#3D354F" transform="translate(352.90625,431.40625)"/>
<path d="M0 0 C3 2 3 2 5 5 C4.93049586 12.08942211 2.28501009 16.72559346 -1.4375 22.625 C-1.9722998 23.49294189 -2.50709961 24.36088379 -3.05810547 25.25512695 C-15.97078893 45.98539447 -15.97078893 45.98539447 -20 48 C-24.0130324 48.53507099 -25.53928033 48.33051628 -28.875 45.9375 C-31.59426947 42.17850985 -31.52625182 40.58121003 -31 36 C-29.6764788 33.1583654 -27.93345718 30.67827495 -26.125 28.125 C-25.11376302 26.63904344 -24.10604648 25.15068604 -23.1015625 23.66015625 C-22.58625977 22.89848145 -22.07095703 22.13680664 -21.54003906 21.35205078 C-18.56922588 16.81482596 -15.91649619 12.08537191 -13.26220703 7.35791016 C-9.71793357 1.16542903 -7.28369997 -0.87906724 0 0 Z " fill="#3B354F" transform="translate(152,128)"/>
<path d="M0 0 C1.2777832 0.02618408 2.55556641 0.05236816 3.87207031 0.0793457 C4.55448792 0.08642044 5.23690552 0.09349518 5.94000244 0.1007843 C8.11120093 0.12868674 10.27978199 0.19140443 12.45019531 0.25512695 C13.92541837 0.28021578 15.40068202 0.30302795 16.87597656 0.32348633 C20.48489435 0.37849558 24.09228922 0.46473388 27.70019531 0.56762695 C26.42718849 3.99793443 24.95722405 6.9256191 22.91503906 9.95825195 C22.11936523 11.14547852 22.11936523 11.14547852 21.30761719 12.35668945 C20.75654297 13.16879883 20.20546875 13.9809082 19.63769531 14.81762695 C19.08275391 15.64520508 18.5278125 16.4727832 17.95605469 17.32543945 C13.86889832 23.39892395 13.86889832 23.39892395 12.70019531 24.56762695 C10.17925455 24.65610438 7.68588638 24.68289997 5.16503906 24.6652832 C4.03516319 24.66316078 4.03516319 24.66316078 2.88246155 24.66099548 C0.46749971 24.65538071 -1.9473707 24.64282578 -4.36230469 24.63012695 C-5.99576689 24.62511385 -7.62923055 24.62055062 -9.26269531 24.61645508 C-13.27510054 24.60540649 -17.28743709 24.58813202 -21.29980469 24.56762695 C-17.07491618 18.17279373 -17.07491618 18.17279373 -14.86230469 15.3137207 C-14.44207031 14.7690918 -14.02183594 14.22446289 -13.58886719 13.66333008 C-12.95078125 12.84251953 -12.95078125 12.84251953 -12.29980469 12.00512695 C-11.87441406 11.45405273 -11.44902344 10.90297852 -11.01074219 10.33520508 C-9.77867063 8.74220458 -8.53935862 7.15481219 -7.29980469 5.56762695 C-6.73745117 4.6883252 -6.17509766 3.80902344 -5.59570312 2.90307617 C-3.29980469 0.56762695 -3.29980469 0.56762695 0 0 Z " fill="#2A747A" transform="translate(148.2998046875,167.432373046875)"/>
<path d="M0 0 C5.02103245 0.78877163 9.68827728 2.52402781 14.46484375 4.203125 C15.37577286 4.52279236 16.28670197 4.84245972 17.22523499 5.17181396 C19.14819199 5.84898993 21.07041366 6.52825715 22.99194336 7.20947266 C25.91973291 8.24372372 28.85321516 9.26056242 31.78710938 10.27734375 C33.65923401 10.93903045 35.53099147 11.60175711 37.40234375 12.265625 C38.2743895 12.56478821 39.14643524 12.86395142 40.04490662 13.17218018 C45.27492984 15.05476745 49.04388913 17.05378832 53 21 C54.33168526 26.67630843 51.1819666 32.20757235 49 37.375 C48.42765625 38.76525391 48.42765625 38.76525391 47.84375 40.18359375 C46.9051185 42.45977514 45.9570302 44.73150754 45 47 C42.22642033 44.31785702 39.79329648 41.55286801 37.4375 38.5 C27.01141169 25.35657629 15.1456963 12.58706181 1.765625 2.42578125 C1.18296875 1.95527344 0.6003125 1.48476562 0 1 C0 0.67 0 0.34 0 0 Z " fill="#77C5CF" transform="translate(427,70)"/>
<path d="M0 0 C-9.08786066 7.29389336 -16.52366814 10.16859104 -28.27856445 10.11352539 C-29.09859451 10.11367142 -29.91862457 10.11381744 -30.76350403 10.1139679 C-33.46345704 10.1132734 -36.16334035 10.1055027 -38.86328125 10.09765625 C-40.73943545 10.09579043 -42.61559013 10.0943673 -44.491745 10.09336853 C-49.422021 10.0895563 -54.3522674 10.07973707 -59.28253174 10.06866455 C-64.31660563 10.05842259 -69.35068431 10.05386494 -74.38476562 10.04882812 C-84.2565234 10.03811364 -94.12825924 10.02105276 -104 10 C-104 7.36 -104 4.72 -104 2 C-102.27898071 1.98786972 -102.27898071 1.98786972 -100.52319336 1.97549438 C-89.69450521 1.89790766 -78.86594077 1.81013683 -68.03741455 1.71247292 C-62.47076902 1.66259181 -56.90414171 1.61626105 -51.33740234 1.578125 C-45.96215339 1.54116881 -40.58706 1.49478085 -35.21194458 1.44193649 C-33.16434466 1.42344741 -31.11671146 1.40831934 -29.06906128 1.39665604 C-26.19431735 1.37969955 -23.31992546 1.35064206 -20.4453125 1.31884766 C-19.18402779 1.31560738 -19.18402779 1.31560738 -17.89726257 1.31230164 C-13.94441955 1.25669138 -10.42203076 0.95364918 -6.59716797 -0.08242798 C-3 -1 -3 -1 0 0 Z " fill="#9D6239" transform="translate(168,414)"/>
<path d="M0 0 C26.4 0 52.8 0 80 0 C80 2.64 80 5.28 80 8 C53.6 8 27.2 8 0 8 C0 5.36 0 2.72 0 0 Z " fill="#78C6D0" transform="translate(289,184)"/>
<path d="M0 0 C24.75 0 49.5 0 75 0 C69 8 69 8 65.65896606 8.96203613 C64.44651215 8.94427124 63.23405823 8.92650635 61.98486328 8.90820312 C60.97405449 8.90995544 60.97405449 8.90995544 59.94282532 8.91174316 C57.73316334 8.90620434 55.52902053 8.84418549 53.3203125 8.78125 C51.78192087 8.76631568 50.243491 8.75493427 48.70504761 8.74694824 C44.66969427 8.7165055 40.63667097 8.63801828 36.60223389 8.54931641 C32.4799349 8.46725029 28.35725665 8.43089296 24.234375 8.390625 C16.15518459 8.30500948 8.07788269 8.16860584 0 8 C0 5.36 0 2.72 0 0 Z " fill="#2A747A" transform="translate(369,184)"/>
<path d="M0 0 C1.00417969 0.185625 2.00835937 0.37125 3.04296875 0.5625 C4.03296875 2.8725 5.02296875 5.1825 6.04296875 7.5625 C4.64749118 9.27112395 3.25156855 10.97938442 1.85546875 12.6875 C1.07816406 13.63882813 0.30085938 14.59015625 -0.5 15.5703125 C-1.31082031 16.55773437 -2.12164062 17.54515625 -2.95703125 18.5625 C-3.62734375 19.6659375 -4.29765625 20.769375 -4.98828125 21.90625 C-9.63180861 26.06098501 -14.27362314 25.21083772 -20.26953125 24.9375 C-21.39166016 24.91042969 -22.51378906 24.88335937 -23.66992188 24.85546875 C-26.43425584 24.78489001 -29.1946554 24.68634488 -31.95703125 24.5625 C-31.59206543 24.08361328 -31.22709961 23.60472656 -30.85107422 23.11132812 C-28.16319176 19.55957554 -25.55728092 15.99008982 -23.08984375 12.28125 C-16.41410667 2.69671191 -11.98866419 -1.52031229 0 0 Z " fill="#389AA2" transform="translate(215.95703125,167.4375)"/>
<path d="M0 0 C4.84286497 3.76667276 4.84286497 3.76667276 5.3359375 7.63671875 C4.89865036 12.0146749 3.50422606 15.59007574 1.8125 19.625 C1.52052734 20.37523438 1.22855469 21.12546875 0.92773438 21.8984375 C-0.94836734 26.44949714 -2.65420965 29.35562757 -7 32 C-10.5625 32.5625 -10.5625 32.5625 -14 32 C-16.75897868 29.59473653 -17.86337218 28.0718778 -18.328125 24.42578125 C-17.87054956 19.64847581 -16.18309163 15.70184157 -14.3125 11.3125 C-13.97283203 10.45849609 -13.63316406 9.60449219 -13.28320312 8.72460938 C-11.69572633 4.94730477 -10.6338146 2.50496739 -7.38671875 -0.08203125 C-4.32663997 -1.25898463 -3.04823284 -1.21929314 0 0 Z " fill="#3B354F" transform="translate(174,80)"/>
<path d="M0 0 C2.66303538 2.06462725 3.85136869 3.25516083 4.51757812 6.59375 C4.52208984 7.5528125 4.52660156 8.511875 4.53125 9.5 C4.53640625 10.551875 4.5415625 11.60375 4.546875 12.6875 C4.53140625 13.780625 4.5159375 14.87375 4.5 16 C4.51546875 17.093125 4.5309375 18.18625 4.546875 19.3125 C4.54171875 20.364375 4.5365625 21.41625 4.53125 22.5 C4.52673828 23.4590625 4.52222656 24.418125 4.51757812 25.40625 C3.85107404 28.74631573 2.67136274 29.9421674 0 32 C-3.75349462 32.46918683 -6.03848453 32.53136381 -9.375 30.6875 C-13.20251295 26.71277501 -12.29820594 20.79114554 -12.375 15.625 C-12.41238281 14.67882812 -12.44976562 13.73265625 -12.48828125 12.7578125 C-12.54773944 8.05400922 -12.55417183 5.75363605 -9.69921875 1.87109375 C-6.16772716 -0.57693009 -4.2124014 -0.68930205 0 0 Z " fill="#3D354F" transform="translate(492,320)"/>
<path d="M0 0 C0.93714844 -0.00257813 1.87429688 -0.00515625 2.83984375 -0.0078125 C7.80437377 0.06260637 11.52949427 0.18039685 15.5 3.5 C16.94430855 6.38861709 16.87688506 8.29647701 16.5 11.5 C14.41724956 14.5330886 12.78877454 16.26008524 9.09082031 16.94848633 C6.19075499 17.10162254 3.34023801 17.08320552 0.4375 17 C-1.05233398 17.00386719 -1.05233398 17.00386719 -2.57226562 17.0078125 C-10.78724833 16.897173 -10.78724833 16.897173 -14.5 13.5 C-15.28515625 11.6328125 -15.28515625 11.6328125 -15.5625 9.625 C-15.67722656 8.96757812 -15.79195313 8.31015625 -15.91015625 7.6328125 C-14.31531979 -0.66033708 -6.69368514 -0.20255994 0 0 Z " fill="#3F364F" transform="translate(431.5,431.5)"/>
<path d="M0 0 C4.29 0.99 8.58 1.98 13 3 C11.68132091 8.27471636 9.21243542 12.6456756 6.6875 17.4375 C5.95756836 18.84999023 5.95756836 18.84999023 5.21289062 20.29101562 C2.80840195 24.87669592 0.47461308 29.11272503 -3 33 C-8.94 31.515 -8.94 31.515 -15 30 C-13.749233 25.96116503 -12.26177638 22.36864007 -10.21484375 18.671875 C-9.68439453 17.70765625 -9.15394531 16.7434375 -8.60742188 15.75 C-8.05634766 14.76 -7.50527344 13.77 -6.9375 12.75 C-5.8423174 10.76569703 -4.74725899 8.78132551 -3.65234375 6.796875 C-3.16757568 5.92385742 -2.68280762 5.05083984 -2.18334961 4.15136719 C-1.42982062 2.78142755 -0.69921965 1.39843929 0 0 Z " fill="#2A7379" transform="translate(269,63)"/>
<path d="M0 0 C2.31 0 4.62 0 7 0 C5.73945242 2.04009675 4.42967004 4.02627238 3.06640625 6 C1.95440015 7.61440583 0.85190239 9.23666401 -0.18798828 10.8984375 C-7.83763764 23.04018425 -7.83763764 23.04018425 -13.21044922 24.67089844 C-18.22353567 25.29010687 -23.03359328 24.7943897 -28 24 C-27.64808594 23.53851563 -27.29617187 23.07703125 -26.93359375 22.6015625 C-22.81655641 17.16234345 -18.88391248 11.60754228 -15 6 C-14.40832031 6.13019531 -13.81664063 6.26039063 -13.20703125 6.39453125 C-10.73150222 6.82663828 -8.51364658 7.10947205 -6 7 C-3.19334613 4.83653764 -1.575966 3.15193199 0 0 Z " fill="#20585D" transform="translate(138,168)"/>
<path d="M0 0 C0.19335938 0.63808594 0.38671875 1.27617187 0.5859375 1.93359375 C0.84632813 2.75988281 1.10671875 3.58617187 1.375 4.4375 C1.63023437 5.26121094 1.88546875 6.08492188 2.1484375 6.93359375 C2.80882227 9.17798016 2.80882227 9.17798016 5 10 C6.72527121 10.11917168 8.45492898 10.17717326 10.18408203 10.20532227 C11.26505157 10.22526749 12.34602112 10.24521271 13.45974731 10.26576233 C14.63060883 10.28247482 15.80147034 10.29918732 17.0078125 10.31640625 C18.20356903 10.33718735 19.39932556 10.35796844 20.63131714 10.37937927 C24.46248464 10.44492289 28.29372238 10.50378218 32.125 10.5625 C34.71745527 10.60568063 37.30990336 10.64929477 39.90234375 10.69335938 C46.26815427 10.80060919 52.63403513 10.9023666 59 11 C57 14 57 14 54 15 C52.28811229 15.10248411 50.5725717 15.14844402 48.85766602 15.16113281 C47.80970352 15.17074036 46.76174103 15.1803479 45.68202209 15.19024658 C44.55074387 15.19449646 43.41946564 15.19874634 42.25390625 15.203125 C41.09124741 15.20882507 39.92858856 15.21452515 38.73069763 15.22039795 C36.27026276 15.2298485 33.80981524 15.23638215 31.34936523 15.24023438 C27.58099403 15.24995231 23.81316532 15.28098101 20.04492188 15.3125 C17.65625324 15.3190288 15.26758071 15.32427975 12.87890625 15.328125 C11.18502525 15.3466452 11.18502525 15.3466452 9.45692444 15.36553955 C8.40580978 15.36253845 7.35469513 15.35953735 6.27172852 15.35644531 C4.88631615 15.36191376 4.88631615 15.36191376 3.47291565 15.36749268 C0.52674858 14.92967151 -0.83732099 14.01316716 -3 12 C-3.99073332 9.36345833 -4.1636897 6.80530282 -4 4 C-1.8 0 -1.8 0 0 0 Z " fill="#D2824C" transform="translate(336,437)"/>
<path d="M0 0 C1.051875 0.7115625 1.051875 0.7115625 2.125 1.4375 C5.16081337 3.08739857 7.59168786 3.60368464 11 4 C6.96033067 10.25926787 2.63140096 16.16443479 -2 22 C-7.94 21.01 -7.94 21.01 -14 20 C-10.34973797 13.01689003 -5.59542528 5.59542528 0 0 Z " fill="#399AA2" transform="translate(224,140)"/>
<path d="M0 0 C4.0743356 0.84881992 5.54405875 2.30225596 8 5.625 C8.625 8.625 8.625 8.625 8 11.625 C5.54405875 14.94774404 4.0743356 16.40118008 0 17.25 C-4.0743356 16.40118008 -5.54405875 14.94774404 -8 11.625 C-8.625 8.625 -8.625 8.625 -8 5.625 C-5.54405875 2.30225596 -4.0743356 0.84881992 0 0 Z " fill="#97D6ED" transform="translate(376,119.375)"/>
<path d="M0 0 C1.8046875 0.640625 1.8046875 0.640625 3.8046875 2.328125 C5.14507256 5.42776546 5.35136619 7.29221802 4.8046875 10.640625 C2.31384502 14.01058835 0.91879885 15.45872927 -3.2578125 16.140625 C-6.62408491 15.56764246 -7.98534714 15.2598432 -10.1953125 12.640625 C-11.16586381 9.90651093 -11.50945273 7.52959322 -11.1953125 4.640625 C-8.1181485 -0.22327939 -5.38557002 -1.09743691 0 0 Z " fill="#F6B562" transform="translate(123.1953125,336.359375)"/>
<path d="M0 0 C7.59 0 15.18 0 23 0 C17 7 17 7 16 8 C13.30345146 8.07319621 10.63308542 8.09242537 7.9375 8.0625 C6.79958008 8.05573242 6.79958008 8.05573242 5.63867188 8.04882812 C3.75908129 8.0370068 1.87953101 8.01907078 0 8 C0 5.36 0 2.72 0 0 Z " fill="#389AA2" transform="translate(369,184)"/>
<path d="M0 0 C0.19335938 0.63808594 0.38671875 1.27617187 0.5859375 1.93359375 C0.84632813 2.75988281 1.10671875 3.58617187 1.375 4.4375 C1.63023437 5.26121094 1.88546875 6.08492188 2.1484375 6.93359375 C2.80882227 9.17798016 2.80882227 9.17798016 5 10 C6.66565749 10.15222973 8.33656496 10.24917215 10.0078125 10.31640625 C10.99394531 10.35830078 11.98007812 10.40019531 12.99609375 10.44335938 C14.54490234 10.50233398 14.54490234 10.50233398 16.125 10.5625 C17.68541016 10.62727539 17.68541016 10.62727539 19.27734375 10.69335938 C21.85142528 10.7996288 24.42560508 10.90166583 27 11 C25 14 25 14 22 15 C18.52517506 15.25394579 15.04564065 15.23126084 11.5625 15.25 C10.60794922 15.270625 9.65339844 15.29125 8.66992188 15.3125 C7.74888672 15.31765625 6.82785156 15.3228125 5.87890625 15.328125 C5.0391626 15.3374707 4.19941895 15.34681641 3.33422852 15.35644531 C0.47412802 14.91969741 -0.88711135 13.94121275 -3 12 C-3.99073332 9.36345833 -4.1636897 6.80530282 -4 4 C-1.8 0 -1.8 0 0 0 Z " fill="#D2824C" transform="translate(416,437)"/>
<path d="M0 0 C1.47668858 0.0133035 2.95331108 0.03716415 4.4296875 0.0703125 C5.18378906 0.07933594 5.93789062 0.08835938 6.71484375 0.09765625 C8.57826004 0.1212438 10.44151343 0.15711531 12.3046875 0.1953125 C10.84297545 3.60597395 9.30292738 5.96860666 6.3046875 8.1953125 C0.89083331 8.92143101 -4.26668513 8.65951817 -9.6953125 8.1953125 C-4.50586086 0.23815332 -4.50586086 0.23815332 0 0 Z " fill="#20575C" transform="translate(217.6953125,183.8046875)"/>
<path d="M0 0 C-1.61268692 2.71224618 -3.24901874 5.37352812 -5 8 C-6.97119141 8.34057617 -6.97119141 8.34057617 -9.3515625 8.29296875 C-10.20234375 8.28330078 -11.053125 8.27363281 -11.9296875 8.26367188 C-12.81914062 8.23853516 -13.70859375 8.21339844 -14.625 8.1875 C-15.5221875 8.17396484 -16.419375 8.16042969 -17.34375 8.14648438 C-19.56309789 8.11106925 -21.78125188 8.06168461 -24 8 C-17.75095067 1.39617624 -8.8039133 -0.73365944 0 0 Z " fill="#97D6ED" transform="translate(209,160)"/>
<path d="M0 0 C-0.94983358 1.50539661 -1.91011891 3.00420347 -2.875 4.5 C-3.40867188 5.3353125 -3.94234375 6.170625 -4.4921875 7.03125 C-4.98976562 7.6809375 -5.48734375 8.330625 -6 9 C-6.66 9 -7.32 9 -8 9 C-7.5129959 2.54719562 -7.5129959 2.54719562 -5.125 0 C-3 -1 -3 -1 0 0 Z " fill="#94D5EB" transform="translate(232,129)"/>
</svg>
