<?xml version="1.0" encoding="UTF-8"?>
<svg version="1.1" xmlns="http://www.w3.org/2000/svg" width="512" height="512">
<path d="M0 0 C11.26989504 10.20183309 20.03142079 19.62866646 21.04296875 35.56054688 C20.6566284 46.59271018 16.59555372 56.42782709 8.48046875 64.06054688 C-1.09025801 71.94992974 -11.06358332 73.53929002 -23.20703125 72.62304688 C-34.19084726 70.18683927 -41.15051477 63.80871496 -48.79296875 55.98242188 C-52.99850834 51.87215341 -57.61179007 48.28343956 -62.20703125 44.62304688 C-62.96242188 43.98882812 -63.7178125 43.35460937 -64.49609375 42.70117188 C-114.78080787 0.88364329 -182.63368512 -17.1691241 -247.20703125 -11.68945312 C-304.37686247 -6.12540309 -363.21744605 18.95169634 -402.83203125 61.49804688 C-410.12554616 69.02418797 -419.44274097 72.71631892 -429.76953125 72.93554688 C-440.83923097 72.82071597 -449.21457955 69.27274236 -457.20703125 61.62304688 C-464.3477043 53.82611941 -467.66773084 44.63965669 -467.484375 34.02539062 C-465.39533029 15.93014416 -452.21092621 4.0596384 -438.83203125 -6.93945312 C-436.95777033 -8.41955617 -435.08272854 -9.89867078 -433.20703125 -11.37695312 C-432.14615002 -12.25962771 -431.08766739 -13.14519091 -430.03125 -14.03320312 C-413.54809678 -27.76094956 -395.31691919 -39.64172719 -376.20703125 -49.37695312 C-375.27842285 -49.85084473 -374.34981445 -50.32473633 -373.39306641 -50.81298828 C-278.63221143 -98.6929661 -165.95138928 -98.28483644 0 0 Z " fill="#66B9FF" transform="translate(479.20703125,149.376953125)"/>
<path d="M0 0 C0.78810562 -0.00979385 1.57621124 -0.01958771 2.38819885 -0.02967834 C20.08000688 -0.20422961 37.14121989 0.03280665 54.43359375 4.23828125 C55.33126465 4.45258789 56.22893555 4.66689453 57.15380859 4.88769531 C87.41897231 12.32808446 114.87260484 26.91829391 138.43359375 47.23828125 C139.31917969 47.97820312 140.20476562 48.718125 141.1171875 49.48046875 C149.8272635 56.96103923 156.71418677 65.34079129 157.78515625 77.09765625 C158.31688318 88.36083123 156.43460421 97.56802283 149.24609375 106.61328125 C142.39886503 113.78941616 133.42562344 118.37729969 123.47143555 118.6706543 C109.67320009 118.70336261 101.28968002 114.64819396 91.41796875 105.07421875 C69.08311543 83.50903203 38.41318226 73.50349924 7.80297852 73.765625 C-21.23021416 74.58742447 -48.98476571 85.30695646 -70.06152344 105.4855957 C-79.66307441 114.67436098 -89.2831386 119.62882847 -102.6640625 119.44921875 C-113.31797245 118.67491036 -121.56494009 113.60809564 -128.87890625 106.05078125 C-135.84824706 97.67644359 -137.42087161 88.71260335 -136.94921875 78.046875 C-135.63176141 64.93951883 -126.76815152 55.10462071 -117.00097656 46.92773438 C-112.92631515 43.60556904 -108.76553971 40.40103814 -104.56640625 37.23828125 C-103.73238281 36.60921875 -102.89835937 35.98015625 -102.0390625 35.33203125 C-72.91343713 14.22217628 -36.1726718 0.37527916 0 0 Z " fill="#56ADFF" transform="translate(245.56640625,199.76171875)"/>
<path d="M0 0 C11.1463269 10.47236295 18.42978448 22.80457448 19.2109375 38.328125 C19.24056765 39.8851892 19.25321865 41.44265723 19.25 43 C19.24838867 43.82411377 19.24677734 44.64822754 19.24511719 45.49731445 C19.10119304 52.74079128 17.64638796 59.03879919 14.875 65.75 C14.45927734 66.83087891 14.45927734 66.83087891 14.03515625 67.93359375 C8.11386981 81.49524979 -4.09178028 91.18645451 -17.45703125 96.78515625 C-32.25615004 102.13710697 -48.28279473 100.91545028 -62.48779297 94.44238281 C-77.1330207 87.38038111 -86.53277819 75.95581659 -92.125 60.75 C-93.87634371 54.86524018 -94.48090355 49.56422115 -94.4375 43.4375 C-94.43186035 42.60081787 -94.4262207 41.76413574 -94.42041016 40.90209961 C-94.13451468 26.29736986 -88.61186954 13.5623858 -78.47265625 3 C-56.53214931 -18.02784026 -23.39897882 -20.26266992 0 0 Z " fill="#449EFF" transform="translate(294.125,349.25)"/>
</svg>
